<svg width="240" height="240" viewBox="0 0 240 240" fill="none" xmlns="http://www.w3.org/2000/svg">
<g clip-path="url(#clip0_3721_8976)">
<rect width="240" height="240" rx="60" fill="#F3B96B"/>
<path d="M133.272 89.6318C133.187 89.1981 134.345 88.6344 136.389 88.1147C138.178 87.6601 140.147 87.143 140.765 86.9659C141.609 86.7243 142.274 87.2385 143.426 89.0204C144.271 90.3281 146.655 93.0323 148.724 95.0301C150.793 97.0279 153.461 99.7984 154.654 101.187C156.706 103.576 156.856 103.644 157.439 102.453C157.778 101.76 158.467 99.7737 158.969 98.039C159.472 96.3043 160.849 92.2211 162.029 88.9647L164.174 83.0444L168.969 82.1426C172.142 81.5458 173.805 81.4603 173.886 81.8894C174.093 82.9931 171.951 89.7651 168.41 99.2007C163.407 112.535 163.616 110.469 166.142 121.505L168.34 131.111L166.458 131.846C165.423 132.25 163.156 132.62 161.421 132.668L158.266 132.754L156.193 123.308C154.406 115.165 153.915 113.637 152.629 112.235C151.809 111.341 148.054 107.315 144.285 103.288C137.739 96.2969 133.565 91.1203 133.272 89.6318Z" fill="black"/>
<path d="M121.329 117.494C118.965 104.899 117.076 93.9829 117.132 93.2342C117.226 91.9717 117.553 91.813 121.658 91.0409L126.083 90.2087L130.801 113.042C134.104 129.032 135.424 136.404 135.206 137.64C134.908 139.321 134.765 139.411 132.184 139.537C130.694 139.61 128.609 139.832 127.551 140.031L125.628 140.393L121.329 117.494Z" fill="black"/>
<path fill-rule="evenodd" clip-rule="evenodd" d="M71.7 100.269L70.1622 100.807L74.8042 123.601C77.3576 136.138 79.6298 146.737 79.8531 147.156C80.1906 147.788 81.8301 147.553 89.542 145.771C94.9458 144.522 99.9247 143.053 101.457 142.255C106.825 139.46 111.466 132.483 113.02 124.872C113.684 121.618 113.67 119.885 112.943 115.884C112.126 111.383 111.797 110.597 109.353 107.315C106.172 103.045 100.385 98.8495 96.1801 97.7664C94.5832 97.3546 91.5941 97.0586 89.5375 97.1078C85.9406 97.1944 74.8836 99.1536 71.7 100.269ZM103.716 121.685C103.863 112.541 97.4947 106.284 88.8201 107.05C86.9058 107.219 84.6107 107.38 83.7191 107.407C82.8277 107.435 82.0766 107.522 82.0488 107.601C82.0216 107.68 83.1321 114.211 84.5166 122.114L87.0339 136.485L90.7953 135.398C96.9146 133.631 98.6692 132.502 101.278 128.655C103.292 125.685 103.669 124.606 103.716 121.685Z" fill="black"/>
<path d="M87.6499 174.268L86.245 166.798L84.8401 159.328L89.7748 158.4C94.9163 157.433 95.1776 157.492 94.8133 159.524C94.7097 160.101 94.032 160.412 92.0689 160.781C88.5464 161.444 88.0904 161.792 88.4247 163.57L88.7034 165.051L91.4224 164.743C94.5229 164.39 94.8407 164.502 94.6763 165.88C94.5735 166.741 94.1963 166.943 91.8676 167.381L89.1777 167.887L89.5953 169.332L90.0124 170.777L93.2898 170.298L96.5673 169.82L96.874 171.451L97.1807 173.081L93.6935 173.434C91.7754 173.628 89.631 173.895 88.928 174.027L87.6499 174.268Z" fill="black"/>
<path d="M122.384 167.774C122.264 167.689 121.538 164.293 120.773 160.226L119.383 152.832L124.093 151.946L128.803 151.06L129.101 152.644L129.399 154.229L126.035 154.862L122.67 155.494L123.011 157.305L123.352 159.116L126.492 158.525C129.518 157.956 129.64 157.975 129.839 159.034C130.027 160.037 129.823 160.202 127.521 160.91C124.08 161.969 123.834 162.146 124.22 163.287C124.528 164.199 124.823 164.241 127.832 163.801L131.11 163.323L131.356 164.631L131.602 165.939L127.103 166.934C124.629 167.48 122.506 167.859 122.384 167.774Z" fill="black"/>
<path d="M161.735 160.693L160.298 153.05L158.86 145.407L163.599 144.516L168.338 143.624L168.474 145.122L168.61 146.62L165.357 147.231L162.105 147.843L162.467 149.767L162.829 151.691L165.745 151.143C168.518 150.621 168.671 150.647 168.864 151.673C169.089 152.872 168.224 153.472 165.517 153.991C164.446 154.197 163.837 154.569 163.747 155.072C163.412 156.935 163.765 157.095 167.121 156.605L170.398 156.127L170.815 157.569L171.231 159.012L166.483 159.853L161.735 160.693Z" fill="black"/>
<path d="M98.5058 167.774C98.2297 167.666 97.8668 166.851 97.6996 165.962L97.3957 164.346L101.024 163.881C103.02 163.625 104.802 163.518 104.984 163.643C105.165 163.768 105.284 164.386 105.248 165.016C105.188 166.047 104.874 166.251 102.095 167.065C100.397 167.563 98.782 167.882 98.5058 167.774Z" fill="black"/>
<path d="M108.459 187.931L107.302 183.579L106.146 179.226L107.53 178.966L108.914 178.705L109.836 184.977C110.342 188.427 110.751 191.732 110.743 192.323C110.731 193.282 110.624 193.349 109.75 192.95C109.212 192.703 107.342 191.146 105.594 189.49C103.846 187.834 102.252 186.63 102.05 186.815C101.849 187 101.989 188.769 102.361 190.746C102.974 194.003 102.955 194.356 102.166 194.505C101.687 194.595 101.11 194.463 100.882 194.212C100.655 193.96 99.8953 190.939 99.1942 187.498C98.0762 182.011 98.0085 181.226 98.6417 181.113C99.6489 180.934 100.424 181.307 101.89 182.675C102.586 183.324 104.349 184.773 105.807 185.893L108.459 187.931Z" fill="black"/>
<path d="M123.479 177.079C123.421 176.77 123.912 176.328 124.571 176.096C126.555 175.4 131.226 174.489 132.039 174.64C132.804 174.782 133.308 176.242 133.063 177.605C132.968 178.139 132.506 178.346 131.35 178.373L129.767 178.41L130.8 183.902C131.759 189 131.772 189.405 130.979 189.554C130.21 189.699 130.005 189.235 128.923 184.902C127.622 179.694 127.2 178.865 125.857 178.878C124.884 178.887 123.642 177.948 123.479 177.079Z" fill="black"/>
<path d="M187.081 169.628C187.29 169.589 188.568 168.083 189.92 166.282C192.322 163.084 193.591 162.137 193.823 163.369C193.963 164.116 192.38 167.523 191.065 169.301L190.099 170.607L193.323 172.995C196.966 175.692 197.638 177.017 195.562 177.408C194.495 177.608 193.783 177.248 191.847 175.528C190.529 174.358 189.208 173.447 188.912 173.502C188.608 173.56 188.425 174.565 188.492 175.808C188.688 179.433 188.42 179.931 186.855 178.852C186.057 178.301 183.18 167.315 183.445 165.833C183.522 165.403 183.999 165.063 184.558 165.039C185.391 165.003 185.622 165.345 186.119 167.349C186.439 168.641 186.873 169.668 187.081 169.628Z" fill="black"/>
<path d="M135.884 181.795C135.081 177.928 134.477 174.686 134.542 174.59C134.823 174.179 142.891 173.23 143.36 173.554C143.644 173.75 143.822 174.363 143.756 174.917C143.649 175.813 143.292 175.989 140.526 176.51C137.274 177.121 137.169 177.236 138.103 179.192C138.516 180.056 138.847 180.106 141.205 179.663C143.701 179.193 143.855 179.226 144.051 180.268C144.272 181.444 143.967 181.687 140.897 182.779C139.297 183.348 139.069 183.585 139.343 184.394C139.63 185.243 139.986 185.297 142.717 184.907C145.767 184.472 145.771 184.473 146.022 185.809L146.274 187.147L141.81 187.986L137.345 188.826L135.884 181.795Z" fill="black"/>
<path d="M104.369 213.182C99.7442 209.865 99.7446 203.768 104.37 200.195C106.399 198.627 107.546 198.406 109.935 199.117C111.924 199.71 112.702 200.499 112.486 201.704C112.318 202.641 111.193 202.84 109.242 202.278C107.805 201.864 107.574 201.916 106.166 202.973C103.202 205.199 103.321 209.094 106.408 210.933C107.994 211.877 109.516 211.687 111.241 210.33C112.206 209.57 112.753 209.411 113.642 209.633C114.274 209.792 114.831 210.125 114.878 210.374C115.006 211.056 113.278 212.568 111.029 213.741C108.544 215.037 106.746 214.886 104.369 213.182Z" fill="black"/>
<path d="M132.391 205.89C131.812 203.786 131.178 200.425 130.98 198.421C130.671 195.294 130.738 194.756 131.453 194.621C132.559 194.413 134.158 195.638 136.482 198.474C137.532 199.756 138.492 200.784 138.615 200.759C138.738 200.734 139.25 199.564 139.752 198.159C140.743 195.388 142.727 192.501 143.776 192.303C144.327 192.2 144.661 193.39 145.838 199.65L147.243 207.119L146.154 207.324C145.014 207.538 144.659 206.795 143.224 201.195L142.794 199.517L141.358 202.366C140.569 203.933 139.624 205.271 139.259 205.34C138.894 205.408 138.134 204.866 137.571 204.134C137.007 203.402 136.08 202.388 135.51 201.88C134.477 200.962 134.476 200.977 135.25 205.093L136.028 209.229L134.735 209.472L133.443 209.715L132.391 205.89Z" fill="black"/>
<path fill-rule="evenodd" clip-rule="evenodd" d="M164.106 190.238C160.991 193.597 160.657 196.251 162.974 199.246C164.965 201.821 167.691 203.273 169.792 202.878C173.404 202.199 176.03 198.981 176.159 195.074C176.244 192.504 174.352 189.834 171.471 188.459C168.545 187.062 166.619 187.527 164.106 190.238ZM172.743 195.252C172.598 193.303 172.46 193.088 170.681 192.023C169.632 191.396 168.428 190.949 168.005 191.029C166.897 191.24 164.763 193.296 164.382 194.519C163.67 196.809 167.339 200.527 169.845 200.056C171.649 199.717 172.92 197.611 172.743 195.252Z" fill="black"/>
<path fill-rule="evenodd" clip-rule="evenodd" d="M118.71 197.413C118.056 198.01 116.906 199.517 116.155 200.763C114.826 202.964 114.808 203.105 115.5 205.826C116.392 209.336 118.227 211.183 121.402 211.767C123.433 212.141 123.693 212.094 125.371 211.056C126.359 210.446 127.714 209.11 128.382 208.088C129.426 206.493 129.554 205.842 129.285 203.497C128.91 200.238 127.537 198.419 124.278 196.863C121.914 195.735 120.386 195.886 118.71 197.413ZM126.442 205.017C126.705 202.47 125.94 200.978 123.989 200.231C121.666 199.341 120.171 199.773 118.858 201.713C117.276 204.052 117.717 206.126 120.155 207.808C122.173 209.201 122.796 209.207 124.84 207.854C125.925 207.135 126.291 206.487 126.442 205.017Z" fill="black"/>
<path fill-rule="evenodd" clip-rule="evenodd" d="M113.858 178.758C112.668 180.13 111.772 182.93 111.79 185.217C111.822 189.274 117.386 192.883 120.737 191.019C122.487 190.047 124.247 187.055 124.502 184.622C124.744 182.309 123.709 180.477 121 178.424C119.123 177.001 118.676 176.869 116.884 177.206C115.523 177.462 114.546 177.963 113.858 178.758ZM121.593 184.341C121.289 182.722 120.138 180.733 119.313 180.399C117.947 179.846 115.867 180.671 115.158 182.047C113.626 185.016 115.976 189.095 118.9 188.545C120.49 188.246 121.911 186.028 121.593 184.341Z" fill="black"/>
<path fill-rule="evenodd" clip-rule="evenodd" d="M160.866 169.857C159.748 170.579 158.137 173.476 157.7 175.548C157.401 176.967 157.501 177.438 158.473 179.202C160.727 183.291 165.252 184.399 168.318 181.613C171.069 179.114 170.938 174.095 168.046 171.216C167.197 170.371 166.037 169.466 165.468 169.205C164.334 168.686 162.214 168.986 160.866 169.857ZM166.893 178.789C168.233 177.406 167.159 173.541 165.2 172.696C163.978 172.169 162.192 172.929 161.304 174.355C160.153 176.203 160.399 177.481 162.193 178.96C163.797 180.285 165.505 180.222 166.893 178.789Z" fill="black"/>
<path fill-rule="evenodd" clip-rule="evenodd" d="M172.341 169.277L170.305 172.287L171.03 175.041C171.712 177.634 171.898 177.888 174.198 179.381C177.671 181.634 179.248 181.286 181.652 177.734C183.848 174.489 183.974 172.617 182.17 170.014C180.522 167.636 178.177 166.178 176.078 166.227C174.488 166.265 174.247 166.462 172.341 169.277ZM180.455 174.883C181.113 173.283 180.523 171.888 178.637 170.587C176.868 169.366 175.323 169.624 174.166 171.333C172.624 173.612 173.761 176.675 176.354 177.227C178.097 177.599 179.72 176.671 180.455 174.883Z" fill="black"/>
<path fill-rule="evenodd" clip-rule="evenodd" d="M146.401 155.718L147.848 163.414L150.778 162.863C152.39 162.56 154.31 161.914 155.045 161.428C156.636 160.374 158.616 157.161 158.714 155.475C158.836 153.38 157.681 150.755 155.994 149.289C153.661 147.261 151.564 146.78 147.982 147.454L144.953 148.022L146.401 155.718ZM155.391 155.138C155.386 152.803 154.577 151.449 152.771 150.758C151.883 150.418 150.401 150.282 149.475 150.455L147.792 150.769L148.458 154.277C148.824 156.206 149.343 158.242 149.61 158.802C150.056 159.737 150.256 159.765 152.075 159.156C154.467 158.354 155.395 157.23 155.391 155.138Z" fill="black"/>
<path fill-rule="evenodd" clip-rule="evenodd" d="M172.127 149.639C172.823 153.541 173.42 156.994 173.454 157.309C173.488 157.634 174.16 157.826 175 157.751L176.485 157.619L176.058 155.353C175.824 154.108 175.819 152.917 176.046 152.708C176.694 152.112 178.709 153.176 180.688 155.16C182.277 156.752 182.637 156.91 183.628 156.451C184.249 156.163 184.826 155.826 184.91 155.702C184.994 155.578 184.254 154.697 183.266 153.746C182.278 152.794 181.434 151.833 181.392 151.609C181.35 151.385 181.811 150.502 182.417 149.648C183.734 147.788 183.547 146.013 181.833 144.119C180.015 142.11 178.525 141.709 174.497 142.147L170.862 142.542L172.127 149.639ZM177.085 149.385C179.888 149.069 181.133 146.524 179.055 145.358C178.627 145.118 177.336 144.989 176.187 145.073L174.097 145.225L174.653 147.411L175.208 149.597L177.085 149.385Z" fill="black"/>
<path fill-rule="evenodd" clip-rule="evenodd" d="M150.469 206.981L149.021 199.285L147.574 191.589L150.46 191.046C153.827 190.413 155.498 190.627 157.511 191.947C159.263 193.096 159.319 193.297 158.422 195.258L157.722 196.792L159.369 197.821C161.313 199.037 161.544 199.808 160.589 201.896C159.561 204.148 157.098 205.712 153.495 206.402L150.469 206.981ZM153.914 193.502C155.691 193.526 155.918 194.323 154.585 195.861C153.218 197.439 152.039 197.587 151.429 196.255C150.442 194.101 151.017 193.464 153.914 193.502ZM154.977 202.852C157.085 202.456 157.981 201.495 157.468 200.18C157.236 199.586 156.66 199.455 155.105 199.643C152.717 199.931 152.444 200.199 152.772 201.939C153 203.152 153.119 203.202 154.977 202.852Z" fill="black"/>
<path fill-rule="evenodd" clip-rule="evenodd" d="M148.085 186.902L146.703 179.553L145.321 172.203L148.729 171.788C152.463 171.333 153.729 171.762 155.2 173.981C155.901 175.038 155.952 175.439 155.536 176.6C155.071 177.9 155.108 178.018 156.231 178.846C157.836 180.028 157.988 181.35 156.756 183.41C155.767 185.065 155.573 185.17 151.905 186.018L148.085 186.902ZM153.243 180.154C153.613 180.303 153.939 180.924 153.967 181.534C154.01 182.446 153.725 182.724 152.363 183.1C150.8 183.531 150.694 183.484 150.461 182.247C150.326 181.526 150.324 180.776 150.457 180.579C150.795 180.079 152.437 179.829 153.243 180.154ZM150.966 177.358C152.692 177.034 152.77 176.949 152.414 175.797C152.088 174.739 151.813 174.602 150.329 174.755C148.696 174.923 148.632 174.992 148.881 176.316C149.129 177.634 149.23 177.685 150.966 177.358Z" fill="black"/>
<path fill-rule="evenodd" clip-rule="evenodd" d="M107.277 162.553L108.715 170.197L109.866 170.202C111.391 170.209 111.468 170.02 110.986 167.457C110.605 165.432 110.657 165.253 111.682 165.061C112.5 164.907 113.404 165.417 115.15 167.02C117.02 168.736 117.695 169.098 118.395 168.759C118.881 168.524 119.43 168.301 119.614 168.262C120.34 168.112 119.673 167.135 117.708 165.471L115.652 163.729L117.055 161.999C118.895 159.734 118.63 158.044 116.071 155.718C114.027 153.861 113.061 153.694 108.653 154.436L105.839 154.91L107.277 162.553ZM114.406 160.782C115.333 160.031 115.105 158.208 114.007 157.592C113.579 157.352 112.3 157.223 111.166 157.305L109.105 157.455L109.542 159.778L109.979 162.1L111.803 161.757C112.806 161.568 113.977 161.129 114.406 160.782Z" fill="black"/>
<path fill-rule="evenodd" clip-rule="evenodd" d="M82.2397 190.154C81.2622 188.755 81.6367 186.64 83.2056 184.703C84.6381 182.935 86.1967 182.663 87.8419 183.892C89.9839 185.494 90.1696 186.313 88.9772 188.896C87.9438 191.134 87.9392 191.248 88.8597 191.692C89.7129 192.104 89.8598 192.021 90.1858 190.939C90.6001 189.566 92.0589 188.577 92.8574 189.128C93.2086 189.371 93.2065 190.278 92.8516 191.814C92.2077 194.599 92.3783 196.096 93.2762 195.539C93.693 195.28 93.9527 195.431 94.0586 195.994C94.2765 197.153 93.1776 197.723 92.1267 196.998C91.4008 196.497 91.0405 196.53 89.9119 197.2C86.9701 198.947 83.8159 198.611 82.0194 196.36C81.2483 195.393 81.4897 192.518 82.4067 191.746C82.8971 191.333 82.8675 191.052 82.2397 190.154ZM86.6955 186.48C86.8719 187.418 85.8729 189.132 85.0609 189.285C84.2342 189.441 84.0016 187.841 84.7001 186.808C85.4492 185.702 86.5161 185.526 86.6955 186.48ZM86.686 195.073C88.1812 194.792 88.2419 194.702 87.9581 193.193C87.6365 191.483 87.5751 191.463 85.8524 192.493C85.0325 192.984 84.7631 193.493 84.9101 194.274C85.0885 195.223 85.3249 195.329 86.686 195.073Z" fill="black"/>
<path fill-rule="evenodd" clip-rule="evenodd" d="M134.594 155.917C133.955 159.313 133.341 162.89 133.229 163.866C133.031 165.584 133.064 165.641 134.258 165.647C135.819 165.654 136.136 165.352 135.898 164.087C135.604 162.523 136.372 161.823 138.903 161.347C141.387 160.88 142.049 161.161 142.917 163.056C143.322 163.94 143.735 164.188 144.546 164.035C145.144 163.923 145.685 163.539 145.749 163.183C145.854 162.602 140.313 153.235 138.349 150.671C137.917 150.107 137.157 149.668 136.66 149.695C135.899 149.736 135.571 150.725 134.594 155.917ZM137.036 158.918C137.606 159.548 140.027 158.876 139.887 158.127C139.817 157.759 139.278 156.917 138.687 156.254L137.612 155.049L137.155 156.797C136.904 157.759 136.85 158.713 137.036 158.918Z" fill="black"/>
<path d="M221.996 48.4299C221.679 48.305 221.705 47.7122 222.052 47.1132C222.991 45.4941 223.745 45.5714 223.117 47.2228C222.817 48.0124 222.313 48.5556 221.996 48.4299Z" fill="black"/>
<path d="M224.565 50.4378C224.186 50.5092 223.819 50.2683 223.75 49.9026C223.682 49.5368 223.754 49.2133 223.913 49.1835C224.071 49.1538 224.437 49.3947 224.728 49.7188C225.018 50.0429 224.945 50.3665 224.565 50.4378Z" fill="black"/>
<path d="M221.411 57.7031C221.173 57.5372 221.111 57.0455 221.274 56.6113C221.653 55.5994 223.407 55.251 223.577 56.1534C223.727 56.9501 222.049 58.1497 221.411 57.7031Z" fill="black"/>
<path d="M225.512 66.4406C225.196 66.7341 224.878 66.6569 224.805 66.2698C224.732 65.8828 224.966 65.5104 225.324 65.443C225.682 65.3756 226 65.4522 226.031 65.6138C226.061 65.7754 225.828 66.1471 225.512 66.4406Z" fill="black"/>
<path d="M227.089 67.8653C226.71 67.9366 226.524 67.6617 226.677 67.2543C226.829 66.8469 227.083 66.4893 227.241 66.4595C227.4 66.4297 227.585 66.7047 227.654 67.0705C227.723 67.4363 227.468 67.794 227.089 67.8653Z" fill="black"/>
<path d="M226.52 84.9552C226.234 84.7562 226.252 83.7717 226.559 82.7671C226.866 81.7633 227.362 80.8963 227.66 80.8403C228.579 80.6672 228.476 81.8945 227.519 82.493C227.021 82.8042 226.709 83.5673 226.826 84.1884C226.943 84.8095 226.805 85.155 226.52 84.9552Z" fill="black"/>
<path d="M228.491 86.4656C228.157 86.3335 227.831 85.9438 227.766 85.5994C227.701 85.2549 227.893 84.9277 228.191 84.8715C228.49 84.8153 228.816 85.2049 228.916 85.7376C229.017 86.2703 228.825 86.5975 228.491 86.4656Z" fill="black"/>
<path d="M227.46 89.1403C227.302 89.1701 226.935 88.9291 226.645 88.605C226.355 88.2809 226.428 87.9573 226.807 87.886C227.186 87.8147 227.553 88.0555 227.622 88.4212C227.691 88.787 227.618 89.1105 227.46 89.1403Z" fill="black"/>
<path d="M229.097 90.1991C228.63 90.2802 228.661 90.0036 229.175 89.5062C230.272 88.4449 230.497 88.4025 230.153 89.3224C230 89.7298 229.525 90.1242 229.097 90.1991Z" fill="black"/>
<path d="M227.343 92.8157C226.857 93.5434 225.68 92.9426 225.987 92.1241C226.129 91.7448 226.521 91.3826 226.858 91.3191C227.558 91.1874 227.843 92.0668 227.343 92.8157Z" fill="black"/>
<path d="M228.163 96.595C227.53 96.2355 226.992 95.828 226.966 95.6904C226.826 94.9449 228.172 95.3685 228.698 96.2343C229.213 97.0828 229.125 97.142 228.163 96.595Z" fill="black"/>
<path d="M230.847 98.3955C230.776 98.0171 230.876 97.4716 231.069 97.1832C231.262 96.8943 231.6 96.7838 231.821 96.9385C232.042 97.0926 231.942 97.6381 231.599 98.1508C231.222 98.7154 230.926 98.8118 230.847 98.3955Z" fill="black"/>
<path d="M228.407 99.9788C228.028 100.05 227.842 99.7753 227.995 99.3678C228.147 98.9604 228.401 98.6028 228.56 98.5731C228.718 98.5433 228.903 98.8183 228.972 99.184C229.041 99.5498 228.786 99.9075 228.407 99.9788Z" fill="black"/>
<path d="M231.286 111.487C230.97 111.78 230.652 111.703 230.579 111.316C230.506 110.929 230.74 110.557 231.098 110.489C231.457 110.422 231.775 110.498 231.805 110.66C231.835 110.822 231.602 111.193 231.286 111.487Z" fill="black"/>
<path d="M231.535 119.542C231.014 120.315 230.926 120.252 231.101 119.238C231.222 118.536 231.517 118.099 231.756 118.266C231.995 118.432 231.896 119.007 231.535 119.542Z" fill="black"/>
<path d="M232.008 122.712C231.629 122.783 231.443 122.508 231.596 122.101C231.749 121.694 232.002 121.336 232.161 121.306C232.319 121.276 232.504 121.551 232.573 121.917C232.642 122.283 232.387 122.641 232.008 122.712Z" fill="black"/>
<path d="M233.759 132.022C233.38 132.094 233.194 131.819 233.347 131.411C233.5 131.004 233.753 130.646 233.912 130.616C234.07 130.587 234.255 130.862 234.324 131.227C234.393 131.593 234.138 131.951 233.759 132.022Z" fill="black"/>
<path d="M234.715 138.684C234.356 138.751 234.55 138.26 235.144 137.592C235.739 136.925 236.518 136.323 236.877 136.256C237.235 136.188 237.042 136.68 236.447 137.347C235.853 138.015 235.073 138.616 234.715 138.684Z" fill="black"/>
<path d="M237.091 140.347C236.933 140.376 236.566 140.135 236.276 139.811C235.986 139.487 236.059 139.164 236.438 139.092C236.817 139.021 237.184 139.262 237.253 139.628C237.322 139.993 237.249 140.317 237.091 140.347Z" fill="black"/>
<path d="M236.388 142.2C236.072 142.494 235.754 142.416 235.681 142.029C235.609 141.642 235.842 141.27 236.2 141.203C236.559 141.135 236.877 141.212 236.907 141.373C236.937 141.535 236.704 141.907 236.388 142.2Z" fill="black"/>
<path d="M237.162 146.53C236.783 146.601 236.597 146.326 236.75 145.919C236.903 145.512 237.157 145.154 237.315 145.124C237.473 145.094 237.659 145.369 237.727 145.735C237.796 146.101 237.542 146.459 237.162 146.53Z" fill="black"/>
<path d="M237.139 149.267C236.227 149.42 236.228 149.263 237.145 148.233C238.496 146.715 238.634 146.692 238.401 148.018C238.298 148.606 237.73 149.168 237.139 149.267Z" fill="black"/>
<path d="M238.562 150.682C238.247 150.557 238.391 149.821 238.88 149.045C240.055 147.185 241.03 147.535 239.962 149.434C239.507 150.245 238.877 150.806 238.562 150.682Z" fill="black"/>
<path d="M242.149 151.101C241.77 151.172 241.403 150.931 241.334 150.565C241.265 150.199 241.338 149.876 241.496 149.846C241.654 149.816 242.021 150.057 242.311 150.381C242.601 150.706 242.528 151.029 242.149 151.101Z" fill="black"/>
<path d="M238.389 152.84C238.073 153.134 237.755 153.057 237.683 152.67C237.61 152.283 237.843 151.91 238.202 151.843C238.56 151.776 238.878 151.852 238.908 152.014C238.939 152.175 238.705 152.547 238.389 152.84Z" fill="black"/>
<path d="M242.937 153.707C242.399 153.808 241.912 153.641 241.855 153.336C241.798 153.031 242.191 152.699 242.728 152.598C243.266 152.497 243.752 152.664 243.81 152.969C243.867 153.273 243.474 153.605 242.937 153.707Z" fill="black"/>
<path d="M239.202 157.163C238.844 157.23 238.494 156.986 238.426 156.621C238.357 156.255 238.594 155.9 238.952 155.833C239.31 155.766 239.66 156.01 239.729 156.376C239.797 156.741 239.56 157.096 239.202 157.163Z" fill="black"/>
<path d="M239.056 161.322C238.721 161.385 238.866 160.738 239.377 159.884C239.887 159.031 240.551 158.287 240.85 158.23C241.15 158.174 241.005 158.821 240.529 159.668C240.052 160.515 239.39 161.259 239.056 161.322Z" fill="black"/>
<path d="M241.267 170.094C240.711 169.989 240.368 169.605 240.506 169.239C240.849 168.321 241.102 168.352 241.733 169.39C242.095 169.988 241.94 170.222 241.267 170.094Z" fill="black"/>
<path d="M242.604 173.485C243.199 173.599 243.733 173.193 243.848 172.542C243.958 171.914 244.31 171.35 244.63 171.29C245.474 171.131 245.441 171.639 244.501 173.312C243.708 174.724 241.896 175.075 241.668 173.861C241.609 173.546 242.03 173.377 242.604 173.485Z" fill="black"/>
<path d="M243.601 176.071C243.189 176.34 242.456 176.478 241.973 176.377C241.491 176.277 241.828 176.057 242.724 175.889C243.62 175.72 244.015 175.802 243.601 176.071Z" fill="black"/>
<path d="M245.503 177.452C245.394 178.021 245.21 177.893 245.033 177.124C244.873 176.428 244.953 176.007 245.211 176.187C245.469 176.367 245.6 176.937 245.503 177.452Z" fill="black"/>
<path d="M245.844 186.199C244.657 186.414 244.54 186.306 245.232 185.636C246.339 184.565 247.03 184.435 247.186 185.269C247.255 185.634 246.651 186.053 245.844 186.199Z" fill="black"/>
<path d="M247.525 188.648C247.366 188.678 247 188.437 246.71 188.113C246.419 187.788 246.493 187.465 246.872 187.393C247.251 187.322 247.618 187.563 247.687 187.929C247.756 188.295 247.683 188.618 247.525 188.648Z" fill="black"/>
<path d="M249.29 192.757C249.138 192.009 248.594 191.104 248.082 190.746C247.569 190.388 247.376 190.053 247.652 190.001C247.929 189.949 248.675 190.269 249.309 190.712C250.16 191.307 250.345 191.86 250.015 192.817C249.603 194.01 249.543 194.006 249.29 192.757Z" fill="black"/>
<path d="M248.711 194.349C248.537 194.61 247.979 194.74 247.473 194.636C246.913 194.522 247.038 194.335 247.791 194.16C248.472 194.003 248.886 194.087 248.711 194.349Z" fill="black"/>
<path d="M246.25 197.287C245.699 197.966 245.582 197.9 245.739 196.999C245.99 195.568 246.981 195.358 248.89 196.331C250.468 197.135 249.774 197.552 248.037 196.843C247.356 196.565 246.705 196.726 246.25 197.287Z" fill="black"/>
<path d="M247.734 198.937C247.375 199.004 247.026 198.76 246.957 198.394C246.888 198.028 247.125 197.674 247.483 197.607C247.842 197.539 248.191 197.783 248.26 198.149C248.329 198.515 248.092 198.869 247.734 198.937Z" fill="black"/>
<path d="M250.527 199.444C250.211 199.738 249.893 199.66 249.82 199.273C249.748 198.886 249.981 198.514 250.34 198.446C250.698 198.379 251.016 198.456 251.046 198.617C251.077 198.779 250.843 199.151 250.527 199.444Z" fill="black"/>
<path d="M247.642 201.195C246.804 201.202 246.233 200.898 246.375 200.52C246.689 199.682 247.242 199.563 248.475 200.067C249.859 200.635 249.219 202.795 247.592 203.051C246.284 203.256 246.29 203.2 247.678 202.227L249.168 201.182L247.642 201.195Z" fill="black"/>
<path d="M247.843 205.113C247.285 205.218 246.959 204.954 247.119 204.527C247.316 204.001 247.772 203.956 248.533 204.389C249.433 204.901 249.739 204.816 250.069 203.962C250.296 203.375 250.546 203.216 250.626 203.609C250.705 204.001 250.169 205.163 249.435 206.191C248.701 207.218 248.034 207.707 247.953 207.278C247.872 206.848 248.1 206.442 248.458 206.374C248.816 206.307 249.053 205.953 248.984 205.587C248.915 205.221 248.402 205.008 247.843 205.113Z" fill="black"/>
<path d="M250.021 211.1C249.34 211.425 248.733 211.421 248.67 211.089C248.608 210.758 249.143 210.377 249.86 210.242C250.576 210.107 251.184 210.112 251.211 210.252C251.237 210.392 250.702 210.773 250.021 211.1Z" fill="black"/>
<path d="M252.353 212.527C251.974 212.598 251.607 212.358 251.538 211.992C251.469 211.626 251.542 211.303 251.7 211.273C251.859 211.243 252.225 211.484 252.515 211.808C252.806 212.132 252.732 212.456 252.353 212.527Z" fill="black"/>
<path d="M252.206 215.086C252.011 214.779 252.204 214.192 252.636 213.782C253.974 212.511 254.439 212.763 253.478 214.238C252.975 215.011 252.402 215.393 252.206 215.086Z" fill="black"/>
<path d="M252.502 218.696C251.985 218.793 251.376 218.664 251.148 218.41C250.92 218.155 251.298 217.841 251.988 217.711C252.679 217.581 253.288 217.71 253.342 217.997C253.396 218.284 253.018 218.599 252.502 218.696Z" fill="black"/>
<path d="M253.801 228.366C253.061 229.578 252.432 229.538 252.893 228.308C253.055 227.874 253.476 227.464 253.827 227.398C254.179 227.332 254.167 227.768 253.801 228.366Z" fill="black"/>
<path d="M254.441 235.497C253.034 235.715 253.021 235.688 254.162 234.909C254.819 234.459 255.426 234.058 255.511 234.015C255.597 233.972 255.722 234.237 255.791 234.602C255.859 234.968 255.252 235.37 254.441 235.497Z" fill="black"/>
<path d="M255.826 243.547C255.268 243.652 254.754 243.439 254.686 243.073C254.617 242.707 254.836 242.356 255.174 242.293C255.511 242.229 256.024 242.442 256.314 242.766C256.605 243.091 256.385 243.442 255.826 243.547Z" fill="black"/>
<path d="M258.068 243.125C257.71 243.193 257.36 242.948 257.292 242.583C257.223 242.217 257.46 241.863 257.818 241.795C258.176 241.728 258.526 241.972 258.595 242.338C258.663 242.703 258.426 243.058 258.068 243.125Z" fill="black"/>
<path d="M258.385 245.949C258.277 246.518 258.093 246.39 257.916 245.621C257.756 244.925 257.836 244.504 258.094 244.684C258.352 244.864 258.483 245.434 258.385 245.949Z" fill="black"/>
<path d="M259.557 247.665C259.178 247.736 258.992 247.461 259.144 247.054C259.297 246.647 259.551 246.289 259.709 246.259C259.868 246.229 260.053 246.504 260.122 246.87C260.19 247.236 259.936 247.594 259.557 247.665Z" fill="black"/>
<path d="M261.172 249.843C260.998 250.104 260.44 250.234 259.934 250.13C259.374 250.016 259.499 249.829 260.252 249.654C260.933 249.496 261.347 249.581 261.172 249.843Z" fill="black"/>
<path d="M257.848 252.715C257.743 252.153 257.829 251.436 258.04 251.12C258.251 250.804 258.601 250.869 258.818 251.264C259.034 251.658 258.947 252.376 258.625 252.858C258.196 253.501 257.989 253.463 257.848 252.715Z" fill="black"/>
<path d="M260.257 254.763C259.941 255.056 259.623 254.979 259.55 254.592C259.478 254.205 259.711 253.833 260.069 253.765C260.428 253.698 260.746 253.775 260.776 253.936C260.806 254.098 260.573 254.469 260.257 254.763Z" fill="black"/>
<path d="M259.392 257.336C259.033 257.403 258.652 256.991 258.545 256.421C258.438 255.851 258.678 255.514 259.079 255.673C259.48 255.832 259.861 256.243 259.926 256.587C259.99 256.932 259.75 257.268 259.392 257.336Z" fill="black"/>
<path d="M261.719 262.537C261.884 263.412 260.3 263.143 259.788 262.21C259.538 261.753 259.809 261.549 260.489 261.678C261.098 261.794 261.652 262.18 261.719 262.537Z" fill="black"/>
<path d="M259.407 265.725C259.299 266.294 259.114 266.165 258.938 265.396C258.778 264.701 258.858 264.279 259.115 264.46C259.373 264.64 259.505 265.209 259.407 265.725Z" fill="black"/>
<path d="M262.157 265.078C261.778 265.149 261.592 264.874 261.745 264.467C261.898 264.06 262.151 263.702 262.31 263.672C262.468 263.642 262.653 263.917 262.722 264.283C262.791 264.649 262.536 265.007 262.157 265.078Z" fill="black"/>
<path d="M261.205 266.978C260.89 267.272 260.572 267.195 260.499 266.808C260.426 266.421 260.659 266.048 261.018 265.981C261.376 265.913 261.694 265.99 261.724 266.152C261.755 266.313 261.521 266.685 261.205 266.978Z" fill="black"/>
<path d="M264.163 268.144C263.783 268.215 263.416 267.974 263.348 267.608C263.279 267.242 263.351 266.919 263.51 266.889C263.668 266.859 264.034 267.1 264.325 267.424C264.615 267.749 264.542 268.072 264.163 268.144Z" fill="black"/>
<path d="M257.984 271.371C257.626 271.439 257.277 271.194 257.208 270.829C257.139 270.463 257.376 270.109 257.734 270.041C258.093 269.974 258.442 270.218 258.511 270.584C258.58 270.949 258.343 271.304 257.984 271.371Z" fill="black"/>
<path d="M261.855 270.643C261.476 270.715 261.29 270.44 261.442 270.032C261.595 269.625 261.849 269.267 262.007 269.237C262.166 269.208 262.351 269.483 262.42 269.848C262.489 270.214 262.234 270.572 261.855 270.643Z" fill="black"/>
<path d="M256.343 273.401C255.942 273.243 255.561 272.832 255.496 272.487C255.431 272.143 255.672 271.806 256.03 271.739C256.388 271.671 256.769 272.083 256.876 272.653C256.984 273.223 256.743 273.56 256.343 273.401Z" fill="black"/>
<path d="M263.455 273.682C263.162 274.145 261.735 273.379 261.605 272.688C261.537 272.329 261.965 272.344 262.555 272.722C263.145 273.1 263.55 273.532 263.455 273.682Z" fill="black"/>
<path d="M255.477 275.974C255.119 276.041 254.741 275.648 254.638 275.099C254.535 274.55 254.744 274.046 255.102 273.979C255.46 273.911 255.838 274.305 255.941 274.854C256.044 275.403 255.836 275.907 255.477 275.974Z" fill="black"/>
<path d="M259.197 275.637C258.452 274.847 257.812 274.041 257.775 273.845C257.595 272.89 259.005 273.415 259.592 274.522C259.959 275.216 260.5 275.56 260.793 275.288C261.086 275.015 261.382 275.092 261.451 275.458C261.722 276.899 260.483 276.998 259.197 275.637Z" fill="black"/>
<path d="M257.081 277.387C256.674 277.225 256.457 276.783 256.599 276.404C256.984 275.377 257.407 275.475 257.627 276.643C257.734 277.213 257.489 277.548 257.081 277.387Z" fill="black"/>
<path d="M76.1019 312.121C75.7861 312.414 75.4399 312.188 75.3327 311.618C75.2256 311.048 75.4309 310.526 75.7892 310.458C76.1476 310.391 76.4936 310.617 76.5584 310.962C76.6232 311.306 76.4177 311.827 76.1019 312.121Z" fill="black"/>
<path d="M158.608 298.987C159.07 299.502 159.636 299.128 160.614 297.665C161.364 296.543 162.471 295.532 163.074 295.419C163.963 295.252 163.926 295.577 162.876 297.147C161.06 299.864 158.692 301.249 157.536 300.271C156.865 299.703 156.804 299.348 157.299 298.888C157.665 298.547 158.254 298.592 158.608 298.987Z" fill="black"/>
<path d="M212.974 288.099C213.473 288.005 213.796 287.48 213.693 286.931C213.59 286.383 213.945 285.851 214.482 285.75C215.02 285.649 215.516 285.865 215.585 286.231C215.654 286.597 216.15 286.813 216.687 286.712C217.225 286.611 217.749 286.977 217.852 287.526C217.955 288.075 217.746 288.579 217.388 288.646C217.03 288.714 216.68 288.469 216.612 288.104C216.334 286.627 214.11 288.021 213.364 290.139C212.445 292.749 211.821 292.727 211.967 290.091C212.022 289.089 212.475 288.193 212.974 288.099Z" fill="black"/>
<path d="M259.811 279.29C259.188 278.936 258.625 278.362 258.559 278.015C258.494 277.668 258.965 277.75 259.606 278.197C260.246 278.645 260.809 279.219 260.857 279.473C260.905 279.727 260.434 279.645 259.811 279.29Z" fill="black"/>
<path d="M79.4986 313.715C79.1331 314.261 77.721 313.556 77.5699 312.753C77.4869 312.311 77.8703 312.292 78.5879 312.7C79.2209 313.06 79.6306 313.517 79.4986 313.715Z" fill="black"/>
<path d="M98.3851 310.34C97.1856 310.565 96.8542 309.506 97.9096 308.819C99.2174 307.969 99.6132 308.015 99.806 309.04C100.028 310.219 100.804 310.188 101.622 308.965C101.944 308.483 102.569 308.231 103.012 308.406C104.122 308.846 103.489 310.248 102.283 310.02C101.719 309.912 101.382 310.247 101.488 310.81C101.728 312.085 100.668 312.269 99.9454 311.079C99.6363 310.569 98.9343 310.236 98.3851 310.34Z" fill="black"/>
<path d="M248.371 281.442C247.992 281.513 247.806 281.238 247.959 280.831C248.112 280.423 248.366 280.066 248.524 280.036C248.682 280.006 248.867 280.281 248.936 280.647C249.005 281.013 248.751 281.37 248.371 281.442Z" fill="black"/>
<path d="M255.94 280.018C255.782 280.048 255.416 279.807 255.125 279.483C254.835 279.159 254.908 278.835 255.288 278.764C255.667 278.692 256.034 278.933 256.103 279.299C256.171 279.665 256.099 279.988 255.94 280.018Z" fill="black"/>
<path d="M85.0717 313.188C84.6709 313.029 84.2866 312.6 84.2178 312.235C84.149 311.869 84.4207 311.699 84.8215 311.858C85.2224 312.017 85.6066 312.446 85.6754 312.811C85.7442 313.177 85.4726 313.347 85.0717 313.188Z" fill="black"/>
<path d="M203.856 292.568C202.998 292.73 201.028 291.322 200.859 290.427C200.659 289.362 201.119 289.464 203.259 290.959C205.502 292.526 205.984 292.57 205.724 291.184C205.621 290.636 205.958 290.107 206.473 290.01C207.908 289.741 207.88 292.363 206.441 293.054C205.746 293.388 205.025 293.388 204.839 293.054C204.652 292.721 204.21 292.502 203.856 292.568Z" fill="black"/>
<path d="M228.087 286.568C227.76 286.202 227.847 285.566 228.281 285.154C229.434 284.058 230.019 284.071 230.23 285.198C230.334 285.747 230.858 286.113 231.395 286.012C231.933 285.911 232.429 286.127 232.498 286.493C232.661 287.362 230.9 287.684 230.209 286.912C229.914 286.583 229.45 286.52 229.178 286.773C228.905 287.026 228.415 286.934 228.087 286.568Z" fill="black"/>
<path d="M197.317 294.246C196.927 294.829 193.958 293.183 193.79 292.289C193.624 291.405 194.258 291.509 196.03 292.656C196.932 293.24 197.511 293.955 197.317 294.246Z" fill="black"/>
<path d="M81.4129 315.253C81.012 315.095 80.6278 314.666 80.559 314.3C80.4902 313.934 80.7619 313.765 81.1627 313.923C81.5636 314.082 81.9478 314.511 82.0166 314.877C82.0854 315.242 81.8137 315.412 81.4129 315.253Z" fill="black"/>
<path d="M131.612 306.136C131.177 305.661 130.775 305.049 130.718 304.775C130.526 303.856 131.952 304.016 132.537 304.979C133.328 306.283 132.59 307.207 131.612 306.136Z" fill="black"/>
<path d="M183.248 297.821C182.338 297.992 179.732 296.449 179.582 295.65C179.524 295.341 179.916 295.005 180.453 294.904C180.991 294.803 181.515 295.169 181.618 295.718C181.721 296.267 182.246 296.633 182.783 296.532C183.321 296.431 183.817 296.647 183.885 297.013C183.954 297.379 183.667 297.743 183.248 297.821Z" fill="black"/>
<path d="M250.088 283.184C249.73 283.252 249.38 283.008 249.311 282.642C249.243 282.276 249.48 281.922 249.838 281.854C250.196 281.787 250.546 282.031 250.614 282.397C250.683 282.763 250.446 283.117 250.088 283.184Z" fill="black"/>
<path d="M254.06 282.782C253.659 282.623 253.278 282.212 253.213 281.867C253.148 281.523 253.389 281.187 253.747 281.119C254.105 281.052 254.486 281.464 254.593 282.033C254.701 282.603 254.46 282.94 254.06 282.782Z" fill="black"/>
<path d="M83.3915 315.225C83.0123 315.297 82.8264 315.022 82.9791 314.614C83.1318 314.207 83.3856 313.849 83.5439 313.82C83.7022 313.79 83.8875 314.065 83.9563 314.431C84.0251 314.796 83.7706 315.154 83.3915 315.225Z" fill="black"/>
<path d="M144.834 304.358C144.013 304.512 143.229 303.584 143.649 302.955C144.242 302.068 145.066 302.217 145.26 303.245C145.363 303.794 145.172 304.294 144.834 304.358Z" fill="black"/>
<path d="M146.195 304.631C146.825 304.039 147.271 303.178 147.184 302.717C147.008 301.779 148.018 301.387 148.686 302.134C149.157 302.659 147.355 305.261 146.396 305.441C146.071 305.502 145.729 305.954 145.633 306.445C145.497 307.15 145.418 307.166 145.255 306.522C145.141 306.074 145.564 305.222 146.195 304.631Z" fill="black"/>
<path d="M192.98 294.979C192.547 294.808 192.319 294.328 192.474 293.913C192.664 293.407 193.03 293.35 193.588 293.739C194.585 294.436 194.101 295.423 192.98 294.979Z" fill="black"/>
<path d="M216.27 290.282C215.348 291.138 214.807 290.878 215.219 289.777C215.384 289.336 215.86 289.11 216.276 289.275C216.766 289.468 216.763 289.823 216.27 290.282Z" fill="black"/>
<path d="M219.04 290.078C218.607 289.906 218.379 289.427 218.534 289.012C218.724 288.506 219.09 288.449 219.648 288.838C220.645 289.535 220.161 290.521 219.04 290.078Z" fill="black"/>
<path d="M235.461 287.238C234.572 287.074 233.97 286.604 234.124 286.192C234.503 285.181 234.864 285.175 236.273 286.16C237.806 287.23 237.515 287.617 235.461 287.238Z" fill="black"/>
<path d="M248.313 284.546C247.917 284.389 247.539 283.98 247.475 283.635C247.295 282.679 247.802 282.802 248.451 283.872C248.785 284.422 248.726 284.71 248.313 284.546Z" fill="black"/>
<path d="M169.554 299.918C168.509 300.419 168.386 300.333 168.871 299.438C169.533 298.218 170.547 297.824 170.716 298.721C170.777 299.044 170.253 299.583 169.554 299.918Z" fill="black"/>
<path d="M186.554 296.855C186.238 297.149 185.892 296.922 185.785 296.352C185.678 295.782 185.883 295.26 186.241 295.193C186.6 295.125 186.946 295.352 187.011 295.696C187.075 296.04 186.87 296.562 186.554 296.855Z" fill="black"/>
<path d="M227.335 289.529C227.233 289.549 226.896 289.147 226.586 288.638C226.247 288.078 226.395 287.641 226.96 287.534C227.525 287.428 227.822 287.782 227.709 288.426C227.606 289.014 227.437 289.51 227.335 289.529Z" fill="black"/>
<path d="M251.603 284.277C251.224 284.348 251.038 284.073 251.19 283.666C251.343 283.258 251.597 282.901 251.755 282.871C251.914 282.841 252.099 283.116 252.168 283.482C252.236 283.848 251.982 284.205 251.603 284.277Z" fill="black"/>
<path d="M99.0168 314.168C98.7605 313.989 98.7089 313.421 98.9025 312.904C99.1853 312.149 99.3391 312.12 99.6864 312.754C100.183 313.659 99.7118 314.654 99.0168 314.168Z" fill="black"/>
<path d="M106.444 312.267C106.107 312.33 105.775 312.083 105.706 311.717C105.637 311.351 106.038 310.966 106.596 310.861C107.155 310.756 107.487 311.003 107.335 311.411C107.182 311.818 106.781 312.203 106.444 312.267Z" fill="black"/>
<path d="M125.912 309.851C125.689 309.695 125.618 308.959 125.754 308.217C125.99 306.932 126.025 306.923 126.47 308.037C126.957 309.254 126.621 310.346 125.912 309.851Z" fill="black"/>
<path d="M165.642 301.122C164.43 301.341 164.303 301.233 164.992 300.566C166.054 299.539 165.986 299.552 166.621 300.26C166.915 300.589 166.482 300.97 165.642 301.122Z" fill="black"/>
<path d="M80.4851 317.493C80.1693 317.787 79.8513 317.71 79.7785 317.323C79.7057 316.936 79.9392 316.563 80.2975 316.496C80.6558 316.428 80.9738 316.505 81.0041 316.667C81.0345 316.828 80.8009 317.2 80.4851 317.493Z" fill="black"/>
<path d="M96.1836 314.885C95.8253 314.952 95.4758 314.708 95.407 314.343C95.3382 313.977 95.5751 313.622 95.9334 313.555C96.2918 313.488 96.6412 313.732 96.71 314.098C96.7788 314.463 96.5419 314.818 96.1836 314.885Z" fill="black"/>
<path d="M131.181 308.432C131.073 309.001 130.889 308.873 130.712 308.104C130.552 307.408 130.632 306.987 130.89 307.167C131.148 307.347 131.279 307.917 131.181 308.432Z" fill="black"/>
<path d="M134.965 307.604C134.332 307.245 133.793 306.837 133.768 306.699C133.627 305.954 134.974 306.378 135.5 307.243C136.015 308.092 135.927 308.151 134.965 307.604Z" fill="black"/>
<path d="M189.663 299.039C189.629 298.857 189.992 298.011 190.471 297.159C191.448 295.42 192.397 294.956 192.155 296.333C191.995 297.246 189.778 299.652 189.663 299.039Z" fill="black"/>
<path d="M200.087 297.078C200.053 296.896 200.416 296.051 200.895 295.198C201.872 293.46 202.821 292.995 202.579 294.373C202.419 295.286 200.202 297.692 200.087 297.078Z" fill="black"/>
<path d="M246.679 286.58C246.321 286.647 245.972 286.403 245.903 286.037C245.834 285.671 246.071 285.317 246.429 285.25C246.788 285.182 247.137 285.426 247.206 285.792C247.275 286.158 247.038 286.512 246.679 286.58Z" fill="black"/>
<path d="M112.635 312.48C112.255 312.551 111.888 312.31 111.82 311.944C111.751 311.578 111.823 311.255 111.982 311.225C112.14 311.195 112.506 311.436 112.797 311.76C113.087 312.085 113.014 312.408 112.635 312.48Z" fill="black"/>
<path d="M171.921 301.329C171.542 301.4 171.175 301.159 171.106 300.794C171.037 300.428 171.11 300.104 171.268 300.075C171.426 300.045 171.793 300.286 172.083 300.61C172.373 300.934 172.3 301.258 171.921 301.329Z" fill="black"/>
<path d="M188.534 298.204C188.376 298.234 188.009 297.993 187.719 297.669C187.429 297.345 187.502 297.021 187.881 296.95C188.26 296.879 188.627 297.119 188.696 297.485C188.765 297.851 188.692 298.175 188.534 298.204Z" fill="black"/>
<path d="M195.336 296.925C194.978 296.992 194.628 296.748 194.56 296.382C194.491 296.017 194.728 295.662 195.086 295.595C195.444 295.527 195.794 295.772 195.863 296.137C195.931 296.503 195.694 296.858 195.336 296.925Z" fill="black"/>
<path d="M209.915 293.744C209.417 294.055 208.955 294.02 208.889 293.666C208.822 293.312 209.207 292.939 209.745 292.838C210.282 292.737 210.744 292.772 210.771 292.915C210.798 293.059 210.413 293.432 209.915 293.744Z" fill="black"/>
<path d="M217.322 292.779C216.136 292.994 216.018 292.886 216.71 292.216C217.817 291.145 218.508 291.015 218.665 291.849C218.734 292.214 218.129 292.633 217.322 292.779Z" fill="black"/>
<path d="M221.642 291.538C221.144 291.849 220.682 291.814 220.616 291.46C220.549 291.106 220.934 290.733 221.472 290.632C222.009 290.531 222.471 290.566 222.498 290.71C222.525 290.853 222.14 291.226 221.642 291.538Z" fill="black"/>
<path d="M224.654 291.411C224.295 291.478 223.946 291.234 223.877 290.868C223.808 290.503 224.045 290.148 224.403 290.081C224.762 290.013 225.111 290.258 225.18 290.623C225.249 290.989 225.012 291.343 224.654 291.411Z" fill="black"/>
<path d="M229.827 290.438C229.448 290.509 229.262 290.234 229.415 289.827C229.567 289.419 229.821 289.062 229.98 289.032C230.138 289.002 230.323 289.277 230.392 289.643C230.461 290.009 230.206 290.367 229.827 290.438Z" fill="black"/>
<path d="M239.638 288.593C239.28 288.66 238.93 288.416 238.861 288.05C238.793 287.684 239.03 287.33 239.388 287.263C239.746 287.195 240.096 287.439 240.164 287.805C240.233 288.171 239.996 288.525 239.638 288.593Z" fill="black"/>
<path d="M101.646 315.235C101.287 315.302 100.938 315.058 100.869 314.692C100.8 314.327 101.037 313.972 101.396 313.905C101.754 313.837 102.103 314.082 102.172 314.447C102.241 314.813 102.004 315.167 101.646 315.235Z" fill="black"/>
<path d="M108.858 314.131C108.787 313.753 108.887 313.207 109.08 312.919C109.273 312.63 109.611 312.519 109.832 312.674C110.053 312.828 109.953 313.374 109.61 313.886C109.233 314.451 108.936 314.547 108.858 314.131Z" fill="black"/>
<path d="M116.343 312.471C115.784 312.576 115.271 312.362 115.202 311.997C115.133 311.631 115.353 311.28 115.69 311.216C116.027 311.153 116.54 311.366 116.831 311.69C117.121 312.014 116.901 312.366 116.343 312.471Z" fill="black"/>
<path d="M140.084 308.005C139.726 308.073 139.376 307.829 139.307 307.463C139.239 307.097 139.476 306.743 139.834 306.675C140.192 306.608 140.542 306.852 140.61 307.218C140.679 307.584 140.442 307.938 140.084 308.005Z" fill="black"/>
<path d="M164.127 303.139C163.811 303.433 163.493 303.355 163.42 302.968C163.347 302.581 163.581 302.209 163.939 302.142C164.298 302.074 164.615 302.151 164.646 302.312C164.676 302.474 164.443 302.846 164.127 303.139Z" fill="black"/>
<path d="M176.281 301.197C176.122 301.227 175.756 300.986 175.466 300.662C175.175 300.338 175.249 300.014 175.628 299.943C176.007 299.872 176.374 300.113 176.443 300.478C176.512 300.844 176.439 301.168 176.281 301.197Z" fill="black"/>
<path d="M185.32 299.072C184.722 298.958 184.212 298.748 184.185 298.604C184.083 298.066 185.382 298.135 185.884 298.695C186.182 299.029 185.942 299.19 185.32 299.072Z" fill="black"/>
<path d="M204.253 295.915C203.894 295.982 203.986 295.665 204.457 295.209C204.928 294.754 205.606 294.326 205.965 294.259C206.323 294.191 206.231 294.509 205.76 294.964C205.289 295.42 204.611 295.848 204.253 295.915Z" fill="black"/>
<path d="M98.4508 316.18C98.135 316.474 97.8169 316.396 97.7441 316.009C97.6713 315.622 97.9048 315.25 98.2631 315.182C98.6215 315.115 98.9394 315.192 98.9698 315.353C99.0002 315.515 98.7666 315.887 98.4508 316.18Z" fill="black"/>
<path d="M132.98 309.686C132.664 309.979 132.346 309.902 132.273 309.515C132.201 309.128 132.434 308.756 132.792 308.688C133.151 308.621 133.469 308.697 133.499 308.859C133.529 309.02 133.296 309.392 132.98 309.686Z" fill="black"/>
<path d="M149.268 306.622C148.952 306.916 148.634 306.839 148.561 306.452C148.488 306.065 148.722 305.692 149.08 305.625C149.438 305.557 149.756 305.634 149.787 305.796C149.817 305.957 149.583 306.329 149.268 306.622Z" fill="black"/>
<path d="M113.397 315.09C112.568 315.246 112.508 315.083 113.051 314.149C113.886 312.712 113.984 312.691 114.212 313.904C114.315 314.453 113.948 314.987 113.397 315.09Z" fill="black"/>
<path d="M144.205 308.607C143.826 308.679 143.64 308.404 143.792 307.996C143.945 307.589 144.199 307.231 144.357 307.202C144.516 307.172 144.701 307.447 144.77 307.813C144.838 308.178 144.584 308.536 144.205 308.607Z" fill="black"/>
<path d="M196.952 298.342C196.636 298.636 196.318 298.559 196.245 298.172C196.172 297.785 196.406 297.412 196.764 297.345C197.123 297.277 197.441 297.354 197.471 297.516C197.501 297.677 197.268 298.049 196.952 298.342Z" fill="black"/>
<path d="M207.235 296.742C206.767 296.823 206.799 296.547 207.313 296.049C208.409 294.988 208.635 294.946 208.291 295.866C208.138 296.273 207.663 296.667 207.235 296.742Z" fill="black"/>
<path d="M165.791 305.236C165.432 305.303 165.264 305.025 165.417 304.618C165.57 304.21 165.988 303.822 166.346 303.754C166.704 303.687 166.873 303.965 166.72 304.373C166.567 304.78 166.149 305.169 165.791 305.236Z" fill="black"/>
<path d="M169.955 304.541C169.078 305.562 169.051 305.543 169.662 304.336C170.034 303.604 170.448 302.983 170.583 302.958C171.119 302.857 170.877 303.468 169.955 304.541Z" fill="black"/>
<path d="M201.956 298.854C201.753 298.712 201.719 298.24 201.882 297.805C202.325 296.623 202.739 296.759 202.519 298.013C202.413 298.618 202.16 298.996 201.956 298.854Z" fill="black"/>
<path d="M223.161 294.446C222.782 294.517 222.596 294.242 222.749 293.835C222.901 293.427 223.155 293.07 223.313 293.04C223.472 293.01 223.657 293.285 223.726 293.651C223.795 294.017 223.54 294.374 223.161 294.446Z" fill="black"/>
<path d="M218.036 296.098C217.677 296.166 217.509 295.887 217.662 295.48C217.814 295.073 218.232 294.684 218.591 294.617C218.949 294.549 219.117 294.828 218.965 295.235C218.812 295.642 218.394 296.031 218.036 296.098Z" fill="black"/>
<path fill-rule="evenodd" clip-rule="evenodd" d="M18.955 54.4913C20.5144 52.7906 22.7658 50.8352 23.9585 50.1468C27.1982 48.2774 190.392 17.4695 195.196 17.8204C200.444 18.2036 206.462 21.1562 209.929 25.0484C211.568 26.8878 213.221 28.6508 213.603 28.9659C213.985 29.2811 214.246 29.9287 214.184 30.4058C214.11 30.9678 214.467 31.0591 215.193 30.6657C216.269 30.0833 216.272 30.0998 215.284 31.0479C214.487 31.8135 214.46 32.2137 215.168 32.813C215.672 33.239 215.956 33.929 215.8 34.346C215.644 34.7624 215.934 35.6325 216.444 36.2788C217.061 37.0586 217.179 37.6333 216.797 37.9881C215.921 38.8022 216.332 39.8067 217.295 39.2036C218.429 38.4945 218.554 35.7706 217.472 35.3426C216.998 35.155 216.783 34.7423 216.995 34.425C217.207 34.1083 217.886 34.3338 218.505 34.9253C219.595 35.9679 219.661 35.9562 220.592 34.5624C221.195 33.6605 221.698 33.3855 221.939 33.8256C222.554 34.9485 220.874 36.926 219.522 36.6694C218.625 36.4995 218.491 36.6451 219.011 37.2262C219.486 37.7559 219.192 38.6354 218.11 39.9191C217.061 41.1644 216.855 41.7601 217.516 41.638C218.072 41.5355 218.795 41.049 219.124 40.5567C219.57 39.8897 220.053 39.8945 221.029 40.5757C221.748 41.0781 222.191 41.7053 222.015 41.9698C221.838 42.2338 222.096 42.7905 222.587 43.2063C223.685 44.1352 223.107 44.3003 221.299 43.5752C219.853 42.9947 217.894 43.8287 218.102 44.9353C218.185 45.3742 218.747 45.2821 219.738 44.6662C220.623 44.1161 221.295 43.9775 221.361 44.3312C221.424 44.6638 220.949 45.2219 220.306 45.5721C219.664 45.9229 218.838 46.7765 218.471 47.47C217.893 48.5634 217.944 48.6438 218.862 48.0801C220.183 47.2677 220.33 47.8633 219.251 49.6649C218.488 50.9412 218.523 51.1211 219.713 51.9522C220.424 52.4485 221.168 52.5895 221.368 52.2654C221.567 51.9415 221.34 51.6119 220.861 51.5332C219.112 51.2438 219.839 50.2567 222.014 49.9675C223.922 49.7139 224.192 49.8573 223.861 50.9482C223.62 51.7421 223.705 52.1825 224.086 52.1108C224.424 52.0473 224.659 52.6228 224.61 53.3895C224.559 54.1563 224.135 54.8559 223.665 54.9441C223.196 55.0325 222.776 55.6539 222.733 56.3246C222.673 57.2425 222.565 57.1775 222.297 56.0623C221.905 54.4366 220.521 54.2121 220.824 55.8228C220.928 56.3714 220.719 56.8754 220.36 56.9428C218.859 57.2252 220.046 58.0437 221.659 57.8382C223.989 57.5411 226.521 59.7784 225.531 61.259C224.715 62.4797 222.844 62.9755 222.664 62.0179C222.595 61.6522 222.099 61.4356 221.562 61.5367C220.053 61.8205 220.359 62.2882 223.803 64.9585C225.26 66.0879 225.732 65.2251 224.318 64.0204C223.298 63.1532 223.342 63.1153 224.815 63.5902C226.82 64.2376 227.036 65.0983 225.414 65.9823C224.543 66.4574 223.71 66.2684 222.619 65.3492C221.258 64.2026 221.091 64.1907 221.272 65.255C221.521 66.7263 222.96 67.8093 225.015 68.0721C225.852 68.1798 226.618 68.696 226.717 69.22C226.963 70.5275 225.873 70.6229 225.107 69.3617C224.613 68.5477 224.348 68.5344 223.842 69.298C223.34 70.0583 223.473 70.359 224.467 70.707C226.246 71.3294 226.362 72.5848 224.588 72.0083C222.731 71.4059 222.426 71.5135 222.648 72.6933C222.751 73.2419 223.351 73.6035 223.98 73.4976C224.98 73.3288 225.021 73.4286 224.299 74.2983C223.113 75.727 223.249 78.0515 224.473 77.2848C225.704 76.5142 225.742 76.8898 224.606 78.5894C223.944 79.5809 223.929 79.9947 224.554 80.0843C225.03 80.1525 225.293 80.5423 225.14 80.9511C224.909 81.5697 225.919 87.872 226.97 92.3646C227.248 93.5551 229.292 93.6732 229.069 92.4862C229 92.1204 229.273 91.7593 229.675 91.6837C230.181 91.5886 230.214 91.9018 229.783 92.6961C229.44 93.3287 228.683 93.9366 228.1 94.0476C227.235 94.2123 227.178 95.079 227.788 98.7539C228.246 101.514 228.861 103.394 229.375 103.607C229.984 103.86 229.991 104 229.402 104.118C228.955 104.208 228.73 105.03 228.902 105.944C229.074 106.859 229.544 107.545 229.946 107.469C230.475 107.37 230.517 107.628 230.096 108.404C229.753 109.036 229.917 111.257 230.495 113.816C231.456 118.072 231.495 118.13 232.541 116.772C233.748 115.205 233.505 116.49 232.109 119.057C231.368 120.418 231.387 120.479 232.364 119.869C234.893 118.29 235.455 118.123 234.038 119.373C232.254 120.946 231.876 122.339 232.92 123.497C233.532 124.177 233.878 124.13 234.833 123.242C235.474 122.644 236.05 122.428 236.112 122.761C236.175 123.095 235.406 123.845 234.402 124.43C233.399 125.014 232.638 125.808 232.71 126.193C232.886 127.126 233.736 126.917 234.516 125.751C234.864 125.231 235.202 125.093 235.268 125.444C235.334 125.795 234.887 126.552 234.275 127.125C233.174 128.158 233.319 130.934 234.462 130.719C234.789 130.657 234.798 131.081 234.484 131.66C233.923 132.696 234.703 134.805 235.585 134.639C235.834 134.592 236.355 134.107 236.744 133.56C237.314 132.758 237.43 132.769 237.343 133.62C237.283 134.199 236.662 134.874 235.96 135.118C234.909 135.485 234.775 136.085 235.199 138.532C235.481 140.165 236.014 141.444 236.384 141.374C236.83 141.29 236.893 141.567 236.57 142.2C235.808 143.693 236.427 145.62 237.462 144.972C238.584 144.269 240.882 144.537 241.043 145.388C241.114 145.768 240.541 145.83 239.643 145.538C238.424 145.141 237.953 145.302 237.265 146.347C236.472 147.553 236.516 147.704 237.853 148.369C238.88 148.88 239.026 149.14 238.359 149.266C237.779 149.376 237.513 150.224 237.662 151.488C237.833 152.935 238.107 153.347 238.602 152.899C239.036 152.506 239.043 152.755 238.618 153.559C237.997 154.737 238.308 155.082 239.576 154.626C240.419 154.323 240.236 155.277 239.236 156.404C238.416 157.328 238.423 157.475 239.276 157.333C239.834 157.24 240.574 156.739 240.921 156.219C241.31 155.637 241.79 155.481 242.171 155.812C242.511 156.108 242.657 156.305 242.496 156.251C242.335 156.196 241.46 156.815 240.552 157.626C238.805 159.184 238.683 160.779 240.228 161.858C240.74 162.216 240.881 162.562 240.541 162.626C240.201 162.691 240.324 165.146 240.815 168.083C241.338 171.21 241.973 173.373 242.348 173.302C242.7 173.236 242.689 172.618 242.324 171.93C241.854 171.041 241.957 170.622 242.682 170.485C243.244 170.38 243.647 169.994 243.578 169.628C243.509 169.262 242.939 169.055 242.311 169.168C241.369 169.336 241.314 169.234 241.994 168.588C243.227 167.419 245.2 169.368 244.075 170.643C243.63 171.148 243.303 171.751 243.347 171.985C243.492 172.759 244.623 172.203 245.464 170.946C245.919 170.265 246.34 169.969 246.4 170.288C246.567 171.174 245.353 172.737 244.353 172.925C243.392 173.106 241.893 175.015 242.051 175.857C242.104 176.139 242.432 175.944 242.779 175.424C243.127 174.905 243.866 174.396 244.422 174.294C245.037 174.181 244.799 174.733 243.812 175.706C242.692 176.81 242.484 177.363 243.137 177.497C243.906 177.655 243.928 177.87 243.252 178.653C242.538 179.479 242.573 179.532 243.491 179.027C244.079 178.703 244.595 178.62 244.636 178.842C244.678 179.065 244.274 179.741 243.739 180.345C242.919 181.269 242.925 181.415 243.778 181.274C244.336 181.181 245.076 180.68 245.424 180.16C245.771 179.64 246.099 179.446 246.152 179.728C246.295 180.487 244.851 182.471 244.046 182.622C243.662 182.695 243.405 183.053 243.474 183.419C243.542 183.784 244.021 184.004 244.537 183.907C245.054 183.81 245.601 183.397 245.754 182.99C246.078 182.123 247.214 181.79 247.352 182.521C247.404 182.798 246.66 183.574 245.697 184.247C243.904 185.501 243.783 187.567 245.414 189.078C245.908 189.535 245.95 189.838 245.531 189.917C245.141 189.991 245.29 192.054 245.899 195.003C246.855 199.635 247.005 199.923 248.152 199.329C248.829 198.98 249.657 198.153 249.993 197.493C250.328 196.833 250.823 196.447 251.092 196.635C251.782 197.117 250.152 199.376 248.95 199.602C247.599 199.856 246.769 202.528 247.963 202.778C248.529 202.897 248.643 203.198 248.287 203.634C247.399 204.723 247.647 206.044 248.703 205.845C249.241 205.744 249.624 205.362 249.556 204.997C249.487 204.631 249.769 204.268 250.183 204.19C250.613 204.109 250.542 204.706 250.017 205.582C249.513 206.425 248.734 206.977 248.288 206.808C247.842 206.639 247.975 206.93 248.583 207.457C249.521 208.268 249.554 208.443 248.799 208.604C248.203 208.73 248.388 209.037 249.357 209.532C250.686 210.209 250.537 210.663 248.988 210.654C248.646 210.653 248.804 211.021 249.338 211.473C250.103 212.12 250.146 212.413 249.543 212.85C248.929 213.295 248.968 213.454 249.742 213.652C250.557 213.859 250.588 214.023 249.939 214.7C249.322 215.344 249.35 215.539 250.077 215.69C250.774 215.835 250.849 216.128 250.401 216.954C249.752 218.151 250.522 218.204 251.739 217.046C252.173 216.634 252.264 216.002 251.941 215.642C251.619 215.281 251.687 214.924 252.092 214.848C253.363 214.609 252.895 217.033 251.457 218.142C250.537 218.851 250.367 219.312 250.941 219.539C251.558 219.783 251.637 220.118 251.225 220.735C250.355 222.036 250.717 222.692 251.903 221.962C252.835 221.39 252.879 221.468 252.268 222.621C251.887 223.34 251.828 224.106 252.137 224.322C252.447 224.538 253.007 224.056 253.381 223.251C253.756 222.447 254.111 222.046 254.171 222.361C254.23 222.676 253.888 223.586 253.412 224.382C252.384 226.099 252.536 228.649 253.7 229.229C254.296 229.527 254.317 229.78 253.777 230.132C253.365 230.402 253.078 230.897 253.141 231.233C253.345 232.315 254.903 231.572 255.593 230.063C255.962 229.256 256.529 228.701 256.852 228.829C257.682 229.157 255.903 231.768 254.251 232.649C252.837 233.403 252.53 234.733 253.826 234.489C254.278 234.404 254.512 235.027 254.449 236.151C254.385 237.317 254.56 237.754 254.947 237.394C255.276 237.088 255.604 237.156 255.677 237.543C255.75 237.93 255.337 238.336 254.76 238.445C253.951 238.597 254.102 238.859 255.419 239.586C257.059 240.493 257.273 242.104 255.79 242.382C255.334 242.468 255.298 242.143 255.684 241.431C256.051 240.752 256.005 240.244 255.559 240.068C254.41 239.613 254.354 242.73 255.5 243.264C256.28 243.627 256.336 243.839 255.752 244.22C254.675 244.924 255.042 246.002 256.128 245.322C256.626 245.01 257.096 245.087 257.172 245.492C257.248 245.897 256.798 246.329 256.172 246.452C255.486 246.588 255.348 246.819 255.825 247.034C256.26 247.23 256.914 247.897 257.279 248.515C257.644 249.133 258.181 249.417 258.472 249.147C258.762 248.877 259.183 248.988 259.406 249.394C259.636 249.815 260.122 249.843 260.534 249.461C260.932 249.091 261.021 248.4 260.732 247.924C260.443 247.449 260.501 247.005 260.86 246.937C261.218 246.87 261.625 246.119 261.763 245.269L262.016 243.722L262.659 245.101C263.013 245.859 263.028 246.371 262.692 246.238C262.356 246.105 261.941 246.372 261.769 246.832C261.371 247.893 263.024 248.577 264.305 247.882C265.153 247.421 265.17 247.469 264.436 248.25C263.972 248.742 263.075 249.083 262.443 249.005C261.81 248.929 261.156 249.232 260.988 249.68C260.807 250.16 259.873 250.466 258.71 250.425C256.646 250.354 256.309 251.073 257.89 252.178C258.408 252.54 258.532 252.883 258.17 252.951C257.812 253.019 257.099 252.781 256.587 252.423C255.862 251.917 255.702 252.023 255.868 252.902C255.985 253.524 256.373 253.978 256.732 253.91C257.837 253.703 257.68 254.995 256.545 255.448C255.661 255.801 255.897 256.178 257.895 257.607C259.327 258.632 260.032 259.515 259.621 259.77C259.239 260.007 258.046 259.478 256.97 258.595C255.894 257.711 254.587 257.068 254.067 257.166C253.319 257.306 253.421 257.576 254.555 258.455C256.352 259.848 255.796 260.909 253.895 259.717C252.094 258.588 251.374 259.576 253.05 260.876C255.073 262.444 254.403 263.837 252.325 262.385C250.001 260.762 249.428 261.694 251.706 263.392C252.833 264.234 253.245 264.914 252.85 265.281C252.511 265.596 252.173 265.537 252.1 265.15C252.027 264.763 251.553 264.524 251.045 264.62C250.537 264.715 249.921 264.444 249.675 264.017C249.429 263.59 249.053 263.481 248.84 263.774C248.627 264.068 249.699 265.127 251.224 266.127C252.749 267.127 253.834 268.187 253.637 268.482C253.024 269.399 252.201 269.27 252.004 268.226C251.901 267.678 251.579 267.273 251.288 267.328C250.997 267.383 249.98 266.923 249.027 266.307C246.656 264.772 246.215 265.794 248.544 267.428C251.565 269.547 252.612 270.584 252.259 271.111C252.078 271.382 250.672 270.699 249.135 269.593C247.599 268.485 246.14 267.767 245.894 267.996C245.648 268.224 245.004 268.037 244.463 267.579C243.921 267.121 243.259 266.95 242.99 267.2C242.722 267.449 243.201 268.142 244.055 268.739C244.91 269.335 245.839 269.609 246.122 269.346C246.404 269.084 246.877 269.139 247.172 269.468C247.467 269.798 247.397 270.125 247.018 270.197C246.639 270.268 246.441 270.925 246.579 271.657C246.716 272.388 246.42 273.063 245.921 273.157C245.422 273.251 244.929 273.809 244.826 274.396C244.723 274.983 244.19 275.548 243.641 275.652C243.092 275.755 242.732 276.31 242.84 276.884C243.015 277.813 242.907 277.839 241.872 277.116C241.231 276.668 240.599 275.73 240.468 275.031C240.274 273.998 237.65 272.647 236.325 272.897C235.307 273.088 236.59 274.372 238.075 274.649C239.06 274.832 239.74 275.316 239.587 275.724C239.164 276.854 238.594 276.766 236.154 275.195C234.726 274.276 233.873 274.061 233.801 274.605C233.651 275.76 232.51 275.896 231.409 274.892C230.24 273.824 226.706 273.592 226.895 274.596C227.12 275.792 225.814 275.682 223.079 274.273C221.669 273.547 220.572 273.255 220.642 273.625C220.711 273.995 221.24 274.388 221.817 274.497C222.394 274.606 222.953 275.154 223.058 275.715C223.166 276.289 223.817 276.626 224.553 276.488C225.269 276.353 225.912 276.542 225.981 276.908C226.05 277.273 225.541 277.679 224.85 277.809C224.16 277.939 223.595 278.565 223.595 279.201C223.594 280.283 223.511 280.299 222.29 279.446C221.573 278.945 220.805 278.57 220.584 278.611C220.362 278.653 219.407 278.135 218.462 277.461C215.921 275.648 213.226 274.811 213.098 275.794C213.041 276.235 212.578 276.674 212.071 276.77C211.563 276.865 211.232 277.392 211.335 277.941C211.531 278.98 210.563 279.521 210.013 278.681C209.654 278.132 205.225 275.992 204.666 276.097C204.464 276.135 204.552 276.583 204.861 277.093C205.17 277.603 205.841 277.941 206.351 277.845C206.862 277.749 207.533 278.088 207.842 278.598C208.152 279.108 208.813 279.448 209.312 279.354C209.811 279.26 210.304 279.632 210.407 280.181C210.667 281.563 209.582 281.626 207.739 280.339C205.977 279.108 205.041 279.098 204.883 280.309C204.824 280.766 204.384 280.985 203.907 280.796C202.689 280.314 202.612 279.237 203.78 279.017C204.318 278.916 204.698 278.514 204.624 278.124C204.46 277.251 200.485 279.237 198.524 281.172C198.402 281.293 198.786 281.803 199.38 282.305C200.298 283.081 200.311 283.345 199.469 284.06C198.925 284.524 198.559 285.327 198.657 285.846C198.765 286.424 198.415 286.71 197.753 286.585C196.843 286.412 196.855 286.19 197.826 285.177C199.174 283.77 199.062 281.617 197.686 282.479C196.215 283.399 196.318 281.423 197.83 279.737C199.054 278.371 199.961 276.293 199.276 276.422C199.135 276.448 198.31 277.533 197.441 278.833C195.752 281.361 194.38 282.133 194.687 280.384C194.79 279.796 194.55 279.376 194.153 279.451C193.756 279.526 193.516 280.036 193.62 280.584C193.723 281.133 193.525 281.635 193.178 281.7C192.832 281.765 191.78 282.942 190.839 284.315C189.692 285.988 188.982 286.545 188.685 286.002C188.441 285.557 188.668 284.83 189.189 284.387C189.71 283.944 190.083 283.297 190.017 282.949C189.815 281.875 188.036 282.6 187.506 283.972C187.164 284.853 186.849 285.036 186.523 284.54C186.26 284.137 185.655 284.052 185.178 284.35C184.647 284.683 184.234 284.478 184.111 283.823C184 283.236 183.491 282.833 182.98 282.93C182.469 283.026 181.851 282.599 181.606 281.983C181.311 281.239 181.051 281.148 180.834 281.715C180.649 282.194 181.341 283.117 182.416 283.827C184.334 285.092 184.962 286 184.039 286.173C183.767 286.224 182.178 285.445 180.509 284.44C177.365 282.548 176.404 282.3 176.618 283.438C176.687 283.803 177.183 284.02 177.721 283.919C178.258 283.818 178.782 284.184 178.885 284.733C179.11 285.924 178.369 286.163 177.131 285.298C176.451 284.823 176.018 284.935 175.346 285.762C174.602 286.678 174.341 286.721 173.717 286.025C173.309 285.569 172.81 285.443 172.608 285.745C172.129 286.461 174.026 288.056 175.114 287.852C175.578 287.765 176.011 287.296 176.076 286.81C176.15 286.258 177.291 286.69 179.114 287.96C180.72 289.079 181.672 290.061 181.229 290.144C180.788 290.227 179.592 289.614 178.572 288.78C176.265 286.895 175.482 287.752 177.491 289.965L178.976 291.601L176.905 290.097C174.634 288.447 173.764 288.343 173.559 289.694C173.485 290.181 173.128 290.386 172.765 290.15C172.402 289.913 172.448 289.401 172.868 289.012C173.401 288.515 173.388 288.207 172.824 287.984C172.38 287.808 171.758 287.905 171.443 288.198C171.127 288.492 170.809 288.414 170.736 288.027C170.663 287.64 169.929 287.45 169.105 287.605C168.281 287.76 167.193 287.598 166.688 287.245C166.182 286.892 165.589 286.872 165.37 287.2C165.15 287.529 165.543 287.995 166.242 288.237C166.942 288.479 167.399 288.983 167.259 289.357C167.112 289.749 166.39 289.793 165.558 289.463C164.614 289.088 163.992 289.15 163.768 289.643C163.579 290.057 162.698 290.973 161.81 291.677C160.922 292.38 160.271 293.354 160.362 293.841C160.454 294.328 160.236 294.781 159.877 294.849C159.052 295.004 158.976 294.573 159.517 292.806C159.755 292.028 160.336 291.32 160.808 291.231C162.035 291 164.538 287.352 164.308 286.13C164.027 284.637 161.312 285.354 159.576 287.382C158.252 288.926 157.788 288.957 157.742 287.504C157.71 286.539 156.957 287.135 156.064 288.831C155.307 290.268 154.989 290.422 153.973 289.844C152.97 289.273 152.631 289.376 151.899 290.473C151.197 291.522 151.216 291.909 151.992 292.417C152.742 292.907 152.994 292.849 153.104 292.164C153.183 291.676 153.533 291.222 153.882 291.157C154.232 291.091 154.372 291.427 154.193 291.904C153.98 292.473 154.189 292.57 154.799 292.188C155.836 291.539 157.385 292.357 157.635 293.687C157.724 294.162 157.514 294.605 157.166 294.67C156.82 294.735 156.629 294.257 156.743 293.606C156.908 292.668 156.673 292.557 155.609 293.067C154.871 293.42 154.212 293.42 154.146 293.067C154.079 292.714 153.744 292.686 153.401 293.006C152.964 293.411 153.022 293.757 153.594 294.156C154.436 294.744 153.209 296.747 151.851 297.003C151.492 297.07 151.687 296.578 152.283 295.908C153.102 294.988 153.147 294.538 152.471 294.065C151.794 293.592 151.381 293.679 150.778 294.419C150.237 295.086 149.806 295.202 149.429 294.782C149.125 294.442 149.333 294.078 149.892 293.973C150.45 293.868 150.823 293.333 150.72 292.784C150.617 292.236 150.086 291.871 149.541 291.973C148.996 292.076 148.075 291.474 147.495 290.636C146.915 289.799 146.215 289.156 145.94 289.208C145.664 289.259 144.912 288.934 144.268 288.484C143.625 288.034 142.998 287.931 142.877 288.257C142.755 288.581 143.623 289.272 144.807 289.793C147.168 290.83 147.685 291.634 146.174 291.918C145.638 292.019 143.913 291.258 142.343 290.228C140.772 289.198 139.183 288.418 138.811 288.493C138.439 288.569 138.616 288.828 139.205 289.068C140.059 289.416 139.916 289.742 138.496 290.677C136.972 291.679 136.907 291.857 138.051 291.911C138.785 291.946 139.432 291.621 139.489 291.188C139.653 289.929 141.03 290.009 142.24 291.347C143.686 292.948 143.033 293.954 141.5 292.488C140.641 291.667 140.175 291.602 139.745 292.246C139.314 292.89 139.601 293.455 140.822 294.374C143.157 296.13 143.142 297.204 140.804 295.677C138.916 294.444 138.861 294.448 138.193 295.876C137.527 297.299 137.459 297.302 135.351 295.985C131.073 293.309 130.702 293.212 129.819 294.532C129.377 295.194 129.103 296.205 129.212 296.781C129.32 297.355 129.081 297.887 128.68 297.962C128.258 298.042 128.218 298.667 128.586 299.456C129.043 300.435 128.984 300.648 128.375 300.223C127.765 299.797 127.655 299.013 127.979 297.412C128.382 295.417 128.265 295.088 126.816 294.151C125.121 293.054 123.771 292.959 123.957 293.95C124.018 294.273 124.684 294.584 125.436 294.641C126.285 294.704 126.91 295.303 127.082 296.217C127.384 297.825 127.154 297.763 122.949 295.094C121.13 293.939 119.944 294.131 120.209 295.539C120.281 295.922 120.747 295.98 121.245 295.669C121.797 295.324 122.222 295.484 122.334 296.079C122.435 296.616 122.958 296.973 123.495 296.872C124.61 296.662 124.999 297.669 124.119 298.487C123.795 298.787 122.305 298.177 120.807 297.131C118.342 295.409 118.181 295.145 119.115 294.351C119.682 293.869 119.918 293.313 119.638 293.118C119.358 292.923 118.466 293.414 117.655 294.208L116.181 295.654L119.272 297.882C121.613 299.571 122.231 300.353 121.821 301.109C120.984 302.653 119.493 302.619 117.361 301.006C115.77 299.802 115.227 299.708 114.393 300.491C113.365 301.455 112.528 301.324 112.31 300.164C112.245 299.82 112.685 299.632 113.287 299.747C114.128 299.906 114.229 299.664 113.721 298.706C113.252 297.821 113.357 297.402 114.08 297.265C114.642 297.16 115.186 297.522 115.289 298.071C115.392 298.62 115.882 298.992 116.377 298.899C116.873 298.806 117.544 299.298 117.868 299.992C118.503 301.351 120.514 302.05 121.12 301.123C121.323 300.811 119.839 299.517 117.821 298.248L114.151 295.938L115.272 294.262C115.888 293.339 116.212 292.458 115.992 292.304C115.282 291.808 114.516 292.967 112.801 297.13C110.964 301.592 110.103 302.778 109.815 301.247C109.712 300.699 109.89 300.006 110.211 299.708C110.881 299.086 110.134 298.008 109.161 298.191C108.803 298.258 108.699 298.525 108.93 298.783C109.162 299.042 109.154 299.741 108.913 300.336C108.539 301.259 108.342 301.265 107.583 300.381C106.362 298.959 105.608 299.236 104.12 301.657C103.42 302.794 102.62 303.566 102.342 303.372C102.064 303.178 102.488 302.187 103.284 301.171C104.08 300.155 104.663 298.96 104.579 298.514C104.496 298.068 104.867 297.621 105.404 297.52C105.942 297.419 106.466 297.785 106.569 298.334C106.789 299.501 107.846 299.466 108.291 298.277C108.461 297.824 108.142 297.241 107.582 296.981C106.794 296.616 106.733 296.398 107.314 296.019C107.728 295.749 108.015 295.264 107.955 294.94C107.894 294.618 106.943 295.157 105.841 296.139C104.74 297.12 103.485 297.784 103.054 297.613C102.622 297.442 101.932 297.717 101.52 298.225C101.005 298.858 100.598 298.954 100.218 298.529C99.914 298.189 99.9436 297.859 100.285 297.794C100.626 297.73 101.001 297.135 101.117 296.472C101.316 295.338 101.267 295.347 100.321 296.621C99.7668 297.367 98.5663 298.118 97.6529 298.289C95.4085 298.712 94.4565 300.472 95.9981 301.348C96.6258 301.705 97.2226 302.486 97.3228 303.083C97.4853 304.048 97.3839 304.057 96.4215 303.169C95.2258 302.065 93.7775 302.051 93.9831 303.144C94.1364 303.959 91.4199 307.671 90.5233 307.871C90.1862 307.947 90.9065 306.533 92.1249 304.73C94.2218 301.626 94.7298 300.192 93.6431 300.44C93.3761 300.501 91.9858 302.172 90.5528 304.154C89.1198 306.136 87.7315 307.606 87.4675 307.422C87.2035 307.237 87.6103 306.388 88.3718 305.534C89.2903 304.503 89.4954 303.801 88.9809 303.447C88.0596 302.812 86.8603 304.003 85.6866 306.718C85.2462 307.737 84.8145 308.193 84.7274 307.73C84.5641 306.861 84.6989 306.556 86.8909 302.814C88.147 300.669 88.2128 300.639 88.8173 301.935C89.5356 303.473 90.3747 303.545 90.63 302.09C90.7259 301.542 91.7847 300.544 92.9832 299.872C94.9334 298.779 95.7975 296.573 94.1544 296.882C93.7961 296.949 93.557 297.292 93.6231 297.643C93.7994 298.581 89.584 300.373 85.8153 300.961C83.5854 301.31 82.354 301.839 81.9587 302.617C81.45 303.621 81.2983 303.628 80.7179 302.68C80.3545 302.086 79.6605 301.674 79.1751 301.765C78.6898 301.856 77.6252 301.428 76.8094 300.814C75.3071 299.684 73.5138 300.148 73.28 301.727C73.2129 302.181 73.1407 301.858 73.1195 301.01C73.0928 299.936 72.7586 299.529 72.0159 299.669C70.1507 300.019 63.7512 296.383 61.4081 293.64C59.5728 291.493 58.872 289.883 57.6948 285.109L56.2448 279.224L52.2621 279.969C46.6701 281.016 43.6428 280.576 40.799 278.302C37.8002 275.904 37.162 273.292 38.8466 270.314C40.0433 268.198 40.2175 268.124 46.9657 266.855L53.8618 265.558L52.2851 257.178L50.709 248.798L44.6953 249.998C39.3869 251.058 38.3993 251.065 36.2743 250.056C34.2765 249.107 33.7854 248.479 33.3881 246.366C32.9966 244.285 33.258 243.365 34.8242 241.324C36.6609 238.928 36.9755 238.782 42.5797 237.728L48.4203 236.629L46.982 228.982L45.5436 221.334L39.9733 222.382C31.7664 223.925 28.2465 222.389 28.2254 217.256C28.2096 213.514 30.6327 211.75 37.5921 210.439L43.2922 209.364L42.4792 205.041L41.6662 200.718L37.9131 201.386C31.0203 202.611 27.2822 201.055 29.4232 197.853C30.2081 196.679 31.1026 196.399 35.5077 195.953L40.6715 195.43L39.4802 189.096L38.2891 182.763L33.3286 183.696C29.4594 184.424 27.7611 184.417 25.6058 183.667C22.035 182.424 20.2354 179.81 21.1013 177.122C22.0957 174.035 25.1275 172.158 30.8638 171.079L35.9127 170.128L34.3798 161.981L32.847 153.835L26.7053 154.99C21.4855 155.972 20.2487 155.988 18.4626 155.095C14.827 153.278 14.2099 148.218 17.276 145.361C18.7915 143.951 20.132 143.471 24.686 142.715L30.2461 141.793L28.6568 132.349L27.068 122.905L23.3029 123.609C12.7924 125.575 6.2202 120.683 10.59 114.145L12.2061 111.727L18.4273 110.984L24.649 110.24L22.7762 100.283L20.9034 90.3256L17.0759 91.0455C11.2658 92.1382 9.14704 91.8833 5.83624 89.6913C3.24591 87.9765 2.81638 87.3963 2.88192 85.7005C2.92362 84.6095 3.52177 82.837 4.21042 81.7607C5.347 79.9853 6.01272 79.6873 11.4219 78.5288C14.6997 77.8269 17.7328 77.0327 18.1632 76.7638C18.7653 76.3861 18.5709 74.8039 17.3131 69.8482C15.0592 60.974 15.33 58.4471 18.955 54.4913ZM177.897 52.2994L188.836 50.6945L205.88 142.227L222.925 233.76L160.084 245.737C125.521 252.324 95.3775 257.891 93.098 258.108L88.9536 258.503L73.3838 174.214C64.8196 127.855 57.2055 86.5536 56.4615 82.4329L55.1098 74.941L111.034 64.4227C141.793 58.6376 171.881 53.1823 177.897 52.2994ZM90.5016 229.678C90.1713 229.134 90.1843 228.425 90.5305 228.103C91.0514 227.62 197.565 207.402 205.448 206.291C207.437 206.01 207.96 206.2 208.162 207.274C208.41 208.594 207.978 208.685 149.757 219.635C96.577 229.638 91.0461 230.575 90.5016 229.678ZM93.9639 241.175C93.5134 241.244 93.0315 240.701 92.894 239.97C92.6457 238.65 93.0783 238.558 151.279 227.612C200.515 218.351 209.941 216.73 210.085 217.496C210.195 218.083 209.183 218.759 207.238 219.394C205.071 220.102 101.14 240.087 93.9639 241.175ZM98.9251 249.521C95.3862 249.641 95.0209 248.697 98.232 247.73C99.5492 247.334 125.299 242.317 155.455 236.582C208.456 226.502 212.429 225.884 211.05 227.949C210.588 228.641 102.733 249.392 98.9251 249.521ZM148.493 31.6879L185.047 25.197L187.035 35.2649L189.022 45.3322L121.244 58.0538L53.4648 70.7749L52.502 63.382C51.9727 59.3159 51.2824 54.6163 50.9681 52.9382L50.3977 49.8878L81.1687 44.0329C98.0924 40.8127 128.389 35.2577 148.493 31.6879ZM89.9173 281.326C89.5419 279.219 79.7446 226.375 68.1455 163.893L47.0557 50.2912L37.8068 52.101C27.6113 54.0964 25.0205 55.0188 23.3316 57.2541C21.3625 59.8608 21.1537 62.9648 22.4757 69.9933C23.6169 76.061 23.8402 76.6352 25.1197 76.7994C27.2202 77.0681 30.1887 75.5575 30.6738 73.9728C31.4219 71.5269 34.4339 71.578 37.6709 74.0917C41.5267 77.0867 42.0849 79.8647 39.6392 83.8858L37.873 86.7897L32.3047 87.6435C29.2416 88.1136 26.636 88.7634 26.5148 89.0877C26.3931 89.4122 27.0893 94.3262 28.0619 100.007L29.8306 110.336L32.9971 109.519C35.0661 108.986 36.5641 108.146 37.3169 107.098C38.1984 105.871 38.7811 105.598 39.7964 105.936C41.8335 106.614 45.9633 109.875 46.7623 111.437C47.8018 113.471 46.5498 117.48 44.2957 119.335C42.3691 120.92 41.5119 121.075 34.5969 121.088L32.0501 121.093L34.1549 131.291L36.2597 141.488L38.1735 140.904C39.2262 140.584 41.0748 139.359 42.2823 138.183C44.1602 136.353 44.7508 136.105 46.3776 136.458C49.2724 137.088 52.9144 141.27 53.0129 144.079C53.1094 146.815 52.4514 148.162 50.1059 150.026C48.6018 151.222 47.8268 151.398 44.7887 151.233C42.8328 151.126 40.5059 151.379 39.6178 151.793L38.0025 152.547L39.6261 161.18L41.2497 169.812L43.0511 169.474C44.0414 169.287 45.8338 168.331 47.0331 167.348C50.4691 164.532 52.5797 164.747 55.9057 168.25C57.8674 170.316 58.2866 172.599 57.231 175.468C55.9537 178.938 53.3759 180.349 48.5059 180.242C46.3093 180.194 44.2596 180.389 43.9512 180.676C43.6424 180.963 44.0043 184.458 44.7592 188.472C46.0958 195.579 46.1615 195.741 47.5908 195.458C48.3959 195.298 50.2209 194.335 51.6464 193.318C53.0726 192.301 54.777 191.367 55.4337 191.244C58.0957 190.743 60.8009 195.988 59.0148 198.187C58.1796 199.216 55.5864 199.415 48.2595 199.013C46.7648 198.931 46.7517 199.066 47.7402 204.321L48.7543 209.713L50.7779 209.333C51.9851 209.106 53.4552 208.135 54.4237 206.926C56.6119 204.193 57.8181 204.111 61.6051 206.436C64.2635 208.068 64.919 208.849 65.3669 210.914C65.7976 212.903 65.5601 213.936 64.211 215.952L64.1287 216.075C63.6576 216.779 63.318 217.287 62.8775 217.676C61.7397 218.682 59.9286 218.898 53.4394 219.671L52.998 219.724L51.0188 219.96L52.4311 228.473L53.8434 236.986L55.9451 236.591C57.1654 236.362 58.9664 235.246 60.2373 233.934L62.4276 231.671L64.9076 232.484C67.8283 233.441 70.6234 236.327 71.104 238.882C71.3279 240.073 70.8092 241.651 69.599 243.462C67.9392 245.945 67.4957 246.227 65.231 246.239C63.8443 246.247 61.14 246.384 59.2225 246.543L55.7355 246.831L57.4355 255.87C58.3706 260.842 59.2515 265.12 59.3924 265.378C59.8595 266.23 65.2335 264.583 66.1911 263.294C67.6683 261.307 69.8653 261.314 72.7317 263.317C74.8269 264.78 75.4722 265.694 75.8569 267.739C76.8533 273.037 74.4586 275.411 66.9025 276.617L61.4998 277.479L62.2916 281.668C63.3818 287.439 64.7957 290.043 68.3767 292.876L71.4426 295.301L150.726 280.561C222.123 267.287 230.029 265.711 230.204 264.708C230.312 264.096 229.937 262.927 229.372 262.111L228.344 260.627L201.117 265.679C186.143 268.459 172.241 270.832 170.223 270.955C165.156 271.263 212.848 261.328 221.341 260.307L228.102 259.493L226.21 249.435C224.351 239.55 224.292 239.375 222.787 239.307C221.946 239.269 192.943 244.441 158.338 250.802C123.733 257.162 94.126 262.387 92.5444 262.413L89.6692 262.462L91.8323 272.973L93.9956 283.485L96.9148 283.154C102.381 282.532 102.828 282.029 101.968 277.456C101.526 275.106 101.498 273.553 101.901 273.712C102.28 273.862 102.812 275.603 103.084 277.58L103.579 281.175L106.961 280.959C108.821 280.84 119.195 279.081 130.014 277.049C141.12 274.964 149.893 273.589 150.164 273.892C150.877 274.688 142.709 276.707 116.36 282.247C98.4598 286.01 92.4012 287.08 91.5504 286.623C90.9315 286.292 89.8114 285.985 89.0612 285.941C87.8268 285.87 87.8353 285.829 89.1487 285.509C90.4723 285.188 90.54 284.82 89.9173 281.326ZM151.773 256.8C148.324 259.562 147.8 264.272 150.519 268.072C154.752 273.987 161.949 272.612 163.809 265.531C165.536 258.955 160.89 254 154.209 255.295C153.806 255.374 152.71 256.051 151.773 256.8ZM199.705 23.9818C201.445 24.6234 203.828 26.0307 205.002 27.1098C205.207 27.298 205.4 27.4673 205.585 27.6287L205.587 27.6303C205.821 27.835 206.041 28.0272 206.251 28.2295C209.481 31.3361 210.512 36.8219 227.37 126.559C227.404 126.742 227.438 126.925 227.473 127.108C228.311 131.567 229.187 136.233 230.105 141.115C241.175 200.023 250.006 248.422 249.951 249.885C249.779 254.456 246.585 260.051 243.264 261.602L241.75 262.308L219.962 147.08C204.914 67.4922 198.48 32.3274 199.159 33.3887C199.817 34.4162 207.128 71.7463 221.237 146.127C232.837 207.287 242.567 257.494 242.857 257.697C243.148 257.9 243.912 257.278 244.555 256.316L245.725 254.566L237.285 208.835C232.643 183.683 223.136 133.968 216.158 98.3573C215.395 94.4646 214.678 90.801 214.002 87.3525L214.002 87.3494C204.137 36.9615 203.261 32.4845 200.59 30.0961C200.329 29.8632 200.052 29.6502 199.747 29.4164C199.534 29.2522 199.306 29.0778 199.062 28.8791C197.102 27.282 193.659 25.8776 193.241 26.5037C192.408 27.7489 199.872 70.0468 216.481 158.2C226.299 210.317 235.025 255.308 235.872 258.178C237.579 263.966 237.579 264.398 235.867 264.72C234.757 264.929 234.431 263.813 231.069 248.237C226.228 225.811 189.544 27.807 189.759 25.2603C189.924 23.3138 190.033 23.2437 193.235 23.0332C195.054 22.9141 197.965 23.3409 199.705 23.9818ZM158.131 265.54C159.289 264.592 159.478 263.913 159.024 262.341C158.561 260.742 158.119 260.382 156.794 260.524C154.284 260.795 153.61 261.527 153.994 263.567C154.498 266.248 156.247 267.082 158.131 265.54Z" fill="black"/>
<path fill-rule="evenodd" clip-rule="evenodd" d="M68.1455 163.893C79.7446 226.375 89.5419 279.219 89.9173 281.326C90.54 284.82 90.4723 285.188 89.1487 285.509C87.8353 285.829 87.8268 285.87 89.0612 285.941C89.8114 285.985 90.9315 286.292 91.5504 286.623C92.4012 287.08 98.4598 286.01 116.36 282.247C142.709 276.707 150.877 274.688 150.164 273.892C149.893 273.589 141.12 274.964 130.014 277.049C119.195 279.081 108.821 280.84 106.961 280.959L103.579 281.175L103.084 277.58C102.812 275.603 102.28 273.862 101.901 273.712C101.498 273.553 101.526 275.106 101.968 277.456C102.828 282.029 102.381 282.532 96.9148 283.154L93.9956 283.485L91.8323 272.973L89.6692 262.462L92.5444 262.413C94.126 262.387 123.733 257.162 158.338 250.802C192.943 244.441 221.946 239.269 222.787 239.307C224.292 239.375 224.351 239.55 226.21 249.435L228.102 259.493L221.341 260.307C212.848 261.328 165.156 271.263 170.223 270.955C172.241 270.832 186.143 268.459 201.117 265.679L228.344 260.627L229.372 262.111C229.937 262.927 230.312 264.096 230.204 264.708C230.029 265.711 222.123 267.287 150.726 280.561L71.4426 295.301L68.3767 292.876C64.7957 290.043 63.3818 287.439 62.2916 281.668L61.4998 277.479L66.9025 276.617C74.4586 275.411 76.8533 273.037 75.8569 267.739C75.4722 265.694 74.8269 264.78 72.7317 263.317C69.8653 261.314 67.6683 261.307 66.1911 263.294C65.2335 264.583 59.8595 266.23 59.3924 265.378C59.2515 265.12 58.3706 260.842 57.4355 255.87L55.7355 246.831L59.2225 246.543C61.14 246.384 63.8443 246.247 65.231 246.239C67.4957 246.227 67.9392 245.945 69.599 243.462C70.8092 241.651 71.3279 240.073 71.104 238.882C70.6234 236.327 67.8283 233.441 64.9076 232.484L62.4276 231.671L60.2373 233.934C58.9664 235.246 57.1654 236.362 55.9451 236.591L53.8434 236.986L52.4311 228.473L51.0188 219.96L52.998 219.724L53.4394 219.671C59.9286 218.898 61.7397 218.682 62.8775 217.676C63.318 217.287 63.6576 216.779 64.1287 216.075L64.211 215.952C65.5601 213.936 65.7976 212.903 65.3669 210.914C64.919 208.849 64.2635 208.068 61.6051 206.436C57.8181 204.111 56.6119 204.193 54.4237 206.926C53.4552 208.135 51.9851 209.106 50.7779 209.333L48.7543 209.713L47.7402 204.321C46.7517 199.066 46.7648 198.931 48.2595 199.013C55.5864 199.415 58.1796 199.216 59.0148 198.187C60.8009 195.988 58.0957 190.743 55.4337 191.244C54.777 191.367 53.0726 192.301 51.6464 193.318C50.2209 194.335 48.3959 195.298 47.5908 195.458C46.1615 195.741 46.0958 195.579 44.7592 188.472C44.0043 184.458 43.6424 180.963 43.9512 180.676C44.2596 180.389 46.3093 180.194 48.5059 180.242C53.3759 180.349 55.9537 178.938 57.231 175.468C58.2866 172.599 57.8674 170.316 55.9057 168.25C52.5797 164.747 50.4691 164.532 47.0331 167.348C45.8338 168.331 44.0414 169.287 43.0511 169.474L41.2497 169.812L39.6261 161.18L38.0025 152.547L39.6178 151.793C40.5059 151.379 42.8328 151.126 44.7887 151.233C47.8268 151.398 48.6018 151.222 50.1059 150.026C52.4514 148.162 53.1094 146.815 53.0129 144.079C52.9144 141.27 49.2724 137.088 46.3776 136.458C44.7508 136.105 44.1602 136.353 42.2823 138.183C41.0748 139.359 39.2262 140.584 38.1735 140.904L36.2597 141.488L34.1549 131.291L32.0501 121.093L34.5969 121.088C41.5119 121.075 42.3691 120.92 44.2957 119.335C46.5498 117.48 47.8018 113.471 46.7623 111.437C45.9633 109.875 41.8335 106.614 39.7964 105.936C38.7811 105.598 38.1984 105.871 37.3169 107.098C36.5641 108.146 35.0661 108.986 32.9971 109.519L29.8306 110.336L28.0619 100.007C27.0893 94.3262 26.3931 89.4122 26.5148 89.0877C26.636 88.7634 29.2416 88.1136 32.3047 87.6435L37.873 86.7897L39.6392 83.8858C42.0849 79.8647 41.5267 77.0867 37.6709 74.0917C34.4339 71.578 31.4219 71.5269 30.6738 73.9728C30.1887 75.5575 27.2202 77.0681 25.1197 76.7994C23.8402 76.6352 23.6169 76.061 22.4757 69.9933C21.1537 62.9648 21.3625 59.8608 23.3316 57.2541C25.0205 55.0188 27.6113 54.0964 37.8068 52.101L47.0557 50.2912L68.1455 163.893ZM150.519 268.072C147.8 264.272 148.324 259.562 151.773 256.8C152.71 256.051 153.806 255.374 154.209 255.295C160.89 254 165.536 258.955 163.809 265.531C161.949 272.612 154.752 273.987 150.519 268.072Z" fill="#F5EEE1"/>
<path d="M148.493 31.6879L185.047 25.197L187.035 35.2649L189.022 45.3322L121.244 58.0538L53.4648 70.7749L52.502 63.382C51.9727 59.3159 51.2824 54.6163 50.9681 52.9382L50.3977 49.8878L81.1687 44.0329C98.0924 40.8127 128.389 35.2577 148.493 31.6879Z" fill="#F5EEE1"/>
<path d="M199.705 23.9818C201.445 24.6234 203.828 26.0307 205.002 27.1098C205.207 27.298 205.4 27.4673 205.585 27.6287L205.587 27.6303C205.821 27.835 206.041 28.0272 206.251 28.2295C209.481 31.3361 210.512 36.8219 227.37 126.559L227.473 127.108C228.311 131.567 229.187 136.233 230.105 141.115C241.175 200.023 250.006 248.422 249.951 249.885C249.779 254.456 246.585 260.051 243.264 261.602L241.75 262.308L219.962 147.08C204.914 67.4922 198.48 32.3274 199.159 33.3887C199.817 34.4162 207.128 71.7463 221.237 146.127C232.837 207.287 242.567 257.494 242.857 257.697C243.148 257.9 243.912 257.278 244.555 256.316L245.725 254.566L237.285 208.835C232.643 183.683 223.136 133.968 216.158 98.3573C215.395 94.4646 214.678 90.801 214.002 87.3525L214.002 87.3494C204.137 36.9615 203.261 32.4845 200.59 30.0961C200.329 29.8632 200.052 29.6502 199.747 29.4164C199.534 29.2522 199.306 29.0778 199.062 28.8791C197.102 27.282 193.659 25.8776 193.241 26.5037C192.408 27.7489 199.872 70.0468 216.481 158.2C226.299 210.317 235.025 255.308 235.872 258.178C237.579 263.966 237.579 264.398 235.867 264.72C234.757 264.929 234.431 263.813 231.069 248.237C226.228 225.811 189.544 27.807 189.759 25.2603C189.924 23.3138 190.033 23.2437 193.235 23.0332C195.054 22.9141 197.965 23.3409 199.705 23.9818Z" fill="#F5EEE1"/>
<path fill-rule="evenodd" clip-rule="evenodd" d="M177.897 52.2994L188.836 50.6945L205.88 142.227L222.925 233.76L160.084 245.737C125.521 252.324 95.3775 257.891 93.098 258.108L88.9536 258.503L73.3838 174.214C64.8196 127.855 57.2055 86.5536 56.4615 82.4329L55.1098 74.941L111.034 64.4227C141.793 58.6376 171.881 53.1823 177.897 52.2994ZM90.5016 229.678C90.1713 229.134 90.1843 228.425 90.5305 228.103C91.0514 227.62 197.565 207.402 205.448 206.291C207.437 206.01 207.96 206.2 208.162 207.274C208.41 208.594 207.978 208.685 149.757 219.635C96.577 229.638 91.0461 230.575 90.5016 229.678ZM93.9639 241.175C93.5134 241.244 93.0315 240.701 92.894 239.97C92.6457 238.65 93.0783 238.558 151.279 227.612C200.515 218.351 209.941 216.73 210.085 217.496C210.195 218.083 209.183 218.759 207.238 219.394C205.071 220.102 101.14 240.087 93.9639 241.175ZM98.9251 249.521C95.3862 249.641 95.0209 248.697 98.232 247.73C99.5492 247.334 125.299 242.317 155.455 236.582C208.456 226.502 212.429 225.884 211.05 227.949C210.588 228.641 102.733 249.392 98.9251 249.521Z" fill="#F5EEE1"/>
<path d="M137.768 77.8785C137.671 77.386 138.976 76.7477 141.28 76.1608C143.296 75.6474 145.516 75.0633 146.213 74.8631C147.164 74.5901 147.915 75.1748 149.217 77.1995C150.172 78.6853 152.864 81.7589 155.2 84.0301C157.535 86.3012 160.549 89.4505 161.896 91.0291C164.213 93.7439 164.383 93.8218 165.038 92.47C165.419 91.6838 166.193 89.4299 166.758 87.4613C167.322 85.4926 168.869 80.8591 170.194 77.1639L172.605 70.4459L178.01 69.4292C181.587 68.7564 183.462 68.6618 183.554 69.1491C183.79 70.4024 181.384 78.0873 177.405 88.7942C171.783 103.924 172.016 101.579 174.881 114.112L177.373 125.021L175.252 125.853C174.086 126.31 171.53 126.727 169.574 126.778L166.016 126.872L163.665 116.145C161.638 106.897 161.081 105.162 159.629 103.568C158.703 102.552 154.463 97.9754 150.207 93.3991C142.815 85.4519 138.1 79.5688 137.768 77.8785Z" fill="black"/>
<path d="M124.342 109.492C121.656 95.1902 119.511 82.7942 119.572 81.9442C119.676 80.5111 120.045 80.3314 124.673 79.461L129.661 78.5227L135.015 104.452C138.764 122.61 140.264 130.982 140.019 132.384C139.686 134.292 139.525 134.394 136.615 134.533C134.934 134.614 132.584 134.863 131.391 135.087L129.223 135.495L124.342 109.492Z" fill="black"/>
<path fill-rule="evenodd" clip-rule="evenodd" d="M68.3511 89.863L66.6178 90.4721L71.8863 116.356C74.7843 130.592 77.3622 142.629 77.6146 143.105C77.9962 143.823 79.8447 143.559 88.5384 141.547C94.6302 140.138 100.242 138.477 101.969 137.573C108.018 134.408 113.241 126.494 114.982 117.856C115.726 114.162 115.708 112.195 114.883 107.652C113.955 102.54 113.582 101.647 110.821 97.9182C107.228 93.0655 100.695 88.2943 95.9525 87.0584C94.1511 86.5885 90.78 86.248 88.4609 86.3008C84.405 86.3938 71.9394 88.6016 68.3511 89.863ZM104.486 114.223C104.639 103.843 97.4475 96.7302 87.6668 97.5871C85.5083 97.7763 82.9204 97.9556 81.9151 97.9848C80.9099 98.0147 80.0631 98.1124 80.0319 98.2022C80.0013 98.2919 81.2632 105.708 82.8363 114.683L85.6963 131.001L89.9362 129.773C96.8341 127.775 98.811 126.497 101.747 122.133C104.014 118.765 104.437 117.54 104.486 114.223Z" fill="black"/>
<path d="M90.4085 175.719L88.9585 168.01L87.5085 160.3L92.5649 159.349C97.8333 158.358 98.1011 158.419 97.7306 160.515C97.6252 161.111 96.9309 161.431 94.9194 161.809C91.31 162.488 90.8431 162.847 91.1881 164.681L91.4758 166.211L94.2621 165.896C97.4395 165.536 97.7653 165.652 97.5988 167.074C97.4946 167.962 97.1082 168.17 94.722 168.619L91.9658 169.137L92.3957 170.629L92.8252 172.12L96.1837 171.631L99.5422 171.141L99.8588 172.825L100.175 174.508L96.6016 174.867C94.636 175.065 92.4384 175.337 91.7181 175.473L90.4085 175.719Z" fill="black"/>
<path d="M126 169.065C125.876 168.978 125.128 165.472 124.339 161.275L122.904 153.643L127.73 152.735L132.557 151.827L132.864 153.463L133.172 155.098L129.724 155.747L126.277 156.395L126.628 158.264L126.98 160.133L130.197 159.528C133.298 158.945 133.423 158.964 133.629 160.057C133.823 161.092 133.614 161.262 131.256 161.99C127.73 163.078 127.478 163.26 127.875 164.438C128.192 165.379 128.495 165.423 131.579 164.974L134.937 164.484L135.191 165.834L135.445 167.184L130.836 168.205C128.301 168.766 126.125 169.153 126 169.065Z" fill="black"/>
<path d="M166.322 161.812L164.839 153.923L163.355 146.035L168.21 145.122L173.067 144.208L173.208 145.754L173.35 147.3L170.016 147.926L166.684 148.553L167.057 150.539L167.431 152.525L170.419 151.963C173.261 151.428 173.417 151.456 173.616 152.514C173.849 153.752 172.963 154.37 170.19 154.902C169.092 155.113 168.468 155.496 168.377 156.015C168.036 157.937 168.398 158.102 171.836 157.601L175.195 157.112L175.624 158.601L176.053 160.091L171.188 160.951L166.322 161.812Z" fill="black"/>
<path d="M101.526 169.033C101.243 168.922 100.87 168.08 100.698 167.162L100.384 165.495L104.102 165.019C106.148 164.758 107.974 164.65 108.16 164.779C108.347 164.909 108.469 165.547 108.433 166.196C108.373 167.26 108.052 167.47 105.204 168.307C103.464 168.818 101.809 169.145 101.526 169.033Z" fill="black"/>
<path d="M111.755 189.846L110.564 185.353L109.372 180.86L110.791 180.594L112.209 180.327L113.162 186.8C113.686 190.36 114.109 193.771 114.102 194.381C114.09 195.37 113.981 195.439 113.085 195.026C112.533 194.771 110.614 193.162 108.82 191.45C107.027 189.74 105.391 188.495 105.185 188.686C104.979 188.876 105.125 190.701 105.509 192.742C106.141 196.104 106.122 196.469 105.314 196.621C104.823 196.713 104.231 196.576 103.998 196.316C103.764 196.057 102.982 192.939 102.258 189.387C101.105 183.723 101.035 182.913 101.684 182.798C102.716 182.614 103.511 183 105.015 184.413C105.729 185.084 107.538 186.581 109.034 187.739L111.755 189.846Z" fill="black"/>
<path d="M127.134 178.669C127.074 178.35 127.577 177.894 128.253 177.656C130.285 176.94 135.071 176.007 135.905 176.164C136.689 176.311 137.207 177.818 136.958 179.224C136.861 179.775 136.388 179.988 135.203 180.015L133.581 180.051L134.648 185.719C135.637 190.98 135.651 191.399 134.838 191.551C134.051 191.7 133.84 191.221 132.725 186.748C131.384 181.372 130.951 180.516 129.575 180.527C128.577 180.536 127.303 179.565 127.134 178.669Z" fill="black"/>
<path d="M192.312 171.066C192.527 171.026 193.834 169.474 195.218 167.617C197.675 164.321 198.974 163.345 199.213 164.616C199.359 165.388 197.74 168.901 196.395 170.734L195.407 172.081L198.714 174.549C202.452 177.337 203.142 178.705 201.015 179.105C199.922 179.311 199.192 178.938 197.205 177.161C195.853 175.952 194.498 175.009 194.194 175.066C193.883 175.125 193.696 176.162 193.767 177.445C193.973 181.185 193.698 181.699 192.093 180.583C191.275 180.014 188.31 168.673 188.581 167.145C188.659 166.702 189.147 166.352 189.72 166.328C190.574 166.292 190.811 166.644 191.323 168.713C191.653 170.047 192.099 171.106 192.312 171.066Z" fill="black"/>
<path d="M139.856 183.552C139.027 179.56 138.403 176.214 138.47 176.115C138.757 175.691 147.026 174.723 147.506 175.058C147.798 175.26 147.982 175.894 147.914 176.465C147.806 177.389 147.44 177.571 144.606 178.104C141.273 178.731 141.167 178.849 142.126 180.868C142.55 181.761 142.89 181.813 145.306 181.359C147.864 180.878 148.021 180.911 148.224 181.987C148.452 183.2 148.139 183.451 144.995 184.573C143.356 185.159 143.122 185.403 143.404 186.238C143.7 187.114 144.064 187.171 146.863 186.772C149.989 186.327 149.992 186.328 150.252 187.707L150.511 189.088L145.937 189.948L141.363 190.808L139.856 183.552Z" fill="black"/>
<path fill-rule="evenodd" clip-rule="evenodd" d="M117.276 180.387C116.059 181.802 115.144 184.69 115.166 187.05C115.204 191.236 120.911 194.967 124.344 193.049C126.135 192.048 127.935 188.963 128.193 186.453C128.438 184.067 127.375 182.175 124.596 180.053C122.67 178.582 122.212 178.446 120.375 178.791C118.981 179.053 117.98 179.568 117.276 180.387ZM125.212 186.159C124.897 184.488 123.716 182.434 122.869 182.089C121.469 181.516 119.338 182.365 118.612 183.784C117.047 186.845 119.461 191.057 122.457 190.494C124.086 190.187 125.539 187.901 125.212 186.159Z" fill="black"/>
<path fill-rule="evenodd" clip-rule="evenodd" d="M165.444 171.267C164.299 172.011 162.652 174.997 162.207 177.134C161.902 178.599 162.005 179.085 163.004 180.906C165.32 185.129 169.959 186.278 173.097 183.408C175.914 180.832 175.773 175.653 172.805 172.679C171.933 171.805 170.743 170.87 170.16 170.601C168.996 170.063 166.824 170.37 165.444 171.267ZM171.633 180.491C173.005 179.067 171.899 175.076 169.89 174.202C168.636 173.657 166.808 174.438 165.899 175.908C164.722 177.814 164.976 179.133 166.816 180.662C168.463 182.031 170.212 181.969 171.633 180.491Z" fill="black"/>
<path fill-rule="evenodd" clip-rule="evenodd" d="M177.205 170.684L175.121 173.787L175.868 176.63C176.571 179.306 176.762 179.568 179.121 181.112C182.683 183.442 184.3 183.085 186.759 179.422C189.006 176.077 189.132 174.146 187.28 171.457C185.587 169.001 183.181 167.494 181.03 167.542C179.401 167.579 179.154 167.781 177.205 170.684ZM185.528 176.479C186.2 174.829 185.593 173.389 183.659 172.044C181.844 170.782 180.261 171.046 179.078 172.808C177.5 175.157 178.669 178.319 181.328 178.893C183.115 179.279 184.778 178.323 185.528 176.479Z" fill="black"/>
<path fill-rule="evenodd" clip-rule="evenodd" d="M150.599 156.658L152.093 164.601L155.096 164.037C156.747 163.726 158.713 163.062 159.466 162.561C161.096 161.476 163.121 158.163 163.219 156.423C163.341 154.262 162.154 151.552 160.423 150.037C158.029 147.941 155.879 147.442 152.208 148.132L149.105 148.715L150.599 156.658ZM159.813 156.071C159.804 153.662 158.973 152.264 157.121 151.548C156.211 151.196 154.691 151.054 153.743 151.231L152.019 151.553L152.706 155.173C153.084 157.164 153.618 159.266 153.892 159.844C154.351 160.81 154.556 160.839 156.419 160.213C158.87 159.389 159.82 158.23 159.813 156.071Z" fill="black"/>
<path fill-rule="evenodd" clip-rule="evenodd" d="M176.958 150.419C177.677 154.448 178.293 158.011 178.329 158.337C178.364 158.672 179.053 158.871 179.914 158.795L181.435 158.66L180.996 156.322C180.754 155.036 180.746 153.807 180.979 153.592C181.643 152.978 183.709 154.078 185.74 156.128C187.371 157.774 187.74 157.937 188.756 157.464C189.391 157.168 189.982 156.821 190.068 156.693C190.154 156.565 189.395 155.656 188.38 154.673C187.366 153.69 186.501 152.696 186.457 152.465C186.414 152.234 186.885 151.324 187.505 150.443C188.852 148.525 188.658 146.694 186.899 144.738C185.033 142.661 183.505 142.246 179.377 142.692L175.652 143.095L176.958 150.419ZM182.04 150.165C184.912 149.843 186.185 147.217 184.053 146.012C183.614 145.763 182.291 145.629 181.113 145.714L178.972 145.868L179.544 148.124L180.116 150.381L182.04 150.165Z" fill="black"/>
<path fill-rule="evenodd" clip-rule="evenodd" d="M152.368 188.837L150.941 181.252L149.515 173.667L153.007 173.243C156.833 172.779 158.131 173.223 159.642 175.515C160.362 176.606 160.415 177.02 159.991 178.218C159.515 179.558 159.553 179.68 160.706 180.536C162.352 181.758 162.509 183.122 161.25 185.246C160.238 186.953 160.039 187.06 156.282 187.931L152.368 188.837ZM157.645 181.881C158.024 182.036 158.359 182.677 158.389 183.307C158.434 184.247 158.142 184.534 156.747 184.92C155.145 185.363 155.037 185.314 154.797 184.037C154.657 183.293 154.654 182.519 154.79 182.316C155.136 181.801 156.818 181.545 157.645 181.881ZM155.307 178.994C157.076 178.661 157.156 178.574 156.789 177.385C156.454 176.293 156.172 176.151 154.651 176.306C152.978 176.477 152.912 176.549 153.169 177.916C153.425 179.276 153.529 179.328 155.307 178.994Z" fill="black"/>
<path fill-rule="evenodd" clip-rule="evenodd" d="M110.509 163.658L111.993 171.547L113.173 171.554C114.736 171.563 114.815 171.368 114.317 168.723C113.924 166.633 113.977 166.449 115.027 166.251C115.865 166.094 116.792 166.621 118.584 168.277C120.503 170.051 121.196 170.425 121.913 170.077C122.411 169.835 122.972 169.605 123.162 169.566C123.905 169.411 123.22 168.403 121.204 166.683L119.094 164.882L120.531 163.1C122.413 160.765 122.139 159.02 119.513 156.617C117.416 154.698 116.425 154.525 111.909 155.284L109.025 155.769L110.509 163.658ZM117.813 161.84C118.763 161.066 118.527 159.185 117.4 158.548C116.961 158.299 115.651 158.164 114.488 158.248L112.376 158.4L112.827 160.797L113.277 163.194L115.146 162.842C116.174 162.649 117.374 162.198 117.813 161.84Z" fill="black"/>
<path fill-rule="evenodd" clip-rule="evenodd" d="M84.8849 192.104C83.8811 190.659 84.2621 188.477 85.8675 186.481C87.3334 184.659 88.9304 184.38 90.6183 185.651C92.8159 187.307 93.0072 188.152 91.7886 190.816C90.7325 193.123 90.7279 193.24 91.672 193.7C92.547 194.127 92.6974 194.041 93.0302 192.925C93.453 191.509 94.9467 190.491 95.7659 191.06C96.1262 191.311 96.1252 192.247 95.7635 193.831C95.1074 196.704 95.2842 198.249 96.2038 197.675C96.6307 197.409 96.897 197.565 97.0063 198.146C97.2312 199.342 96.1057 199.93 95.0276 199.18C94.2829 198.662 93.9137 198.696 92.7579 199.385C89.7451 201.184 86.5118 200.833 84.6675 198.507C83.8758 197.509 84.1194 194.543 85.0582 193.747C85.5602 193.322 85.5295 193.032 84.8849 192.104ZM89.4468 188.319C89.6288 189.287 88.6073 191.055 87.7753 191.211C86.9281 191.371 86.6876 189.72 87.4021 188.655C88.1684 187.515 89.2616 187.335 89.4468 188.319ZM89.4486 197.186C90.9807 196.898 91.0428 196.805 90.7499 195.248C90.418 193.483 90.355 193.462 88.5908 194.523C87.7511 195.028 87.4757 195.553 87.6274 196.359C87.8116 197.338 88.054 197.448 89.4486 197.186Z" fill="black"/>
<path fill-rule="evenodd" clip-rule="evenodd" d="M138.498 156.848C137.848 160.351 137.223 164.041 137.11 165.048C136.91 166.82 136.943 166.879 138.167 166.886C139.767 166.896 140.092 166.585 139.846 165.28C139.542 163.665 140.328 162.944 142.922 162.456C145.467 161.977 146.146 162.269 147.038 164.225C147.454 165.137 147.879 165.394 148.71 165.238C149.322 165.122 149.876 164.727 149.941 164.36C150.048 163.76 144.356 154.087 142.339 151.439C141.896 150.857 141.116 150.403 140.607 150.429C139.827 150.471 139.492 151.492 138.498 156.848ZM141.005 159.947C141.59 160.598 144.071 159.908 143.926 159.134C143.854 158.755 143.3 157.885 142.693 157.2L141.59 155.955L141.124 157.759C140.868 158.751 140.815 159.735 141.005 159.947Z" fill="black"/>
</g>
<defs>
<clipPath id="clip0_3721_8976">
<rect width="240" height="240" rx="60" fill="white"/>
</clipPath>
</defs>
</svg>
