<svg width="177" height="64" viewBox="0 0 177 64" fill="none" xmlns="http://www.w3.org/2000/svg">
<rect width="177" height="64" rx="12" fill="#FFF9EE"/>
<rect x="15.7832" y="12.54" width="31" height="31" rx="7.75" fill="#F3B96B"/>
<mask id="path-3-outside-1_3728_9291" maskUnits="userSpaceOnUse" x="25" y="24" width="22" height="11" fill="black">
<rect fill="white" x="25" y="24" width="22" height="11"/>
<path d="M26.4843 33.917C26.3835 33.917 26.2995 33.8656 26.2324 33.7628C26.182 33.7154 26.1274 33.6403 26.0686 33.5375C26.0098 33.4348 25.9888 33.2688 26.0056 33.0395C26.0308 32.8024 26.1232 32.4585 26.2827 32.0079C26.3667 31.7075 26.4339 31.4901 26.4843 31.3557C26.5347 31.2134 26.5599 31.1107 26.5599 31.0474C26.5599 30.9605 26.5683 30.8893 26.5851 30.834C26.6103 30.7708 26.6229 30.7115 26.6229 30.6561C26.6733 30.6561 26.7237 30.6126 26.7741 30.5257C26.8244 30.4387 26.8664 30.3202 26.9 30.17C26.9336 30.0356 26.963 29.9289 26.9882 29.8498C27.0218 29.7628 27.0386 29.7036 27.0386 29.6719C27.0806 29.6087 27.1226 29.5099 27.1646 29.3755C27.215 29.2411 27.2906 29.0791 27.3913 28.8893C27.4585 28.6522 27.5341 28.4071 27.6181 28.1542C27.7021 27.8933 27.7861 27.6522 27.87 27.4308C27.9624 27.2016 28.038 27.0237 28.0968 26.8972C28.1892 26.6522 28.2606 26.4822 28.311 26.3874C28.3614 26.2846 28.3614 26.2174 28.311 26.1858C28.2522 26.1462 28.2228 26.0474 28.2228 25.8893C28.2312 25.7233 28.311 25.581 28.4621 25.4625C28.5545 25.3597 28.6721 25.2885 28.8149 25.249C28.9576 25.2016 29.1214 25.1779 29.3062 25.1779C29.4909 25.1779 29.6841 25.1858 29.8857 25.2016C30.0368 25.2095 30.1964 25.2134 30.3644 25.2134C30.5407 25.2134 30.6499 25.2134 30.6919 25.2134C30.7675 25.2451 30.8599 25.2806 30.9691 25.3202C31.0782 25.3597 31.1748 25.3992 31.2588 25.4387C31.3512 25.4704 31.3974 25.498 31.3974 25.5217C31.3974 25.5692 31.4142 25.6008 31.4478 25.6166C31.4898 25.6245 31.5318 25.6324 31.5738 25.6403C31.6325 25.6403 31.7291 25.6917 31.8635 25.7945C31.9979 25.8893 32.1322 26.0079 32.2666 26.1502C32.4094 26.2846 32.5102 26.419 32.569 26.5534C32.6361 26.6877 32.6907 26.8142 32.7327 26.9328C32.7831 27.0514 32.7873 27.2213 32.7453 27.4427C32.7369 27.5613 32.7159 27.6798 32.6823 27.7984C32.6571 27.917 32.6278 27.996 32.5942 28.0356C32.5438 28.0672 32.4976 28.1067 32.4556 28.1542C32.4136 28.2016 32.3926 28.2451 32.3926 28.2846C32.3926 28.3162 32.359 28.3953 32.2918 28.5217C32.2246 28.6403 32.1406 28.7787 32.0399 28.9368C31.9391 29.087 31.8299 29.2372 31.7123 29.3874C31.5947 29.5375 31.4856 29.6561 31.3848 29.7431C31.2756 29.8696 31.1454 29.9881 30.9943 30.0988C30.8515 30.2095 30.7213 30.3004 30.6037 30.3715C30.3854 30.4664 30.1334 30.5573 29.8479 30.6443C29.5707 30.7312 29.302 30.8024 29.0416 30.8577C28.7813 30.9051 28.5713 30.9249 28.4117 30.917C28.1682 30.9486 28.0086 30.9802 27.933 31.0119C27.8574 31.0356 27.8029 31.1028 27.7693 31.2134C27.7273 31.3162 27.6853 31.4229 27.6433 31.5336C27.6097 31.6443 27.5929 31.7233 27.5929 31.7708C27.5761 31.8024 27.5383 31.8893 27.4795 32.0316C27.4291 32.1739 27.3661 32.3399 27.2906 32.5296C27.2234 32.7194 27.1604 32.9091 27.1016 33.0988C27.0428 33.2885 26.9966 33.4506 26.963 33.585C26.9294 33.6957 26.858 33.7787 26.7489 33.834C26.6481 33.8893 26.5599 33.917 26.4843 33.917ZM28.2732 29.9565C28.3068 29.9881 28.4159 29.9921 28.6007 29.9684C28.7855 29.9447 29.008 29.8854 29.2684 29.7905C29.4364 29.7352 29.6043 29.668 29.7723 29.5889C29.9487 29.5099 30.1166 29.4229 30.2762 29.3281C30.3602 29.2727 30.4484 29.2055 30.5407 29.1265C30.6331 29.0395 30.7633 28.8972 30.9313 28.6996C30.9565 28.6601 30.9985 28.585 31.0572 28.4743C31.1244 28.3557 31.1832 28.2451 31.2336 28.1423C31.3092 28.0316 31.3848 27.8696 31.4604 27.6561C31.536 27.4348 31.5528 27.253 31.5108 27.1107C31.4688 26.9051 31.3848 26.7352 31.2588 26.6008C31.1328 26.4585 30.9733 26.3557 30.7801 26.2925C30.5953 26.2609 30.44 26.2411 30.314 26.2332C30.1964 26.2253 30.0662 26.2332 29.9235 26.2569C29.7891 26.2964 29.6925 26.3518 29.6337 26.4229C29.5833 26.4941 29.5077 26.6443 29.407 26.8735C29.3482 26.9842 29.2642 27.1383 29.155 27.336C29.0458 27.5257 28.9534 27.7194 28.8779 27.917C28.7267 28.4387 28.5923 28.8379 28.4747 29.1146C28.3656 29.3913 28.2942 29.5731 28.2606 29.6601C28.269 29.747 28.2648 29.8103 28.248 29.8498C28.2312 29.8814 28.2396 29.917 28.2732 29.9565Z"/>
<path d="M33.7755 34C33.4311 34 33.1162 33.9447 32.8307 33.834C32.5451 33.7312 32.3687 33.498 32.3016 33.1344C32.31 32.9368 32.3184 32.8142 32.3268 32.7668C32.3435 32.7115 32.3771 32.6838 32.4275 32.6838C32.4611 32.6838 32.4863 32.6798 32.5031 32.6719C32.5283 32.6561 32.5409 32.6206 32.5409 32.5652C32.5493 32.4308 32.5703 32.2727 32.6039 32.0909C32.6459 31.9012 32.6921 31.7273 32.7425 31.5692C32.8013 31.4032 32.8559 31.2885 32.9062 31.2253C32.9566 31.0672 33.028 30.8498 33.1204 30.5731C33.2128 30.2964 33.3094 30.0079 33.4101 29.7075C33.5193 29.3992 33.6159 29.1186 33.6999 28.8656C33.7923 28.6126 33.8595 28.4348 33.9015 28.332C33.9434 28.2292 34.0106 28.087 34.103 27.9051C34.1954 27.7154 34.2584 27.5573 34.292 27.4308C34.3508 27.2727 34.4138 27.1028 34.4809 26.9209C34.5481 26.7312 34.6111 26.585 34.6699 26.4822L34.8841 26.1265L34.5439 25.8538C34.4264 25.7431 34.3676 25.6324 34.3676 25.5217C34.3676 25.3953 34.4474 25.2885 34.6069 25.2016C34.7749 25.1146 34.9681 25.0553 35.1864 25.0237C35.2704 25.0079 35.367 25 35.4762 25C35.5937 25 35.7029 25 35.8037 25C36.0473 25 36.2908 25.0079 36.5344 25.0237C36.7779 25.0395 36.9795 25.0593 37.139 25.083C37.2314 25.0988 37.349 25.1344 37.4918 25.1897C37.6346 25.2451 37.7731 25.3083 37.9075 25.3794C38.0419 25.4506 38.1385 25.5178 38.1972 25.581C38.1972 25.581 38.214 25.5968 38.2476 25.6285C38.2812 25.6522 38.3148 25.664 38.3484 25.664C38.3988 25.6877 38.487 25.7787 38.613 25.9368C38.7473 26.0949 38.8775 26.2727 39.0035 26.4704C39.1295 26.6601 39.2051 26.834 39.2303 26.9921C39.2554 27.1107 39.2722 27.2411 39.2806 27.3834C39.2974 27.5178 39.3058 27.6403 39.3058 27.751C39.2974 27.9407 39.2848 28.1225 39.268 28.2964C39.2596 28.4704 39.2386 28.6601 39.2051 28.8656C39.1799 29.0474 39.1337 29.249 39.0665 29.4704C39.0077 29.6838 38.9405 29.8933 38.8649 30.0988C38.7977 30.2964 38.7347 30.4585 38.676 30.585C38.6256 30.7115 38.592 30.7747 38.5752 30.7747C38.5248 30.7747 38.4954 30.7866 38.487 30.8103C38.4786 30.834 38.4744 30.8617 38.4744 30.8933C38.466 30.9723 38.4114 31.0988 38.3106 31.2727C38.2098 31.4387 38.0839 31.6206 37.9327 31.8182C37.7815 32.0079 37.622 32.1858 37.454 32.3518C37.2944 32.5178 37.1474 32.6403 37.0131 32.7194C36.7443 32.996 36.421 33.2292 36.0431 33.419C35.6651 33.6166 35.2746 33.7628 34.8715 33.8577C34.4767 33.9526 34.1114 34 33.7755 34ZM34.0904 32.8024C34.1744 32.8024 34.3088 32.7984 34.4935 32.7905C34.6867 32.7747 34.8421 32.747 34.9597 32.7075C35.1612 32.6601 35.4048 32.5573 35.6903 32.3992C35.9759 32.2332 36.2362 32.0395 36.4714 31.8182C36.7317 31.5652 36.9669 31.3043 37.1768 31.0356C37.3868 30.7589 37.5926 30.3794 37.7941 29.8972C37.9369 29.581 38.0377 29.2609 38.0965 28.9368C38.1637 28.6126 38.1972 28.3202 38.1972 28.0593C38.1972 27.5929 38.1049 27.2174 37.9201 26.9328C37.7353 26.6403 37.496 26.4427 37.202 26.3399C37.0845 26.3004 36.9627 26.2727 36.8367 26.2569C36.7107 26.2332 36.5889 26.2213 36.4714 26.2213C36.3874 26.2213 36.2992 26.2253 36.2068 26.2332C36.1228 26.2411 36.0682 26.253 36.0431 26.2688C35.9759 26.2688 35.9003 26.332 35.8163 26.4585C35.7407 26.585 35.6693 26.7431 35.6021 26.9328C35.5349 27.1225 35.472 27.3083 35.4132 27.4901C35.346 27.7194 35.283 27.9051 35.2242 28.0474C35.1654 28.1818 35.1066 28.3202 35.0478 28.4625C34.9891 28.6047 34.9177 28.8063 34.8337 29.0672C34.7161 29.2806 34.6153 29.498 34.5313 29.7194C34.4558 29.9328 34.3928 30.1225 34.3424 30.2885C34.292 30.4466 34.2542 30.5573 34.229 30.6206C34.1786 30.7154 34.124 30.8577 34.0652 31.0474C34.0148 31.2292 33.9644 31.4269 33.9141 31.6403C33.8721 31.8538 33.8343 32.0514 33.8007 32.2332C33.7755 32.415 33.7629 32.5534 33.7629 32.6482C33.7629 32.7115 33.7965 32.7549 33.8637 32.7787C33.9309 32.7945 34.0064 32.8024 34.0904 32.8024Z"/>
<path d="M39.7264 33.4308C39.676 33.3834 39.6046 33.3162 39.5122 33.2292C39.4282 33.1423 39.3527 33.0474 39.2855 32.9447C39.2267 32.8419 39.2141 32.747 39.2477 32.6601C39.3569 32.5731 39.4114 32.4664 39.4114 32.3399C39.4534 32.1976 39.4786 32.1107 39.487 32.0791C39.4954 32.0474 39.5122 32.0158 39.5374 31.9842C39.5374 31.9842 39.55 31.9447 39.5752 31.8656C39.6004 31.7866 39.6298 31.6957 39.6634 31.5929C39.697 31.4822 39.7264 31.3834 39.7516 31.2964C39.7768 31.2095 39.7894 31.1621 39.7894 31.1542C39.7978 31.083 39.8146 31.0079 39.8398 30.9289C39.865 30.8419 39.8818 30.7826 39.8902 30.751C39.9321 30.7115 39.9699 30.6522 40.0035 30.5731C40.0455 30.4862 40.0875 30.3913 40.1295 30.2885C40.1379 30.1779 40.1589 30.0949 40.1925 30.0395C40.2261 29.9842 40.2597 29.9447 40.2933 29.9209C40.3437 29.8419 40.3689 29.7431 40.3689 29.6245C40.3353 29.6245 40.3437 29.5494 40.3941 29.3992C40.4444 29.2411 40.5578 28.9684 40.7342 28.581C40.8182 28.4387 40.8812 28.3083 40.9232 28.1897C40.9735 28.0632 40.9987 28 40.9987 28C40.9987 27.9684 41.0113 27.9368 41.0365 27.9051C41.0617 27.8735 41.0869 27.8221 41.1121 27.751C41.1205 27.7115 41.1541 27.6364 41.2129 27.5257C41.2717 27.4071 41.3221 27.2885 41.3641 27.17C41.3977 27.0593 41.4355 26.9486 41.4775 26.8379C41.5278 26.7194 41.574 26.6245 41.616 26.5534C41.6412 26.4427 41.6874 26.3439 41.7546 26.2569C41.8218 26.1621 41.868 26.0711 41.8932 25.9842C41.9436 25.7233 42.0695 25.5613 42.2711 25.498C42.4727 25.4348 42.6574 25.5059 42.8254 25.7115C42.8926 25.7984 42.9598 25.8419 43.027 25.8419C43.1025 25.8419 43.2243 25.7984 43.3923 25.7115C43.4931 25.7115 43.6484 25.6996 43.8584 25.6759C44.0768 25.6522 44.2741 25.6245 44.4505 25.5929C44.5933 25.5929 44.736 25.585 44.8788 25.5692C45.0216 25.5455 45.1098 25.5336 45.1434 25.5336C45.1686 25.5099 45.2357 25.502 45.3449 25.5099C45.4541 25.5099 45.5633 25.5257 45.6725 25.5573C45.79 25.581 45.874 25.6166 45.9244 25.664C45.9412 25.7036 45.958 25.7866 45.9748 25.913C45.9916 26.0395 46 26.1581 46 26.2688C46 26.3794 45.9874 26.4348 45.9622 26.4348C45.937 26.4348 45.8614 26.4348 45.7354 26.4348C45.6179 26.4348 45.4751 26.4348 45.3071 26.4348C45.1476 26.4348 44.9628 26.4506 44.7528 26.4822C44.5513 26.5138 44.4001 26.5375 44.2993 26.5534C44.1901 26.5534 44.0684 26.5692 43.934 26.6008C43.7996 26.6245 43.6778 26.6364 43.5687 26.6364C43.3419 26.6601 43.1781 26.6719 43.0773 26.6719C42.9766 26.6719 42.9052 26.6838 42.8632 26.7075C42.8212 26.7233 42.775 26.7866 42.7246 26.8972C42.6154 27.1423 42.5231 27.3478 42.4475 27.5138C42.3719 27.6798 42.3005 27.8696 42.2333 28.083L42.0821 28.5929H42.2837C42.5776 28.5771 42.817 28.5573 43.0018 28.5336C43.1865 28.5099 43.3461 28.4862 43.4805 28.4625C43.6232 28.4387 43.7786 28.4229 43.9466 28.415C44.2909 28.3676 44.5471 28.3992 44.715 28.5099C44.883 28.6126 44.9628 28.7668 44.9544 28.9723C44.9544 29.004 44.9124 29.0632 44.8284 29.1502C44.7528 29.2372 44.5723 29.3004 44.2867 29.3399C44.1439 29.3478 43.9508 29.3636 43.7072 29.3874C43.4637 29.4032 43.2117 29.4229 42.9514 29.4466C42.6994 29.4625 42.4727 29.4783 42.2711 29.4941C42.0779 29.5099 41.9562 29.5178 41.9058 29.5178C41.7714 29.502 41.6916 29.502 41.6664 29.5178C41.6496 29.5336 41.637 29.5652 41.6286 29.6126C41.6286 29.6443 41.616 29.6996 41.5908 29.7787C41.5656 29.8577 41.5488 29.917 41.5404 29.9565C41.5068 30.004 41.4607 30.0791 41.4019 30.1818C41.3515 30.2767 41.3137 30.3794 41.2885 30.4901C41.2549 30.5929 41.2255 30.668 41.2003 30.7154C41.1751 30.7628 41.1583 30.8063 41.1499 30.8459C41.1331 30.8696 41.0995 30.9447 41.0491 31.0711C41.0071 31.1976 40.9526 31.3439 40.8854 31.5099C40.8266 31.6759 40.7678 31.8379 40.709 31.996C40.6586 32.1542 40.6166 32.2767 40.583 32.3636C40.4822 32.6798 40.3941 32.9249 40.3185 33.0988C40.2513 33.2648 40.1715 33.3715 40.0791 33.419C39.9951 33.4664 39.8776 33.4704 39.7264 33.4308Z"/>
</mask>
<path d="M26.4843 33.917C26.3835 33.917 26.2995 33.8656 26.2324 33.7628C26.182 33.7154 26.1274 33.6403 26.0686 33.5375C26.0098 33.4348 25.9888 33.2688 26.0056 33.0395C26.0308 32.8024 26.1232 32.4585 26.2827 32.0079C26.3667 31.7075 26.4339 31.4901 26.4843 31.3557C26.5347 31.2134 26.5599 31.1107 26.5599 31.0474C26.5599 30.9605 26.5683 30.8893 26.5851 30.834C26.6103 30.7708 26.6229 30.7115 26.6229 30.6561C26.6733 30.6561 26.7237 30.6126 26.7741 30.5257C26.8244 30.4387 26.8664 30.3202 26.9 30.17C26.9336 30.0356 26.963 29.9289 26.9882 29.8498C27.0218 29.7628 27.0386 29.7036 27.0386 29.6719C27.0806 29.6087 27.1226 29.5099 27.1646 29.3755C27.215 29.2411 27.2906 29.0791 27.3913 28.8893C27.4585 28.6522 27.5341 28.4071 27.6181 28.1542C27.7021 27.8933 27.7861 27.6522 27.87 27.4308C27.9624 27.2016 28.038 27.0237 28.0968 26.8972C28.1892 26.6522 28.2606 26.4822 28.311 26.3874C28.3614 26.2846 28.3614 26.2174 28.311 26.1858C28.2522 26.1462 28.2228 26.0474 28.2228 25.8893C28.2312 25.7233 28.311 25.581 28.4621 25.4625C28.5545 25.3597 28.6721 25.2885 28.8149 25.249C28.9576 25.2016 29.1214 25.1779 29.3062 25.1779C29.4909 25.1779 29.6841 25.1858 29.8857 25.2016C30.0368 25.2095 30.1964 25.2134 30.3644 25.2134C30.5407 25.2134 30.6499 25.2134 30.6919 25.2134C30.7675 25.2451 30.8599 25.2806 30.9691 25.3202C31.0782 25.3597 31.1748 25.3992 31.2588 25.4387C31.3512 25.4704 31.3974 25.498 31.3974 25.5217C31.3974 25.5692 31.4142 25.6008 31.4478 25.6166C31.4898 25.6245 31.5318 25.6324 31.5738 25.6403C31.6325 25.6403 31.7291 25.6917 31.8635 25.7945C31.9979 25.8893 32.1322 26.0079 32.2666 26.1502C32.4094 26.2846 32.5102 26.419 32.569 26.5534C32.6361 26.6877 32.6907 26.8142 32.7327 26.9328C32.7831 27.0514 32.7873 27.2213 32.7453 27.4427C32.7369 27.5613 32.7159 27.6798 32.6823 27.7984C32.6571 27.917 32.6278 27.996 32.5942 28.0356C32.5438 28.0672 32.4976 28.1067 32.4556 28.1542C32.4136 28.2016 32.3926 28.2451 32.3926 28.2846C32.3926 28.3162 32.359 28.3953 32.2918 28.5217C32.2246 28.6403 32.1406 28.7787 32.0399 28.9368C31.9391 29.087 31.8299 29.2372 31.7123 29.3874C31.5947 29.5375 31.4856 29.6561 31.3848 29.7431C31.2756 29.8696 31.1454 29.9881 30.9943 30.0988C30.8515 30.2095 30.7213 30.3004 30.6037 30.3715C30.3854 30.4664 30.1334 30.5573 29.8479 30.6443C29.5707 30.7312 29.302 30.8024 29.0416 30.8577C28.7813 30.9051 28.5713 30.9249 28.4117 30.917C28.1682 30.9486 28.0086 30.9802 27.933 31.0119C27.8574 31.0356 27.8029 31.1028 27.7693 31.2134C27.7273 31.3162 27.6853 31.4229 27.6433 31.5336C27.6097 31.6443 27.5929 31.7233 27.5929 31.7708C27.5761 31.8024 27.5383 31.8893 27.4795 32.0316C27.4291 32.1739 27.3661 32.3399 27.2906 32.5296C27.2234 32.7194 27.1604 32.9091 27.1016 33.0988C27.0428 33.2885 26.9966 33.4506 26.963 33.585C26.9294 33.6957 26.858 33.7787 26.7489 33.834C26.6481 33.8893 26.5599 33.917 26.4843 33.917ZM28.2732 29.9565C28.3068 29.9881 28.4159 29.9921 28.6007 29.9684C28.7855 29.9447 29.008 29.8854 29.2684 29.7905C29.4364 29.7352 29.6043 29.668 29.7723 29.5889C29.9487 29.5099 30.1166 29.4229 30.2762 29.3281C30.3602 29.2727 30.4484 29.2055 30.5407 29.1265C30.6331 29.0395 30.7633 28.8972 30.9313 28.6996C30.9565 28.6601 30.9985 28.585 31.0572 28.4743C31.1244 28.3557 31.1832 28.2451 31.2336 28.1423C31.3092 28.0316 31.3848 27.8696 31.4604 27.6561C31.536 27.4348 31.5528 27.253 31.5108 27.1107C31.4688 26.9051 31.3848 26.7352 31.2588 26.6008C31.1328 26.4585 30.9733 26.3557 30.7801 26.2925C30.5953 26.2609 30.44 26.2411 30.314 26.2332C30.1964 26.2253 30.0662 26.2332 29.9235 26.2569C29.7891 26.2964 29.6925 26.3518 29.6337 26.4229C29.5833 26.4941 29.5077 26.6443 29.407 26.8735C29.3482 26.9842 29.2642 27.1383 29.155 27.336C29.0458 27.5257 28.9534 27.7194 28.8779 27.917C28.7267 28.4387 28.5923 28.8379 28.4747 29.1146C28.3656 29.3913 28.2942 29.5731 28.2606 29.6601C28.269 29.747 28.2648 29.8103 28.248 29.8498C28.2312 29.8814 28.2396 29.917 28.2732 29.9565Z" fill="black"/>
<path d="M33.7755 34C33.4311 34 33.1162 33.9447 32.8307 33.834C32.5451 33.7312 32.3687 33.498 32.3016 33.1344C32.31 32.9368 32.3184 32.8142 32.3268 32.7668C32.3435 32.7115 32.3771 32.6838 32.4275 32.6838C32.4611 32.6838 32.4863 32.6798 32.5031 32.6719C32.5283 32.6561 32.5409 32.6206 32.5409 32.5652C32.5493 32.4308 32.5703 32.2727 32.6039 32.0909C32.6459 31.9012 32.6921 31.7273 32.7425 31.5692C32.8013 31.4032 32.8559 31.2885 32.9062 31.2253C32.9566 31.0672 33.028 30.8498 33.1204 30.5731C33.2128 30.2964 33.3094 30.0079 33.4101 29.7075C33.5193 29.3992 33.6159 29.1186 33.6999 28.8656C33.7923 28.6126 33.8595 28.4348 33.9015 28.332C33.9434 28.2292 34.0106 28.087 34.103 27.9051C34.1954 27.7154 34.2584 27.5573 34.292 27.4308C34.3508 27.2727 34.4138 27.1028 34.4809 26.9209C34.5481 26.7312 34.6111 26.585 34.6699 26.4822L34.8841 26.1265L34.5439 25.8538C34.4264 25.7431 34.3676 25.6324 34.3676 25.5217C34.3676 25.3953 34.4474 25.2885 34.6069 25.2016C34.7749 25.1146 34.9681 25.0553 35.1864 25.0237C35.2704 25.0079 35.367 25 35.4762 25C35.5937 25 35.7029 25 35.8037 25C36.0473 25 36.2908 25.0079 36.5344 25.0237C36.7779 25.0395 36.9795 25.0593 37.139 25.083C37.2314 25.0988 37.349 25.1344 37.4918 25.1897C37.6346 25.2451 37.7731 25.3083 37.9075 25.3794C38.0419 25.4506 38.1385 25.5178 38.1972 25.581C38.1972 25.581 38.214 25.5968 38.2476 25.6285C38.2812 25.6522 38.3148 25.664 38.3484 25.664C38.3988 25.6877 38.487 25.7787 38.613 25.9368C38.7473 26.0949 38.8775 26.2727 39.0035 26.4704C39.1295 26.6601 39.2051 26.834 39.2303 26.9921C39.2554 27.1107 39.2722 27.2411 39.2806 27.3834C39.2974 27.5178 39.3058 27.6403 39.3058 27.751C39.2974 27.9407 39.2848 28.1225 39.268 28.2964C39.2596 28.4704 39.2386 28.6601 39.2051 28.8656C39.1799 29.0474 39.1337 29.249 39.0665 29.4704C39.0077 29.6838 38.9405 29.8933 38.8649 30.0988C38.7977 30.2964 38.7347 30.4585 38.676 30.585C38.6256 30.7115 38.592 30.7747 38.5752 30.7747C38.5248 30.7747 38.4954 30.7866 38.487 30.8103C38.4786 30.834 38.4744 30.8617 38.4744 30.8933C38.466 30.9723 38.4114 31.0988 38.3106 31.2727C38.2098 31.4387 38.0839 31.6206 37.9327 31.8182C37.7815 32.0079 37.622 32.1858 37.454 32.3518C37.2944 32.5178 37.1474 32.6403 37.0131 32.7194C36.7443 32.996 36.421 33.2292 36.0431 33.419C35.6651 33.6166 35.2746 33.7628 34.8715 33.8577C34.4767 33.9526 34.1114 34 33.7755 34ZM34.0904 32.8024C34.1744 32.8024 34.3088 32.7984 34.4935 32.7905C34.6867 32.7747 34.8421 32.747 34.9597 32.7075C35.1612 32.6601 35.4048 32.5573 35.6903 32.3992C35.9759 32.2332 36.2362 32.0395 36.4714 31.8182C36.7317 31.5652 36.9669 31.3043 37.1768 31.0356C37.3868 30.7589 37.5926 30.3794 37.7941 29.8972C37.9369 29.581 38.0377 29.2609 38.0965 28.9368C38.1637 28.6126 38.1972 28.3202 38.1972 28.0593C38.1972 27.5929 38.1049 27.2174 37.9201 26.9328C37.7353 26.6403 37.496 26.4427 37.202 26.3399C37.0845 26.3004 36.9627 26.2727 36.8367 26.2569C36.7107 26.2332 36.5889 26.2213 36.4714 26.2213C36.3874 26.2213 36.2992 26.2253 36.2068 26.2332C36.1228 26.2411 36.0682 26.253 36.0431 26.2688C35.9759 26.2688 35.9003 26.332 35.8163 26.4585C35.7407 26.585 35.6693 26.7431 35.6021 26.9328C35.5349 27.1225 35.472 27.3083 35.4132 27.4901C35.346 27.7194 35.283 27.9051 35.2242 28.0474C35.1654 28.1818 35.1066 28.3202 35.0478 28.4625C34.9891 28.6047 34.9177 28.8063 34.8337 29.0672C34.7161 29.2806 34.6153 29.498 34.5313 29.7194C34.4558 29.9328 34.3928 30.1225 34.3424 30.2885C34.292 30.4466 34.2542 30.5573 34.229 30.6206C34.1786 30.7154 34.124 30.8577 34.0652 31.0474C34.0148 31.2292 33.9644 31.4269 33.9141 31.6403C33.8721 31.8538 33.8343 32.0514 33.8007 32.2332C33.7755 32.415 33.7629 32.5534 33.7629 32.6482C33.7629 32.7115 33.7965 32.7549 33.8637 32.7787C33.9309 32.7945 34.0064 32.8024 34.0904 32.8024Z" fill="black"/>
<path d="M39.7264 33.4308C39.676 33.3834 39.6046 33.3162 39.5122 33.2292C39.4282 33.1423 39.3527 33.0474 39.2855 32.9447C39.2267 32.8419 39.2141 32.747 39.2477 32.6601C39.3569 32.5731 39.4114 32.4664 39.4114 32.3399C39.4534 32.1976 39.4786 32.1107 39.487 32.0791C39.4954 32.0474 39.5122 32.0158 39.5374 31.9842C39.5374 31.9842 39.55 31.9447 39.5752 31.8656C39.6004 31.7866 39.6298 31.6957 39.6634 31.5929C39.697 31.4822 39.7264 31.3834 39.7516 31.2964C39.7768 31.2095 39.7894 31.1621 39.7894 31.1542C39.7978 31.083 39.8146 31.0079 39.8398 30.9289C39.865 30.8419 39.8818 30.7826 39.8902 30.751C39.9321 30.7115 39.9699 30.6522 40.0035 30.5731C40.0455 30.4862 40.0875 30.3913 40.1295 30.2885C40.1379 30.1779 40.1589 30.0949 40.1925 30.0395C40.2261 29.9842 40.2597 29.9447 40.2933 29.9209C40.3437 29.8419 40.3689 29.7431 40.3689 29.6245C40.3353 29.6245 40.3437 29.5494 40.3941 29.3992C40.4444 29.2411 40.5578 28.9684 40.7342 28.581C40.8182 28.4387 40.8812 28.3083 40.9232 28.1897C40.9735 28.0632 40.9987 28 40.9987 28C40.9987 27.9684 41.0113 27.9368 41.0365 27.9051C41.0617 27.8735 41.0869 27.8221 41.1121 27.751C41.1205 27.7115 41.1541 27.6364 41.2129 27.5257C41.2717 27.4071 41.3221 27.2885 41.3641 27.17C41.3977 27.0593 41.4355 26.9486 41.4775 26.8379C41.5278 26.7194 41.574 26.6245 41.616 26.5534C41.6412 26.4427 41.6874 26.3439 41.7546 26.2569C41.8218 26.1621 41.868 26.0711 41.8932 25.9842C41.9436 25.7233 42.0695 25.5613 42.2711 25.498C42.4727 25.4348 42.6574 25.5059 42.8254 25.7115C42.8926 25.7984 42.9598 25.8419 43.027 25.8419C43.1025 25.8419 43.2243 25.7984 43.3923 25.7115C43.4931 25.7115 43.6484 25.6996 43.8584 25.6759C44.0768 25.6522 44.2741 25.6245 44.4505 25.5929C44.5933 25.5929 44.736 25.585 44.8788 25.5692C45.0216 25.5455 45.1098 25.5336 45.1434 25.5336C45.1686 25.5099 45.2357 25.502 45.3449 25.5099C45.4541 25.5099 45.5633 25.5257 45.6725 25.5573C45.79 25.581 45.874 25.6166 45.9244 25.664C45.9412 25.7036 45.958 25.7866 45.9748 25.913C45.9916 26.0395 46 26.1581 46 26.2688C46 26.3794 45.9874 26.4348 45.9622 26.4348C45.937 26.4348 45.8614 26.4348 45.7354 26.4348C45.6179 26.4348 45.4751 26.4348 45.3071 26.4348C45.1476 26.4348 44.9628 26.4506 44.7528 26.4822C44.5513 26.5138 44.4001 26.5375 44.2993 26.5534C44.1901 26.5534 44.0684 26.5692 43.934 26.6008C43.7996 26.6245 43.6778 26.6364 43.5687 26.6364C43.3419 26.6601 43.1781 26.6719 43.0773 26.6719C42.9766 26.6719 42.9052 26.6838 42.8632 26.7075C42.8212 26.7233 42.775 26.7866 42.7246 26.8972C42.6154 27.1423 42.5231 27.3478 42.4475 27.5138C42.3719 27.6798 42.3005 27.8696 42.2333 28.083L42.0821 28.5929H42.2837C42.5776 28.5771 42.817 28.5573 43.0018 28.5336C43.1865 28.5099 43.3461 28.4862 43.4805 28.4625C43.6232 28.4387 43.7786 28.4229 43.9466 28.415C44.2909 28.3676 44.5471 28.3992 44.715 28.5099C44.883 28.6126 44.9628 28.7668 44.9544 28.9723C44.9544 29.004 44.9124 29.0632 44.8284 29.1502C44.7528 29.2372 44.5723 29.3004 44.2867 29.3399C44.1439 29.3478 43.9508 29.3636 43.7072 29.3874C43.4637 29.4032 43.2117 29.4229 42.9514 29.4466C42.6994 29.4625 42.4727 29.4783 42.2711 29.4941C42.0779 29.5099 41.9562 29.5178 41.9058 29.5178C41.7714 29.502 41.6916 29.502 41.6664 29.5178C41.6496 29.5336 41.637 29.5652 41.6286 29.6126C41.6286 29.6443 41.616 29.6996 41.5908 29.7787C41.5656 29.8577 41.5488 29.917 41.5404 29.9565C41.5068 30.004 41.4607 30.0791 41.4019 30.1818C41.3515 30.2767 41.3137 30.3794 41.2885 30.4901C41.2549 30.5929 41.2255 30.668 41.2003 30.7154C41.1751 30.7628 41.1583 30.8063 41.1499 30.8459C41.1331 30.8696 41.0995 30.9447 41.0491 31.0711C41.0071 31.1976 40.9526 31.3439 40.8854 31.5099C40.8266 31.6759 40.7678 31.8379 40.709 31.996C40.6586 32.1542 40.6166 32.2767 40.583 32.3636C40.4822 32.6798 40.3941 32.9249 40.3185 33.0988C40.2513 33.2648 40.1715 33.3715 40.0791 33.419C39.9951 33.4664 39.8776 33.4704 39.7264 33.4308Z" fill="black"/>
<path d="M26.4843 33.917C26.3835 33.917 26.2995 33.8656 26.2324 33.7628C26.182 33.7154 26.1274 33.6403 26.0686 33.5375C26.0098 33.4348 25.9888 33.2688 26.0056 33.0395C26.0308 32.8024 26.1232 32.4585 26.2827 32.0079C26.3667 31.7075 26.4339 31.4901 26.4843 31.3557C26.5347 31.2134 26.5599 31.1107 26.5599 31.0474C26.5599 30.9605 26.5683 30.8893 26.5851 30.834C26.6103 30.7708 26.6229 30.7115 26.6229 30.6561C26.6733 30.6561 26.7237 30.6126 26.7741 30.5257C26.8244 30.4387 26.8664 30.3202 26.9 30.17C26.9336 30.0356 26.963 29.9289 26.9882 29.8498C27.0218 29.7628 27.0386 29.7036 27.0386 29.6719C27.0806 29.6087 27.1226 29.5099 27.1646 29.3755C27.215 29.2411 27.2906 29.0791 27.3913 28.8893C27.4585 28.6522 27.5341 28.4071 27.6181 28.1542C27.7021 27.8933 27.7861 27.6522 27.87 27.4308C27.9624 27.2016 28.038 27.0237 28.0968 26.8972C28.1892 26.6522 28.2606 26.4822 28.311 26.3874C28.3614 26.2846 28.3614 26.2174 28.311 26.1858C28.2522 26.1462 28.2228 26.0474 28.2228 25.8893C28.2312 25.7233 28.311 25.581 28.4621 25.4625C28.5545 25.3597 28.6721 25.2885 28.8149 25.249C28.9576 25.2016 29.1214 25.1779 29.3062 25.1779C29.4909 25.1779 29.6841 25.1858 29.8857 25.2016C30.0368 25.2095 30.1964 25.2134 30.3644 25.2134C30.5407 25.2134 30.6499 25.2134 30.6919 25.2134C30.7675 25.2451 30.8599 25.2806 30.9691 25.3202C31.0782 25.3597 31.1748 25.3992 31.2588 25.4387C31.3512 25.4704 31.3974 25.498 31.3974 25.5217C31.3974 25.5692 31.4142 25.6008 31.4478 25.6166C31.4898 25.6245 31.5318 25.6324 31.5738 25.6403C31.6325 25.6403 31.7291 25.6917 31.8635 25.7945C31.9979 25.8893 32.1322 26.0079 32.2666 26.1502C32.4094 26.2846 32.5102 26.419 32.569 26.5534C32.6361 26.6877 32.6907 26.8142 32.7327 26.9328C32.7831 27.0514 32.7873 27.2213 32.7453 27.4427C32.7369 27.5613 32.7159 27.6798 32.6823 27.7984C32.6571 27.917 32.6278 27.996 32.5942 28.0356C32.5438 28.0672 32.4976 28.1067 32.4556 28.1542C32.4136 28.2016 32.3926 28.2451 32.3926 28.2846C32.3926 28.3162 32.359 28.3953 32.2918 28.5217C32.2246 28.6403 32.1406 28.7787 32.0399 28.9368C31.9391 29.087 31.8299 29.2372 31.7123 29.3874C31.5947 29.5375 31.4856 29.6561 31.3848 29.7431C31.2756 29.8696 31.1454 29.9881 30.9943 30.0988C30.8515 30.2095 30.7213 30.3004 30.6037 30.3715C30.3854 30.4664 30.1334 30.5573 29.8479 30.6443C29.5707 30.7312 29.302 30.8024 29.0416 30.8577C28.7813 30.9051 28.5713 30.9249 28.4117 30.917C28.1682 30.9486 28.0086 30.9802 27.933 31.0119C27.8574 31.0356 27.8029 31.1028 27.7693 31.2134C27.7273 31.3162 27.6853 31.4229 27.6433 31.5336C27.6097 31.6443 27.5929 31.7233 27.5929 31.7708C27.5761 31.8024 27.5383 31.8893 27.4795 32.0316C27.4291 32.1739 27.3661 32.3399 27.2906 32.5296C27.2234 32.7194 27.1604 32.9091 27.1016 33.0988C27.0428 33.2885 26.9966 33.4506 26.963 33.585C26.9294 33.6957 26.858 33.7787 26.7489 33.834C26.6481 33.8893 26.5599 33.917 26.4843 33.917ZM28.2732 29.9565C28.3068 29.9881 28.4159 29.9921 28.6007 29.9684C28.7855 29.9447 29.008 29.8854 29.2684 29.7905C29.4364 29.7352 29.6043 29.668 29.7723 29.5889C29.9487 29.5099 30.1166 29.4229 30.2762 29.3281C30.3602 29.2727 30.4484 29.2055 30.5407 29.1265C30.6331 29.0395 30.7633 28.8972 30.9313 28.6996C30.9565 28.6601 30.9985 28.585 31.0572 28.4743C31.1244 28.3557 31.1832 28.2451 31.2336 28.1423C31.3092 28.0316 31.3848 27.8696 31.4604 27.6561C31.536 27.4348 31.5528 27.253 31.5108 27.1107C31.4688 26.9051 31.3848 26.7352 31.2588 26.6008C31.1328 26.4585 30.9733 26.3557 30.7801 26.2925C30.5953 26.2609 30.44 26.2411 30.314 26.2332C30.1964 26.2253 30.0662 26.2332 29.9235 26.2569C29.7891 26.2964 29.6925 26.3518 29.6337 26.4229C29.5833 26.4941 29.5077 26.6443 29.407 26.8735C29.3482 26.9842 29.2642 27.1383 29.155 27.336C29.0458 27.5257 28.9534 27.7194 28.8779 27.917C28.7267 28.4387 28.5923 28.8379 28.4747 29.1146C28.3656 29.3913 28.2942 29.5731 28.2606 29.6601C28.269 29.747 28.2648 29.8103 28.248 29.8498C28.2312 29.8814 28.2396 29.917 28.2732 29.9565Z" stroke="black" mask="url(#path-3-outside-1_3728_9291)"/>
<path d="M33.7755 34C33.4311 34 33.1162 33.9447 32.8307 33.834C32.5451 33.7312 32.3687 33.498 32.3016 33.1344C32.31 32.9368 32.3184 32.8142 32.3268 32.7668C32.3435 32.7115 32.3771 32.6838 32.4275 32.6838C32.4611 32.6838 32.4863 32.6798 32.5031 32.6719C32.5283 32.6561 32.5409 32.6206 32.5409 32.5652C32.5493 32.4308 32.5703 32.2727 32.6039 32.0909C32.6459 31.9012 32.6921 31.7273 32.7425 31.5692C32.8013 31.4032 32.8559 31.2885 32.9062 31.2253C32.9566 31.0672 33.028 30.8498 33.1204 30.5731C33.2128 30.2964 33.3094 30.0079 33.4101 29.7075C33.5193 29.3992 33.6159 29.1186 33.6999 28.8656C33.7923 28.6126 33.8595 28.4348 33.9015 28.332C33.9434 28.2292 34.0106 28.087 34.103 27.9051C34.1954 27.7154 34.2584 27.5573 34.292 27.4308C34.3508 27.2727 34.4138 27.1028 34.4809 26.9209C34.5481 26.7312 34.6111 26.585 34.6699 26.4822L34.8841 26.1265L34.5439 25.8538C34.4264 25.7431 34.3676 25.6324 34.3676 25.5217C34.3676 25.3953 34.4474 25.2885 34.6069 25.2016C34.7749 25.1146 34.9681 25.0553 35.1864 25.0237C35.2704 25.0079 35.367 25 35.4762 25C35.5937 25 35.7029 25 35.8037 25C36.0473 25 36.2908 25.0079 36.5344 25.0237C36.7779 25.0395 36.9795 25.0593 37.139 25.083C37.2314 25.0988 37.349 25.1344 37.4918 25.1897C37.6346 25.2451 37.7731 25.3083 37.9075 25.3794C38.0419 25.4506 38.1385 25.5178 38.1972 25.581C38.1972 25.581 38.214 25.5968 38.2476 25.6285C38.2812 25.6522 38.3148 25.664 38.3484 25.664C38.3988 25.6877 38.487 25.7787 38.613 25.9368C38.7473 26.0949 38.8775 26.2727 39.0035 26.4704C39.1295 26.6601 39.2051 26.834 39.2303 26.9921C39.2554 27.1107 39.2722 27.2411 39.2806 27.3834C39.2974 27.5178 39.3058 27.6403 39.3058 27.751C39.2974 27.9407 39.2848 28.1225 39.268 28.2964C39.2596 28.4704 39.2386 28.6601 39.2051 28.8656C39.1799 29.0474 39.1337 29.249 39.0665 29.4704C39.0077 29.6838 38.9405 29.8933 38.8649 30.0988C38.7977 30.2964 38.7347 30.4585 38.676 30.585C38.6256 30.7115 38.592 30.7747 38.5752 30.7747C38.5248 30.7747 38.4954 30.7866 38.487 30.8103C38.4786 30.834 38.4744 30.8617 38.4744 30.8933C38.466 30.9723 38.4114 31.0988 38.3106 31.2727C38.2098 31.4387 38.0839 31.6206 37.9327 31.8182C37.7815 32.0079 37.622 32.1858 37.454 32.3518C37.2944 32.5178 37.1474 32.6403 37.0131 32.7194C36.7443 32.996 36.421 33.2292 36.0431 33.419C35.6651 33.6166 35.2746 33.7628 34.8715 33.8577C34.4767 33.9526 34.1114 34 33.7755 34ZM34.0904 32.8024C34.1744 32.8024 34.3088 32.7984 34.4935 32.7905C34.6867 32.7747 34.8421 32.747 34.9597 32.7075C35.1612 32.6601 35.4048 32.5573 35.6903 32.3992C35.9759 32.2332 36.2362 32.0395 36.4714 31.8182C36.7317 31.5652 36.9669 31.3043 37.1768 31.0356C37.3868 30.7589 37.5926 30.3794 37.7941 29.8972C37.9369 29.581 38.0377 29.2609 38.0965 28.9368C38.1637 28.6126 38.1972 28.3202 38.1972 28.0593C38.1972 27.5929 38.1049 27.2174 37.9201 26.9328C37.7353 26.6403 37.496 26.4427 37.202 26.3399C37.0845 26.3004 36.9627 26.2727 36.8367 26.2569C36.7107 26.2332 36.5889 26.2213 36.4714 26.2213C36.3874 26.2213 36.2992 26.2253 36.2068 26.2332C36.1228 26.2411 36.0682 26.253 36.0431 26.2688C35.9759 26.2688 35.9003 26.332 35.8163 26.4585C35.7407 26.585 35.6693 26.7431 35.6021 26.9328C35.5349 27.1225 35.472 27.3083 35.4132 27.4901C35.346 27.7194 35.283 27.9051 35.2242 28.0474C35.1654 28.1818 35.1066 28.3202 35.0478 28.4625C34.9891 28.6047 34.9177 28.8063 34.8337 29.0672C34.7161 29.2806 34.6153 29.498 34.5313 29.7194C34.4558 29.9328 34.3928 30.1225 34.3424 30.2885C34.292 30.4466 34.2542 30.5573 34.229 30.6206C34.1786 30.7154 34.124 30.8577 34.0652 31.0474C34.0148 31.2292 33.9644 31.4269 33.9141 31.6403C33.8721 31.8538 33.8343 32.0514 33.8007 32.2332C33.7755 32.415 33.7629 32.5534 33.7629 32.6482C33.7629 32.7115 33.7965 32.7549 33.8637 32.7787C33.9309 32.7945 34.0064 32.8024 34.0904 32.8024Z" stroke="black" mask="url(#path-3-outside-1_3728_9291)"/>
<path d="M39.7264 33.4308C39.676 33.3834 39.6046 33.3162 39.5122 33.2292C39.4282 33.1423 39.3527 33.0474 39.2855 32.9447C39.2267 32.8419 39.2141 32.747 39.2477 32.6601C39.3569 32.5731 39.4114 32.4664 39.4114 32.3399C39.4534 32.1976 39.4786 32.1107 39.487 32.0791C39.4954 32.0474 39.5122 32.0158 39.5374 31.9842C39.5374 31.9842 39.55 31.9447 39.5752 31.8656C39.6004 31.7866 39.6298 31.6957 39.6634 31.5929C39.697 31.4822 39.7264 31.3834 39.7516 31.2964C39.7768 31.2095 39.7894 31.1621 39.7894 31.1542C39.7978 31.083 39.8146 31.0079 39.8398 30.9289C39.865 30.8419 39.8818 30.7826 39.8902 30.751C39.9321 30.7115 39.9699 30.6522 40.0035 30.5731C40.0455 30.4862 40.0875 30.3913 40.1295 30.2885C40.1379 30.1779 40.1589 30.0949 40.1925 30.0395C40.2261 29.9842 40.2597 29.9447 40.2933 29.9209C40.3437 29.8419 40.3689 29.7431 40.3689 29.6245C40.3353 29.6245 40.3437 29.5494 40.3941 29.3992C40.4444 29.2411 40.5578 28.9684 40.7342 28.581C40.8182 28.4387 40.8812 28.3083 40.9232 28.1897C40.9735 28.0632 40.9987 28 40.9987 28C40.9987 27.9684 41.0113 27.9368 41.0365 27.9051C41.0617 27.8735 41.0869 27.8221 41.1121 27.751C41.1205 27.7115 41.1541 27.6364 41.2129 27.5257C41.2717 27.4071 41.3221 27.2885 41.3641 27.17C41.3977 27.0593 41.4355 26.9486 41.4775 26.8379C41.5278 26.7194 41.574 26.6245 41.616 26.5534C41.6412 26.4427 41.6874 26.3439 41.7546 26.2569C41.8218 26.1621 41.868 26.0711 41.8932 25.9842C41.9436 25.7233 42.0695 25.5613 42.2711 25.498C42.4727 25.4348 42.6574 25.5059 42.8254 25.7115C42.8926 25.7984 42.9598 25.8419 43.027 25.8419C43.1025 25.8419 43.2243 25.7984 43.3923 25.7115C43.4931 25.7115 43.6484 25.6996 43.8584 25.6759C44.0768 25.6522 44.2741 25.6245 44.4505 25.5929C44.5933 25.5929 44.736 25.585 44.8788 25.5692C45.0216 25.5455 45.1098 25.5336 45.1434 25.5336C45.1686 25.5099 45.2357 25.502 45.3449 25.5099C45.4541 25.5099 45.5633 25.5257 45.6725 25.5573C45.79 25.581 45.874 25.6166 45.9244 25.664C45.9412 25.7036 45.958 25.7866 45.9748 25.913C45.9916 26.0395 46 26.1581 46 26.2688C46 26.3794 45.9874 26.4348 45.9622 26.4348C45.937 26.4348 45.8614 26.4348 45.7354 26.4348C45.6179 26.4348 45.4751 26.4348 45.3071 26.4348C45.1476 26.4348 44.9628 26.4506 44.7528 26.4822C44.5513 26.5138 44.4001 26.5375 44.2993 26.5534C44.1901 26.5534 44.0684 26.5692 43.934 26.6008C43.7996 26.6245 43.6778 26.6364 43.5687 26.6364C43.3419 26.6601 43.1781 26.6719 43.0773 26.6719C42.9766 26.6719 42.9052 26.6838 42.8632 26.7075C42.8212 26.7233 42.775 26.7866 42.7246 26.8972C42.6154 27.1423 42.5231 27.3478 42.4475 27.5138C42.3719 27.6798 42.3005 27.8696 42.2333 28.083L42.0821 28.5929H42.2837C42.5776 28.5771 42.817 28.5573 43.0018 28.5336C43.1865 28.5099 43.3461 28.4862 43.4805 28.4625C43.6232 28.4387 43.7786 28.4229 43.9466 28.415C44.2909 28.3676 44.5471 28.3992 44.715 28.5099C44.883 28.6126 44.9628 28.7668 44.9544 28.9723C44.9544 29.004 44.9124 29.0632 44.8284 29.1502C44.7528 29.2372 44.5723 29.3004 44.2867 29.3399C44.1439 29.3478 43.9508 29.3636 43.7072 29.3874C43.4637 29.4032 43.2117 29.4229 42.9514 29.4466C42.6994 29.4625 42.4727 29.4783 42.2711 29.4941C42.0779 29.5099 41.9562 29.5178 41.9058 29.5178C41.7714 29.502 41.6916 29.502 41.6664 29.5178C41.6496 29.5336 41.637 29.5652 41.6286 29.6126C41.6286 29.6443 41.616 29.6996 41.5908 29.7787C41.5656 29.8577 41.5488 29.917 41.5404 29.9565C41.5068 30.004 41.4607 30.0791 41.4019 30.1818C41.3515 30.2767 41.3137 30.3794 41.2885 30.4901C41.2549 30.5929 41.2255 30.668 41.2003 30.7154C41.1751 30.7628 41.1583 30.8063 41.1499 30.8459C41.1331 30.8696 41.0995 30.9447 41.0491 31.0711C41.0071 31.1976 40.9526 31.3439 40.8854 31.5099C40.8266 31.6759 40.7678 31.8379 40.709 31.996C40.6586 32.1542 40.6166 32.2767 40.583 32.3636C40.4822 32.6798 40.3941 32.9249 40.3185 33.0988C40.2513 33.2648 40.1715 33.3715 40.0791 33.419C39.9951 33.4664 39.8776 33.4704 39.7264 33.4308Z" stroke="black" mask="url(#path-3-outside-1_3728_9291)"/>
<path d="M26.2748 46.5529H46.7252M26.2748 41.2753H39.4686M22.7832 21.5328V48.4676C22.7832 50.1205 24.1231 51.4604 25.776 51.4604H47.224C48.8769 51.4604 50.2168 50.1205 50.2168 48.4676V21.5328C50.2168 19.8799 48.8769 18.54 47.224 18.54H25.776C24.1231 18.54 22.7832 19.8799 22.7832 21.5328Z" stroke="black" stroke-width="3"/>
<path d="M75.5005 32.6419C75.1848 32.6917 74.8027 32.6834 74.354 32.6169C73.9054 32.5671 73.4236 32.4757 72.9085 32.3428C72.6426 32.2597 72.4516 32.16 72.3353 32.0437C72.2356 31.9274 72.0611 31.7114 71.8119 31.3957C71.6457 31.1465 71.5377 30.864 71.4879 30.5483C71.4546 30.2326 71.4962 29.9502 71.6125 29.7009C71.7454 29.4517 71.9614 29.3022 72.2605 29.2523C72.3934 29.2191 72.5513 29.2523 72.734 29.352C72.9334 29.4351 73.1411 29.5431 73.3571 29.676C73.706 29.8754 74.0799 30.0748 74.4787 30.2742C74.8774 30.4902 75.243 30.5732 75.5753 30.5234C75.8079 30.4735 76.082 30.4403 76.3977 30.4237C76.73 30.4237 77.0457 30.3988 77.3448 30.3489C77.6605 30.2991 77.9097 30.2077 78.0925 30.0748C78.9731 29.4766 79.6294 29.0031 80.0614 28.6542C80.4934 28.2886 80.7094 28.1058 80.7094 28.1058C80.7427 28.0394 80.8008 27.9895 80.8839 27.9563C80.9836 27.9065 81.0999 27.8566 81.2328 27.8068C81.3325 27.7071 81.4904 27.5492 81.7064 27.3332C81.9224 27.1006 82.1301 26.8763 82.3294 26.6603C82.5454 26.4443 82.6784 26.3197 82.7282 26.2865C82.7614 26.1369 82.7947 26.0206 82.8279 25.9375C82.8611 25.8378 82.8777 25.7381 82.8777 25.6385C83.0107 25.5055 83.1851 25.2314 83.4011 24.816C83.6337 24.384 83.8664 23.9104 84.099 23.3954C84.3316 22.8637 84.4978 22.3818 84.5974 21.9498C84.8134 21.036 84.8882 20.2052 84.8218 19.4575C84.7553 18.7098 84.5642 18.0369 84.2485 17.4387C83.9328 16.8406 83.5091 16.3172 82.9774 15.8686C82.7947 15.719 82.5454 15.5612 82.2297 15.395C81.9141 15.2123 81.5901 15.0461 81.2577 14.8966C80.9254 14.7304 80.6264 14.6058 80.3605 14.5227C80.1113 14.4397 79.9617 14.4064 79.9119 14.423C79.8454 14.4397 79.7125 14.6972 79.5131 15.1957C79.3304 15.6775 79.0977 16.3006 78.8153 17.0649C78.5494 17.8292 78.2587 18.6517 77.943 19.5323C77.6439 20.3963 77.3531 21.2187 77.0707 21.9997C76.9876 22.3154 76.8796 22.6477 76.7467 22.9966C76.6303 23.3455 76.5307 23.6529 76.4476 23.9188C76.3645 24.168 76.323 24.3341 76.323 24.4172C76.1402 24.6997 75.9491 25.1317 75.7497 25.7132C75.5503 26.2948 75.3842 27.1255 75.2513 28.2055C75.1017 28.7705 74.9937 29.244 74.9273 29.6262C74.8608 29.9917 74.7943 30.1662 74.7279 30.1495C74.7279 30.1495 74.7196 30.2243 74.703 30.3738C74.6863 30.54 74.6531 30.648 74.6033 30.6978C74.6033 30.7975 74.5036 30.864 74.3042 30.8972C74.1048 30.9305 73.8722 30.8889 73.6063 30.7726C73.3405 30.6563 73.0913 30.432 72.8586 30.0997C72.8088 29.9169 72.7673 29.6511 72.734 29.3022C72.7174 28.9366 72.7756 28.5129 72.9085 28.0311C72.9916 27.7154 73.1079 27.3083 73.2574 26.8098C73.407 26.3114 73.5731 25.7963 73.7559 25.2646C73.9387 24.7329 74.1048 24.2428 74.2543 23.7941C74.4205 23.3455 74.5368 23.0132 74.6033 22.7972C74.7196 22.5148 74.8857 21.9831 75.1017 21.2021C75.2347 20.7701 75.3676 20.3381 75.5005 19.9061C75.65 19.4741 75.7913 19.092 75.9242 18.7597C76.0571 18.4107 76.1485 18.1864 76.1983 18.0867C76.2814 17.8707 76.3811 17.5218 76.4974 17.04C76.6303 16.5415 76.8297 15.9766 77.0956 15.3452L77.27 14.5227L76.9959 14.3981C76.7965 14.4646 76.6387 14.4895 76.5223 14.4729C76.4227 14.4397 76.3562 14.4147 76.323 14.3981C76.2233 14.4314 76.0903 14.4064 75.9242 14.3234C75.7747 14.2237 75.6334 14.099 75.5005 13.9495C75.3842 13.8 75.3094 13.6753 75.2762 13.5757C75.243 13.5092 75.218 13.4261 75.2014 13.3264C75.2014 13.2101 75.2014 13.152 75.2014 13.152C75.218 13.0523 75.3593 12.9526 75.6251 12.8529C75.891 12.7366 76.2316 12.6286 76.647 12.5289C77.079 12.4292 77.5359 12.3544 78.0177 12.3046C78.4996 12.2547 78.9482 12.2464 79.3636 12.2797C79.7956 12.3129 80.3273 12.4126 80.9587 12.5787C81.5901 12.7449 82.1301 12.911 82.5787 13.0772C83.1104 13.2766 83.6836 13.6172 84.2984 14.099C84.9131 14.5809 85.4698 15.1541 85.9682 15.8187C86.4833 16.4834 86.8239 17.1812 86.9901 17.9123C87.0399 18.1117 87.0898 18.3941 87.1396 18.7597C87.1894 19.1252 87.2144 19.4824 87.2144 19.8314C87.231 20.1637 87.1978 20.3797 87.1147 20.4794C87.0814 20.5458 87.0565 20.6289 87.0399 20.7286C87.0399 20.8117 87.0731 20.8698 87.1396 20.9031C87.123 20.9529 87.0648 21.144 86.9651 21.4763C86.8654 21.792 86.7741 22.0661 86.691 22.2988C86.6578 22.7308 86.5414 23.2292 86.3421 23.7941C86.1593 24.3591 85.9516 24.8991 85.719 25.4141C85.503 25.9126 85.3119 26.3031 85.1458 26.5855C85.0793 26.5855 85.0128 26.6021 84.9464 26.6354C84.8965 26.652 84.9048 26.6686 84.9713 26.6852C84.9713 26.7683 84.8799 26.9261 84.6971 27.1588C84.6307 27.2086 84.5227 27.3332 84.3731 27.5326C84.2402 27.7154 84.1322 27.84 84.0491 27.9065C84.0325 28.0228 83.9827 28.1225 83.8996 28.2055C83.8165 28.272 83.7417 28.3052 83.6753 28.3052C83.6753 28.3052 83.6587 28.3052 83.6254 28.3052C83.6088 28.3052 83.6005 28.3385 83.6005 28.4049C83.4676 28.6043 83.2433 28.8618 82.9276 29.1775C82.6119 29.4932 82.2547 29.8172 81.8559 30.1495C81.4571 30.4818 81.0584 30.7892 80.6596 31.0717C80.2608 31.3542 79.8953 31.5618 79.563 31.6948C79.3968 31.8111 79.2224 31.9025 79.0396 31.9689C78.8568 32.052 78.6824 32.1351 78.5162 32.2182C78.4331 32.2846 78.1922 32.3428 77.7934 32.3926C77.3947 32.4425 76.971 32.484 76.5223 32.5172C76.0903 32.5505 75.7497 32.592 75.5005 32.6419ZM89.275 29.8255C89.059 29.8255 88.8845 29.784 88.7516 29.7009C88.6353 29.6178 88.4858 29.5015 88.303 29.352C87.9873 29.0197 87.7298 28.6625 87.5304 28.2803C87.3476 27.8981 87.2812 27.5658 87.331 27.2834C87.3809 27.1505 87.3975 27.0258 87.3809 26.9095C87.3809 26.7766 87.3809 26.7101 87.3809 26.7101C87.2978 26.6271 87.2728 26.5772 87.3061 26.5606C87.3393 26.5274 87.3725 26.4775 87.4058 26.4111C87.5055 26.4111 87.5387 26.3197 87.5055 26.1369C87.4722 26.004 87.5221 25.7215 87.655 25.2895C87.8045 24.8409 88.0039 24.4172 88.2532 24.0184C88.3529 23.8523 88.5024 23.6363 88.7018 23.3704C88.9012 23.088 89.1172 22.8138 89.3498 22.548C89.599 22.2655 89.8233 22.0412 90.0227 21.8751C90.4381 21.5261 90.8202 21.2437 91.1692 21.0277C91.5347 20.8117 91.9002 20.6621 92.2658 20.5791C92.6313 20.496 93.0052 20.4544 93.3873 20.4544C93.7861 20.4544 94.1101 20.5874 94.3593 20.8532C94.7415 21.0194 95.0073 21.2437 95.1569 21.5261C95.323 21.8086 95.431 22.1741 95.4809 22.6228C95.5307 23.1212 95.4809 23.736 95.3313 24.4671C95.1818 25.1815 94.7747 26.0123 94.1101 26.9594C93.6947 27.5575 93.2876 28.0228 92.8889 28.3551C92.4901 28.6874 92.0498 28.9948 91.5679 29.2772C91.219 29.5098 90.8452 29.6511 90.4464 29.7009C90.0476 29.7508 89.6572 29.7923 89.275 29.8255ZM91.8172 26.7849C92.1827 26.4692 92.4402 26.1203 92.5898 25.7381C92.7559 25.356 92.9304 24.9074 93.1132 24.3923C93.1796 24.2926 93.2212 24.1264 93.2378 23.8938C93.271 23.6612 93.2793 23.4369 93.2627 23.2209C93.2461 22.9883 93.1879 22.8554 93.0882 22.8221C92.9387 22.7058 92.7892 22.6809 92.6396 22.7474C92.4901 22.7972 92.299 22.9052 92.0664 23.0714C91.5679 23.4868 91.1027 23.9686 90.6707 24.5169C90.2553 25.0486 89.9645 25.7049 89.7984 26.4858C89.7485 26.9012 89.7901 27.2169 89.923 27.4329C90.0725 27.6323 90.3052 27.6905 90.6209 27.6074C90.9532 27.5077 91.3519 27.2335 91.8172 26.7849ZM98.1112 29.2523C97.862 29.2523 97.6128 29.0695 97.3635 28.704C97.1143 28.3218 96.9149 27.8566 96.7654 27.3083C96.6325 26.76 96.5826 26.22 96.6158 25.6883C96.6158 25.1566 96.6408 24.7329 96.6906 24.4172C96.7571 24.0849 96.8235 23.7609 96.89 23.4452C96.9398 23.3455 96.9648 23.2624 96.9648 23.196C96.9814 23.1295 96.998 23.0215 97.0146 22.872C97.0478 22.7224 97.106 22.4732 97.1891 22.1243C97.2555 21.8418 97.322 21.6092 97.3885 21.4264C97.4715 21.2437 97.538 21.1191 97.5878 21.0526C97.7872 20.7867 98.0115 20.6289 98.2608 20.5791C98.51 20.5126 98.7343 20.5375 98.9337 20.6538C99.1497 20.7701 99.2743 20.9446 99.3075 21.1772C99.4072 21.2603 99.4571 21.4514 99.4571 21.7504C99.4737 22.0329 99.4571 22.332 99.4072 22.6477C99.3574 22.9468 99.2826 23.1628 99.1829 23.2957C99.1497 23.3788 99.1082 23.5948 99.0583 23.9437C99.0251 24.2926 98.9835 24.6581 98.9337 25.0403C98.9005 25.4225 98.8589 25.7298 98.8091 25.9625C98.7592 26.2615 98.7758 26.4526 98.8589 26.5357C98.9586 26.6021 99.1248 26.5274 99.3574 26.3114C99.6066 26.0788 99.9306 25.6717 100.329 25.0901C100.662 24.5917 100.903 24.2012 101.052 23.9188C101.218 23.6363 101.343 23.3788 101.426 23.1461C101.526 22.9135 101.634 22.6394 101.75 22.3237C101.833 22.0578 101.908 21.8418 101.974 21.6757C102.057 21.5095 102.132 21.3932 102.199 21.3268C102.381 21.0609 102.622 20.9529 102.921 21.0027C103.237 21.036 103.495 21.1191 103.694 21.252C103.893 21.4514 104.01 21.7255 104.043 22.0744C104.093 22.4068 104.018 22.7723 103.819 23.1711C103.686 23.4369 103.553 23.7526 103.42 24.1181C103.304 24.4837 103.204 24.8492 103.121 25.2148C103.054 25.5803 103.021 25.896 103.021 26.1618C103.021 26.4941 103.063 26.6935 103.146 26.76C103.245 26.8098 103.362 26.8348 103.495 26.8348C103.694 26.8348 103.885 26.7683 104.068 26.6354C104.251 26.4858 104.516 26.2283 104.865 25.8628C105.015 25.7132 105.198 25.4889 105.414 25.1898C105.63 24.8908 105.837 24.5751 106.037 24.2428C106.253 23.9104 106.427 23.6197 106.56 23.3704C106.71 23.1046 106.784 22.9384 106.784 22.872C106.784 22.7723 106.859 22.6311 107.009 22.4483C107.108 22.3154 107.183 22.2157 107.233 22.1492C107.3 22.0661 107.416 21.9831 107.582 21.9C107.715 21.8335 107.864 21.8252 108.031 21.8751C108.197 21.9083 108.338 21.9914 108.454 22.1243C108.537 22.1908 108.596 22.3569 108.629 22.6228C108.679 22.872 108.704 23.0963 108.704 23.2957C108.654 23.4784 108.579 23.736 108.479 24.0683C108.38 24.384 108.272 24.6914 108.155 24.9905C108.056 25.2729 107.964 25.464 107.881 25.5637C107.815 25.6301 107.698 25.7548 107.532 25.9375C107.366 26.1037 107.216 26.2865 107.084 26.4858C106.668 26.9843 106.369 27.3083 106.186 27.4578C106.004 27.6074 105.846 27.7486 105.713 27.8815C105.364 28.2305 104.965 28.5129 104.516 28.7289C104.068 28.9283 103.644 29.0446 103.245 29.0778C102.847 29.0945 102.531 29.0197 102.298 28.8535C101.783 28.5877 101.526 28.1391 101.526 27.5077C101.526 27.3748 101.501 27.2585 101.451 27.1588C101.418 27.0425 101.401 26.9843 101.401 26.9843C101.335 26.9843 101.243 27.0009 101.127 27.0341C101.027 27.0674 100.919 27.1837 100.803 27.3831C100.653 27.6655 100.396 27.9563 100.03 28.2554C99.6814 28.5378 99.3242 28.7788 98.9586 28.9782C98.5931 29.1609 98.3106 29.2523 98.1112 29.2523ZM117.192 29.9003C116.943 29.9003 116.702 29.8255 116.47 29.676C116.237 29.5098 116.046 29.2855 115.896 29.0031C115.747 28.704 115.672 28.3551 115.672 27.9563C115.672 27.7071 115.714 27.3581 115.797 26.9095C115.896 26.4443 116.038 25.8628 116.22 25.1649C116.254 24.9323 116.279 24.7828 116.295 24.7163C116.328 24.6498 116.345 24.5834 116.345 24.5169C116.345 24.4837 116.337 24.4588 116.32 24.4421C116.32 24.4089 116.303 24.3923 116.27 24.3923C116.137 24.3923 115.955 24.4837 115.722 24.6664C115.506 24.8326 115.257 25.032 114.974 25.2646C114.924 25.2978 114.866 25.3394 114.8 25.3892C114.75 25.4391 114.692 25.4889 114.625 25.5388C114.575 25.5886 114.517 25.6385 114.451 25.6883C114.285 25.788 114.027 25.9791 113.678 26.2615C113.346 26.544 112.997 26.8431 112.631 27.1588C112.283 27.4745 111.975 27.7403 111.709 27.9563C111.576 28.056 111.46 28.1391 111.36 28.2055C111.277 28.272 111.219 28.3052 111.186 28.3052C111.153 28.3052 111.02 28.2637 110.787 28.1806C110.571 28.0809 110.355 27.948 110.139 27.7818C109.94 27.5991 109.84 27.3914 109.84 27.1588C109.84 27.0092 109.898 26.7101 110.015 26.2615C110.147 25.8129 110.33 25.2812 110.563 24.6664C110.795 24.0517 111.061 23.4286 111.36 22.7972C111.427 22.6477 111.477 22.4483 111.51 22.1991C111.543 21.9498 111.576 21.7089 111.61 21.4763C111.659 21.2271 111.743 21.0443 111.859 20.928C111.909 20.8449 111.967 20.7867 112.033 20.7535C112.116 20.7037 112.199 20.6787 112.283 20.6787C112.449 20.6787 112.607 20.7203 112.756 20.8034C112.906 20.8698 113.047 20.9861 113.18 21.1523C113.429 21.4181 113.562 21.7338 113.579 22.0994C113.612 22.4483 113.587 22.7889 113.504 23.1212C113.421 23.4535 113.329 23.7277 113.23 23.9437C113.13 24.1431 113.08 24.2261 113.08 24.1929C113.147 24.1597 113.238 24.0766 113.354 23.9437C113.487 23.8108 113.711 23.6529 114.027 23.4701C114.459 23.1378 114.791 22.9052 115.024 22.7723C115.257 22.6228 115.431 22.5148 115.547 22.4483C115.68 22.3818 115.797 22.3071 115.896 22.224C115.979 22.1575 116.038 22.116 116.071 22.0994C116.121 22.0828 116.146 22.0744 116.146 22.0744C116.195 22.0744 116.279 22.0412 116.395 21.9748C116.528 21.9083 116.652 21.8751 116.769 21.8751C116.935 21.8751 117.109 21.9166 117.292 21.9997C117.475 22.0661 117.633 22.1658 117.766 22.2988C117.899 22.4151 117.965 22.5397 117.965 22.6726C117.965 22.7224 117.982 22.764 118.015 22.7972C118.048 22.8304 118.081 22.872 118.115 22.9218C118.198 23.0215 118.289 23.1628 118.389 23.3455C118.505 23.5117 118.563 23.7858 118.563 24.168C118.563 24.4338 118.505 24.8243 118.389 25.3394C118.272 25.8545 118.148 26.3612 118.015 26.8597C117.882 27.3748 117.815 27.7901 117.815 28.1058C117.832 28.4049 117.865 28.6375 117.915 28.8037C117.965 28.9532 117.99 29.0778 117.99 29.1775C117.99 29.3105 117.923 29.4683 117.791 29.6511C117.658 29.8172 117.458 29.9003 117.192 29.9003ZM120.856 30.7477C120.64 30.6646 120.465 30.5317 120.332 30.3489C120.199 30.1828 120.125 29.9335 120.108 29.6012C120.091 29.3852 120.1 29.0695 120.133 28.6542C120.166 28.2221 120.224 27.7901 120.307 27.3581C120.307 27.3249 120.307 27.2917 120.307 27.2585C120.324 27.2086 120.332 27.1754 120.332 27.1588C120.349 27.0923 120.366 26.9926 120.382 26.8597C120.399 26.7101 120.415 26.5938 120.432 26.5108C120.465 26.4111 120.482 26.4028 120.482 26.4858L120.631 25.8129C120.698 25.5138 120.773 25.2065 120.856 24.8908C120.939 24.5751 121.014 24.3009 121.08 24.0683C121.163 23.8191 121.213 23.6778 121.23 23.6446C121.23 23.6446 121.254 23.5532 121.304 23.3704C121.371 23.1711 121.437 22.9717 121.504 22.7723C121.77 21.9415 122.019 21.252 122.251 20.7037C122.501 20.1554 122.717 19.7566 122.899 19.5074C122.916 19.4575 122.941 19.3994 122.974 19.3329C123.007 19.2498 123.032 19.1834 123.049 19.1335C123.049 18.9507 123.057 18.8178 123.074 18.7347C123.107 18.6517 123.149 18.5769 123.199 18.5104C123.232 18.444 123.282 18.3609 123.348 18.2612C123.415 18.1449 123.489 18.0037 123.572 17.8375L123.672 17.5634C123.772 17.3474 123.896 17.0981 124.046 16.8157C124.195 16.5166 124.303 16.2923 124.37 16.1427C124.42 15.9932 124.519 15.8187 124.669 15.6194C124.819 15.4034 124.985 15.2621 125.167 15.1957L125.143 15.1707C125.226 15.0212 125.383 14.9049 125.616 14.8218C125.849 14.7221 126.04 14.6723 126.189 14.6723C126.422 14.6723 126.596 14.7387 126.713 14.8717C126.846 15.0046 126.912 15.1874 126.912 15.42C126.912 15.6692 126.904 15.852 126.887 15.9683C126.887 16.068 126.829 16.1843 126.713 16.3172H126.738C126.771 16.284 126.763 16.3338 126.713 16.4667C126.663 16.5997 126.621 16.691 126.588 16.7409C126.555 16.824 126.513 16.9154 126.463 17.015C126.43 17.1147 126.389 17.1895 126.339 17.2394C126.289 17.3058 126.156 17.5384 125.94 17.9372C125.724 18.3194 125.483 18.7763 125.217 19.308C124.951 19.8231 124.694 20.3298 124.445 20.8283C124.212 21.3101 124.046 21.684 123.946 21.9498L123.822 22.3237C123.805 22.3901 123.797 22.44 123.797 22.4732C123.747 22.5895 123.697 22.7058 123.647 22.8221C123.597 22.9384 123.547 23.0381 123.498 23.1212L123.099 24.6664L122.999 25.1898L122.775 25.7631L122.625 26.2366C122.592 26.3363 122.567 26.4443 122.551 26.5606C122.534 26.6769 122.501 26.76 122.451 26.8098C122.451 26.8265 122.443 26.8514 122.426 26.8846C122.426 26.9012 122.426 26.9178 122.426 26.9345C122.359 27.2003 122.243 27.5741 122.077 28.056C121.927 28.5378 121.836 29.0695 121.803 29.6511C121.803 29.6677 121.794 29.6843 121.778 29.7009C121.778 29.7175 121.778 29.7342 121.778 29.7508C121.728 30.0997 121.62 30.3655 121.454 30.5483C121.304 30.7477 121.105 30.8142 120.856 30.7477ZM127.479 29.8006C127.13 29.8671 126.864 29.8505 126.681 29.7508C126.515 29.6345 126.341 29.4932 126.158 29.3271C125.892 29.1942 125.651 29.0114 125.435 28.7788C125.219 28.5295 125.053 28.272 124.937 28.0061C124.82 27.7403 124.77 27.5326 124.787 27.3831C124.837 26.8015 124.97 26.1701 125.186 25.4889C125.418 24.8077 125.709 24.1431 126.058 23.4951C126.424 22.8471 126.831 22.2738 127.279 21.7754C127.745 21.2603 128.243 20.8864 128.775 20.6538C129.107 20.5209 129.464 20.4711 129.846 20.5043C130.229 20.5375 130.486 20.6954 130.619 20.9778C130.868 21.4597 130.81 21.7671 130.445 21.9C130.395 21.9 130.337 21.9249 130.27 21.9748C130.204 22.008 130.17 22.0578 130.17 22.1243C130.237 22.1575 130.42 22.1658 130.719 22.1492C131.018 22.116 131.317 22.0661 131.616 21.9997C131.932 21.9166 132.139 21.8335 132.239 21.7504C132.339 21.7006 132.413 21.6757 132.463 21.6757C132.513 21.6757 132.638 21.6923 132.837 21.7255C133.12 21.8086 133.261 21.9083 133.261 22.0246C133.261 22.0911 133.286 22.1991 133.336 22.3486C133.385 22.4815 133.444 22.548 133.51 22.548C133.626 22.5646 133.651 22.6809 133.585 22.8969C133.535 23.1129 133.344 23.3372 133.012 23.5698C132.696 23.7692 132.497 23.9021 132.413 23.9686C132.347 24.0184 132.339 24.1348 132.389 24.3175C132.521 24.6332 132.513 25.0154 132.364 25.464C132.214 25.9126 131.965 26.3778 131.616 26.8597C131.267 27.3415 130.852 27.7985 130.37 28.2305C129.905 28.6458 129.414 29.0031 128.899 29.3022C128.401 29.5846 127.927 29.7508 127.479 29.8006ZM127.553 27.7071C127.62 27.7071 127.736 27.6738 127.902 27.6074C128.069 27.5243 128.201 27.4578 128.301 27.408C128.368 27.3415 128.451 27.2668 128.55 27.1837C128.667 27.084 128.758 27.0258 128.825 27.0092C128.891 27.0092 128.933 26.9843 128.949 26.9345C128.966 26.868 129.024 26.7434 129.124 26.5606C129.223 26.3612 129.423 26.0705 129.722 25.6883C130.054 25.3228 130.27 25.032 130.37 24.816C130.469 24.5834 130.478 24.3341 130.395 24.0683C130.378 24.0018 130.328 23.9603 130.245 23.9437C130.179 23.9271 130.087 23.8855 129.971 23.8191C129.805 23.8191 129.689 23.8606 129.622 23.9437C129.572 24.0101 129.456 23.9686 129.273 23.8191L128.874 23.3206L128.451 23.7443C128.185 24.0101 127.944 24.3424 127.728 24.7412C127.529 25.14 127.371 25.5471 127.254 25.9625C127.138 26.3778 127.063 26.7434 127.03 27.0591C127.013 27.3083 127.055 27.4745 127.155 27.5575C127.254 27.6406 127.387 27.6905 127.553 27.7071ZM135.611 29.5514C135.412 29.6012 135.188 29.5431 134.938 29.3769C134.689 29.2108 134.465 29.0031 134.265 28.7538C134.066 28.5046 133.941 28.2803 133.892 28.0809C133.825 27.732 133.842 27.3083 133.941 26.8098C134.058 26.2948 134.249 25.7548 134.515 25.1898C134.78 24.6083 135.113 24.0434 135.512 23.4951C135.91 22.9301 136.359 22.4234 136.857 21.9748C137.356 21.5261 137.896 21.1772 138.477 20.928C138.727 20.7951 138.901 20.712 139.001 20.6787C139.1 20.6289 139.2 20.6289 139.3 20.6787C139.4 20.712 139.574 20.7951 139.823 20.928C140.056 20.9944 140.288 21.0775 140.521 21.1772C140.77 21.2603 140.986 21.4264 141.169 21.6757C141.302 21.9249 141.402 22.1741 141.468 22.4234C141.535 22.6726 141.593 22.9551 141.643 23.2708C141.776 23.6861 141.825 23.9603 141.792 24.0932C141.759 24.2095 141.709 24.3009 141.643 24.3674C141.51 24.5335 141.476 24.6166 141.543 24.6166C141.543 24.6166 141.535 24.6498 141.518 24.7163C141.518 24.7661 141.485 24.8492 141.418 24.9655C141.302 25.3311 141.211 25.68 141.144 26.0123C141.094 26.328 141.103 26.6105 141.169 26.8597C141.302 27.2252 141.476 27.4412 141.692 27.5077C141.925 27.5741 142.224 27.4246 142.59 27.0591C142.772 26.9261 142.98 26.8431 143.213 26.8098C143.445 26.76 143.562 26.8015 143.562 26.9345C143.562 26.9345 143.587 26.9594 143.636 27.0092C143.686 27.0425 143.744 27.0591 143.811 27.0591C143.894 27.0591 143.927 27.1421 143.911 27.3083C143.894 27.4578 143.861 27.6323 143.811 27.8317C143.761 28.0311 143.695 28.1972 143.612 28.3302C143.362 28.5794 143.238 28.7455 143.238 28.8286C143.238 28.8286 143.204 28.8618 143.138 28.9283C143.088 28.9782 142.997 29.0612 142.864 29.1775C142.565 29.3603 142.183 29.4517 141.717 29.4517C141.269 29.4517 140.92 29.3603 140.671 29.1775C140.421 28.9948 140.172 28.7705 139.923 28.5046C139.69 28.2388 139.541 27.9895 139.474 27.7569L139.35 27.5077L138.627 27.9812C138.444 28.164 138.311 28.3052 138.228 28.4049C138.145 28.488 138.07 28.5628 138.004 28.6292C137.954 28.6957 137.896 28.7538 137.829 28.8037C137.78 28.8535 137.721 28.8785 137.655 28.8785C137.588 28.8785 137.53 28.8785 137.48 28.8785C137.431 28.8785 137.406 28.8785 137.406 28.8785C137.406 28.9449 137.289 29.0363 137.057 29.1526C136.824 29.2523 136.567 29.3437 136.284 29.4268C136.002 29.5098 135.777 29.5514 135.611 29.5514ZM136.135 27.4578C136.234 27.4578 136.384 27.3997 136.583 27.2834C136.799 27.1505 137.032 26.9926 137.281 26.8098C137.53 26.6271 137.755 26.4443 137.954 26.2615C138.17 26.0788 138.328 25.9292 138.428 25.8129C138.494 25.7465 138.569 25.6385 138.652 25.4889C138.752 25.3394 138.86 25.2065 138.976 25.0901C139.358 24.6581 139.599 24.3175 139.699 24.0683C139.798 23.8024 139.757 23.52 139.574 23.2209C139.508 23.0381 139.424 22.9384 139.325 22.9218C139.225 22.9052 139.017 22.9634 138.702 23.0963C138.502 23.2126 138.286 23.4037 138.054 23.6695C137.821 23.9354 137.58 24.2344 137.331 24.5668C137.098 24.8991 136.882 25.2397 136.683 25.5886C136.484 25.9375 136.317 26.2532 136.184 26.5357C136.068 26.8181 136.01 27.0425 136.01 27.2086C136.01 27.2751 136.027 27.3332 136.06 27.3831C136.11 27.4329 136.135 27.4578 136.135 27.4578ZM151.411 30.4735C151.195 30.5234 150.979 30.4652 150.763 30.2991C150.564 30.1495 150.422 29.9834 150.339 29.8006C150.24 29.5348 150.173 29.2855 150.14 29.0529C150.123 28.8037 150.107 28.5212 150.09 28.2055L150.065 27.3581L149.043 28.2803C148.478 28.812 147.947 29.1942 147.448 29.4268C146.966 29.6428 146.526 29.7508 146.127 29.7508C145.945 29.7175 145.72 29.6012 145.454 29.4018C145.205 29.1858 144.973 28.9532 144.757 28.704C144.557 28.4382 144.416 28.2221 144.333 28.056C144.233 27.8234 144.2 27.4994 144.233 27.084C144.283 26.6686 144.383 26.2117 144.532 25.7132C144.698 25.2148 144.898 24.7246 145.13 24.2428C145.38 23.7609 145.662 23.3455 145.978 22.9966C146.526 22.1658 147.207 21.6508 148.022 21.4514C148.836 21.2354 149.558 21.3018 150.19 21.6508C150.489 21.8003 150.705 21.8584 150.838 21.8252C150.971 21.792 151.054 21.684 151.087 21.5012C151.154 21.2354 151.228 20.9861 151.311 20.7535C151.394 20.5209 151.511 20.172 151.66 19.7067C152.076 18.444 152.433 17.4554 152.732 16.7409C153.048 16.0264 153.33 15.4034 153.579 14.8717C153.762 14.4895 153.945 14.2237 154.128 14.0741C154.31 13.9246 154.468 13.8581 154.601 13.8747C154.784 13.8747 155.008 13.9412 155.274 14.0741C155.557 14.207 155.739 14.3898 155.822 14.6224C155.889 14.772 155.914 14.9298 155.897 15.096C155.897 15.2621 155.847 15.4366 155.748 15.6194C155.532 16.0181 155.274 16.5498 154.975 17.2144C154.693 17.8624 154.402 18.5769 154.103 19.3578C153.82 20.1387 153.554 20.9114 153.305 21.6757C153.056 22.44 152.848 23.1129 152.682 23.6944C152.582 24.06 152.499 24.5252 152.433 25.0901C152.383 25.6551 152.342 26.2366 152.308 26.8348C152.292 27.4163 152.292 27.9397 152.308 28.4049C152.325 28.8535 152.35 29.1443 152.383 29.2772C152.483 29.6095 152.483 29.8588 152.383 30.0249C152.283 30.1911 152.142 30.2991 151.959 30.3489C151.777 30.4154 151.594 30.4569 151.411 30.4735ZM147.299 27.4578C147.531 27.3748 147.739 27.2751 147.922 27.1588C148.105 27.0425 148.321 26.8929 148.57 26.7101C149.068 26.328 149.426 25.9957 149.642 25.7132C149.874 25.4308 150.057 25.0818 150.19 24.6664C150.273 24.4172 150.273 24.2012 150.19 24.0184C150.123 23.8357 149.999 23.6612 149.816 23.4951C149.633 23.3455 149.401 23.2874 149.118 23.3206C148.836 23.3372 148.512 23.5117 148.146 23.844C147.747 24.2095 147.407 24.6332 147.124 25.1151C146.842 25.5969 146.609 26.2865 146.426 27.1837C146.393 27.3498 146.451 27.4661 146.601 27.5326C146.75 27.5991 146.983 27.5741 147.299 27.4578ZM74.1796 51.1465C73.731 50.8142 73.382 50.3406 73.1328 49.7258C72.9002 49.0945 72.7922 48.5129 72.8088 47.9812C72.7922 46.9511 72.8753 45.8877 73.058 44.7911C73.2574 43.6944 73.515 42.6726 73.8307 41.7255C74.0467 41.1274 74.2793 40.5209 74.5285 39.9061C74.7777 39.2914 75.0353 38.7098 75.3011 38.1615C75.567 37.5966 75.8245 37.123 76.0737 36.7409C76.5888 35.8603 77.1122 35.1541 77.6439 34.6224C78.1922 34.0907 78.6076 33.7418 78.89 33.5757C79.3553 33.343 79.9119 33.1686 80.5599 33.0523C81.2079 32.9193 81.8393 32.9193 82.4541 33.0523C82.8861 33.1686 83.3097 33.3347 83.7251 33.5507C84.1571 33.7667 84.531 34.0326 84.8467 34.3483C85.0294 34.5144 85.1707 34.6889 85.2704 34.8717C85.3701 35.0544 85.4199 35.2455 85.4199 35.4449C85.4199 35.6941 85.3036 35.935 85.071 36.1677C84.8384 36.4003 84.5808 36.5581 84.2984 36.6412C84.0159 36.7243 83.7999 36.6744 83.6504 36.4917C83.4344 36.1594 83.2267 35.9101 83.0273 35.744C82.8279 35.5612 82.6202 35.4283 82.4042 35.3452C82.2214 35.2289 81.9722 35.1707 81.6565 35.1707C81.3574 35.1707 81.0334 35.2289 80.6845 35.3452C80.3356 35.4449 80.0033 35.6277 79.6876 35.8935C79.5713 35.9932 79.4134 36.1344 79.214 36.3172C79.0313 36.5 78.8319 36.7243 78.6159 36.9901C78.4165 37.2394 78.2337 37.5135 78.0676 37.8126C77.6024 38.5769 77.2036 39.3578 76.8713 40.1554C76.5556 40.9363 76.2731 41.792 76.0239 42.7224C75.9076 43.1046 75.783 43.5781 75.65 44.1431C75.5171 44.6914 75.3925 45.2397 75.2762 45.788C75.1765 46.3363 75.11 46.8181 75.0768 47.2335C75.027 47.8151 75.0436 48.272 75.1267 48.6043C75.2097 48.9366 75.3842 49.1609 75.65 49.2772C75.9159 49.3769 76.2897 49.3686 76.7716 49.2523C77.2036 49.1526 77.6356 48.9865 78.0676 48.7538C78.5162 48.5046 78.9482 48.1972 79.3636 47.8317C79.779 47.4495 80.1528 47.0009 80.4851 46.4858C80.7842 45.9209 81.0251 45.4058 81.2079 44.9406C81.4073 44.4754 81.507 44.1098 81.507 43.844C81.5236 43.5615 81.3824 43.4286 81.0833 43.4452C80.402 43.4618 79.8537 43.4369 79.4384 43.3704C79.0396 43.304 78.7654 43.1378 78.6159 42.872C78.3999 42.8221 78.2836 42.6394 78.267 42.3237C78.267 42.008 78.4248 41.7504 78.7405 41.5511C79.023 41.4015 79.4134 41.3101 79.9119 41.2769C80.4104 41.2437 80.9171 41.2603 81.4322 41.3268C81.9639 41.3766 82.3876 41.4929 82.7033 41.6757C83.0688 41.8584 83.3181 42.1326 83.451 42.4981C83.6005 42.8471 83.6753 43.2209 83.6753 43.6197C83.6919 44.0184 83.667 44.3923 83.6005 44.7412C83.451 45.3228 83.2433 45.8877 82.9774 46.436C82.7282 46.9843 82.3876 47.5409 81.9556 48.1058C81.7064 48.4548 81.3657 48.8203 80.9337 49.2025C80.5017 49.5846 80.0448 49.9252 79.563 50.2243C79.0977 50.54 78.6574 50.7892 78.242 50.972C77.5774 51.2711 76.8796 51.4871 76.1485 51.62C75.434 51.7529 74.7777 51.5951 74.1796 51.1465ZM90.9065 49.9502C90.7403 49.784 90.6074 49.5597 90.5077 49.2772C90.408 48.9782 90.3083 48.6375 90.2087 48.2554C90.1754 48.1225 90.1588 47.9729 90.1588 47.8068C90.1754 47.6406 90.1754 47.5077 90.1588 47.408C90.109 47.5243 90.0259 47.6738 89.9096 47.8566C89.8099 48.0394 89.7102 48.1723 89.6105 48.2554C89.544 48.3218 89.3945 48.4548 89.1619 48.6542C88.9293 48.8369 88.6966 48.9865 88.464 49.1028C87.9157 49.4517 87.4256 49.6178 86.9936 49.6012C86.5782 49.568 86.2126 49.352 85.897 48.9532C85.6311 48.7372 85.4151 48.4631 85.2489 48.1308C85.0828 47.7985 85.0496 47.3997 85.1493 46.9345C85.1825 46.3529 85.2656 45.788 85.3985 45.2397C85.5314 44.6748 85.8056 43.9271 86.221 42.9966C86.5699 42.3154 86.8357 41.7837 87.0185 41.4015C87.2013 41.0194 87.3176 40.7951 87.3674 40.7286C87.6166 40.6455 87.924 40.6538 88.2896 40.7535C88.6551 40.8366 88.8545 40.9944 88.8877 41.2271C88.9874 41.3932 88.9874 41.7089 88.8877 42.1741C88.788 42.6228 88.5886 43.1378 88.2896 43.7194C88.057 44.2843 87.8326 44.8326 87.6166 45.3643C87.4173 45.896 87.2926 46.3446 87.2428 46.7101C87.2096 47.0757 87.3093 47.3 87.5419 47.3831C87.6914 47.4661 87.9074 47.4578 88.1899 47.3581C88.489 47.2585 88.8379 46.9594 89.2367 46.4609C89.6354 45.9625 90.0591 45.1732 90.5077 44.0932C90.6407 43.7609 90.7403 43.4701 90.8068 43.2209C90.8733 42.9551 90.9148 42.6643 90.9314 42.3486C90.8982 42.1492 90.948 41.9415 91.081 41.7255C91.2305 41.5095 91.405 41.3434 91.6043 41.2271C91.6708 41.144 91.7622 41.0692 91.8785 41.0027C91.9948 40.9197 92.0696 40.9197 92.1028 41.0027L92.5016 40.9778C92.568 40.9612 92.6428 41.0277 92.7259 41.1772C92.809 41.3268 92.892 41.4348 92.9751 41.5012C93.1579 41.6508 93.241 41.9748 93.2244 42.4732C93.2077 42.9717 93.0084 43.6695 92.6262 44.5668C92.3105 45.248 92.0945 45.7631 91.9782 46.112C91.8785 46.4609 91.8203 46.8015 91.8037 47.1338C91.8037 47.4329 91.8287 47.6905 91.8785 47.9065C91.9283 48.1058 92.0779 48.3135 92.3271 48.5295C92.5099 48.6458 92.6096 48.8452 92.6262 49.1277C92.6594 49.3935 92.6677 49.6262 92.6511 49.8255C92.6179 49.9751 92.485 50.0748 92.2523 50.1246C92.0363 50.1911 91.7954 50.2077 91.5296 50.1745C91.2803 50.1412 91.0727 50.0665 90.9065 49.9502ZM96.0187 49.9751C95.6199 49.9751 95.271 49.7674 94.9719 49.352C94.6894 48.92 94.515 48.4049 94.4485 47.8068C94.4651 47.6738 94.4817 47.4828 94.4983 47.2335C94.5316 46.9843 94.5648 46.7268 94.598 46.4609C94.6645 46.1452 94.7559 45.7381 94.8722 45.2397C94.9885 44.7412 95.1131 44.2428 95.246 43.7443C95.379 43.2292 95.4953 42.7889 95.595 42.4234C95.6947 42.0412 95.7528 41.8169 95.7694 41.7504C95.8691 41.5178 96.0934 41.4597 96.4424 41.576C96.7913 41.6923 97.0904 41.9415 97.3396 42.3237C97.4393 42.4566 97.4974 42.6144 97.514 42.7972C97.5473 42.98 97.5224 43.2458 97.4393 43.5948C97.3728 43.9437 97.2399 44.4588 97.0405 45.14C96.8577 45.8046 96.7165 46.3446 96.6168 46.76C96.5337 47.1588 96.5005 47.5825 96.5171 48.0311C96.4507 48.7954 96.3842 49.3188 96.3177 49.6012C96.2513 49.8671 96.1516 49.9917 96.0187 49.9751ZM98.3116 39.632C98.2451 39.6818 98.1787 39.7067 98.1122 39.7067C98.0624 39.6901 97.971 39.6403 97.838 39.5572C97.7217 39.5406 97.5722 39.4658 97.3894 39.3329C97.2233 39.1834 97.0737 39.0338 96.9408 38.8843C96.8245 38.7347 96.7664 38.6434 96.7664 38.6101C96.7497 38.444 96.758 38.1781 96.7913 37.8126C96.8411 37.447 96.9325 37.1064 97.0654 36.7907C97.215 36.4584 97.4144 36.284 97.6636 36.2674C97.73 36.2674 97.8713 36.3006 98.0873 36.367C98.3199 36.4335 98.5608 36.5166 98.8101 36.6163C98.943 36.8655 99.0676 37.1895 99.1839 37.5883C99.3002 37.9871 99.3085 38.3775 99.2088 38.7597C99.1257 39.1252 98.8267 39.416 98.3116 39.632ZM106.294 49.9751C106.045 49.9917 105.812 50 105.596 50C105.397 50 105.239 49.9668 105.123 49.9003C104.824 49.6511 104.624 49.4517 104.525 49.3022C104.442 49.1526 104.4 48.9865 104.4 48.8037C104.417 48.5711 104.425 48.3385 104.425 48.1058C104.425 47.8566 104.425 47.6655 104.425 47.5326C104.359 47.4661 104.226 47.5409 104.026 47.7569C103.827 47.9729 103.594 48.1806 103.328 48.38C102.813 48.9615 102.356 49.3852 101.958 49.6511C101.559 49.9003 101.193 50.0415 100.861 50.0748C100.529 50.1246 100.196 50.1329 99.864 50.0997C99.565 50.0665 99.2991 49.9169 99.0665 49.6511C98.8505 49.3852 98.6843 49.0612 98.568 48.6791C98.4683 48.2969 98.4351 47.9231 98.4683 47.5575C98.5514 46.8763 98.7009 46.2615 98.9169 45.7132C99.133 45.1483 99.457 44.5584 99.889 43.9437C100.088 43.6778 100.354 43.3871 100.686 43.0714C101.035 42.7557 101.409 42.4649 101.808 42.1991C102.207 41.9166 102.564 41.7172 102.88 41.6009C103.362 41.3849 103.76 41.2852 104.076 41.3018C104.408 41.3184 104.732 41.3683 105.048 41.4514C105.281 41.5677 105.463 41.6258 105.596 41.6258C105.746 41.6258 105.854 41.5428 105.92 41.3766C106.02 41.2437 106.095 41.0775 106.145 40.8781C106.195 40.6787 106.278 40.4877 106.394 40.3049L106.942 38.6849C107.125 38.2363 107.341 37.7212 107.59 37.1397C107.839 36.5581 108.122 35.9101 108.438 35.1957C108.82 34.5477 109.144 34.207 109.41 34.1738C109.692 34.1406 109.983 34.2901 110.282 34.6224C110.481 34.8218 110.589 35.071 110.606 35.3701C110.639 35.6526 110.564 35.9849 110.382 36.367C110.265 36.5498 110.141 36.7824 110.008 37.0649C109.875 37.3307 109.717 37.6464 109.534 38.012C109.351 38.444 109.16 38.876 108.961 39.308C108.778 39.74 108.587 40.2135 108.388 40.7286C108.321 40.9944 108.23 41.3018 108.114 41.6508C108.014 41.9997 107.931 42.3154 107.864 42.5978C107.815 42.8637 107.756 43.1129 107.69 43.3455C107.64 43.5615 107.582 43.6695 107.515 43.6695C107.383 43.7858 107.258 44.0351 107.142 44.4172C107.025 44.7828 106.926 45.1732 106.843 45.5886C106.776 46.004 106.718 46.3446 106.668 46.6105C106.635 46.8098 106.61 47.0923 106.593 47.4578C106.577 47.8068 106.568 48.1474 106.568 48.4797C106.568 48.7954 106.568 49.0114 106.568 49.1277C106.568 49.4434 106.543 49.6677 106.494 49.8006C106.46 49.9169 106.394 49.9751 106.294 49.9751ZM100.662 48.0061C101.044 48.0061 101.401 47.8483 101.733 47.5326C102.082 47.2003 102.464 46.8514 102.88 46.4858C103.129 46.2366 103.386 45.9625 103.652 45.6634C103.918 45.3477 104.159 45.0403 104.375 44.7412C104.608 44.4421 104.791 44.1846 104.923 43.9686C105.056 43.7526 105.123 43.6114 105.123 43.5449C105.123 43.4618 105.056 43.3871 104.923 43.3206C104.807 43.2541 104.666 43.2043 104.5 43.1711C104.334 43.1212 104.184 43.1129 104.051 43.1461C103.652 43.2624 103.328 43.4369 103.079 43.6695C102.846 43.9021 102.506 44.2677 102.057 44.7661C101.609 45.3145 101.251 45.8378 100.986 46.3363C100.72 46.8348 100.554 47.2418 100.487 47.5575C100.437 47.8566 100.495 48.0061 100.662 48.0061ZM110.839 49.7757C110.191 49.5098 109.742 49.0778 109.493 48.4797C109.244 47.8815 109.177 47.084 109.294 46.0871C109.327 45.572 109.31 45.2314 109.244 45.0652C109.177 44.8825 109.053 44.708 108.87 44.5418C108.82 44.4754 108.704 44.3674 108.521 44.2178C108.338 44.0517 108.255 43.9271 108.272 43.844C108.255 43.7277 108.28 43.5864 108.346 43.4203C108.413 43.2375 108.471 43.1378 108.521 43.1212C108.637 43.0714 108.754 43.0132 108.87 42.9468C109.003 42.8803 109.102 42.8637 109.169 42.8969C109.235 42.8969 109.335 42.9384 109.468 43.0215C109.618 43.1046 109.692 43.1794 109.692 43.2458C109.759 43.3621 109.858 43.3123 109.991 43.0963C110.141 42.8803 110.299 42.6061 110.465 42.2738C110.631 42.008 110.839 41.7588 111.088 41.5261C111.337 41.2935 111.586 41.0858 111.836 40.9031C112.102 40.7037 112.326 40.5541 112.509 40.4544C112.592 40.4212 112.75 40.3714 112.982 40.3049C113.231 40.2384 113.489 40.1886 113.755 40.1554C114.021 40.1055 114.22 40.0889 114.353 40.1055C114.652 40.1221 114.968 40.2467 115.3 40.4794C115.632 40.712 115.89 40.928 116.073 41.1274C116.289 41.2769 116.43 41.5095 116.496 41.8252C116.579 42.1243 116.613 42.44 116.596 42.7723C116.579 43.1046 116.513 43.3871 116.397 43.6197C116.347 43.7858 116.172 44.0184 115.873 44.3175C115.574 44.6166 115.242 44.9074 114.876 45.1898C114.527 45.4557 114.228 45.6385 113.979 45.7381C113.763 45.788 113.506 45.8295 113.206 45.8628C112.907 45.8794 112.625 45.8794 112.359 45.8628C112.11 45.8295 111.935 45.788 111.836 45.7381C111.719 45.6717 111.62 45.6966 111.537 45.8129C111.47 45.9126 111.412 46.1951 111.362 46.6603C111.346 46.8431 111.346 47.0009 111.362 47.1338C111.395 47.2668 111.429 47.3665 111.462 47.4329C111.578 47.6323 111.694 47.7818 111.811 47.8815C111.927 47.9646 112.143 47.9895 112.459 47.9563C112.774 47.9231 113.09 47.732 113.406 47.3831C113.738 47.0175 114.037 46.7268 114.303 46.5108C114.37 46.3945 114.511 46.3197 114.727 46.2865C114.959 46.2366 115.234 46.2532 115.549 46.3363C115.732 46.4526 115.815 46.6354 115.798 46.8846C115.798 47.1338 115.666 47.4994 115.4 47.9812C115.35 48.0975 115.209 48.272 114.976 48.5046C114.76 48.7206 114.519 48.9449 114.253 49.1775C114.004 49.3935 113.796 49.5514 113.63 49.6511C113.132 49.9169 112.642 50.0415 112.16 50.0249C111.678 50.0083 111.238 49.9252 110.839 49.7757ZM112.683 44.168C112.932 44.1015 113.14 44.0351 113.306 43.9686C113.489 43.9021 113.663 43.7941 113.83 43.6446C113.996 43.4951 114.187 43.2708 114.403 42.9717C114.469 42.7889 114.502 42.6311 114.502 42.4981C114.519 42.3652 114.511 42.2821 114.478 42.2489C114.345 42.116 114.195 42.0744 114.029 42.1243C113.879 42.1575 113.713 42.2406 113.53 42.3735C113.414 42.4234 113.248 42.5314 113.032 42.6975C112.833 42.8471 112.633 43.0215 112.434 43.2209C112.251 43.4037 112.102 43.5781 111.985 43.7443C111.886 43.8938 111.869 43.9852 111.935 44.0184C111.902 44.0849 111.994 44.1264 112.21 44.1431C112.442 44.1597 112.6 44.168 112.683 44.168Z" fill="black"/>
</svg>
