<svg width="176" height="64" viewBox="0 0 176 64" fill="none" xmlns="http://www.w3.org/2000/svg">
<rect width="176" height="64" rx="12" fill="#FFF9EE"/>
<rect x="12" y="16" width="31" height="31" rx="7.75" fill="#F3B96B"/>
<path d="M38.5338 30.8407L39.9688 29.4689V29.1665H35.0112L31.4766 37.9815L27.4586 29.1665H22.2585V29.4689L23.9326 31.4847C24.014 31.5576 24.0769 31.6487 24.1164 31.7505C24.1559 31.8523 24.1708 31.962 24.1598 32.0707V39.999C24.1837 40.1399 24.1743 40.2844 24.1321 40.4208C24.09 40.5573 24.0164 40.682 23.9173 40.7849L22.0312 43.074V43.373H27.3732V43.0723L25.4889 40.7866C25.3888 40.6839 25.3134 40.5598 25.2684 40.4236C25.2235 40.2875 25.2101 40.1429 25.2292 40.0008V33.1435L29.9186 43.3747H30.4653L34.4918 33.1435V41.2974C34.4918 41.5143 34.4918 41.5553 34.3483 41.6988L32.8997 43.1048V43.4055H39.9329V43.1048L38.5355 41.7313C38.4747 41.6853 38.4276 41.6237 38.3993 41.5529C38.371 41.4822 38.3626 41.405 38.3749 41.3298V31.2421C38.3626 31.1669 38.371 31.0898 38.3993 31.0191C38.4276 30.9483 38.473 30.8866 38.5338 30.8407Z" fill="black"/>
<path fill-rule="evenodd" clip-rule="evenodd" d="M39.9825 20.3396C34.0126 19.6778 27.9877 19.6778 22.0177 20.3396C18.5805 20.724 15.8045 23.4317 15.4013 26.886C14.693 32.9413 14.693 39.0585 15.4013 45.1139C15.8045 48.5681 18.5788 51.2758 22.0177 51.6602C27.9877 52.3213 34.0125 52.3213 39.9825 51.6602C43.4197 51.2758 46.1958 48.5681 46.5989 45.1139C47.3072 39.0585 47.3072 32.9413 46.5989 26.886C46.1958 23.4317 43.4214 20.724 39.9825 20.3396ZM22.3013 22.885C28.0828 22.2442 33.9174 22.2442 39.699 22.885C41.971 23.1413 43.7904 24.9333 44.0552 27.1849C44.7402 33.0416 44.7402 38.9582 44.0552 44.8149C43.9183 45.9169 43.4138 46.9405 42.6234 47.7204C41.8329 48.5003 40.8026 48.9909 39.699 49.1131C33.9174 49.754 28.0828 49.754 22.3013 49.1131C21.1976 48.9909 20.1673 48.5003 19.3769 47.7204C18.5865 46.9405 18.082 45.9169 17.945 44.8149C17.2601 38.9582 17.2601 33.0416 17.945 27.1849C18.082 26.083 18.5865 25.0594 19.3769 24.2795C20.1673 23.4996 21.1976 23.0072 22.3013 22.885Z" fill="black"/>
<path d="M65.0594 33.7945C64.3449 33.3292 63.9212 32.864 63.7883 32.3988C63.672 31.9335 63.8382 31.5597 64.2868 31.2772C64.3865 31.2108 64.5775 31.2025 64.86 31.2523C65.1591 31.3022 65.3834 31.4018 65.5329 31.5514C65.8652 31.8505 66.2391 32.0332 66.6545 32.0997C67.0865 32.1828 67.6099 32.1412 68.2246 31.9751C68.9225 31.7591 69.4542 31.4932 69.8197 31.1775C70.2019 30.8452 70.6256 30.3966 71.0908 29.8317C71.4397 29.3831 71.6806 28.9428 71.8136 28.5108C71.9631 28.0788 72.0296 27.6883 72.0129 27.3394C72.0129 26.9738 71.9299 26.6997 71.7637 26.5169C71.3483 25.9354 70.8333 25.5366 70.2185 25.3206C69.6037 25.088 68.7979 25.1046 67.8009 25.3704C67.6846 25.3871 67.5102 25.4203 67.2776 25.4701C67.0449 25.52 66.8372 25.5698 66.6545 25.6197C66.4717 25.6529 66.372 25.6695 66.3554 25.6695C66.2391 25.7028 66.1477 25.7194 66.0812 25.7194C66.0148 25.7194 65.9317 25.8024 65.832 25.9686C65.7489 26.1181 65.616 26.4421 65.4332 26.9406C65.2505 27.4225 64.9763 28.1701 64.6108 29.1837C64.2619 30.1972 63.9628 30.92 63.7135 31.352C63.4809 31.7674 63.2732 31.9585 63.0905 31.9252C62.9077 31.8754 62.7 31.6926 62.4674 31.3769C62.3345 31.1443 62.1849 30.8868 62.0188 30.6043C61.8692 30.3218 61.8775 30.0311 62.0437 29.732C62.1268 29.5825 62.1932 29.4495 62.2431 29.3332C62.2929 29.2003 62.3594 28.976 62.4425 28.6603C62.5255 28.4111 62.6834 27.9791 62.916 27.3643C63.1652 26.7329 63.456 26.0018 63.7883 25.1711C64.1206 24.3237 64.4695 23.4514 64.8351 22.5541C65.2006 21.6569 65.5496 20.8095 65.8819 20.012C66.2308 19.2144 66.5216 18.5415 66.7542 17.9932C66.9868 17.4781 67.128 17.1043 67.1779 16.8717C67.2277 16.639 67.2111 16.5144 67.128 16.4978C67.128 16.4147 67.1031 16.34 67.0532 16.2735C67.0034 16.1904 66.9868 16.1157 67.0034 16.0492C67.0034 15.9827 67.1446 15.8913 67.4271 15.775C67.7262 15.6587 68.0419 15.5507 68.3742 15.451C68.7065 15.3513 68.9474 15.3181 69.0969 15.3513C69.18 15.3513 69.2797 15.3513 69.396 15.3513C69.5123 15.3347 69.5705 15.2932 69.5705 15.2267C69.6203 15.2267 69.7782 15.2101 70.044 15.1769C70.3099 15.1437 70.6006 15.1437 70.9163 15.1769C72.0296 15.2766 72.9434 15.6006 73.6579 16.1489C74.3723 16.6806 74.7213 17.5363 74.7046 18.716C74.688 18.9984 74.5717 19.364 74.3557 19.8126C74.1397 20.2612 73.8656 20.7098 73.5333 21.1584C73.2176 21.6071 72.877 21.9975 72.5114 22.3298C72.2954 22.5126 72.0628 22.7037 71.8136 22.9031C71.5809 23.0858 71.3733 23.2437 71.1905 23.3766C71.0243 23.4929 70.9413 23.5511 70.9413 23.5511C70.9413 23.5511 71.0077 23.576 71.1406 23.6258C71.2736 23.6757 71.4148 23.7255 71.5643 23.7754C72.3286 24.0578 72.9268 24.4151 73.3588 24.8471C73.8074 25.2791 74.1231 25.8772 74.3059 26.6415C74.3723 26.8908 74.3723 27.1981 74.3059 27.5637C74.256 27.9292 74.1813 28.2948 74.0816 28.6603C73.9819 29.0092 73.8739 29.3083 73.7576 29.5575C73.6413 29.6738 73.5499 29.7985 73.4834 29.9314C73.417 30.0477 73.3837 30.1058 73.3837 30.1058C73.3837 30.1391 73.3173 30.272 73.1843 30.5046C73.0514 30.7206 72.8936 30.9615 72.7108 31.2274C72.528 31.4932 72.3536 31.7258 72.1874 31.9252C72.0213 32.0582 71.7803 32.2409 71.4646 32.4735C71.1656 32.7228 70.8333 32.9637 70.4677 33.1963C70.1188 33.4289 69.7865 33.6034 69.4708 33.7197C69.0056 33.9191 68.4822 34.052 67.9006 34.1185C67.3357 34.2015 66.7957 34.2099 66.2806 34.1434C65.7656 34.0935 65.3585 33.9772 65.0594 33.7945ZM66.8539 23.4514C66.8539 23.4514 66.9868 23.4264 67.2526 23.3766C67.5351 23.3101 67.8425 23.2437 68.1748 23.1772C68.5071 23.0941 68.7563 23.0194 68.9225 22.9529C69.0056 22.9031 69.1219 22.8366 69.2714 22.7535C69.4376 22.6704 69.6037 22.5458 69.7699 22.3797C70.0025 22.1637 70.2517 21.9227 70.5176 21.6569C70.7834 21.3744 71.0409 21.0754 71.2902 20.7597C71.556 20.444 71.7803 20.1034 71.9631 19.7378C72.3453 19.1397 72.553 18.7077 72.5862 18.4418C72.6194 18.176 72.528 17.935 72.312 17.719C72.1625 17.5363 71.9548 17.4034 71.6889 17.3203C71.4231 17.2206 71.1323 17.1707 70.8166 17.1707C70.5176 17.1541 70.2268 17.1874 69.9443 17.2704C69.7283 17.3369 69.5622 17.42 69.4459 17.5197C69.3296 17.6027 69.2714 17.7357 69.2714 17.9184C69.2714 18.068 69.2216 18.2258 69.1219 18.392C69.0388 18.5415 68.9557 18.6578 68.8726 18.7409C68.856 18.8572 68.7979 18.9735 68.6982 19.0898C68.6151 19.1895 68.5736 19.2394 68.5736 19.2394C68.5736 19.3058 68.4656 19.5135 68.2496 19.8624C68.0502 20.1947 67.8342 20.6766 67.6016 21.308C67.3025 22.0224 67.1031 22.5375 67.0034 22.8532C66.9037 23.1689 66.8539 23.3683 66.8539 23.4514ZM76.1362 31.4766C76.0697 31.3437 75.9202 31.2108 75.6876 31.0778C75.4716 30.9449 75.3636 30.8452 75.3636 30.7788C75.3636 30.7123 75.322 30.6126 75.2389 30.4797C75.1725 30.3302 75.106 30.2222 75.0396 30.1557C74.9565 30.056 74.9814 29.8151 75.1143 29.4329C75.2472 29.0341 75.4466 28.5523 75.7125 27.9874C75.9783 27.4225 76.2691 26.8492 76.5848 26.2677C76.7177 26.1348 76.8506 25.9603 76.9836 25.7443C77.1165 25.5283 77.2162 25.3871 77.2826 25.3206C77.2826 25.2541 77.3076 25.196 77.3574 25.1461C77.4072 25.0797 77.4654 25.0464 77.5319 25.0464L77.7312 24.6477C77.7645 24.5812 77.8642 24.4483 78.0303 24.2489C78.2131 24.0495 78.4291 23.8335 78.6783 23.6009C78.9276 23.3517 79.1768 23.1191 79.426 22.9031C79.6919 22.6871 79.9079 22.5292 80.074 22.4295C80.4229 22.1969 80.7802 22.0889 81.1457 22.1055C81.5279 22.1221 81.8519 22.2384 82.1177 22.4544C82.1676 22.5043 82.2756 22.604 82.4417 22.7535C82.6245 22.9031 82.8239 23.0692 83.0399 23.252C83.2725 23.4348 83.4719 23.6009 83.638 23.7504L84.5602 24.5729L84.1365 25.8191C83.9205 26.4837 83.8623 27.0652 83.962 27.5637C84.0617 28.0621 84.2196 28.4941 84.4356 28.8597C84.5186 29.0425 84.6266 29.1837 84.7596 29.2834C84.9091 29.3831 85.1002 29.4495 85.3328 29.4828C85.4657 29.4994 85.5903 29.5492 85.7067 29.6323C85.823 29.7154 85.8811 29.8483 85.8811 30.0311C85.8811 30.4298 85.8063 30.7206 85.6568 30.9034C85.5239 31.0695 85.3743 31.1692 85.2082 31.2025C84.6599 31.2689 84.1365 31.2108 83.638 31.028C83.1396 30.8452 82.691 30.3717 82.2922 29.6074C82.2257 29.5077 82.1343 29.3249 82.018 29.0591C81.9183 28.7766 81.8602 28.5938 81.8436 28.5108C81.7771 28.5938 81.6857 28.7018 81.5694 28.8348C81.4697 28.9511 81.37 29.0591 81.2703 29.1588C80.0906 30.3551 79.0771 31.136 78.2297 31.5015C77.3989 31.8505 76.7011 31.8422 76.1362 31.4766ZM77.5069 29.408C77.6232 29.4246 77.806 29.3665 78.0553 29.2335C78.3045 29.084 78.6368 28.8431 79.0522 28.5108C79.6171 28.0289 80.0823 27.6301 80.4479 27.3145C80.8134 26.9988 81.1706 26.5917 81.5196 26.0932L82.0679 25.196C81.9017 24.8138 81.7522 24.5646 81.6193 24.4483C81.4863 24.332 81.3534 24.2738 81.2205 24.2738C81.0045 24.2738 80.7469 24.4151 80.4479 24.6975C80.1488 24.9634 79.8082 25.3621 79.426 25.8938C79.0605 26.4089 78.6451 27.0569 78.1799 27.8378C77.9639 28.2034 77.7977 28.5606 77.6814 28.9095C77.5651 29.2418 77.5069 29.408 77.5069 29.408ZM89.6766 32.0997C89.1948 32.1828 88.7129 32.1412 88.2311 31.9751C87.7659 31.8089 87.3754 31.5431 87.0597 31.1775C86.7606 30.7954 86.6111 30.3385 86.6111 29.8068C86.5612 29.3083 86.6028 28.7185 86.7357 28.0372C86.8852 27.3394 87.1012 26.6415 87.3837 25.9437C87.6828 25.2458 88.0234 24.656 88.4056 24.1741C88.7379 23.7754 89.0702 23.4098 89.4025 23.0775C89.7348 22.7452 90.0339 22.5209 90.2997 22.4046C90.5323 22.3049 90.8148 22.2301 91.1471 22.1803C91.496 22.1138 91.7369 22.0806 91.8699 22.0806C92.1357 22.1471 92.4265 22.2551 92.7422 22.4046C93.0745 22.5541 93.2406 22.7286 93.2406 22.928C93.2406 22.928 93.2573 22.9529 93.2905 23.0027C93.3403 23.036 93.3653 23.0526 93.3653 23.0526C93.4649 23.0526 93.5729 23.1772 93.6893 23.4264C93.8222 23.6591 93.9219 23.9332 93.9883 24.2489C94.0548 24.548 94.0382 24.7889 93.9385 24.9717C93.872 25.2874 93.7391 25.5948 93.5397 25.8938C93.3569 26.1929 93.1991 26.3424 93.0662 26.3424C92.9997 26.3424 92.9333 26.3508 92.8668 26.3674C92.8169 26.3674 92.792 26.4089 92.792 26.492C92.792 26.5751 92.7006 26.6166 92.5179 26.6166C92.3517 26.6166 92.1773 26.5834 91.9945 26.5169C91.8117 26.4504 91.6954 26.3508 91.6456 26.2178C91.6456 26.1348 91.6622 26.0268 91.6954 25.8938C91.7286 25.7609 91.7785 25.5366 91.8449 25.2209C91.9446 24.7557 91.9529 24.4483 91.8699 24.2988C91.7868 24.1326 91.5791 24.116 91.2468 24.2489C90.8314 24.4815 90.4908 24.7557 90.2249 25.0714C89.9591 25.3704 89.7182 25.7941 89.5022 26.3424C89.3028 26.8908 89.0785 27.6551 88.8292 28.6354C88.7296 29.0175 88.7129 29.3166 88.7794 29.5326C88.8625 29.7486 88.9289 29.8649 88.9788 29.8815C89.2114 29.948 89.4606 29.9646 89.7265 29.9314C90.0089 29.8815 90.2416 29.8068 90.4243 29.7071C90.6902 29.5741 90.9228 29.4329 91.1222 29.2834C91.3382 29.1172 91.5708 28.9428 91.82 28.76C91.9031 28.7101 91.9779 28.6188 92.0443 28.4858C92.1108 28.3363 92.2105 28.2283 92.3434 28.1618C92.4763 27.9625 92.6425 27.8628 92.8419 27.8628C93.0579 27.8461 93.2656 27.8378 93.4649 27.8378C93.5979 27.8711 93.7391 27.9541 93.8886 28.0871C94.0382 28.22 94.1462 28.3529 94.2126 28.4858C94.2957 28.6021 94.2874 28.6852 94.1877 28.7351C94.1213 28.7351 94.0797 28.76 94.0631 28.8098C94.0631 28.8431 94.0631 28.8597 94.0631 28.8597C94.0963 28.9261 94.0216 29.0757 93.8388 29.3083C93.6726 29.5409 93.4566 29.7901 93.1908 30.056C92.9249 30.3218 92.6674 30.5545 92.4182 30.7538C92.1856 30.9366 92.0194 31.028 91.9197 31.028C91.7536 31.028 91.6705 31.0778 91.6705 31.1775C91.6705 31.2108 91.5459 31.2938 91.2966 31.4268C91.064 31.5597 90.7899 31.6926 90.4742 31.8255C90.1751 31.9585 89.9092 32.0498 89.6766 32.0997ZM96.3874 31.8255C96.1381 31.7425 95.9138 31.6095 95.7145 31.4268C95.5317 31.244 95.4569 30.9449 95.4901 30.5295C95.5234 30.2803 95.5732 30.0228 95.6397 29.7569C95.7061 29.4745 95.7892 29.2003 95.8889 28.9345C95.9388 28.6354 95.9969 28.3363 96.0634 28.0372C96.1465 27.7381 96.2794 27.4557 96.4622 27.1898C96.6782 26.5751 96.9025 25.9686 97.1351 25.3704C97.3677 24.7557 97.5671 24.116 97.7332 23.4514C97.9825 22.8532 98.2068 22.3215 98.4062 21.8563C98.6222 21.3911 98.8797 20.7929 99.1788 20.0618C99.3449 19.6797 99.4862 19.256 99.6025 18.7907C99.7354 18.3089 99.9348 17.8852 100.201 17.5197C100.317 17.3701 100.4 17.2455 100.45 17.1458C100.516 17.0295 100.583 16.9215 100.649 16.8218C100.766 16.5892 100.94 16.4812 101.173 16.4978C101.422 16.5144 101.588 16.5809 101.671 16.6972C101.954 16.8135 102.153 17.0295 102.269 17.3452C102.386 17.6443 102.427 17.8603 102.394 17.9932C102.394 18.176 102.327 18.3754 102.194 18.5914C102.128 18.6578 102.062 18.7575 101.995 18.8904C101.929 19.0067 101.829 19.1646 101.696 19.364C101.63 19.58 101.563 19.796 101.497 20.012C101.43 20.228 101.355 20.4274 101.272 20.6101C101.189 20.7929 101.098 20.9757 100.998 21.1584C100.898 21.3412 100.832 21.4907 100.799 21.6071C100.649 21.9892 100.483 22.3631 100.3 22.7286C100.134 23.0775 99.9846 23.4514 99.8517 23.8501C99.7188 24.2323 99.5775 24.6394 99.428 25.0714C99.2785 25.4868 99.0874 25.8855 98.8548 26.2677C98.7385 26.4338 98.672 26.6581 98.6554 26.9406C98.6554 27.2231 98.6222 27.4972 98.5557 27.7631C98.4394 28.0621 98.3314 28.3363 98.2317 28.5855C98.1486 28.8348 98.1071 28.9926 98.1071 29.0591C97.9908 29.4246 97.8994 29.7901 97.8329 30.1557C97.7665 30.5046 97.6585 30.812 97.5089 31.0778C97.5089 31.4766 97.4009 31.7258 97.1849 31.8255C96.9689 31.9252 96.7031 31.9252 96.3874 31.8255ZM102.095 32.0498C101.829 32.0166 101.63 31.9668 101.497 31.9003C101.364 31.8172 101.114 31.6428 100.749 31.3769C100.55 31.1775 100.3 30.8702 100.001 30.4548C99.7022 30.0394 99.4031 29.5991 99.104 29.1338C98.8049 28.652 98.5391 28.2449 98.3065 27.9126L99.6772 26.168C99.8932 26.4338 100.068 26.6831 100.201 26.9157C100.334 27.1483 100.442 27.3061 100.525 27.3892C100.907 27.9541 101.206 28.4111 101.422 28.76C101.638 29.1089 101.821 29.3914 101.97 29.6074C102.136 29.8234 102.319 30.0145 102.518 30.1806C102.718 30.3468 102.975 30.5212 103.291 30.704C103.341 30.7372 103.391 30.8203 103.441 30.9532C103.49 31.0695 103.507 31.1942 103.49 31.3271C103.457 31.5265 103.333 31.6926 103.117 31.8255C102.917 31.9418 102.577 32.0166 102.095 32.0498ZM98.4809 27.4391C98.3812 27.1566 98.3563 26.8409 98.4062 26.492C98.4726 26.1264 98.6138 25.8855 98.8298 25.7692C98.8963 25.6529 98.9628 25.5781 99.0292 25.5449C99.1123 25.4951 99.1622 25.4369 99.1788 25.3704C99.212 25.304 99.2951 25.2126 99.428 25.0963C99.5775 24.98 99.7105 24.872 99.8268 24.7723C100.093 24.6061 100.383 24.4068 100.699 24.1741C101.031 23.9249 101.347 23.6757 101.646 23.4264C101.962 23.1772 102.219 22.9612 102.419 22.7784C102.635 22.5957 102.768 22.4794 102.818 22.4295C102.867 22.3631 102.967 22.3215 103.117 22.3049C103.283 22.2883 103.441 22.3132 103.59 22.3797C103.79 22.4295 103.947 22.5375 104.064 22.7037C104.197 22.8698 104.263 23.1024 104.263 23.4015C104.313 23.5843 104.205 23.8086 103.939 24.0744C103.69 24.3237 103.374 24.5729 102.992 24.8221C102.859 24.9052 102.676 25.0298 102.444 25.196C102.228 25.3621 102.037 25.52 101.87 25.6695C101.754 25.736 101.58 25.8523 101.347 26.0184C101.131 26.168 100.94 26.3175 100.774 26.4671C100.641 26.5501 100.483 26.6997 100.3 26.9157C100.134 27.1151 99.9431 27.2646 99.7271 27.3643C99.1954 27.8628 98.8714 28.1037 98.7551 28.0871C98.6554 28.0705 98.564 27.8545 98.4809 27.4391ZM108.326 36.9099C108.027 37.0594 107.637 37.0926 107.155 37.0095C106.69 36.9265 106.224 36.7603 105.759 36.5111C105.31 36.2785 104.945 36.0043 104.662 35.6886C104.513 35.5225 104.38 35.3231 104.264 35.0905C104.147 34.8579 104.073 34.6335 104.039 34.4175C104.006 34.2182 104.048 34.0852 104.164 34.0188C104.314 33.9191 104.488 33.8692 104.687 33.8692C104.903 33.8692 105.086 33.8942 105.236 33.944C105.402 33.9939 105.485 34.052 105.485 34.1185C105.668 34.2846 105.842 34.4259 106.008 34.5422C106.191 34.6751 106.366 34.7748 106.532 34.8412C106.764 34.9409 106.972 34.9575 107.155 34.8911C107.354 34.8412 107.537 34.7332 107.703 34.5671C107.836 34.3843 107.952 34.1517 108.052 33.8692C108.168 33.6034 108.26 33.296 108.326 32.9471L108.401 32.6231C108.584 31.7923 108.758 31.0114 108.924 30.2803C109.107 29.5326 109.257 28.9926 109.373 28.6603C109.34 28.6603 109.298 28.6686 109.248 28.6852C109.198 28.7018 109.149 28.7268 109.099 28.76C108.999 28.8098 108.899 28.8597 108.8 28.9095C108.7 28.9594 108.6 29.0092 108.501 29.0591C108.285 29.1754 108.094 29.2668 107.927 29.3332C107.761 29.3831 107.612 29.4246 107.479 29.4578C107.263 29.5243 107.105 29.5492 107.005 29.5326C106.906 29.516 106.822 29.5077 106.756 29.5077C106.59 29.5077 106.374 29.4578 106.108 29.3581C105.842 29.2418 105.618 29.1006 105.435 28.9345C105.286 28.7849 105.178 28.6354 105.111 28.4858C105.045 28.3197 105.003 28.1452 104.986 27.9625C104.97 27.7797 104.962 27.5969 104.962 27.4141C104.962 27.1649 105.094 26.7246 105.36 26.0932C105.626 25.4452 106.017 24.8138 106.532 24.1991C106.847 23.8834 107.263 23.5677 107.778 23.252C108.293 22.9363 108.816 22.6704 109.348 22.4544C109.896 22.2218 110.345 22.1055 110.694 22.1055C110.76 22.1055 110.835 22.1138 110.918 22.1304C111.018 22.1471 111.109 22.1886 111.192 22.2551C111.475 22.3215 111.757 22.4794 112.04 22.7286C112.322 22.9612 112.571 23.2686 112.787 23.6508C112.92 23.9166 113.028 24.1991 113.111 24.4981C113.211 24.7972 113.261 25.1129 113.261 25.4452C113.261 25.7111 113.211 25.9437 113.111 26.1431C113.028 26.3258 112.945 26.4338 112.862 26.4671C112.829 26.5003 112.787 26.5252 112.738 26.5418C112.688 26.5418 112.63 26.5501 112.563 26.5668C112.53 26.5668 112.463 26.5834 112.364 26.6166C112.264 26.6664 112.164 26.7578 112.065 26.8908C111.982 27.0071 111.898 27.2148 111.815 27.5138C111.799 27.5969 111.782 27.68 111.766 27.7631C111.749 27.8461 111.724 27.9292 111.691 28.0123C111.691 28.0289 111.666 28.0705 111.616 28.1369C111.583 28.1868 111.558 28.2532 111.541 28.3363C111.525 28.4526 111.491 28.5523 111.442 28.6354C111.408 28.7018 111.375 28.7766 111.342 28.8597C111.325 28.9261 111.317 28.9843 111.317 29.0341C111.317 29.0674 111.317 29.1006 111.317 29.1338L111.217 29.408C111.167 29.5741 111.118 29.7237 111.068 29.8566C111.034 29.9895 111.018 30.0726 111.018 30.1058L110.918 30.6043C110.885 30.7871 110.843 30.9698 110.794 31.1526C110.76 31.3354 110.727 31.5098 110.694 31.676C110.661 31.8422 110.619 32.0083 110.569 32.1745C110.204 33.6366 109.83 34.7415 109.448 35.4892C109.082 36.2369 108.708 36.7105 108.326 36.9099ZM106.856 27.2397C106.889 27.6052 107.196 27.7631 107.778 27.7132C108.359 27.6468 109.007 27.2978 109.722 26.6664C110.004 26.4338 110.254 26.168 110.47 25.8689C110.702 25.5698 110.86 25.2624 110.943 24.9468C111.026 24.6809 111.043 24.4981 110.993 24.3984C110.96 24.2821 110.818 24.2157 110.569 24.1991C110.237 24.1991 109.896 24.2738 109.547 24.4234C109.215 24.5563 108.858 24.7474 108.476 24.9966C108.26 25.2957 108.077 25.4868 107.927 25.5698C107.778 25.6529 107.678 25.6944 107.628 25.6944C107.595 25.6778 107.612 25.6861 107.678 25.7194C107.645 25.7858 107.612 25.844 107.578 25.8938C107.545 25.9437 107.512 25.9935 107.479 26.0434C107.379 26.2095 107.279 26.3508 107.18 26.4671C107.08 26.5834 106.997 26.6997 106.93 26.816C106.881 26.9323 106.856 27.0735 106.856 27.2397ZM114.613 31.3271C114.464 31.2108 114.298 31.0612 114.115 30.8785C113.949 30.6957 113.89 30.4382 113.94 30.1058C113.99 29.6406 114.057 29.2335 114.14 28.8846C114.223 28.5191 114.322 28.1037 114.439 27.6385C114.472 27.4391 114.555 27.0985 114.688 26.6166C114.838 26.1348 115.012 25.6114 115.211 25.0464C115.411 24.4815 115.618 23.9498 115.834 23.4514C116.05 22.9363 116.242 22.5541 116.408 22.3049C116.59 22.1387 116.856 22.0557 117.205 22.0557C117.571 22.0557 117.82 22.1221 117.953 22.2551C118.136 22.4046 118.194 22.6704 118.127 23.0526C118.061 23.4181 117.828 23.9914 117.43 24.7723C117.346 24.9717 117.238 25.1877 117.106 25.4203C116.989 25.6363 116.906 25.8191 116.856 25.9686C116.806 26.1015 116.823 26.1597 116.906 26.1431C117.006 25.9603 117.189 25.7526 117.454 25.52C117.72 25.2708 118.003 25.0298 118.302 24.7972C118.601 24.5646 118.883 24.3569 119.149 24.1741C119.415 23.9914 119.598 23.8751 119.698 23.8252C119.83 23.7421 119.98 23.6757 120.146 23.6258C120.329 23.5594 120.454 23.5095 120.52 23.4763C120.902 23.2935 121.318 23.2271 121.766 23.2769C122.231 23.3101 122.514 23.4514 122.614 23.7006C122.63 23.8335 122.68 23.9332 122.763 23.9997C122.863 24.0661 122.913 24.0994 122.913 24.0994C122.979 24.0994 123.012 24.1243 123.012 24.1741C123.029 24.224 123.037 24.2489 123.037 24.2489C123.037 24.3652 122.921 24.5314 122.688 24.7474C122.472 24.9634 122.231 25.0797 121.966 25.0963C121.75 25.1129 121.558 25.1544 121.392 25.2209C121.226 25.2874 121.027 25.3704 120.794 25.4701C120.163 25.8357 119.59 26.1597 119.074 26.4421C118.576 26.7246 118.061 27.1566 117.529 27.7381C117.413 27.8711 117.288 27.9957 117.155 28.112C117.022 28.2283 116.89 28.3945 116.757 28.6105C116.674 28.6935 116.59 28.8763 116.507 29.1588C116.424 29.4412 116.35 29.7154 116.283 29.9812C116.233 30.2305 116.208 30.38 116.208 30.4298C116.208 30.4298 116.183 30.5129 116.134 30.6791C116.084 30.8286 116.001 30.9782 115.884 31.1277C115.685 31.3935 115.486 31.5597 115.286 31.6262C115.103 31.6926 114.879 31.5929 114.613 31.3271ZM125.488 31.8006C125.14 31.8671 124.874 31.8505 124.691 31.7508C124.525 31.6345 124.35 31.4932 124.168 31.3271C123.902 31.1942 123.661 31.0114 123.445 30.7788C123.229 30.5295 123.063 30.272 122.946 30.0061C122.83 29.7403 122.78 29.5326 122.797 29.3831C122.847 28.8015 122.98 28.1701 123.196 27.4889C123.428 26.8077 123.719 26.1431 124.068 25.4951C124.433 24.8471 124.84 24.2738 125.289 23.7754C125.754 23.2603 126.253 22.8864 126.784 22.6538C127.117 22.5209 127.474 22.4711 127.856 22.5043C128.238 22.5375 128.496 22.6954 128.629 22.9778C128.878 23.4597 128.82 23.7671 128.454 23.9C128.404 23.9 128.346 23.9249 128.28 23.9748C128.213 24.008 128.18 24.0578 128.18 24.1243C128.247 24.1575 128.429 24.1658 128.728 24.1492C129.028 24.116 129.327 24.0661 129.626 23.9997C129.941 23.9166 130.149 23.8335 130.249 23.7504C130.348 23.7006 130.423 23.6757 130.473 23.6757C130.523 23.6757 130.648 23.6923 130.847 23.7255C131.129 23.8086 131.271 23.9083 131.271 24.0246C131.271 24.0911 131.296 24.1991 131.345 24.3486C131.395 24.4815 131.453 24.548 131.52 24.548C131.636 24.5646 131.661 24.6809 131.595 24.8969C131.545 25.1129 131.354 25.3372 131.021 25.5698C130.706 25.7692 130.506 25.9021 130.423 25.9686C130.357 26.0184 130.348 26.1348 130.398 26.3175C130.531 26.6332 130.523 27.0154 130.373 27.464C130.224 27.9126 129.975 28.3778 129.626 28.8597C129.277 29.3415 128.861 29.7985 128.38 30.2305C127.914 30.6458 127.424 31.0031 126.909 31.3022C126.411 31.5846 125.937 31.7508 125.488 31.8006ZM125.563 29.7071C125.63 29.7071 125.746 29.6738 125.912 29.6074C126.078 29.5243 126.211 29.4578 126.311 29.408C126.377 29.3415 126.46 29.2668 126.56 29.1837C126.676 29.084 126.768 29.0258 126.834 29.0092C126.901 29.0092 126.942 28.9843 126.959 28.9345C126.976 28.868 127.034 28.7434 127.133 28.5606C127.233 28.3612 127.432 28.0705 127.732 27.6883C128.064 27.3228 128.28 27.032 128.38 26.816C128.479 26.5834 128.488 26.3341 128.404 26.0683C128.388 26.0018 128.338 25.9603 128.255 25.9437C128.188 25.9271 128.097 25.8855 127.981 25.8191C127.815 25.8191 127.698 25.8606 127.632 25.9437C127.582 26.0101 127.466 25.9686 127.283 25.8191L126.884 25.3206L126.46 25.7443C126.195 26.0101 125.954 26.3424 125.738 26.7412C125.538 27.14 125.38 27.5471 125.264 27.9625C125.148 28.3778 125.073 28.7434 125.04 29.0591C125.023 29.3083 125.065 29.4745 125.164 29.5575C125.264 29.6406 125.397 29.6905 125.563 29.7071ZM133.895 31.1277C133.579 30.8452 133.305 30.5545 133.073 30.2554C132.84 29.9397 132.682 29.4578 132.599 28.8098C132.566 28.5108 132.599 28.0954 132.699 27.5637C132.799 27.032 132.948 26.4754 133.147 25.8938C133.347 25.2957 133.563 24.7474 133.795 24.2489C134.028 23.7504 134.261 23.3849 134.493 23.1523C134.693 22.9031 134.942 22.7037 135.241 22.5541C135.557 22.4046 135.881 22.4046 136.213 22.5541C136.396 22.7701 136.487 23.0692 136.487 23.4514C136.504 23.8169 136.412 24.1575 136.213 24.4732C135.881 24.9218 135.59 25.4868 135.341 26.168C135.108 26.8326 134.95 27.4308 134.867 27.9625C134.751 28.3446 134.701 28.6437 134.718 28.8597C134.734 29.0591 134.851 29.1837 135.067 29.2335C135.382 29.3166 135.706 29.2252 136.039 28.9594C136.387 28.6935 136.72 28.3031 137.035 27.788C137.368 27.2729 137.659 26.6831 137.908 26.0184C138.007 25.7858 138.082 25.5117 138.132 25.196C138.199 24.8803 138.265 24.6477 138.331 24.4981C138.415 24.1658 138.556 23.9083 138.755 23.7255C138.971 23.5261 139.195 23.4015 139.428 23.3517C139.661 23.3018 139.835 23.3268 139.951 23.4264C140.101 23.4929 140.259 23.6009 140.425 23.7504C140.591 23.9 140.658 24.1658 140.624 24.548C140.624 25.1628 140.491 25.6861 140.226 26.1181C139.96 26.5501 139.735 27.0071 139.553 27.4889C139.403 27.8378 139.162 28.2449 138.83 28.7101C138.498 29.1754 138.14 29.5991 137.758 29.9812C137.393 30.3634 137.052 30.6209 136.736 30.7538C136.271 31.0529 135.798 31.2357 135.316 31.3022C134.834 31.352 134.36 31.2938 133.895 31.1277ZM149.325 31.9003C149.076 31.9003 148.835 31.8255 148.603 31.676C148.37 31.5098 148.179 31.2855 148.029 31.0031C147.88 30.704 147.805 30.3551 147.805 29.9563C147.805 29.7071 147.847 29.3581 147.93 28.9095C148.029 28.4443 148.171 27.8628 148.353 27.1649C148.387 26.9323 148.412 26.7828 148.428 26.7163C148.461 26.6498 148.478 26.5834 148.478 26.5169C148.478 26.4837 148.47 26.4588 148.453 26.4421C148.453 26.4089 148.437 26.3923 148.403 26.3923C148.27 26.3923 148.088 26.4837 147.855 26.6664C147.639 26.8326 147.39 27.032 147.107 27.2646C147.057 27.2978 146.999 27.3394 146.933 27.3892C146.883 27.4391 146.825 27.4889 146.758 27.5388C146.709 27.5886 146.65 27.6385 146.584 27.6883C146.418 27.788 146.16 27.9791 145.811 28.2615C145.479 28.544 145.13 28.8431 144.765 29.1588C144.416 29.4745 144.108 29.7403 143.842 29.9563C143.709 30.056 143.593 30.1391 143.493 30.2055C143.41 30.272 143.352 30.3052 143.319 30.3052C143.286 30.3052 143.153 30.2637 142.92 30.1806C142.704 30.0809 142.488 29.948 142.272 29.7818C142.073 29.5991 141.973 29.3914 141.973 29.1588C141.973 29.0092 142.031 28.7101 142.148 28.2615C142.281 27.8129 142.463 27.2812 142.696 26.6664C142.929 26.0517 143.194 25.4286 143.493 24.7972C143.56 24.6477 143.61 24.4483 143.643 24.1991C143.676 23.9498 143.709 23.7089 143.743 23.4763C143.793 23.2271 143.876 23.0443 143.992 22.928C144.042 22.8449 144.1 22.7867 144.166 22.7535C144.249 22.7037 144.333 22.6787 144.416 22.6787C144.582 22.6787 144.74 22.7203 144.889 22.8034C145.039 22.8698 145.18 22.9861 145.313 23.1523C145.562 23.4181 145.695 23.7338 145.712 24.0994C145.745 24.4483 145.72 24.7889 145.637 25.1212C145.554 25.4535 145.462 25.7277 145.363 25.9437C145.263 26.1431 145.213 26.2261 145.213 26.1929C145.28 26.1597 145.371 26.0766 145.487 25.9437C145.62 25.8108 145.845 25.6529 146.16 25.4701C146.592 25.1378 146.925 24.9052 147.157 24.7723C147.39 24.6228 147.564 24.5148 147.681 24.4483C147.813 24.3818 147.93 24.3071 148.029 24.224C148.113 24.1575 148.171 24.116 148.204 24.0994C148.254 24.0828 148.279 24.0744 148.279 24.0744C148.329 24.0744 148.412 24.0412 148.528 23.9748C148.661 23.9083 148.785 23.8751 148.902 23.8751C149.068 23.8751 149.242 23.9166 149.425 23.9997C149.608 24.0661 149.766 24.1658 149.899 24.2988C150.032 24.4151 150.098 24.5397 150.098 24.6726C150.098 24.7224 150.115 24.764 150.148 24.7972C150.181 24.8304 150.214 24.872 150.248 24.9218C150.331 25.0215 150.422 25.1628 150.522 25.3455C150.638 25.5117 150.696 25.7858 150.696 26.168C150.696 26.4338 150.638 26.8243 150.522 27.3394C150.405 27.8545 150.281 28.3612 150.148 28.8597C150.015 29.3748 149.949 29.7901 149.949 30.1058C149.965 30.4049 149.998 30.6375 150.048 30.8037C150.098 30.9532 150.123 31.0778 150.123 31.1775C150.123 31.3105 150.057 31.4683 149.924 31.6511C149.791 31.8172 149.591 31.9003 149.325 31.9003ZM159.22 32.2991C159.037 32.3655 158.829 32.3988 158.596 32.3988C158.38 32.4154 158.131 32.3157 157.849 32.0997C157.683 31.9169 157.566 31.7258 157.5 31.5265C157.45 31.3271 157.425 31.0197 157.425 30.6043C157.458 30.3551 157.525 29.9978 157.624 29.5326C157.724 29.0508 157.832 28.5523 157.948 28.0372C158.081 27.5055 158.198 27.032 158.297 26.6166C158.414 26.1846 158.505 25.8938 158.572 25.7443C158.688 25.3455 158.713 25.0963 158.646 24.9966C158.58 24.8969 158.38 24.8388 158.048 24.8221C157.666 24.8055 157.267 24.9883 156.852 25.3704C156.436 25.7526 155.963 26.3591 155.431 27.1898C155.032 27.8046 154.792 28.3114 154.708 28.7101C154.625 29.0923 154.617 29.3581 154.684 29.5077C154.717 29.5741 154.775 29.6157 154.858 29.6323C154.958 29.6323 155.074 29.6074 155.207 29.5575C155.356 29.5077 155.514 29.4412 155.68 29.3581C155.797 29.2917 155.938 29.2252 156.104 29.1588C156.287 29.0757 156.461 29.0009 156.628 28.9345C156.727 28.9345 156.794 28.9926 156.827 29.1089C156.877 29.2252 156.902 29.3665 156.902 29.5326C156.902 29.5991 156.918 29.7237 156.952 29.9065C157.001 30.0892 157.084 30.2138 157.201 30.2803C157.267 30.3468 157.126 30.488 156.777 30.704C156.445 30.9034 156.013 31.1526 155.481 31.4517C154.983 31.568 154.609 31.6262 154.36 31.6262C154.127 31.6262 153.869 31.5182 153.587 31.3022C153.122 31.0197 152.823 30.4963 152.69 29.732C152.573 28.9677 152.673 28.1203 152.989 27.1898C153.304 26.4421 153.653 25.8024 154.036 25.2708C154.434 24.7224 154.85 24.224 155.282 23.7754C155.348 23.7089 155.556 23.576 155.905 23.3766C156.254 23.1772 156.611 23.0194 156.976 22.9031C157.392 22.7701 157.741 22.7203 158.023 22.7535C158.322 22.7701 158.605 22.8698 158.871 23.0526C159.17 23.1191 159.369 23.1107 159.469 23.0277C159.585 22.9446 159.718 22.712 159.868 22.3298C160.167 21.4991 160.482 20.66 160.815 19.8126C161.147 18.9486 161.496 18.0763 161.861 17.1957C162.028 16.88 162.127 16.639 162.16 16.4729C162.21 16.2901 162.268 16.1655 162.335 16.099L163.033 15.8747C163.216 15.8249 163.423 15.908 163.656 16.124C163.905 16.34 164.063 16.5477 164.129 16.747C164.129 16.8966 164.063 17.2289 163.93 17.744C163.797 18.2424 163.581 18.8406 163.282 19.5384C163.016 20.1532 162.75 20.7763 162.484 21.4077C162.235 22.0224 161.994 22.6787 161.762 23.3766C161.579 23.8917 161.413 24.3071 161.263 24.6228C161.114 24.9384 161.014 25.2126 160.964 25.4452C160.864 25.8772 160.74 26.2677 160.59 26.6166C160.457 26.9489 160.366 27.1815 160.316 27.3145C160.1 27.9458 159.934 28.4692 159.818 28.8846C159.701 29.2834 159.627 29.6323 159.593 29.9314C159.56 30.2138 159.552 30.4963 159.568 30.7788C159.585 31.0446 159.618 31.352 159.668 31.7009C159.668 31.7674 159.618 31.8671 159.519 32C159.436 32.1163 159.336 32.216 159.22 32.2991ZM66.6296 53.62C66.3305 53.5369 66.0896 53.4622 65.9068 53.3957C65.724 53.3458 65.6326 53.3209 65.6326 53.3209C65.6659 53.2378 65.6492 53.1631 65.5828 53.0966C65.5329 53.0302 65.4166 52.9886 65.2339 52.972C64.9846 52.8058 64.7271 52.5732 64.4612 52.2742C64.1954 51.9751 63.9628 51.6677 63.7634 51.352C63.564 51.0363 63.4311 50.8037 63.3646 50.6542C63.2483 50.4049 63.2566 50.2554 63.3895 50.2055C63.5225 50.1391 63.6803 50.0643 63.8631 49.9812C64.0459 49.8483 64.2369 49.7486 64.4363 49.6821C64.6523 49.6157 64.8268 49.7237 64.9597 50.0061C65.1757 50.3883 65.508 50.7123 65.9566 50.9782C66.4219 51.244 66.9452 51.4018 67.5268 51.4517C68.1249 51.5015 68.7231 51.4018 69.3213 51.1526C69.72 50.9698 69.936 50.7206 69.9693 50.4049C70.0025 50.0726 69.8779 49.6905 69.5954 49.2585C69.5456 49.1255 69.4708 49.0175 69.3711 48.9345C69.288 48.8514 69.1551 48.7434 68.9723 48.6105C68.8062 48.4775 68.5652 48.2615 68.2496 47.9625C68.0003 47.8461 67.7677 47.7381 67.5517 47.6385C67.3523 47.5388 67.1363 47.4308 66.9037 47.3145C66.6379 47.1815 66.3388 46.9988 66.0065 46.7661C65.6742 46.5169 65.3668 46.2511 65.0843 45.9686C64.8019 45.6695 64.5859 45.3871 64.4363 45.1212C64.1705 44.872 64.0043 44.5314 63.9379 44.0994C63.8714 43.6508 63.8797 43.1772 63.9628 42.6787C64.0625 42.1803 64.2203 41.7317 64.4363 41.3329C64.536 41.1003 64.7188 40.8012 64.9846 40.4357C65.2505 40.0535 65.5496 39.6631 65.8819 39.2643C66.2142 38.8655 66.5299 38.5083 66.8289 38.1926C67.1446 37.8603 67.3939 37.636 67.5766 37.5197C67.7096 37.3867 67.8508 37.2538 68.0003 37.1209C68.1499 36.9714 68.2246 36.8966 68.2246 36.8966C68.2412 36.8135 68.2662 36.772 68.2994 36.772C68.3492 36.772 68.3742 36.772 68.3742 36.772C68.4572 36.7221 68.64 36.639 68.9225 36.5227C69.2049 36.4064 69.5123 36.1904 69.8446 35.8747C70.9579 35.343 71.9049 34.9858 72.6859 34.803C73.4668 34.6037 74.0816 34.504 74.5302 34.504C74.9456 34.5206 75.3526 34.6369 75.7514 34.8529C76.1502 35.0523 76.4908 35.3098 76.7733 35.6255C77.0723 35.9412 77.2468 36.2984 77.2967 36.6972C77.413 37.096 77.3548 37.5778 77.1222 38.1427C76.9062 38.691 76.5988 39.2144 76.2 39.7129C75.8179 40.1947 75.4191 40.552 75.0037 40.7846C74.5385 40.984 74.1397 41.0089 73.8074 40.8594C73.4917 40.7098 73.3422 40.4772 73.3588 40.1615C73.3588 40.0286 73.4003 39.8707 73.4834 39.688C73.5831 39.5052 73.8406 39.1812 74.256 38.716C74.7877 37.935 75.0702 37.3784 75.1034 37.0461C75.1366 36.7138 74.9871 36.5227 74.6548 36.4729C74.5551 36.4397 74.364 36.448 74.0816 36.4978C73.7991 36.5477 73.4917 36.6141 73.1594 36.6972C72.8437 36.7637 72.5613 36.8384 72.312 36.9215C72.0794 37.0046 71.9631 37.0627 71.9631 37.096C71.9631 37.096 71.9631 37.1209 71.9631 37.1707C71.9631 37.2206 71.9299 37.2372 71.8634 37.2206C71.8302 37.2206 71.7139 37.2787 71.5145 37.395C71.3317 37.4947 71.1074 37.6277 70.8416 37.7938C70.5757 37.96 70.3099 38.1344 70.044 38.3172C69.7948 38.4834 69.5788 38.6329 69.396 38.7658C69.2133 38.8987 69.1136 38.9818 69.0969 39.015C69.0637 39.1978 68.8726 39.364 68.5237 39.5135C68.1914 39.7129 67.9006 39.9954 67.6514 40.3609C67.4022 40.7264 67.1114 41.1917 66.7791 41.7566C66.4966 42.1387 66.2972 42.5541 66.1809 43.0027C66.0646 43.4348 66.0646 43.7837 66.1809 44.0495C66.264 44.3154 66.4883 44.5812 66.8539 44.8471C67.236 45.0963 67.7511 45.412 68.3991 45.7941C68.964 46.1098 69.4957 46.4421 69.9942 46.7911C70.4926 47.14 70.9163 47.4806 71.2653 47.8129C71.6142 48.1286 71.8385 48.3945 71.9382 48.6105C72.1376 48.8929 72.2539 49.2169 72.2871 49.5825C72.3369 49.948 72.3369 50.3052 72.2871 50.6542C72.2539 50.9865 72.204 51.2606 72.1376 51.4766C72.0213 51.7425 71.8385 52.0249 71.5893 52.324C71.3566 52.6231 71.1406 52.7643 70.9413 52.7477C70.7585 52.7975 70.6173 52.8557 70.5176 52.9222C70.4345 52.9886 70.3348 53.0468 70.2185 53.0966C70.1022 53.1631 69.828 53.2378 69.396 53.3209C68.964 53.4206 68.4905 53.4954 67.9754 53.5452C67.4603 53.6117 67.0117 53.6366 66.6296 53.62ZM77.0885 52.0249C76.9057 51.9917 76.7064 51.8837 76.4903 51.7009C76.2743 51.5015 76.075 51.2855 75.8922 51.0529C75.726 50.8037 75.618 50.596 75.5682 50.4298C75.5682 50.3966 75.5433 50.3551 75.4934 50.3052C75.4602 50.2554 75.4436 50.2305 75.4436 50.2305C75.3771 50.1806 75.3356 49.9646 75.319 49.5825C75.319 49.1837 75.3439 48.7434 75.3937 48.2615C75.4436 47.7797 75.5017 47.3975 75.5682 47.1151C75.6513 46.8492 75.7759 46.492 75.942 46.0434C76.1082 45.5781 76.2494 45.1628 76.3657 44.7972L77.0387 43.3517L76.0417 43.0775C75.9254 43.0443 75.8257 42.9778 75.7427 42.8781C75.6762 42.7784 75.643 42.6954 75.643 42.6289C75.643 42.496 75.7177 42.3049 75.8673 42.0557C76.0168 41.8064 76.1248 41.6818 76.1913 41.6818C76.2743 41.6984 76.4239 41.7067 76.6399 41.7067C76.8725 41.7067 77.0968 41.6984 77.3128 41.6818C77.5288 41.6652 77.6617 41.6486 77.7116 41.632C77.778 41.5987 77.8445 41.5572 77.911 41.5074C77.9774 41.4409 78.0273 41.3495 78.0605 41.2332C78.1436 41.0504 78.2184 40.9092 78.2848 40.8095C78.3513 40.7098 78.4427 40.5603 78.559 40.3609C78.6753 40.1449 78.7667 39.9621 78.8331 39.8126C78.9162 39.6631 79.0408 39.4554 79.207 39.1895C79.29 39.0732 79.3814 38.932 79.4811 38.7658C79.5808 38.5997 79.7054 38.4584 79.855 38.3421C80.0045 38.2092 80.2454 38.1178 80.5777 38.068C80.9267 38.0015 81.2257 38.0763 81.475 38.2923C81.6079 38.4584 81.6827 38.6163 81.6993 38.7658C81.7159 38.9154 81.6494 39.1064 81.4999 39.339C81.367 39.6215 81.2091 39.8791 81.0264 40.1117C80.8602 40.3277 80.7024 40.5769 80.5528 40.8594C80.287 41.2249 80.2371 41.4326 80.4033 41.4824C80.5694 41.5323 81.0347 41.4991 81.799 41.3827C82.2808 41.2997 82.6297 41.3495 82.8457 41.5323C83.0617 41.7151 83.1864 41.9477 83.2196 42.2301C83.2694 42.6289 83.2279 42.8698 83.095 42.9529C82.9621 43.036 82.5799 43.0775 81.9485 43.0775C81.5497 43.144 81.2091 43.1855 80.9267 43.2021C80.6442 43.2021 80.4365 43.2021 80.3036 43.2021C80.0876 43.2187 79.9464 43.2271 79.8799 43.2271C79.8134 43.2271 79.7137 43.2437 79.5808 43.2769C79.4479 43.3101 79.3482 43.3683 79.2817 43.4514C79.2319 43.5178 79.1737 43.6175 79.1073 43.7504C79.0408 43.8169 78.9411 43.9914 78.8082 44.2738C78.6753 44.5563 78.5091 44.8637 78.3097 45.196C78.0771 45.8938 77.8777 46.5668 77.7116 47.2148C77.562 47.8461 77.4291 48.4775 77.3128 49.1089C77.263 49.4246 77.2713 49.6572 77.3377 49.8068C77.4208 49.9397 77.6368 50.0228 77.9857 50.056C78.1685 50.0726 78.4344 50.0726 78.7833 50.056C79.1322 50.0228 79.423 49.9729 79.6556 49.9065C79.8384 49.8234 80.0294 49.7403 80.2288 49.6572C80.4282 49.5575 80.611 49.4578 80.7771 49.3581C80.9267 49.2751 81.0762 49.192 81.2257 49.1089C81.3753 49.0092 81.4501 48.9594 81.4501 48.9594C81.5331 48.8265 81.6494 48.8514 81.799 49.0341C81.9651 49.2003 82.0814 49.3831 82.1479 49.5825C82.1479 49.7818 82.1064 50.0228 82.0233 50.3052C81.9402 50.5711 81.6328 50.8535 81.1011 51.1526C80.3534 51.6178 79.6057 51.9003 78.858 52C78.1104 52.0997 77.5205 52.108 77.0885 52.0249ZM85.2647 51.8255C85.0487 51.8255 84.8742 51.784 84.7413 51.7009C84.625 51.6178 84.4754 51.5015 84.2927 51.352C83.977 51.0197 83.7194 50.6625 83.52 50.2803C83.3373 49.8981 83.2708 49.5658 83.3206 49.2834C83.3705 49.1505 83.3871 49.0258 83.3705 48.9095C83.3705 48.7766 83.3705 48.7101 83.3705 48.7101C83.2874 48.6271 83.2625 48.5772 83.2957 48.5606C83.329 48.5274 83.3622 48.4775 83.3954 48.4111C83.4951 48.4111 83.5283 48.3197 83.4951 48.1369C83.4619 48.004 83.5117 47.7215 83.6447 47.2895C83.7942 46.8409 83.9936 46.4172 84.2428 46.0184C84.3425 45.8523 84.492 45.6363 84.6914 45.3704C84.8908 45.088 85.1068 44.8138 85.3394 44.548C85.5887 44.2655 85.813 44.0412 86.0123 43.8751C86.4277 43.5261 86.8099 43.2437 87.1588 43.0277C87.5244 42.8117 87.8899 42.6621 88.2554 42.5791C88.621 42.496 88.9948 42.4544 89.377 42.4544C89.7757 42.4544 90.0997 42.5874 90.349 42.8532C90.7311 43.0194 90.997 43.2437 91.1465 43.5261C91.3127 43.8086 91.4207 44.1741 91.4705 44.6228C91.5204 45.1212 91.4705 45.736 91.321 46.4671C91.1714 47.1815 90.7644 48.0123 90.0997 48.9594C89.6844 49.5575 89.2773 50.0228 88.8785 50.3551C88.4797 50.6874 88.0394 50.9948 87.5576 51.2772C87.2087 51.5098 86.8348 51.6511 86.436 51.7009C86.0373 51.7508 85.6468 51.7923 85.2647 51.8255ZM87.8068 48.7849C88.1724 48.4692 88.4299 48.1203 88.5794 47.7381C88.7456 47.356 88.92 46.9074 89.1028 46.3923C89.1693 46.2926 89.2108 46.1264 89.2274 45.8938C89.2607 45.6612 89.269 45.4369 89.2524 45.2209C89.2357 44.9883 89.1776 44.8554 89.0779 44.8221C88.9284 44.7058 88.7788 44.6809 88.6293 44.7474C88.4797 44.7972 88.2887 44.9052 88.056 45.0714C87.5576 45.4868 87.0924 45.9686 86.6603 46.5169C86.245 47.0486 85.9542 47.7049 85.788 48.4858C85.7382 48.9012 85.7797 49.2169 85.9127 49.4329C86.0622 49.6323 86.2948 49.6905 86.6105 49.6074C86.9428 49.5077 87.3416 49.2335 87.8068 48.7849ZM94.5935 51.4766C94.5437 51.4932 94.4357 51.4849 94.2695 51.4517C94.12 51.4185 93.9621 51.3769 93.796 51.3271C93.6464 51.2772 93.555 51.2357 93.5218 51.2025C93.4553 51.136 93.364 51.0197 93.2477 50.8535C93.1313 50.6708 93.0649 50.4298 93.0483 50.1308C93.0483 49.8317 93.1895 49.4745 93.472 49.0591C93.555 48.8929 93.6547 48.6437 93.771 48.3114C93.8873 47.9791 94.0037 47.6301 94.12 47.2646C94.2529 46.8825 94.3692 46.5418 94.4689 46.2428C94.5852 45.9437 94.6683 45.736 94.7181 45.6197C94.7513 45.3372 94.7347 45.1378 94.6683 45.0215C94.6184 44.8886 94.4772 44.8138 94.2446 44.7972C94.0784 44.7972 93.9455 44.7391 93.8458 44.6228C93.7627 44.5064 93.7212 44.2988 93.7212 43.9997C93.7544 43.7671 93.8126 43.5677 93.8957 43.4015C93.9953 43.2188 94.1283 43.0692 94.2944 42.9529C94.4606 42.8698 94.6683 42.8117 94.9175 42.7784C95.1833 42.7452 95.4409 42.7369 95.6901 42.7535C95.9393 42.7701 96.1138 42.8283 96.2135 42.928C96.3298 42.9944 96.4212 43.144 96.4877 43.3766C96.5707 43.5926 96.6372 43.8169 96.687 44.0495C96.7369 44.2821 96.7701 44.4566 96.7867 44.5729C96.9529 44.44 97.1357 44.2572 97.335 44.0246C97.551 43.7754 97.767 43.5428 97.983 43.3268C98.2489 43.144 98.5646 42.9612 98.9301 42.7784C99.2957 42.5791 99.5615 42.4794 99.7277 42.4794C99.9104 42.4794 100.135 42.5707 100.401 42.7535C100.666 42.9197 100.833 43.0692 100.899 43.2021C101.065 43.4846 101.182 43.7837 101.248 44.0994C101.331 44.3984 101.281 44.6643 101.098 44.8969C100.932 45.1129 100.7 45.3289 100.401 45.5449C100.102 45.7443 99.7277 45.8024 99.279 45.7194C99.1794 45.6861 99.0714 45.5615 98.955 45.3455C98.8554 45.1295 98.7972 44.9717 98.7806 44.872C98.7806 44.8221 98.7058 44.872 98.5563 45.0215C98.4234 45.1544 98.2572 45.3206 98.0578 45.52C97.875 45.7194 97.7006 45.9021 97.5344 46.0683C97.252 46.4172 96.9529 46.8908 96.6372 47.4889C96.3215 48.0871 95.9477 48.8098 95.5157 49.6572C95.3163 50.0726 95.1501 50.4714 95.0172 50.8535C94.8843 51.2191 94.743 51.4268 94.5935 51.4766ZM102.976 57.9317C102.91 57.9483 102.81 57.9234 102.677 57.8569C102.561 57.7905 102.461 57.6742 102.378 57.508C102.295 57.3419 102.27 57.1259 102.304 56.86C102.237 56.6274 102.245 56.3366 102.328 55.9877C102.428 55.6554 102.636 55.1569 102.952 54.4923C103.118 54.2265 103.267 53.9108 103.4 53.5452C103.55 53.1797 103.716 52.8142 103.899 52.4486C103.982 52.2991 104.123 52.0415 104.322 51.676C104.538 51.3105 104.771 50.8785 105.02 50.38C105.286 49.8649 105.527 49.3332 105.743 48.7849C105.311 49.2335 104.937 49.6572 104.621 50.056C104.322 50.4382 104.048 50.7455 103.799 50.9782C103.566 51.1942 103.317 51.2938 103.051 51.2772C102.835 51.2274 102.578 51.0862 102.279 50.8535C101.98 50.6209 101.788 50.3634 101.705 50.0809C101.639 49.7154 101.614 49.2501 101.631 48.6852C101.664 48.1203 101.772 47.2646 101.955 46.1181C102.088 45.5532 102.146 45.1212 102.129 44.8221C102.129 44.5064 102.088 44.2738 102.004 44.1243C101.921 43.9748 101.813 43.8418 101.68 43.7255C101.464 43.5261 101.448 43.3101 101.631 43.0775C101.813 42.8449 102.021 42.6704 102.254 42.5541C102.603 42.4711 102.877 42.4544 103.076 42.5043C103.292 42.5375 103.508 42.6787 103.724 42.928C103.857 43.144 103.99 43.3766 104.123 43.6258C104.256 43.8751 104.322 44.2323 104.322 44.6975C104.322 44.8969 104.314 45.1212 104.297 45.3704C104.281 45.6031 104.264 45.8191 104.248 46.0184C104.231 46.2178 104.214 46.3757 104.198 46.492C104.032 47.1068 103.882 47.6385 103.749 48.0871C103.616 48.5357 103.591 48.76 103.674 48.76C104.007 48.4941 104.289 48.2366 104.522 47.9874C104.771 47.7381 105.037 47.4391 105.319 47.0901C105.602 46.7412 105.951 46.2843 106.366 45.7194C106.516 45.4369 106.665 45.1628 106.815 44.8969C106.964 44.6311 107.089 44.3569 107.188 44.0744C107.288 43.8584 107.421 43.6341 107.587 43.4015C107.753 43.1523 107.87 43.0194 107.936 43.0027C108.019 42.9695 108.136 42.9778 108.285 43.0277C108.435 43.0775 108.576 43.1357 108.709 43.2021C108.858 43.252 108.933 43.2935 108.933 43.3268C108.95 43.3434 109.033 43.36 109.182 43.3766C109.332 43.3932 109.481 43.4098 109.631 43.4264C109.78 43.4264 109.855 43.4514 109.855 43.5012C109.855 43.5344 109.805 43.6591 109.706 43.8751C109.623 44.0911 109.523 44.332 109.407 44.5978C109.29 44.8637 109.182 45.1046 109.083 45.3206C109 45.52 108.966 45.6363 108.983 45.6695C109.016 45.7028 108.991 45.8274 108.908 46.0434C108.825 46.2428 108.725 46.4671 108.609 46.7163C108.509 46.9655 108.418 47.1898 108.335 47.3892C108.169 47.9375 107.978 48.4858 107.762 49.0341C107.546 49.5658 107.288 50.0975 106.989 50.6292C106.889 50.8286 106.74 51.136 106.54 51.5514C106.358 51.9668 106.175 52.3738 105.992 52.7726C105.826 53.188 105.693 53.5037 105.593 53.7197C105.527 53.8526 105.427 54.0603 105.294 54.3428C105.178 54.6419 105.045 54.9659 104.896 55.3148C104.763 55.6637 104.63 55.9877 104.497 56.2868C104.364 56.6025 104.264 56.8434 104.198 57.0095C104.164 57.3252 104.09 57.5579 103.973 57.7074C103.824 57.8569 103.616 57.9317 103.35 57.9317C103.101 57.9317 102.976 57.9317 102.976 57.9317Z" fill="black"/>
</svg>
