<svg width="164" height="64" viewBox="0 0 164 64" fill="none" xmlns="http://www.w3.org/2000/svg">
<rect width="164" height="64" rx="12" fill="#FFF9EE"/>
<rect x="12" y="16" width="31" height="31" rx="7.75" fill="#F3B96B"/>
<mask id="path-3-outside-1_3728_9291" maskUnits="userSpaceOnUse" x="22.5" y="27" width="22" height="11" fill="black">
<rect fill="white" x="22.5" y="27" width="22" height="11"/>
<path d="M23.9843 36.917C23.8835 36.917 23.7995 36.8656 23.7324 36.7628C23.682 36.7154 23.6274 36.6403 23.5686 36.5375C23.5098 36.4348 23.4888 36.2688 23.5056 36.0395C23.5308 35.8024 23.6232 35.4585 23.7827 35.0079C23.8667 34.7075 23.9339 34.4901 23.9843 34.3557C24.0347 34.2134 24.0599 34.1107 24.0599 34.0474C24.0599 33.9605 24.0683 33.8893 24.0851 33.834C24.1103 33.7708 24.1229 33.7115 24.1229 33.6561C24.1733 33.6561 24.2237 33.6126 24.2741 33.5257C24.3244 33.4387 24.3664 33.3202 24.4 33.17C24.4336 33.0356 24.463 32.9289 24.4882 32.8498C24.5218 32.7628 24.5386 32.7036 24.5386 32.6719C24.5806 32.6087 24.6226 32.5099 24.6646 32.3755C24.715 32.2411 24.7906 32.0791 24.8913 31.8893C24.9585 31.6522 25.0341 31.4071 25.1181 31.1542C25.2021 30.8933 25.2861 30.6522 25.37 30.4308C25.4624 30.2016 25.538 30.0237 25.5968 29.8972C25.6892 29.6522 25.7606 29.4822 25.811 29.3874C25.8614 29.2846 25.8614 29.2174 25.811 29.1858C25.7522 29.1462 25.7228 29.0474 25.7228 28.8893C25.7312 28.7233 25.811 28.581 25.9621 28.4625C26.0545 28.3597 26.1721 28.2885 26.3149 28.249C26.4576 28.2016 26.6214 28.1779 26.8062 28.1779C26.9909 28.1779 27.1841 28.1858 27.3857 28.2016C27.5368 28.2095 27.6964 28.2134 27.8644 28.2134C28.0407 28.2134 28.1499 28.2134 28.1919 28.2134C28.2675 28.2451 28.3599 28.2806 28.4691 28.3202C28.5782 28.3597 28.6748 28.3992 28.7588 28.4387C28.8512 28.4704 28.8974 28.498 28.8974 28.5217C28.8974 28.5692 28.9142 28.6008 28.9478 28.6166C28.9898 28.6245 29.0318 28.6324 29.0738 28.6403C29.1325 28.6403 29.2291 28.6917 29.3635 28.7945C29.4979 28.8893 29.6322 29.0079 29.7666 29.1502C29.9094 29.2846 30.0102 29.419 30.069 29.5534C30.1361 29.6877 30.1907 29.8142 30.2327 29.9328C30.2831 30.0514 30.2873 30.2213 30.2453 30.4427C30.2369 30.5613 30.2159 30.6798 30.1823 30.7984C30.1571 30.917 30.1278 30.996 30.0942 31.0356C30.0438 31.0672 29.9976 31.1067 29.9556 31.1542C29.9136 31.2016 29.8926 31.2451 29.8926 31.2846C29.8926 31.3162 29.859 31.3953 29.7918 31.5217C29.7246 31.6403 29.6406 31.7787 29.5399 31.9368C29.4391 32.087 29.3299 32.2372 29.2123 32.3874C29.0947 32.5375 28.9856 32.6561 28.8848 32.7431C28.7756 32.8696 28.6454 32.9881 28.4943 33.0988C28.3515 33.2095 28.2213 33.3004 28.1037 33.3715C27.8854 33.4664 27.6334 33.5573 27.3479 33.6443C27.0707 33.7312 26.802 33.8024 26.5416 33.8577C26.2813 33.9051 26.0713 33.9249 25.9117 33.917C25.6682 33.9486 25.5086 33.9802 25.433 34.0119C25.3574 34.0356 25.3029 34.1028 25.2693 34.2134C25.2273 34.3162 25.1853 34.4229 25.1433 34.5336C25.1097 34.6443 25.0929 34.7233 25.0929 34.7708C25.0761 34.8024 25.0383 34.8893 24.9795 35.0316C24.9291 35.1739 24.8661 35.3399 24.7906 35.5296C24.7234 35.7194 24.6604 35.9091 24.6016 36.0988C24.5428 36.2885 24.4966 36.4506 24.463 36.585C24.4294 36.6957 24.358 36.7787 24.2489 36.834C24.1481 36.8893 24.0599 36.917 23.9843 36.917ZM25.7732 32.9565C25.8068 32.9881 25.9159 32.9921 26.1007 32.9684C26.2855 32.9447 26.508 32.8854 26.7684 32.7905C26.9364 32.7352 27.1043 32.668 27.2723 32.5889C27.4487 32.5099 27.6166 32.4229 27.7762 32.3281C27.8602 32.2727 27.9484 32.2055 28.0407 32.1265C28.1331 32.0395 28.2633 31.8972 28.4313 31.6996C28.4565 31.6601 28.4985 31.585 28.5572 31.4743C28.6244 31.3557 28.6832 31.2451 28.7336 31.1423C28.8092 31.0316 28.8848 30.8696 28.9604 30.6561C29.036 30.4348 29.0528 30.253 29.0108 30.1107C28.9688 29.9051 28.8848 29.7352 28.7588 29.6008C28.6328 29.4585 28.4733 29.3557 28.2801 29.2925C28.0953 29.2609 27.94 29.2411 27.814 29.2332C27.6964 29.2253 27.5662 29.2332 27.4235 29.2569C27.2891 29.2964 27.1925 29.3518 27.1337 29.4229C27.0833 29.4941 27.0077 29.6443 26.907 29.8735C26.8482 29.9842 26.7642 30.1383 26.655 30.336C26.5458 30.5257 26.4534 30.7194 26.3779 30.917C26.2267 31.4387 26.0923 31.8379 25.9747 32.1146C25.8656 32.3913 25.7942 32.5731 25.7606 32.6601C25.769 32.747 25.7648 32.8103 25.748 32.8498C25.7312 32.8814 25.7396 32.917 25.7732 32.9565Z"/>
<path d="M31.2755 37C30.9311 37 30.6162 36.9447 30.3307 36.834C30.0451 36.7312 29.8687 36.498 29.8016 36.1344C29.81 35.9368 29.8184 35.8142 29.8268 35.7668C29.8435 35.7115 29.8771 35.6838 29.9275 35.6838C29.9611 35.6838 29.9863 35.6798 30.0031 35.6719C30.0283 35.6561 30.0409 35.6206 30.0409 35.5652C30.0493 35.4308 30.0703 35.2727 30.1039 35.0909C30.1459 34.9012 30.1921 34.7273 30.2425 34.5692C30.3013 34.4032 30.3559 34.2885 30.4062 34.2253C30.4566 34.0672 30.528 33.8498 30.6204 33.5731C30.7128 33.2964 30.8094 33.0079 30.9101 32.7075C31.0193 32.3992 31.1159 32.1186 31.1999 31.8656C31.2923 31.6126 31.3595 31.4348 31.4015 31.332C31.4434 31.2292 31.5106 31.087 31.603 30.9051C31.6954 30.7154 31.7584 30.5573 31.792 30.4308C31.8508 30.2727 31.9138 30.1028 31.9809 29.9209C32.0481 29.7312 32.1111 29.585 32.1699 29.4822L32.3841 29.1265L32.0439 28.8538C31.9264 28.7431 31.8676 28.6324 31.8676 28.5217C31.8676 28.3953 31.9474 28.2885 32.1069 28.2016C32.2749 28.1146 32.4681 28.0553 32.6864 28.0237C32.7704 28.0079 32.867 28 32.9762 28C33.0937 28 33.2029 28 33.3037 28C33.5473 28 33.7908 28.0079 34.0344 28.0237C34.2779 28.0395 34.4795 28.0593 34.639 28.083C34.7314 28.0988 34.849 28.1344 34.9918 28.1897C35.1346 28.2451 35.2731 28.3083 35.4075 28.3794C35.5419 28.4506 35.6385 28.5178 35.6972 28.581C35.6972 28.581 35.714 28.5968 35.7476 28.6285C35.7812 28.6522 35.8148 28.664 35.8484 28.664C35.8988 28.6877 35.987 28.7787 36.113 28.9368C36.2473 29.0949 36.3775 29.2727 36.5035 29.4704C36.6295 29.6601 36.7051 29.834 36.7303 29.9921C36.7554 30.1107 36.7722 30.2411 36.7806 30.3834C36.7974 30.5178 36.8058 30.6403 36.8058 30.751C36.7974 30.9407 36.7848 31.1225 36.768 31.2964C36.7596 31.4704 36.7386 31.6601 36.7051 31.8656C36.6799 32.0474 36.6337 32.249 36.5665 32.4704C36.5077 32.6838 36.4405 32.8933 36.3649 33.0988C36.2977 33.2964 36.2347 33.4585 36.176 33.585C36.1256 33.7115 36.092 33.7747 36.0752 33.7747C36.0248 33.7747 35.9954 33.7866 35.987 33.8103C35.9786 33.834 35.9744 33.8617 35.9744 33.8933C35.966 33.9723 35.9114 34.0988 35.8106 34.2727C35.7098 34.4387 35.5839 34.6206 35.4327 34.8182C35.2815 35.0079 35.122 35.1858 34.954 35.3518C34.7944 35.5178 34.6474 35.6403 34.5131 35.7194C34.2443 35.996 33.921 36.2292 33.5431 36.419C33.1651 36.6166 32.7746 36.7628 32.3715 36.8577C31.9767 36.9526 31.6114 37 31.2755 37ZM31.5904 35.8024C31.6744 35.8024 31.8088 35.7984 31.9935 35.7905C32.1867 35.7747 32.3421 35.747 32.4597 35.7075C32.6612 35.6601 32.9048 35.5573 33.1903 35.3992C33.4759 35.2332 33.7362 35.0395 33.9714 34.8182C34.2317 34.5652 34.4669 34.3043 34.6768 34.0356C34.8868 33.7589 35.0926 33.3794 35.2941 32.8972C35.4369 32.581 35.5377 32.2609 35.5965 31.9368C35.6637 31.6126 35.6972 31.3202 35.6972 31.0593C35.6972 30.5929 35.6049 30.2174 35.4201 29.9328C35.2353 29.6403 34.996 29.4427 34.702 29.3399C34.5845 29.3004 34.4627 29.2727 34.3367 29.2569C34.2107 29.2332 34.0889 29.2213 33.9714 29.2213C33.8874 29.2213 33.7992 29.2253 33.7068 29.2332C33.6228 29.2411 33.5682 29.253 33.5431 29.2688C33.4759 29.2688 33.4003 29.332 33.3163 29.4585C33.2407 29.585 33.1693 29.7431 33.1021 29.9328C33.0349 30.1225 32.972 30.3083 32.9132 30.4901C32.846 30.7194 32.783 30.9051 32.7242 31.0474C32.6654 31.1818 32.6066 31.3202 32.5478 31.4625C32.4891 31.6047 32.4177 31.8063 32.3337 32.0672C32.2161 32.2806 32.1153 32.498 32.0313 32.7194C31.9558 32.9328 31.8928 33.1225 31.8424 33.2885C31.792 33.4466 31.7542 33.5573 31.729 33.6206C31.6786 33.7154 31.624 33.8577 31.5652 34.0474C31.5148 34.2292 31.4644 34.4269 31.4141 34.6403C31.3721 34.8538 31.3343 35.0514 31.3007 35.2332C31.2755 35.415 31.2629 35.5534 31.2629 35.6482C31.2629 35.7115 31.2965 35.7549 31.3637 35.7787C31.4309 35.7945 31.5064 35.8024 31.5904 35.8024Z"/>
<path d="M37.2264 36.4308C37.176 36.3834 37.1046 36.3162 37.0122 36.2292C36.9282 36.1423 36.8527 36.0474 36.7855 35.9447C36.7267 35.8419 36.7141 35.747 36.7477 35.6601C36.8569 35.5731 36.9114 35.4664 36.9114 35.3399C36.9534 35.1976 36.9786 35.1107 36.987 35.0791C36.9954 35.0474 37.0122 35.0158 37.0374 34.9842C37.0374 34.9842 37.05 34.9447 37.0752 34.8656C37.1004 34.7866 37.1298 34.6957 37.1634 34.5929C37.197 34.4822 37.2264 34.3834 37.2516 34.2964C37.2768 34.2095 37.2894 34.1621 37.2894 34.1542C37.2978 34.083 37.3146 34.0079 37.3398 33.9289C37.365 33.8419 37.3818 33.7826 37.3902 33.751C37.4321 33.7115 37.4699 33.6522 37.5035 33.5731C37.5455 33.4862 37.5875 33.3913 37.6295 33.2885C37.6379 33.1779 37.6589 33.0949 37.6925 33.0395C37.7261 32.9842 37.7597 32.9447 37.7933 32.9209C37.8437 32.8419 37.8689 32.7431 37.8689 32.6245C37.8353 32.6245 37.8437 32.5494 37.8941 32.3992C37.9444 32.2411 38.0578 31.9684 38.2342 31.581C38.3182 31.4387 38.3812 31.3083 38.4232 31.1897C38.4735 31.0632 38.4987 31 38.4987 31C38.4987 30.9684 38.5113 30.9368 38.5365 30.9051C38.5617 30.8735 38.5869 30.8221 38.6121 30.751C38.6205 30.7115 38.6541 30.6364 38.7129 30.5257C38.7717 30.4071 38.8221 30.2885 38.8641 30.17C38.8977 30.0593 38.9355 29.9486 38.9775 29.8379C39.0278 29.7194 39.074 29.6245 39.116 29.5534C39.1412 29.4427 39.1874 29.3439 39.2546 29.2569C39.3218 29.1621 39.368 29.0711 39.3932 28.9842C39.4436 28.7233 39.5695 28.5613 39.7711 28.498C39.9727 28.4348 40.1574 28.5059 40.3254 28.7115C40.3926 28.7984 40.4598 28.8419 40.527 28.8419C40.6025 28.8419 40.7243 28.7984 40.8923 28.7115C40.9931 28.7115 41.1484 28.6996 41.3584 28.6759C41.5768 28.6522 41.7741 28.6245 41.9505 28.5929C42.0933 28.5929 42.236 28.585 42.3788 28.5692C42.5216 28.5455 42.6098 28.5336 42.6434 28.5336C42.6686 28.5099 42.7357 28.502 42.8449 28.5099C42.9541 28.5099 43.0633 28.5257 43.1725 28.5573C43.29 28.581 43.374 28.6166 43.4244 28.664C43.4412 28.7036 43.458 28.7866 43.4748 28.913C43.4916 29.0395 43.5 29.1581 43.5 29.2688C43.5 29.3794 43.4874 29.4348 43.4622 29.4348C43.437 29.4348 43.3614 29.4348 43.2354 29.4348C43.1179 29.4348 42.9751 29.4348 42.8071 29.4348C42.6476 29.4348 42.4628 29.4506 42.2528 29.4822C42.0513 29.5138 41.9001 29.5375 41.7993 29.5534C41.6901 29.5534 41.5684 29.5692 41.434 29.6008C41.2996 29.6245 41.1778 29.6364 41.0687 29.6364C40.8419 29.6601 40.6781 29.6719 40.5773 29.6719C40.4766 29.6719 40.4052 29.6838 40.3632 29.7075C40.3212 29.7233 40.275 29.7866 40.2246 29.8972C40.1154 30.1423 40.0231 30.3478 39.9475 30.5138C39.8719 30.6798 39.8005 30.8696 39.7333 31.083L39.5821 31.5929H39.7837C40.0776 31.5771 40.317 31.5573 40.5018 31.5336C40.6865 31.5099 40.8461 31.4862 40.9805 31.4625C41.1232 31.4387 41.2786 31.4229 41.4466 31.415C41.7909 31.3676 42.0471 31.3992 42.215 31.5099C42.383 31.6126 42.4628 31.7668 42.4544 31.9723C42.4544 32.004 42.4124 32.0632 42.3284 32.1502C42.2528 32.2372 42.0723 32.3004 41.7867 32.3399C41.6439 32.3478 41.4508 32.3636 41.2072 32.3874C40.9637 32.4032 40.7117 32.4229 40.4514 32.4466C40.1994 32.4625 39.9727 32.4783 39.7711 32.4941C39.5779 32.5099 39.4562 32.5178 39.4058 32.5178C39.2714 32.502 39.1916 32.502 39.1664 32.5178C39.1496 32.5336 39.137 32.5652 39.1286 32.6126C39.1286 32.6443 39.116 32.6996 39.0908 32.7787C39.0656 32.8577 39.0488 32.917 39.0404 32.9565C39.0068 33.004 38.9607 33.0791 38.9019 33.1818C38.8515 33.2767 38.8137 33.3794 38.7885 33.4901C38.7549 33.5929 38.7255 33.668 38.7003 33.7154C38.6751 33.7628 38.6583 33.8063 38.6499 33.8459C38.6331 33.8696 38.5995 33.9447 38.5491 34.0711C38.5071 34.1976 38.4526 34.3439 38.3854 34.5099C38.3266 34.6759 38.2678 34.8379 38.209 34.996C38.1586 35.1542 38.1166 35.2767 38.083 35.3636C37.9822 35.6798 37.8941 35.9249 37.8185 36.0988C37.7513 36.2648 37.6715 36.3715 37.5791 36.419C37.4951 36.4664 37.3776 36.4704 37.2264 36.4308Z"/>
</mask>
<path d="M23.9843 36.917C23.8835 36.917 23.7995 36.8656 23.7324 36.7628C23.682 36.7154 23.6274 36.6403 23.5686 36.5375C23.5098 36.4348 23.4888 36.2688 23.5056 36.0395C23.5308 35.8024 23.6232 35.4585 23.7827 35.0079C23.8667 34.7075 23.9339 34.4901 23.9843 34.3557C24.0347 34.2134 24.0599 34.1107 24.0599 34.0474C24.0599 33.9605 24.0683 33.8893 24.0851 33.834C24.1103 33.7708 24.1229 33.7115 24.1229 33.6561C24.1733 33.6561 24.2237 33.6126 24.2741 33.5257C24.3244 33.4387 24.3664 33.3202 24.4 33.17C24.4336 33.0356 24.463 32.9289 24.4882 32.8498C24.5218 32.7628 24.5386 32.7036 24.5386 32.6719C24.5806 32.6087 24.6226 32.5099 24.6646 32.3755C24.715 32.2411 24.7906 32.0791 24.8913 31.8893C24.9585 31.6522 25.0341 31.4071 25.1181 31.1542C25.2021 30.8933 25.2861 30.6522 25.37 30.4308C25.4624 30.2016 25.538 30.0237 25.5968 29.8972C25.6892 29.6522 25.7606 29.4822 25.811 29.3874C25.8614 29.2846 25.8614 29.2174 25.811 29.1858C25.7522 29.1462 25.7228 29.0474 25.7228 28.8893C25.7312 28.7233 25.811 28.581 25.9621 28.4625C26.0545 28.3597 26.1721 28.2885 26.3149 28.249C26.4576 28.2016 26.6214 28.1779 26.8062 28.1779C26.9909 28.1779 27.1841 28.1858 27.3857 28.2016C27.5368 28.2095 27.6964 28.2134 27.8644 28.2134C28.0407 28.2134 28.1499 28.2134 28.1919 28.2134C28.2675 28.2451 28.3599 28.2806 28.4691 28.3202C28.5782 28.3597 28.6748 28.3992 28.7588 28.4387C28.8512 28.4704 28.8974 28.498 28.8974 28.5217C28.8974 28.5692 28.9142 28.6008 28.9478 28.6166C28.9898 28.6245 29.0318 28.6324 29.0738 28.6403C29.1325 28.6403 29.2291 28.6917 29.3635 28.7945C29.4979 28.8893 29.6322 29.0079 29.7666 29.1502C29.9094 29.2846 30.0102 29.419 30.069 29.5534C30.1361 29.6877 30.1907 29.8142 30.2327 29.9328C30.2831 30.0514 30.2873 30.2213 30.2453 30.4427C30.2369 30.5613 30.2159 30.6798 30.1823 30.7984C30.1571 30.917 30.1278 30.996 30.0942 31.0356C30.0438 31.0672 29.9976 31.1067 29.9556 31.1542C29.9136 31.2016 29.8926 31.2451 29.8926 31.2846C29.8926 31.3162 29.859 31.3953 29.7918 31.5217C29.7246 31.6403 29.6406 31.7787 29.5399 31.9368C29.4391 32.087 29.3299 32.2372 29.2123 32.3874C29.0947 32.5375 28.9856 32.6561 28.8848 32.7431C28.7756 32.8696 28.6454 32.9881 28.4943 33.0988C28.3515 33.2095 28.2213 33.3004 28.1037 33.3715C27.8854 33.4664 27.6334 33.5573 27.3479 33.6443C27.0707 33.7312 26.802 33.8024 26.5416 33.8577C26.2813 33.9051 26.0713 33.9249 25.9117 33.917C25.6682 33.9486 25.5086 33.9802 25.433 34.0119C25.3574 34.0356 25.3029 34.1028 25.2693 34.2134C25.2273 34.3162 25.1853 34.4229 25.1433 34.5336C25.1097 34.6443 25.0929 34.7233 25.0929 34.7708C25.0761 34.8024 25.0383 34.8893 24.9795 35.0316C24.9291 35.1739 24.8661 35.3399 24.7906 35.5296C24.7234 35.7194 24.6604 35.9091 24.6016 36.0988C24.5428 36.2885 24.4966 36.4506 24.463 36.585C24.4294 36.6957 24.358 36.7787 24.2489 36.834C24.1481 36.8893 24.0599 36.917 23.9843 36.917ZM25.7732 32.9565C25.8068 32.9881 25.9159 32.9921 26.1007 32.9684C26.2855 32.9447 26.508 32.8854 26.7684 32.7905C26.9364 32.7352 27.1043 32.668 27.2723 32.5889C27.4487 32.5099 27.6166 32.4229 27.7762 32.3281C27.8602 32.2727 27.9484 32.2055 28.0407 32.1265C28.1331 32.0395 28.2633 31.8972 28.4313 31.6996C28.4565 31.6601 28.4985 31.585 28.5572 31.4743C28.6244 31.3557 28.6832 31.2451 28.7336 31.1423C28.8092 31.0316 28.8848 30.8696 28.9604 30.6561C29.036 30.4348 29.0528 30.253 29.0108 30.1107C28.9688 29.9051 28.8848 29.7352 28.7588 29.6008C28.6328 29.4585 28.4733 29.3557 28.2801 29.2925C28.0953 29.2609 27.94 29.2411 27.814 29.2332C27.6964 29.2253 27.5662 29.2332 27.4235 29.2569C27.2891 29.2964 27.1925 29.3518 27.1337 29.4229C27.0833 29.4941 27.0077 29.6443 26.907 29.8735C26.8482 29.9842 26.7642 30.1383 26.655 30.336C26.5458 30.5257 26.4534 30.7194 26.3779 30.917C26.2267 31.4387 26.0923 31.8379 25.9747 32.1146C25.8656 32.3913 25.7942 32.5731 25.7606 32.6601C25.769 32.747 25.7648 32.8103 25.748 32.8498C25.7312 32.8814 25.7396 32.917 25.7732 32.9565Z" fill="black"/>
<path d="M31.2755 37C30.9311 37 30.6162 36.9447 30.3307 36.834C30.0451 36.7312 29.8687 36.498 29.8016 36.1344C29.81 35.9368 29.8184 35.8142 29.8268 35.7668C29.8435 35.7115 29.8771 35.6838 29.9275 35.6838C29.9611 35.6838 29.9863 35.6798 30.0031 35.6719C30.0283 35.6561 30.0409 35.6206 30.0409 35.5652C30.0493 35.4308 30.0703 35.2727 30.1039 35.0909C30.1459 34.9012 30.1921 34.7273 30.2425 34.5692C30.3013 34.4032 30.3559 34.2885 30.4062 34.2253C30.4566 34.0672 30.528 33.8498 30.6204 33.5731C30.7128 33.2964 30.8094 33.0079 30.9101 32.7075C31.0193 32.3992 31.1159 32.1186 31.1999 31.8656C31.2923 31.6126 31.3595 31.4348 31.4015 31.332C31.4434 31.2292 31.5106 31.087 31.603 30.9051C31.6954 30.7154 31.7584 30.5573 31.792 30.4308C31.8508 30.2727 31.9138 30.1028 31.9809 29.9209C32.0481 29.7312 32.1111 29.585 32.1699 29.4822L32.3841 29.1265L32.0439 28.8538C31.9264 28.7431 31.8676 28.6324 31.8676 28.5217C31.8676 28.3953 31.9474 28.2885 32.1069 28.2016C32.2749 28.1146 32.4681 28.0553 32.6864 28.0237C32.7704 28.0079 32.867 28 32.9762 28C33.0937 28 33.2029 28 33.3037 28C33.5473 28 33.7908 28.0079 34.0344 28.0237C34.2779 28.0395 34.4795 28.0593 34.639 28.083C34.7314 28.0988 34.849 28.1344 34.9918 28.1897C35.1346 28.2451 35.2731 28.3083 35.4075 28.3794C35.5419 28.4506 35.6385 28.5178 35.6972 28.581C35.6972 28.581 35.714 28.5968 35.7476 28.6285C35.7812 28.6522 35.8148 28.664 35.8484 28.664C35.8988 28.6877 35.987 28.7787 36.113 28.9368C36.2473 29.0949 36.3775 29.2727 36.5035 29.4704C36.6295 29.6601 36.7051 29.834 36.7303 29.9921C36.7554 30.1107 36.7722 30.2411 36.7806 30.3834C36.7974 30.5178 36.8058 30.6403 36.8058 30.751C36.7974 30.9407 36.7848 31.1225 36.768 31.2964C36.7596 31.4704 36.7386 31.6601 36.7051 31.8656C36.6799 32.0474 36.6337 32.249 36.5665 32.4704C36.5077 32.6838 36.4405 32.8933 36.3649 33.0988C36.2977 33.2964 36.2347 33.4585 36.176 33.585C36.1256 33.7115 36.092 33.7747 36.0752 33.7747C36.0248 33.7747 35.9954 33.7866 35.987 33.8103C35.9786 33.834 35.9744 33.8617 35.9744 33.8933C35.966 33.9723 35.9114 34.0988 35.8106 34.2727C35.7098 34.4387 35.5839 34.6206 35.4327 34.8182C35.2815 35.0079 35.122 35.1858 34.954 35.3518C34.7944 35.5178 34.6474 35.6403 34.5131 35.7194C34.2443 35.996 33.921 36.2292 33.5431 36.419C33.1651 36.6166 32.7746 36.7628 32.3715 36.8577C31.9767 36.9526 31.6114 37 31.2755 37ZM31.5904 35.8024C31.6744 35.8024 31.8088 35.7984 31.9935 35.7905C32.1867 35.7747 32.3421 35.747 32.4597 35.7075C32.6612 35.6601 32.9048 35.5573 33.1903 35.3992C33.4759 35.2332 33.7362 35.0395 33.9714 34.8182C34.2317 34.5652 34.4669 34.3043 34.6768 34.0356C34.8868 33.7589 35.0926 33.3794 35.2941 32.8972C35.4369 32.581 35.5377 32.2609 35.5965 31.9368C35.6637 31.6126 35.6972 31.3202 35.6972 31.0593C35.6972 30.5929 35.6049 30.2174 35.4201 29.9328C35.2353 29.6403 34.996 29.4427 34.702 29.3399C34.5845 29.3004 34.4627 29.2727 34.3367 29.2569C34.2107 29.2332 34.0889 29.2213 33.9714 29.2213C33.8874 29.2213 33.7992 29.2253 33.7068 29.2332C33.6228 29.2411 33.5682 29.253 33.5431 29.2688C33.4759 29.2688 33.4003 29.332 33.3163 29.4585C33.2407 29.585 33.1693 29.7431 33.1021 29.9328C33.0349 30.1225 32.972 30.3083 32.9132 30.4901C32.846 30.7194 32.783 30.9051 32.7242 31.0474C32.6654 31.1818 32.6066 31.3202 32.5478 31.4625C32.4891 31.6047 32.4177 31.8063 32.3337 32.0672C32.2161 32.2806 32.1153 32.498 32.0313 32.7194C31.9558 32.9328 31.8928 33.1225 31.8424 33.2885C31.792 33.4466 31.7542 33.5573 31.729 33.6206C31.6786 33.7154 31.624 33.8577 31.5652 34.0474C31.5148 34.2292 31.4644 34.4269 31.4141 34.6403C31.3721 34.8538 31.3343 35.0514 31.3007 35.2332C31.2755 35.415 31.2629 35.5534 31.2629 35.6482C31.2629 35.7115 31.2965 35.7549 31.3637 35.7787C31.4309 35.7945 31.5064 35.8024 31.5904 35.8024Z" fill="black"/>
<path d="M37.2264 36.4308C37.176 36.3834 37.1046 36.3162 37.0122 36.2292C36.9282 36.1423 36.8527 36.0474 36.7855 35.9447C36.7267 35.8419 36.7141 35.747 36.7477 35.6601C36.8569 35.5731 36.9114 35.4664 36.9114 35.3399C36.9534 35.1976 36.9786 35.1107 36.987 35.0791C36.9954 35.0474 37.0122 35.0158 37.0374 34.9842C37.0374 34.9842 37.05 34.9447 37.0752 34.8656C37.1004 34.7866 37.1298 34.6957 37.1634 34.5929C37.197 34.4822 37.2264 34.3834 37.2516 34.2964C37.2768 34.2095 37.2894 34.1621 37.2894 34.1542C37.2978 34.083 37.3146 34.0079 37.3398 33.9289C37.365 33.8419 37.3818 33.7826 37.3902 33.751C37.4321 33.7115 37.4699 33.6522 37.5035 33.5731C37.5455 33.4862 37.5875 33.3913 37.6295 33.2885C37.6379 33.1779 37.6589 33.0949 37.6925 33.0395C37.7261 32.9842 37.7597 32.9447 37.7933 32.9209C37.8437 32.8419 37.8689 32.7431 37.8689 32.6245C37.8353 32.6245 37.8437 32.5494 37.8941 32.3992C37.9444 32.2411 38.0578 31.9684 38.2342 31.581C38.3182 31.4387 38.3812 31.3083 38.4232 31.1897C38.4735 31.0632 38.4987 31 38.4987 31C38.4987 30.9684 38.5113 30.9368 38.5365 30.9051C38.5617 30.8735 38.5869 30.8221 38.6121 30.751C38.6205 30.7115 38.6541 30.6364 38.7129 30.5257C38.7717 30.4071 38.8221 30.2885 38.8641 30.17C38.8977 30.0593 38.9355 29.9486 38.9775 29.8379C39.0278 29.7194 39.074 29.6245 39.116 29.5534C39.1412 29.4427 39.1874 29.3439 39.2546 29.2569C39.3218 29.1621 39.368 29.0711 39.3932 28.9842C39.4436 28.7233 39.5695 28.5613 39.7711 28.498C39.9727 28.4348 40.1574 28.5059 40.3254 28.7115C40.3926 28.7984 40.4598 28.8419 40.527 28.8419C40.6025 28.8419 40.7243 28.7984 40.8923 28.7115C40.9931 28.7115 41.1484 28.6996 41.3584 28.6759C41.5768 28.6522 41.7741 28.6245 41.9505 28.5929C42.0933 28.5929 42.236 28.585 42.3788 28.5692C42.5216 28.5455 42.6098 28.5336 42.6434 28.5336C42.6686 28.5099 42.7357 28.502 42.8449 28.5099C42.9541 28.5099 43.0633 28.5257 43.1725 28.5573C43.29 28.581 43.374 28.6166 43.4244 28.664C43.4412 28.7036 43.458 28.7866 43.4748 28.913C43.4916 29.0395 43.5 29.1581 43.5 29.2688C43.5 29.3794 43.4874 29.4348 43.4622 29.4348C43.437 29.4348 43.3614 29.4348 43.2354 29.4348C43.1179 29.4348 42.9751 29.4348 42.8071 29.4348C42.6476 29.4348 42.4628 29.4506 42.2528 29.4822C42.0513 29.5138 41.9001 29.5375 41.7993 29.5534C41.6901 29.5534 41.5684 29.5692 41.434 29.6008C41.2996 29.6245 41.1778 29.6364 41.0687 29.6364C40.8419 29.6601 40.6781 29.6719 40.5773 29.6719C40.4766 29.6719 40.4052 29.6838 40.3632 29.7075C40.3212 29.7233 40.275 29.7866 40.2246 29.8972C40.1154 30.1423 40.0231 30.3478 39.9475 30.5138C39.8719 30.6798 39.8005 30.8696 39.7333 31.083L39.5821 31.5929H39.7837C40.0776 31.5771 40.317 31.5573 40.5018 31.5336C40.6865 31.5099 40.8461 31.4862 40.9805 31.4625C41.1232 31.4387 41.2786 31.4229 41.4466 31.415C41.7909 31.3676 42.0471 31.3992 42.215 31.5099C42.383 31.6126 42.4628 31.7668 42.4544 31.9723C42.4544 32.004 42.4124 32.0632 42.3284 32.1502C42.2528 32.2372 42.0723 32.3004 41.7867 32.3399C41.6439 32.3478 41.4508 32.3636 41.2072 32.3874C40.9637 32.4032 40.7117 32.4229 40.4514 32.4466C40.1994 32.4625 39.9727 32.4783 39.7711 32.4941C39.5779 32.5099 39.4562 32.5178 39.4058 32.5178C39.2714 32.502 39.1916 32.502 39.1664 32.5178C39.1496 32.5336 39.137 32.5652 39.1286 32.6126C39.1286 32.6443 39.116 32.6996 39.0908 32.7787C39.0656 32.8577 39.0488 32.917 39.0404 32.9565C39.0068 33.004 38.9607 33.0791 38.9019 33.1818C38.8515 33.2767 38.8137 33.3794 38.7885 33.4901C38.7549 33.5929 38.7255 33.668 38.7003 33.7154C38.6751 33.7628 38.6583 33.8063 38.6499 33.8459C38.6331 33.8696 38.5995 33.9447 38.5491 34.0711C38.5071 34.1976 38.4526 34.3439 38.3854 34.5099C38.3266 34.6759 38.2678 34.8379 38.209 34.996C38.1586 35.1542 38.1166 35.2767 38.083 35.3636C37.9822 35.6798 37.8941 35.9249 37.8185 36.0988C37.7513 36.2648 37.6715 36.3715 37.5791 36.419C37.4951 36.4664 37.3776 36.4704 37.2264 36.4308Z" fill="black"/>
<path d="M23.9843 36.917C23.8835 36.917 23.7995 36.8656 23.7324 36.7628C23.682 36.7154 23.6274 36.6403 23.5686 36.5375C23.5098 36.4348 23.4888 36.2688 23.5056 36.0395C23.5308 35.8024 23.6232 35.4585 23.7827 35.0079C23.8667 34.7075 23.9339 34.4901 23.9843 34.3557C24.0347 34.2134 24.0599 34.1107 24.0599 34.0474C24.0599 33.9605 24.0683 33.8893 24.0851 33.834C24.1103 33.7708 24.1229 33.7115 24.1229 33.6561C24.1733 33.6561 24.2237 33.6126 24.2741 33.5257C24.3244 33.4387 24.3664 33.3202 24.4 33.17C24.4336 33.0356 24.463 32.9289 24.4882 32.8498C24.5218 32.7628 24.5386 32.7036 24.5386 32.6719C24.5806 32.6087 24.6226 32.5099 24.6646 32.3755C24.715 32.2411 24.7906 32.0791 24.8913 31.8893C24.9585 31.6522 25.0341 31.4071 25.1181 31.1542C25.2021 30.8933 25.2861 30.6522 25.37 30.4308C25.4624 30.2016 25.538 30.0237 25.5968 29.8972C25.6892 29.6522 25.7606 29.4822 25.811 29.3874C25.8614 29.2846 25.8614 29.2174 25.811 29.1858C25.7522 29.1462 25.7228 29.0474 25.7228 28.8893C25.7312 28.7233 25.811 28.581 25.9621 28.4625C26.0545 28.3597 26.1721 28.2885 26.3149 28.249C26.4576 28.2016 26.6214 28.1779 26.8062 28.1779C26.9909 28.1779 27.1841 28.1858 27.3857 28.2016C27.5368 28.2095 27.6964 28.2134 27.8644 28.2134C28.0407 28.2134 28.1499 28.2134 28.1919 28.2134C28.2675 28.2451 28.3599 28.2806 28.4691 28.3202C28.5782 28.3597 28.6748 28.3992 28.7588 28.4387C28.8512 28.4704 28.8974 28.498 28.8974 28.5217C28.8974 28.5692 28.9142 28.6008 28.9478 28.6166C28.9898 28.6245 29.0318 28.6324 29.0738 28.6403C29.1325 28.6403 29.2291 28.6917 29.3635 28.7945C29.4979 28.8893 29.6322 29.0079 29.7666 29.1502C29.9094 29.2846 30.0102 29.419 30.069 29.5534C30.1361 29.6877 30.1907 29.8142 30.2327 29.9328C30.2831 30.0514 30.2873 30.2213 30.2453 30.4427C30.2369 30.5613 30.2159 30.6798 30.1823 30.7984C30.1571 30.917 30.1278 30.996 30.0942 31.0356C30.0438 31.0672 29.9976 31.1067 29.9556 31.1542C29.9136 31.2016 29.8926 31.2451 29.8926 31.2846C29.8926 31.3162 29.859 31.3953 29.7918 31.5217C29.7246 31.6403 29.6406 31.7787 29.5399 31.9368C29.4391 32.087 29.3299 32.2372 29.2123 32.3874C29.0947 32.5375 28.9856 32.6561 28.8848 32.7431C28.7756 32.8696 28.6454 32.9881 28.4943 33.0988C28.3515 33.2095 28.2213 33.3004 28.1037 33.3715C27.8854 33.4664 27.6334 33.5573 27.3479 33.6443C27.0707 33.7312 26.802 33.8024 26.5416 33.8577C26.2813 33.9051 26.0713 33.9249 25.9117 33.917C25.6682 33.9486 25.5086 33.9802 25.433 34.0119C25.3574 34.0356 25.3029 34.1028 25.2693 34.2134C25.2273 34.3162 25.1853 34.4229 25.1433 34.5336C25.1097 34.6443 25.0929 34.7233 25.0929 34.7708C25.0761 34.8024 25.0383 34.8893 24.9795 35.0316C24.9291 35.1739 24.8661 35.3399 24.7906 35.5296C24.7234 35.7194 24.6604 35.9091 24.6016 36.0988C24.5428 36.2885 24.4966 36.4506 24.463 36.585C24.4294 36.6957 24.358 36.7787 24.2489 36.834C24.1481 36.8893 24.0599 36.917 23.9843 36.917ZM25.7732 32.9565C25.8068 32.9881 25.9159 32.9921 26.1007 32.9684C26.2855 32.9447 26.508 32.8854 26.7684 32.7905C26.9364 32.7352 27.1043 32.668 27.2723 32.5889C27.4487 32.5099 27.6166 32.4229 27.7762 32.3281C27.8602 32.2727 27.9484 32.2055 28.0407 32.1265C28.1331 32.0395 28.2633 31.8972 28.4313 31.6996C28.4565 31.6601 28.4985 31.585 28.5572 31.4743C28.6244 31.3557 28.6832 31.2451 28.7336 31.1423C28.8092 31.0316 28.8848 30.8696 28.9604 30.6561C29.036 30.4348 29.0528 30.253 29.0108 30.1107C28.9688 29.9051 28.8848 29.7352 28.7588 29.6008C28.6328 29.4585 28.4733 29.3557 28.2801 29.2925C28.0953 29.2609 27.94 29.2411 27.814 29.2332C27.6964 29.2253 27.5662 29.2332 27.4235 29.2569C27.2891 29.2964 27.1925 29.3518 27.1337 29.4229C27.0833 29.4941 27.0077 29.6443 26.907 29.8735C26.8482 29.9842 26.7642 30.1383 26.655 30.336C26.5458 30.5257 26.4534 30.7194 26.3779 30.917C26.2267 31.4387 26.0923 31.8379 25.9747 32.1146C25.8656 32.3913 25.7942 32.5731 25.7606 32.6601C25.769 32.747 25.7648 32.8103 25.748 32.8498C25.7312 32.8814 25.7396 32.917 25.7732 32.9565Z" stroke="black" mask="url(#path-3-outside-1_3728_9291)"/>
<path d="M31.2755 37C30.9311 37 30.6162 36.9447 30.3307 36.834C30.0451 36.7312 29.8687 36.498 29.8016 36.1344C29.81 35.9368 29.8184 35.8142 29.8268 35.7668C29.8435 35.7115 29.8771 35.6838 29.9275 35.6838C29.9611 35.6838 29.9863 35.6798 30.0031 35.6719C30.0283 35.6561 30.0409 35.6206 30.0409 35.5652C30.0493 35.4308 30.0703 35.2727 30.1039 35.0909C30.1459 34.9012 30.1921 34.7273 30.2425 34.5692C30.3013 34.4032 30.3559 34.2885 30.4062 34.2253C30.4566 34.0672 30.528 33.8498 30.6204 33.5731C30.7128 33.2964 30.8094 33.0079 30.9101 32.7075C31.0193 32.3992 31.1159 32.1186 31.1999 31.8656C31.2923 31.6126 31.3595 31.4348 31.4015 31.332C31.4434 31.2292 31.5106 31.087 31.603 30.9051C31.6954 30.7154 31.7584 30.5573 31.792 30.4308C31.8508 30.2727 31.9138 30.1028 31.9809 29.9209C32.0481 29.7312 32.1111 29.585 32.1699 29.4822L32.3841 29.1265L32.0439 28.8538C31.9264 28.7431 31.8676 28.6324 31.8676 28.5217C31.8676 28.3953 31.9474 28.2885 32.1069 28.2016C32.2749 28.1146 32.4681 28.0553 32.6864 28.0237C32.7704 28.0079 32.867 28 32.9762 28C33.0937 28 33.2029 28 33.3037 28C33.5473 28 33.7908 28.0079 34.0344 28.0237C34.2779 28.0395 34.4795 28.0593 34.639 28.083C34.7314 28.0988 34.849 28.1344 34.9918 28.1897C35.1346 28.2451 35.2731 28.3083 35.4075 28.3794C35.5419 28.4506 35.6385 28.5178 35.6972 28.581C35.6972 28.581 35.714 28.5968 35.7476 28.6285C35.7812 28.6522 35.8148 28.664 35.8484 28.664C35.8988 28.6877 35.987 28.7787 36.113 28.9368C36.2473 29.0949 36.3775 29.2727 36.5035 29.4704C36.6295 29.6601 36.7051 29.834 36.7303 29.9921C36.7554 30.1107 36.7722 30.2411 36.7806 30.3834C36.7974 30.5178 36.8058 30.6403 36.8058 30.751C36.7974 30.9407 36.7848 31.1225 36.768 31.2964C36.7596 31.4704 36.7386 31.6601 36.7051 31.8656C36.6799 32.0474 36.6337 32.249 36.5665 32.4704C36.5077 32.6838 36.4405 32.8933 36.3649 33.0988C36.2977 33.2964 36.2347 33.4585 36.176 33.585C36.1256 33.7115 36.092 33.7747 36.0752 33.7747C36.0248 33.7747 35.9954 33.7866 35.987 33.8103C35.9786 33.834 35.9744 33.8617 35.9744 33.8933C35.966 33.9723 35.9114 34.0988 35.8106 34.2727C35.7098 34.4387 35.5839 34.6206 35.4327 34.8182C35.2815 35.0079 35.122 35.1858 34.954 35.3518C34.7944 35.5178 34.6474 35.6403 34.5131 35.7194C34.2443 35.996 33.921 36.2292 33.5431 36.419C33.1651 36.6166 32.7746 36.7628 32.3715 36.8577C31.9767 36.9526 31.6114 37 31.2755 37ZM31.5904 35.8024C31.6744 35.8024 31.8088 35.7984 31.9935 35.7905C32.1867 35.7747 32.3421 35.747 32.4597 35.7075C32.6612 35.6601 32.9048 35.5573 33.1903 35.3992C33.4759 35.2332 33.7362 35.0395 33.9714 34.8182C34.2317 34.5652 34.4669 34.3043 34.6768 34.0356C34.8868 33.7589 35.0926 33.3794 35.2941 32.8972C35.4369 32.581 35.5377 32.2609 35.5965 31.9368C35.6637 31.6126 35.6972 31.3202 35.6972 31.0593C35.6972 30.5929 35.6049 30.2174 35.4201 29.9328C35.2353 29.6403 34.996 29.4427 34.702 29.3399C34.5845 29.3004 34.4627 29.2727 34.3367 29.2569C34.2107 29.2332 34.0889 29.2213 33.9714 29.2213C33.8874 29.2213 33.7992 29.2253 33.7068 29.2332C33.6228 29.2411 33.5682 29.253 33.5431 29.2688C33.4759 29.2688 33.4003 29.332 33.3163 29.4585C33.2407 29.585 33.1693 29.7431 33.1021 29.9328C33.0349 30.1225 32.972 30.3083 32.9132 30.4901C32.846 30.7194 32.783 30.9051 32.7242 31.0474C32.6654 31.1818 32.6066 31.3202 32.5478 31.4625C32.4891 31.6047 32.4177 31.8063 32.3337 32.0672C32.2161 32.2806 32.1153 32.498 32.0313 32.7194C31.9558 32.9328 31.8928 33.1225 31.8424 33.2885C31.792 33.4466 31.7542 33.5573 31.729 33.6206C31.6786 33.7154 31.624 33.8577 31.5652 34.0474C31.5148 34.2292 31.4644 34.4269 31.4141 34.6403C31.3721 34.8538 31.3343 35.0514 31.3007 35.2332C31.2755 35.415 31.2629 35.5534 31.2629 35.6482C31.2629 35.7115 31.2965 35.7549 31.3637 35.7787C31.4309 35.7945 31.5064 35.8024 31.5904 35.8024Z" stroke="black" mask="url(#path-3-outside-1_3728_9291)"/>
<path d="M37.2264 36.4308C37.176 36.3834 37.1046 36.3162 37.0122 36.2292C36.9282 36.1423 36.8527 36.0474 36.7855 35.9447C36.7267 35.8419 36.7141 35.747 36.7477 35.6601C36.8569 35.5731 36.9114 35.4664 36.9114 35.3399C36.9534 35.1976 36.9786 35.1107 36.987 35.0791C36.9954 35.0474 37.0122 35.0158 37.0374 34.9842C37.0374 34.9842 37.05 34.9447 37.0752 34.8656C37.1004 34.7866 37.1298 34.6957 37.1634 34.5929C37.197 34.4822 37.2264 34.3834 37.2516 34.2964C37.2768 34.2095 37.2894 34.1621 37.2894 34.1542C37.2978 34.083 37.3146 34.0079 37.3398 33.9289C37.365 33.8419 37.3818 33.7826 37.3902 33.751C37.4321 33.7115 37.4699 33.6522 37.5035 33.5731C37.5455 33.4862 37.5875 33.3913 37.6295 33.2885C37.6379 33.1779 37.6589 33.0949 37.6925 33.0395C37.7261 32.9842 37.7597 32.9447 37.7933 32.9209C37.8437 32.8419 37.8689 32.7431 37.8689 32.6245C37.8353 32.6245 37.8437 32.5494 37.8941 32.3992C37.9444 32.2411 38.0578 31.9684 38.2342 31.581C38.3182 31.4387 38.3812 31.3083 38.4232 31.1897C38.4735 31.0632 38.4987 31 38.4987 31C38.4987 30.9684 38.5113 30.9368 38.5365 30.9051C38.5617 30.8735 38.5869 30.8221 38.6121 30.751C38.6205 30.7115 38.6541 30.6364 38.7129 30.5257C38.7717 30.4071 38.8221 30.2885 38.8641 30.17C38.8977 30.0593 38.9355 29.9486 38.9775 29.8379C39.0278 29.7194 39.074 29.6245 39.116 29.5534C39.1412 29.4427 39.1874 29.3439 39.2546 29.2569C39.3218 29.1621 39.368 29.0711 39.3932 28.9842C39.4436 28.7233 39.5695 28.5613 39.7711 28.498C39.9727 28.4348 40.1574 28.5059 40.3254 28.7115C40.3926 28.7984 40.4598 28.8419 40.527 28.8419C40.6025 28.8419 40.7243 28.7984 40.8923 28.7115C40.9931 28.7115 41.1484 28.6996 41.3584 28.6759C41.5768 28.6522 41.7741 28.6245 41.9505 28.5929C42.0933 28.5929 42.236 28.585 42.3788 28.5692C42.5216 28.5455 42.6098 28.5336 42.6434 28.5336C42.6686 28.5099 42.7357 28.502 42.8449 28.5099C42.9541 28.5099 43.0633 28.5257 43.1725 28.5573C43.29 28.581 43.374 28.6166 43.4244 28.664C43.4412 28.7036 43.458 28.7866 43.4748 28.913C43.4916 29.0395 43.5 29.1581 43.5 29.2688C43.5 29.3794 43.4874 29.4348 43.4622 29.4348C43.437 29.4348 43.3614 29.4348 43.2354 29.4348C43.1179 29.4348 42.9751 29.4348 42.8071 29.4348C42.6476 29.4348 42.4628 29.4506 42.2528 29.4822C42.0513 29.5138 41.9001 29.5375 41.7993 29.5534C41.6901 29.5534 41.5684 29.5692 41.434 29.6008C41.2996 29.6245 41.1778 29.6364 41.0687 29.6364C40.8419 29.6601 40.6781 29.6719 40.5773 29.6719C40.4766 29.6719 40.4052 29.6838 40.3632 29.7075C40.3212 29.7233 40.275 29.7866 40.2246 29.8972C40.1154 30.1423 40.0231 30.3478 39.9475 30.5138C39.8719 30.6798 39.8005 30.8696 39.7333 31.083L39.5821 31.5929H39.7837C40.0776 31.5771 40.317 31.5573 40.5018 31.5336C40.6865 31.5099 40.8461 31.4862 40.9805 31.4625C41.1232 31.4387 41.2786 31.4229 41.4466 31.415C41.7909 31.3676 42.0471 31.3992 42.215 31.5099C42.383 31.6126 42.4628 31.7668 42.4544 31.9723C42.4544 32.004 42.4124 32.0632 42.3284 32.1502C42.2528 32.2372 42.0723 32.3004 41.7867 32.3399C41.6439 32.3478 41.4508 32.3636 41.2072 32.3874C40.9637 32.4032 40.7117 32.4229 40.4514 32.4466C40.1994 32.4625 39.9727 32.4783 39.7711 32.4941C39.5779 32.5099 39.4562 32.5178 39.4058 32.5178C39.2714 32.502 39.1916 32.502 39.1664 32.5178C39.1496 32.5336 39.137 32.5652 39.1286 32.6126C39.1286 32.6443 39.116 32.6996 39.0908 32.7787C39.0656 32.8577 39.0488 32.917 39.0404 32.9565C39.0068 33.004 38.9607 33.0791 38.9019 33.1818C38.8515 33.2767 38.8137 33.3794 38.7885 33.4901C38.7549 33.5929 38.7255 33.668 38.7003 33.7154C38.6751 33.7628 38.6583 33.8063 38.6499 33.8459C38.6331 33.8696 38.5995 33.9447 38.5491 34.0711C38.5071 34.1976 38.4526 34.3439 38.3854 34.5099C38.3266 34.6759 38.2678 34.8379 38.209 34.996C38.1586 35.1542 38.1166 35.2767 38.083 35.3636C37.9822 35.6798 37.8941 35.9249 37.8185 36.0988C37.7513 36.2648 37.6715 36.3715 37.5791 36.419C37.4951 36.4664 37.3776 36.4704 37.2264 36.4308Z" stroke="black" mask="url(#path-3-outside-1_3728_9291)"/>
<path d="M23.7748 49.5529H44.2252M23.7748 44.2753H36.9686M20.2832 24.5328V51.4676C20.2832 53.1205 21.6231 54.4604 23.276 54.4604H44.724C46.3769 54.4604 47.7168 53.1205 47.7168 51.4676V24.5328C47.7168 22.8799 46.3769 21.54 44.724 21.54H23.276C21.6231 21.54 20.2832 22.8799 20.2832 24.5328Z" stroke="black" stroke-width="3"/>
<path d="M67.2837 32.6419C66.968 32.6917 66.5859 32.6834 66.1372 32.6169C65.6886 32.5671 65.2068 32.4757 64.6917 32.3428C64.4259 32.2597 64.2348 32.16 64.1185 32.0437C64.0188 31.9274 63.8443 31.7114 63.5951 31.3957C63.4289 31.1465 63.3209 30.864 63.2711 30.5483C63.2378 30.2326 63.2794 29.9502 63.3957 29.7009C63.5286 29.4517 63.7446 29.3022 64.0437 29.2523C64.1766 29.2191 64.3345 29.2523 64.5172 29.352C64.7166 29.4351 64.9243 29.5431 65.1403 29.676C65.4892 29.8754 65.8631 30.0748 66.2619 30.2742C66.6606 30.4902 67.0262 30.5732 67.3585 30.5234C67.5911 30.4735 67.8652 30.4403 68.1809 30.4237C68.5132 30.4237 68.8289 30.3988 69.128 30.3489C69.4437 30.2991 69.6929 30.2077 69.8757 30.0748C70.7563 29.4766 71.4126 29.0031 71.8446 28.6542C72.2766 28.2886 72.4926 28.1058 72.4926 28.1058C72.5259 28.0394 72.584 27.9895 72.6671 27.9563C72.7668 27.9065 72.8831 27.8566 73.016 27.8068C73.1157 27.7071 73.2736 27.5492 73.4896 27.3332C73.7056 27.1006 73.9133 26.8763 74.1126 26.6603C74.3286 26.4443 74.4616 26.3197 74.5114 26.2865C74.5446 26.1369 74.5779 26.0206 74.6111 25.9375C74.6443 25.8378 74.661 25.7381 74.661 25.6385C74.7939 25.5055 74.9683 25.2314 75.1843 24.816C75.417 24.384 75.6496 23.9104 75.8822 23.3954C76.1148 22.8637 76.281 22.3818 76.3806 21.9498C76.5966 21.036 76.6714 20.2052 76.605 19.4575C76.5385 18.7098 76.3474 18.0369 76.0317 17.4387C75.716 16.8406 75.2923 16.3172 74.7606 15.8686C74.5779 15.719 74.3286 15.5612 74.0129 15.395C73.6973 15.2123 73.3733 15.0461 73.0409 14.8966C72.7086 14.7304 72.4096 14.6058 72.1437 14.5227C71.8945 14.4397 71.7449 14.4064 71.6951 14.423C71.6286 14.4397 71.4957 14.6972 71.2963 15.1957C71.1136 15.6775 70.8809 16.3006 70.5985 17.0649C70.3326 17.8292 70.0419 18.6517 69.7262 19.5323C69.4271 20.3963 69.1363 21.2187 68.8539 21.9997C68.7708 22.3154 68.6628 22.6477 68.5299 22.9966C68.4136 23.3455 68.3139 23.6529 68.2308 23.9188C68.1477 24.168 68.1062 24.3341 68.1062 24.4172C67.9234 24.6997 67.7323 25.1317 67.5329 25.7132C67.3336 26.2948 67.1674 27.1255 67.0345 28.2055C66.8849 28.7705 66.7769 29.244 66.7105 29.6262C66.644 29.9917 66.5775 30.1662 66.5111 30.1495C66.5111 30.1495 66.5028 30.2243 66.4862 30.3738C66.4695 30.54 66.4363 30.648 66.3865 30.6978C66.3865 30.7975 66.2868 30.864 66.0874 30.8972C65.888 30.9305 65.6554 30.8889 65.3895 30.7726C65.1237 30.6563 64.8745 30.432 64.6419 30.0997C64.592 29.9169 64.5505 29.6511 64.5172 29.3022C64.5006 28.9366 64.5588 28.5129 64.6917 28.0311C64.7748 27.7154 64.8911 27.3083 65.0406 26.8098C65.1902 26.3114 65.3563 25.7963 65.5391 25.2646C65.7219 24.7329 65.888 24.2428 66.0375 23.7941C66.2037 23.3455 66.32 23.0132 66.3865 22.7972C66.5028 22.5148 66.6689 21.9831 66.8849 21.2021C67.0179 20.7701 67.1508 20.3381 67.2837 19.9061C67.4332 19.4741 67.5745 19.092 67.7074 18.7597C67.8403 18.4107 67.9317 18.1864 67.9816 18.0867C68.0646 17.8707 68.1643 17.5218 68.2806 17.04C68.4136 16.5415 68.6129 15.9766 68.8788 15.3452L69.0532 14.5227L68.7791 14.3981C68.5797 14.4646 68.4219 14.4895 68.3056 14.4729C68.2059 14.4397 68.1394 14.4147 68.1062 14.3981C68.0065 14.4314 67.8736 14.4064 67.7074 14.3234C67.5579 14.2237 67.4166 14.099 67.2837 13.9495C67.1674 13.8 67.0926 13.6753 67.0594 13.5757C67.0262 13.5092 67.0012 13.4261 66.9846 13.3264C66.9846 13.2101 66.9846 13.152 66.9846 13.152C67.0012 13.0523 67.1425 12.9526 67.4083 12.8529C67.6742 12.7366 68.0148 12.6286 68.4302 12.5289C68.8622 12.4292 69.3191 12.3544 69.8009 12.3046C70.2828 12.2547 70.7314 12.2464 71.1468 12.2797C71.5788 12.3129 72.1105 12.4126 72.7419 12.5787C73.3733 12.7449 73.9133 12.911 74.3619 13.0772C74.8936 13.2766 75.4668 13.6172 76.0816 14.099C76.6963 14.5809 77.253 15.1541 77.7514 15.8187C78.2665 16.4834 78.6071 17.1812 78.7733 17.9123C78.8231 18.1117 78.873 18.3941 78.9228 18.7597C78.9727 19.1252 78.9976 19.4824 78.9976 19.8314C79.0142 20.1637 78.981 20.3797 78.8979 20.4794C78.8647 20.5458 78.8397 20.6289 78.8231 20.7286C78.8231 20.8117 78.8563 20.8698 78.9228 20.9031C78.9062 20.9529 78.848 21.144 78.7483 21.4763C78.6487 21.792 78.5573 22.0661 78.4742 22.2988C78.441 22.7308 78.3247 23.2292 78.1253 23.7941C77.9425 24.3591 77.7348 24.8991 77.5022 25.4141C77.2862 25.9126 77.0951 26.3031 76.929 26.5855C76.8625 26.5855 76.796 26.6021 76.7296 26.6354C76.6797 26.652 76.688 26.6686 76.7545 26.6852C76.7545 26.7683 76.6631 26.9261 76.4803 27.1588C76.4139 27.2086 76.3059 27.3332 76.1563 27.5326C76.0234 27.7154 75.9154 27.84 75.8323 27.9065C75.8157 28.0228 75.7659 28.1225 75.6828 28.2055C75.5997 28.272 75.525 28.3052 75.4585 28.3052C75.4585 28.3052 75.4419 28.3052 75.4086 28.3052C75.392 28.3052 75.3837 28.3385 75.3837 28.4049C75.2508 28.6043 75.0265 28.8618 74.7108 29.1775C74.3951 29.4932 74.0379 29.8172 73.6391 30.1495C73.2403 30.4818 72.8416 30.7892 72.4428 31.0717C72.044 31.3542 71.6785 31.5618 71.3462 31.6948C71.18 31.8111 71.0056 31.9025 70.8228 31.9689C70.64 32.052 70.4656 32.1351 70.2994 32.2182C70.2163 32.2846 69.9754 32.3428 69.5766 32.3926C69.1779 32.4425 68.7542 32.484 68.3056 32.5172C67.8736 32.5505 67.5329 32.592 67.2837 32.6419ZM81.0582 29.8255C80.8422 29.8255 80.6677 29.784 80.5348 29.7009C80.4185 29.6178 80.269 29.5015 80.0862 29.352C79.7705 29.0197 79.513 28.6625 79.3136 28.2803C79.1308 27.8981 79.0644 27.5658 79.1142 27.2834C79.1641 27.1505 79.1807 27.0258 79.1641 26.9095C79.1641 26.7766 79.1641 26.7101 79.1641 26.7101C79.081 26.6271 79.0561 26.5772 79.0893 26.5606C79.1225 26.5274 79.1557 26.4775 79.189 26.4111C79.2887 26.4111 79.3219 26.3197 79.2887 26.1369C79.2554 26.004 79.3053 25.7215 79.4382 25.2895C79.5877 24.8409 79.7871 24.4172 80.0364 24.0184C80.1361 23.8523 80.2856 23.6363 80.485 23.3704C80.6844 23.088 80.9004 22.8138 81.133 22.548C81.3822 22.2655 81.6065 22.0412 81.8059 21.8751C82.2213 21.5261 82.6034 21.2437 82.9524 21.0277C83.3179 20.8117 83.6834 20.6621 84.049 20.5791C84.4145 20.496 84.7884 20.4544 85.1705 20.4544C85.5693 20.4544 85.8933 20.5874 86.1425 20.8532C86.5247 21.0194 86.7905 21.2437 86.9401 21.5261C87.1062 21.8086 87.2142 22.1741 87.2641 22.6228C87.3139 23.1212 87.2641 23.736 87.1145 24.4671C86.965 25.1815 86.5579 26.0123 85.8933 26.9594C85.4779 27.5575 85.0708 28.0228 84.6721 28.3551C84.2733 28.6874 83.833 28.9948 83.3511 29.2772C83.0022 29.5098 82.6284 29.6511 82.2296 29.7009C81.8308 29.7508 81.4404 29.7923 81.0582 29.8255ZM83.6004 26.7849C83.9659 26.4692 84.2234 26.1203 84.373 25.7381C84.5391 25.356 84.7136 24.9074 84.8964 24.3923C84.9628 24.2926 85.0044 24.1264 85.021 23.8938C85.0542 23.6612 85.0625 23.4369 85.0459 23.2209C85.0293 22.9883 84.9711 22.8554 84.8715 22.8221C84.7219 22.7058 84.5724 22.6809 84.4228 22.7474C84.2733 22.7972 84.0822 22.9052 83.8496 23.0714C83.3511 23.4868 82.8859 23.9686 82.4539 24.5169C82.0385 25.0486 81.7478 25.7049 81.5816 26.4858C81.5318 26.9012 81.5733 27.2169 81.7062 27.4329C81.8558 27.6323 82.0884 27.6905 82.4041 27.6074C82.7364 27.5077 83.1351 27.2335 83.6004 26.7849ZM89.8944 29.2523C89.6452 29.2523 89.396 29.0695 89.1467 28.704C88.8975 28.3218 88.6981 27.8566 88.5486 27.3083C88.4157 26.76 88.3658 26.22 88.399 25.6883C88.399 25.1566 88.424 24.7329 88.4738 24.4172C88.5403 24.0849 88.6067 23.7609 88.6732 23.4452C88.723 23.3455 88.748 23.2624 88.748 23.196C88.7646 23.1295 88.7812 23.0215 88.7978 22.872C88.831 22.7224 88.8892 22.4732 88.9723 22.1243C89.0387 21.8418 89.1052 21.6092 89.1717 21.4264C89.2547 21.2437 89.3212 21.1191 89.371 21.0526C89.5704 20.7867 89.7947 20.6289 90.044 20.5791C90.2932 20.5126 90.5175 20.5375 90.7169 20.6538C90.9329 20.7701 91.0575 20.9446 91.0907 21.1772C91.1904 21.2603 91.2403 21.4514 91.2403 21.7504C91.2569 22.0329 91.2403 22.332 91.1904 22.6477C91.1406 22.9468 91.0658 23.1628 90.9661 23.2957C90.9329 23.3788 90.8914 23.5948 90.8415 23.9437C90.8083 24.2926 90.7667 24.6581 90.7169 25.0403C90.6837 25.4225 90.6421 25.7298 90.5923 25.9625C90.5424 26.2615 90.5591 26.4526 90.6421 26.5357C90.7418 26.6021 90.908 26.5274 91.1406 26.3114C91.3898 26.0788 91.7138 25.6717 92.1126 25.0901C92.4449 24.5917 92.6858 24.2012 92.8354 23.9188C93.0015 23.6363 93.1261 23.3788 93.2092 23.1461C93.3089 22.9135 93.4169 22.6394 93.5332 22.3237C93.6163 22.0578 93.6911 21.8418 93.7575 21.6757C93.8406 21.5095 93.9154 21.3932 93.9818 21.3268C94.1646 21.0609 94.4055 20.9529 94.7046 21.0027C95.0203 21.036 95.2778 21.1191 95.4772 21.252C95.6766 21.4514 95.7929 21.7255 95.8261 22.0744C95.876 22.4068 95.8012 22.7723 95.6018 23.1711C95.4689 23.4369 95.336 23.7526 95.2031 24.1181C95.0868 24.4837 94.9871 24.8492 94.904 25.2148C94.8375 25.5803 94.8043 25.896 94.8043 26.1618C94.8043 26.4941 94.8458 26.6935 94.9289 26.76C95.0286 26.8098 95.1449 26.8348 95.2778 26.8348C95.4772 26.8348 95.6683 26.7683 95.8511 26.6354C96.0338 26.4858 96.2997 26.2283 96.6486 25.8628C96.7981 25.7132 96.9809 25.4889 97.1969 25.1898C97.4129 24.8908 97.6206 24.5751 97.82 24.2428C98.036 23.9104 98.2105 23.6197 98.3434 23.3704C98.4929 23.1046 98.5677 22.9384 98.5677 22.872C98.5677 22.7723 98.6425 22.6311 98.792 22.4483C98.8917 22.3154 98.9665 22.2157 99.0163 22.1492C99.0828 22.0661 99.1991 21.9831 99.3652 21.9C99.4981 21.8335 99.6477 21.8252 99.8138 21.8751C99.98 21.9083 100.121 21.9914 100.238 22.1243C100.321 22.1908 100.379 22.3569 100.412 22.6228C100.462 22.872 100.487 23.0963 100.487 23.2957C100.437 23.4784 100.362 23.736 100.262 24.0683C100.163 24.384 100.055 24.6914 99.9385 24.9905C99.8388 25.2729 99.7474 25.464 99.6643 25.5637C99.5978 25.6301 99.4815 25.7548 99.3154 25.9375C99.1492 26.1037 98.9997 26.2865 98.8668 26.4858C98.4514 26.9843 98.1523 27.3083 97.9695 27.4578C97.7868 27.6074 97.6289 27.7486 97.496 27.8815C97.1471 28.2305 96.7483 28.5129 96.2997 28.7289C95.8511 28.9283 95.4274 29.0446 95.0286 29.0778C94.6298 29.0945 94.3141 29.0197 94.0815 28.8535C93.5664 28.5877 93.3089 28.1391 93.3089 27.5077C93.3089 27.3748 93.284 27.2585 93.2341 27.1588C93.2009 27.0425 93.1843 26.9843 93.1843 26.9843C93.1178 26.9843 93.0264 27.0009 92.9101 27.0341C92.8104 27.0674 92.7024 27.1837 92.5861 27.3831C92.4366 27.6655 92.1791 27.9563 91.8135 28.2554C91.4646 28.5378 91.1074 28.7788 90.7418 28.9782C90.3763 29.1609 90.0938 29.2523 89.8944 29.2523ZM108.976 29.9003C108.726 29.9003 108.485 29.8255 108.253 29.676C108.02 29.5098 107.829 29.2855 107.68 29.0031C107.53 28.704 107.455 28.3551 107.455 27.9563C107.455 27.7071 107.497 27.3581 107.58 26.9095C107.68 26.4443 107.821 25.8628 108.004 25.1649C108.037 24.9323 108.062 24.7828 108.078 24.7163C108.112 24.6498 108.128 24.5834 108.128 24.5169C108.128 24.4837 108.12 24.4588 108.103 24.4421C108.103 24.4089 108.087 24.3923 108.053 24.3923C107.921 24.3923 107.738 24.4837 107.505 24.6664C107.289 24.8326 107.04 25.032 106.757 25.2646C106.708 25.2978 106.649 25.3394 106.583 25.3892C106.533 25.4391 106.475 25.4889 106.409 25.5388C106.359 25.5886 106.301 25.6385 106.234 25.6883C106.068 25.788 105.81 25.9791 105.461 26.2615C105.129 26.544 104.78 26.8431 104.415 27.1588C104.066 27.4745 103.758 27.7403 103.493 27.9563C103.36 28.056 103.243 28.1391 103.144 28.2055C103.061 28.272 103.002 28.3052 102.969 28.3052C102.936 28.3052 102.803 28.2637 102.57 28.1806C102.354 28.0809 102.138 27.948 101.922 27.7818C101.723 27.5991 101.623 27.3914 101.623 27.1588C101.623 27.0092 101.681 26.7101 101.798 26.2615C101.931 25.8129 102.113 25.2812 102.346 24.6664C102.579 24.0517 102.845 23.4286 103.144 22.7972C103.21 22.6477 103.26 22.4483 103.293 22.1991C103.326 21.9498 103.36 21.7089 103.393 21.4763C103.443 21.2271 103.526 21.0443 103.642 20.928C103.692 20.8449 103.75 20.7867 103.817 20.7535C103.9 20.7037 103.983 20.6787 104.066 20.6787C104.232 20.6787 104.39 20.7203 104.539 20.8034C104.689 20.8698 104.83 20.9861 104.963 21.1523C105.212 21.4181 105.345 21.7338 105.362 22.0994C105.395 22.4483 105.37 22.7889 105.287 23.1212C105.204 23.4535 105.113 23.7277 105.013 23.9437C104.913 24.1431 104.863 24.2261 104.863 24.1929C104.93 24.1597 105.021 24.0766 105.137 23.9437C105.27 23.8108 105.495 23.6529 105.81 23.4701C106.242 23.1378 106.575 22.9052 106.807 22.7723C107.04 22.6228 107.214 22.5148 107.331 22.4483C107.464 22.3818 107.58 22.3071 107.68 22.224C107.763 22.1575 107.821 22.116 107.854 22.0994C107.904 22.0828 107.929 22.0744 107.929 22.0744C107.979 22.0744 108.062 22.0412 108.178 21.9748C108.311 21.9083 108.436 21.8751 108.552 21.8751C108.718 21.8751 108.893 21.9166 109.075 21.9997C109.258 22.0661 109.416 22.1658 109.549 22.2988C109.682 22.4151 109.748 22.5397 109.748 22.6726C109.748 22.7224 109.765 22.764 109.798 22.7972C109.831 22.8304 109.865 22.872 109.898 22.9218C109.981 23.0215 110.072 23.1628 110.172 23.3455C110.288 23.5117 110.346 23.7858 110.346 24.168C110.346 24.4338 110.288 24.8243 110.172 25.3394C110.056 25.8545 109.931 26.3612 109.798 26.8597C109.665 27.3748 109.599 27.7901 109.599 28.1058C109.615 28.4049 109.649 28.6375 109.698 28.8037C109.748 28.9532 109.773 29.0778 109.773 29.1775C109.773 29.3105 109.707 29.4683 109.574 29.6511C109.441 29.8172 109.241 29.9003 108.976 29.9003ZM112.639 30.7477C112.423 30.6646 112.248 30.5317 112.116 30.3489C111.983 30.1828 111.908 29.9335 111.891 29.6012C111.875 29.3852 111.883 29.0695 111.916 28.6542C111.949 28.2221 112.008 27.7901 112.091 27.3581C112.091 27.3249 112.091 27.2917 112.091 27.2585C112.107 27.2086 112.116 27.1754 112.116 27.1588C112.132 27.0923 112.149 26.9926 112.165 26.8597C112.182 26.7101 112.199 26.5938 112.215 26.5108C112.248 26.4111 112.265 26.4028 112.265 26.4858L112.415 25.8129C112.481 25.5138 112.556 25.2065 112.639 24.8908C112.722 24.5751 112.797 24.3009 112.863 24.0683C112.946 23.8191 112.996 23.6778 113.013 23.6446C113.013 23.6446 113.038 23.5532 113.088 23.3704C113.154 23.1711 113.22 22.9717 113.287 22.7723C113.553 21.9415 113.802 21.252 114.035 20.7037C114.284 20.1554 114.5 19.7566 114.683 19.5074C114.699 19.4575 114.724 19.3994 114.757 19.3329C114.791 19.2498 114.816 19.1834 114.832 19.1335C114.832 18.9507 114.84 18.8178 114.857 18.7347C114.89 18.6517 114.932 18.5769 114.982 18.5104C115.015 18.444 115.065 18.3609 115.131 18.2612C115.198 18.1449 115.272 18.0037 115.356 17.8375L115.455 17.5634C115.555 17.3474 115.68 17.0981 115.829 16.8157C115.979 16.5166 116.087 16.2923 116.153 16.1427C116.203 15.9932 116.303 15.8187 116.452 15.6194C116.602 15.4034 116.768 15.2621 116.951 15.1957L116.926 15.1707C117.009 15.0212 117.167 14.9049 117.399 14.8218C117.632 14.7221 117.823 14.6723 117.972 14.6723C118.205 14.6723 118.38 14.7387 118.496 14.8717C118.629 15.0046 118.695 15.1874 118.695 15.42C118.695 15.6692 118.687 15.852 118.67 15.9683C118.67 16.068 118.612 16.1843 118.496 16.3172H118.521C118.554 16.284 118.546 16.3338 118.496 16.4667C118.446 16.5997 118.404 16.691 118.371 16.7409C118.338 16.824 118.296 16.9154 118.247 17.015C118.213 17.1147 118.172 17.1895 118.122 17.2394C118.072 17.3058 117.939 17.5384 117.723 17.9372C117.507 18.3194 117.266 18.7763 117 19.308C116.735 19.8231 116.477 20.3298 116.228 20.8283C115.995 21.3101 115.829 21.684 115.729 21.9498L115.605 22.3237C115.588 22.3901 115.58 22.44 115.58 22.4732C115.53 22.5895 115.48 22.7058 115.43 22.8221C115.38 22.9384 115.331 23.0381 115.281 23.1212L114.882 24.6664L114.782 25.1898L114.558 25.7631L114.408 26.2366C114.375 26.3363 114.35 26.4443 114.334 26.5606C114.317 26.6769 114.284 26.76 114.234 26.8098C114.234 26.8265 114.226 26.8514 114.209 26.8846C114.209 26.9012 114.209 26.9178 114.209 26.9345C114.143 27.2003 114.026 27.5741 113.86 28.056C113.711 28.5378 113.619 29.0695 113.586 29.6511C113.586 29.6677 113.578 29.6843 113.561 29.7009C113.561 29.7175 113.561 29.7342 113.561 29.7508C113.511 30.0997 113.403 30.3655 113.237 30.5483C113.088 30.7477 112.888 30.8142 112.639 30.7477ZM119.262 29.8006C118.913 29.8671 118.647 29.8505 118.464 29.7508C118.298 29.6345 118.124 29.4932 117.941 29.3271C117.675 29.1942 117.434 29.0114 117.218 28.7788C117.002 28.5295 116.836 28.272 116.72 28.0061C116.603 27.7403 116.554 27.5326 116.57 27.3831C116.62 26.8015 116.753 26.1701 116.969 25.4889C117.202 24.8077 117.492 24.1431 117.841 23.4951C118.207 22.8471 118.614 22.2738 119.062 21.7754C119.528 21.2603 120.026 20.8864 120.558 20.6538C120.89 20.5209 121.247 20.4711 121.63 20.5043C122.012 20.5375 122.269 20.6954 122.402 20.9778C122.651 21.4597 122.593 21.7671 122.228 21.9C122.178 21.9 122.12 21.9249 122.053 21.9748C121.987 22.008 121.954 22.0578 121.954 22.1243C122.02 22.1575 122.203 22.1658 122.502 22.1492C122.801 22.116 123.1 22.0661 123.399 21.9997C123.715 21.9166 123.922 21.8335 124.022 21.7504C124.122 21.7006 124.197 21.6757 124.246 21.6757C124.296 21.6757 124.421 21.6923 124.62 21.7255C124.903 21.8086 125.044 21.9083 125.044 22.0246C125.044 22.0911 125.069 22.1991 125.119 22.3486C125.169 22.4815 125.227 22.548 125.293 22.548C125.41 22.5646 125.434 22.6809 125.368 22.8969C125.318 23.1129 125.127 23.3372 124.795 23.5698C124.479 23.7692 124.28 23.9021 124.197 23.9686C124.13 24.0184 124.122 24.1348 124.172 24.3175C124.305 24.6332 124.296 25.0154 124.147 25.464C123.997 25.9126 123.748 26.3778 123.399 26.8597C123.05 27.3415 122.635 27.7985 122.153 28.2305C121.688 28.6458 121.198 29.0031 120.682 29.3022C120.184 29.5846 119.71 29.7508 119.262 29.8006ZM119.337 27.7071C119.403 27.7071 119.519 27.6738 119.686 27.6074C119.852 27.5243 119.985 27.4578 120.084 27.408C120.151 27.3415 120.234 27.2668 120.334 27.1837C120.45 27.084 120.541 27.0258 120.608 27.0092C120.674 27.0092 120.716 26.9843 120.732 26.9345C120.749 26.868 120.807 26.7434 120.907 26.5606C121.006 26.3612 121.206 26.0705 121.505 25.6883C121.837 25.3228 122.053 25.032 122.153 24.816C122.253 24.5834 122.261 24.3341 122.178 24.0683C122.161 24.0018 122.111 23.9603 122.028 23.9437C121.962 23.9271 121.87 23.8855 121.754 23.8191C121.588 23.8191 121.472 23.8606 121.405 23.9437C121.355 24.0101 121.239 23.9686 121.056 23.8191L120.658 23.3206L120.234 23.7443C119.968 24.0101 119.727 24.3424 119.511 24.7412C119.312 25.14 119.154 25.5471 119.038 25.9625C118.921 26.3778 118.846 26.7434 118.813 27.0591C118.797 27.3083 118.838 27.4745 118.938 27.5575C119.038 27.6406 119.17 27.6905 119.337 27.7071ZM127.394 29.5514C127.195 29.6012 126.971 29.5431 126.721 29.3769C126.472 29.2108 126.248 29.0031 126.049 28.7538C125.849 28.5046 125.725 28.2803 125.675 28.0809C125.608 27.732 125.625 27.3083 125.725 26.8098C125.841 26.2948 126.032 25.7548 126.298 25.1898C126.564 24.6083 126.896 24.0434 127.295 23.4951C127.693 22.9301 128.142 22.4234 128.641 21.9748C129.139 21.5261 129.679 21.1772 130.261 20.928C130.51 20.7951 130.684 20.712 130.784 20.6787C130.884 20.6289 130.983 20.6289 131.083 20.6787C131.183 20.712 131.357 20.7951 131.606 20.928C131.839 20.9944 132.072 21.0775 132.304 21.1772C132.553 21.2603 132.769 21.4264 132.952 21.6757C133.085 21.9249 133.185 22.1741 133.251 22.4234C133.318 22.6726 133.376 22.9551 133.426 23.2708C133.559 23.6861 133.609 23.9603 133.575 24.0932C133.542 24.2095 133.492 24.3009 133.426 24.3674C133.293 24.5335 133.26 24.6166 133.326 24.6166C133.326 24.6166 133.318 24.6498 133.301 24.7163C133.301 24.7661 133.268 24.8492 133.201 24.9655C133.085 25.3311 132.994 25.68 132.927 26.0123C132.877 26.328 132.886 26.6105 132.952 26.8597C133.085 27.2252 133.26 27.4412 133.476 27.5077C133.708 27.5741 134.007 27.4246 134.373 27.0591C134.556 26.9261 134.763 26.8431 134.996 26.8098C135.229 26.76 135.345 26.8015 135.345 26.9345C135.345 26.9345 135.37 26.9594 135.42 27.0092C135.469 27.0425 135.528 27.0591 135.594 27.0591C135.677 27.0591 135.71 27.1421 135.694 27.3083C135.677 27.4578 135.644 27.6323 135.594 27.8317C135.544 28.0311 135.478 28.1972 135.395 28.3302C135.145 28.5794 135.021 28.7455 135.021 28.8286C135.021 28.8286 134.988 28.8618 134.921 28.9283C134.871 28.9782 134.78 29.0612 134.647 29.1775C134.348 29.3603 133.966 29.4517 133.501 29.4517C133.052 29.4517 132.703 29.3603 132.454 29.1775C132.205 28.9948 131.955 28.7705 131.706 28.5046C131.473 28.2388 131.324 27.9895 131.257 27.7569L131.133 27.5077L130.41 27.9812C130.227 28.164 130.094 28.3052 130.011 28.4049C129.928 28.488 129.853 28.5628 129.787 28.6292C129.737 28.6957 129.679 28.7538 129.613 28.8037C129.563 28.8535 129.505 28.8785 129.438 28.8785C129.372 28.8785 129.313 28.8785 129.264 28.8785C129.214 28.8785 129.189 28.8785 129.189 28.8785C129.189 28.9449 129.073 29.0363 128.84 29.1526C128.607 29.2523 128.35 29.3437 128.067 29.4268C127.785 29.5098 127.561 29.5514 127.394 29.5514ZM127.918 27.4578C128.017 27.4578 128.167 27.3997 128.366 27.2834C128.582 27.1505 128.815 26.9926 129.064 26.8098C129.313 26.6271 129.538 26.4443 129.737 26.2615C129.953 26.0788 130.111 25.9292 130.211 25.8129C130.277 25.7465 130.352 25.6385 130.435 25.4889C130.535 25.3394 130.643 25.2065 130.759 25.0901C131.141 24.6581 131.382 24.3175 131.482 24.0683C131.581 23.8024 131.54 23.52 131.357 23.2209C131.291 23.0381 131.208 22.9384 131.108 22.9218C131.008 22.9052 130.801 22.9634 130.485 23.0963C130.285 23.2126 130.069 23.4037 129.837 23.6695C129.604 23.9354 129.363 24.2344 129.114 24.5668C128.881 24.8991 128.665 25.2397 128.466 25.5886C128.267 25.9375 128.101 26.2532 127.968 26.5357C127.851 26.8181 127.793 27.0425 127.793 27.2086C127.793 27.2751 127.81 27.3332 127.843 27.3831C127.893 27.4329 127.918 27.4578 127.918 27.4578ZM143.194 30.4735C142.978 30.5234 142.762 30.4652 142.546 30.2991C142.347 30.1495 142.206 29.9834 142.123 29.8006C142.023 29.5348 141.956 29.2855 141.923 29.0529C141.907 28.8037 141.89 28.5212 141.873 28.2055L141.848 27.3581L140.827 28.2803C140.262 28.812 139.73 29.1942 139.232 29.4268C138.75 29.6428 138.309 29.7508 137.911 29.7508C137.728 29.7175 137.504 29.6012 137.238 29.4018C136.988 29.1858 136.756 28.9532 136.54 28.704C136.34 28.4382 136.199 28.2221 136.116 28.056C136.016 27.8234 135.983 27.4994 136.016 27.084C136.066 26.6686 136.166 26.2117 136.316 25.7132C136.482 25.2148 136.681 24.7246 136.914 24.2428C137.163 23.7609 137.445 23.3455 137.761 22.9966C138.309 22.1658 138.991 21.6508 139.805 21.4514C140.619 21.2354 141.342 21.3018 141.973 21.6508C142.272 21.8003 142.488 21.8584 142.621 21.8252C142.754 21.792 142.837 21.684 142.87 21.5012C142.937 21.2354 143.012 20.9861 143.095 20.7535C143.178 20.5209 143.294 20.172 143.444 19.7067C143.859 18.444 144.216 17.4554 144.515 16.7409C144.831 16.0264 145.113 15.4034 145.363 14.8717C145.545 14.4895 145.728 14.2237 145.911 14.0741C146.094 13.9246 146.252 13.8581 146.384 13.8747C146.567 13.8747 146.792 13.9412 147.057 14.0741C147.34 14.207 147.523 14.3898 147.606 14.6224C147.672 14.772 147.697 14.9298 147.68 15.096C147.68 15.2621 147.631 15.4366 147.531 15.6194C147.315 16.0181 147.057 16.5498 146.758 17.2144C146.476 17.8624 146.185 18.5769 145.886 19.3578C145.604 20.1387 145.338 20.9114 145.088 21.6757C144.839 22.44 144.632 23.1129 144.465 23.6944C144.366 24.06 144.283 24.5252 144.216 25.0901C144.166 25.6551 144.125 26.2366 144.092 26.8348C144.075 27.4163 144.075 27.9397 144.092 28.4049C144.108 28.8535 144.133 29.1443 144.166 29.2772C144.266 29.6095 144.266 29.8588 144.166 30.0249C144.067 30.1911 143.925 30.2991 143.743 30.3489C143.56 30.4154 143.377 30.4569 143.194 30.4735ZM139.082 27.4578C139.315 27.3748 139.522 27.2751 139.705 27.1588C139.888 27.0425 140.104 26.8929 140.353 26.7101C140.852 26.328 141.209 25.9957 141.425 25.7132C141.657 25.4308 141.84 25.0818 141.973 24.6664C142.056 24.4172 142.056 24.2012 141.973 24.0184C141.907 23.8357 141.782 23.6612 141.599 23.4951C141.416 23.3455 141.184 23.2874 140.901 23.3206C140.619 23.3372 140.295 23.5117 139.929 23.844C139.531 24.2095 139.19 24.6332 138.908 25.1151C138.625 25.5969 138.392 26.2865 138.21 27.1837C138.176 27.3498 138.235 27.4661 138.384 27.5326C138.534 27.5991 138.766 27.5741 139.082 27.4578ZM65.9628 51.1465C65.5142 50.8142 65.1652 50.3406 64.916 49.7258C64.6834 49.0945 64.5754 48.5129 64.592 47.9812C64.5754 46.9511 64.6585 45.8877 64.8412 44.7911C65.0406 43.6944 65.2982 42.6726 65.6139 41.7255C65.8299 41.1274 66.0625 40.5209 66.3117 39.9061C66.5609 39.2914 66.8185 38.7098 67.0843 38.1615C67.3502 37.5966 67.6077 37.123 67.8569 36.7409C68.372 35.8603 68.8954 35.1541 69.4271 34.6224C69.9754 34.0907 70.3908 33.7418 70.6732 33.5757C71.1385 33.343 71.6951 33.1686 72.3431 33.0523C72.9911 32.9193 73.6225 32.9193 74.2373 33.0523C74.6693 33.1686 75.093 33.3347 75.5083 33.5507C75.9403 33.7667 76.3142 34.0326 76.6299 34.3483C76.8126 34.5144 76.9539 34.6889 77.0536 34.8717C77.1533 35.0544 77.2031 35.2455 77.2031 35.4449C77.2031 35.6941 77.0868 35.935 76.8542 36.1677C76.6216 36.4003 76.364 36.5581 76.0816 36.6412C75.7991 36.7243 75.5831 36.6744 75.4336 36.4917C75.2176 36.1594 75.0099 35.9101 74.8105 35.744C74.6111 35.5612 74.4034 35.4283 74.1874 35.3452C74.0046 35.2289 73.7554 35.1707 73.4397 35.1707C73.1406 35.1707 72.8166 35.2289 72.4677 35.3452C72.1188 35.4449 71.7865 35.6277 71.4708 35.8935C71.3545 35.9932 71.1966 36.1344 70.9973 36.3172C70.8145 36.5 70.6151 36.7243 70.3991 36.9901C70.1997 37.2394 70.0169 37.5135 69.8508 37.8126C69.3856 38.5769 68.9868 39.3578 68.6545 40.1554C68.3388 40.9363 68.0563 41.792 67.8071 42.7224C67.6908 43.1046 67.5662 43.5781 67.4332 44.1431C67.3003 44.6914 67.1757 45.2397 67.0594 45.788C66.9597 46.3363 66.8932 46.8181 66.86 47.2335C66.8102 47.8151 66.8268 48.272 66.9099 48.6043C66.9929 48.9366 67.1674 49.1609 67.4332 49.2772C67.6991 49.3769 68.0729 49.3686 68.5548 49.2523C68.9868 49.1526 69.4188 48.9865 69.8508 48.7538C70.2994 48.5046 70.7314 48.1972 71.1468 47.8317C71.5622 47.4495 71.936 47.0009 72.2683 46.4858C72.5674 45.9209 72.8083 45.4058 72.9911 44.9406C73.1905 44.4754 73.2902 44.1098 73.2902 43.844C73.3068 43.5615 73.1656 43.4286 72.8665 43.4452C72.1853 43.4618 71.6369 43.4369 71.2216 43.3704C70.8228 43.304 70.5486 43.1378 70.3991 42.872C70.1831 42.8221 70.0668 42.6394 70.0502 42.3237C70.0502 42.008 70.208 41.7504 70.5237 41.5511C70.8062 41.4015 71.1966 41.3101 71.6951 41.2769C72.1936 41.2437 72.7003 41.2603 73.2154 41.3268C73.7471 41.3766 74.1708 41.4929 74.4865 41.6757C74.852 41.8584 75.1013 42.1326 75.2342 42.4981C75.3837 42.8471 75.4585 43.2209 75.4585 43.6197C75.4751 44.0184 75.4502 44.3923 75.3837 44.7412C75.2342 45.3228 75.0265 45.8877 74.7606 46.436C74.5114 46.9843 74.1708 47.5409 73.7388 48.1058C73.4896 48.4548 73.1489 48.8203 72.7169 49.2025C72.2849 49.5846 71.828 49.9252 71.3462 50.2243C70.8809 50.54 70.4406 50.7892 70.0252 50.972C69.3606 51.2711 68.6628 51.4871 67.9317 51.62C67.2172 51.7529 66.5609 51.5951 65.9628 51.1465ZM82.6897 49.9502C82.5235 49.784 82.3906 49.5597 82.2909 49.2772C82.1912 48.9782 82.0915 48.6375 81.9919 48.2554C81.9586 48.1225 81.942 47.9729 81.942 47.8068C81.9586 47.6406 81.9586 47.5077 81.942 47.408C81.8922 47.5243 81.8091 47.6738 81.6928 47.8566C81.5931 48.0394 81.4934 48.1723 81.3937 48.2554C81.3272 48.3218 81.1777 48.4548 80.9451 48.6542C80.7125 48.8369 80.4799 48.9865 80.2472 49.1028C79.6989 49.4517 79.2088 49.6178 78.7768 49.6012C78.3614 49.568 77.9958 49.352 77.6802 48.9532C77.4143 48.7372 77.1983 48.4631 77.0322 48.1308C76.866 47.7985 76.8328 47.3997 76.9325 46.9345C76.9657 46.3529 77.0488 45.788 77.1817 45.2397C77.3146 44.6748 77.5888 43.9271 78.0042 42.9966C78.3531 42.3154 78.6189 41.7837 78.8017 41.4015C78.9845 41.0194 79.1008 40.7951 79.1506 40.7286C79.3998 40.6455 79.7072 40.6538 80.0728 40.7535C80.4383 40.8366 80.6377 40.9944 80.6709 41.2271C80.7706 41.3932 80.7706 41.7089 80.6709 42.1741C80.5712 42.6228 80.3719 43.1378 80.0728 43.7194C79.8402 44.2843 79.6158 44.8326 79.3998 45.3643C79.2005 45.896 79.0758 46.3446 79.026 46.7101C78.9928 47.0757 79.0925 47.3 79.3251 47.3831C79.4746 47.4661 79.6906 47.4578 79.9731 47.3581C80.2722 47.2585 80.6211 46.9594 81.0199 46.4609C81.4186 45.9625 81.8423 45.1732 82.2909 44.0932C82.4239 43.7609 82.5235 43.4701 82.59 43.2209C82.6565 42.9551 82.698 42.6643 82.7146 42.3486C82.6814 42.1492 82.7312 41.9415 82.8642 41.7255C83.0137 41.5095 83.1882 41.3434 83.3876 41.2271C83.454 41.144 83.5454 41.0692 83.6617 41.0027C83.778 40.9197 83.8528 40.9197 83.886 41.0027L84.2848 40.9778C84.3512 40.9612 84.426 41.0277 84.5091 41.1772C84.5922 41.3268 84.6752 41.4348 84.7583 41.5012C84.9411 41.6508 85.0242 41.9748 85.0076 42.4732C84.9909 42.9717 84.7916 43.6695 84.4094 44.5668C84.0937 45.248 83.8777 45.7631 83.7614 46.112C83.6617 46.4609 83.6036 46.8015 83.5869 47.1338C83.5869 47.4329 83.6119 47.6905 83.6617 47.9065C83.7116 48.1058 83.8611 48.3135 84.1103 48.5295C84.2931 48.6458 84.3928 48.8452 84.4094 49.1277C84.4426 49.3935 84.4509 49.6262 84.4343 49.8255C84.4011 49.9751 84.2682 50.0748 84.0356 50.1246C83.8196 50.1911 83.5786 50.2077 83.3128 50.1745C83.0635 50.1412 82.8559 50.0665 82.6897 49.9502ZM87.8019 49.9751C87.4031 49.9751 87.0542 49.7674 86.7551 49.352C86.4726 48.92 86.2982 48.4049 86.2317 47.8068C86.2483 47.6738 86.2649 47.4828 86.2816 47.2335C86.3148 46.9843 86.348 46.7268 86.3812 46.4609C86.4477 46.1452 86.5391 45.7381 86.6554 45.2397C86.7717 44.7412 86.8963 44.2428 87.0292 43.7443C87.1622 43.2292 87.2785 42.7889 87.3782 42.4234C87.4779 42.0412 87.536 41.8169 87.5526 41.7504C87.6523 41.5178 87.8766 41.4597 88.2256 41.576C88.5745 41.6923 88.8736 41.9415 89.1228 42.3237C89.2225 42.4566 89.2806 42.6144 89.2973 42.7972C89.3305 42.98 89.3056 43.2458 89.2225 43.5948C89.156 43.9437 89.0231 44.4588 88.8237 45.14C88.6409 45.8046 88.4997 46.3446 88.4 46.76C88.3169 47.1588 88.2837 47.5825 88.3003 48.0311C88.2339 48.7954 88.1674 49.3188 88.1009 49.6012C88.0345 49.8671 87.9348 49.9917 87.8019 49.9751ZM90.0948 39.632C90.0283 39.6818 89.9619 39.7067 89.8954 39.7067C89.8456 39.6901 89.7542 39.6403 89.6213 39.5572C89.5049 39.5406 89.3554 39.4658 89.1726 39.3329C89.0065 39.1834 88.8569 39.0338 88.724 38.8843C88.6077 38.7347 88.5496 38.6434 88.5496 38.6101C88.5329 38.444 88.5413 38.1781 88.5745 37.8126C88.6243 37.447 88.7157 37.1064 88.8486 36.7907C88.9982 36.4584 89.1976 36.284 89.4468 36.2674C89.5133 36.2674 89.6545 36.3006 89.8705 36.367C90.1031 36.4335 90.344 36.5166 90.5933 36.6163C90.7262 36.8655 90.8508 37.1895 90.9671 37.5883C91.0834 37.9871 91.0917 38.3775 90.992 38.7597C90.9089 39.1252 90.6099 39.416 90.0948 39.632ZM98.0774 49.9751C97.8282 49.9917 97.5956 50 97.3796 50C97.1802 50 97.0223 49.9668 96.906 49.9003C96.6069 49.6511 96.4076 49.4517 96.3079 49.3022C96.2248 49.1526 96.1832 48.9865 96.1832 48.8037C96.1999 48.5711 96.2082 48.3385 96.2082 48.1058C96.2082 47.8566 96.2082 47.6655 96.2082 47.5326C96.1417 47.4661 96.0088 47.5409 95.8094 47.7569C95.61 47.9729 95.3774 48.1806 95.1115 48.38C94.5965 48.9615 94.1395 49.3852 93.7408 49.6511C93.342 49.9003 92.9765 50.0415 92.6442 50.0748C92.3118 50.1246 91.9795 50.1329 91.6472 50.0997C91.3482 50.0665 91.0823 49.9169 90.8497 49.6511C90.6337 49.3852 90.4675 49.0612 90.3512 48.6791C90.2515 48.2969 90.2183 47.9231 90.2515 47.5575C90.3346 46.8763 90.4842 46.2615 90.7002 45.7132C90.9162 45.1483 91.2402 44.5584 91.6722 43.9437C91.8715 43.6778 92.1374 43.3871 92.4697 43.0714C92.8186 42.7557 93.1925 42.4649 93.5912 42.1991C93.99 41.9166 94.3472 41.7172 94.6629 41.6009C95.1448 41.3849 95.5435 41.2852 95.8592 41.3018C96.1915 41.3184 96.5156 41.3683 96.8312 41.4514C97.0639 41.5677 97.2466 41.6258 97.3796 41.6258C97.5291 41.6258 97.6371 41.5428 97.7036 41.3766C97.8032 41.2437 97.878 41.0775 97.9279 40.8781C97.9777 40.6787 98.0608 40.4877 98.1771 40.3049L98.7254 38.6849C98.9082 38.2363 99.1242 37.7212 99.3734 37.1397C99.6226 36.5581 99.9051 35.9101 100.221 35.1957C100.603 34.5477 100.927 34.207 101.193 34.1738C101.475 34.1406 101.766 34.2901 102.065 34.6224C102.264 34.8218 102.372 35.071 102.389 35.3701C102.422 35.6526 102.348 35.9849 102.165 36.367C102.048 36.5498 101.924 36.7824 101.791 37.0649C101.658 37.3307 101.5 37.6464 101.317 38.012C101.135 38.444 100.944 38.876 100.744 39.308C100.561 39.74 100.37 40.2135 100.171 40.7286C100.104 40.9944 100.013 41.3018 99.8968 41.6508C99.7971 41.9997 99.714 42.3154 99.6476 42.5978C99.5977 42.8637 99.5396 43.1129 99.4731 43.3455C99.4232 43.5615 99.3651 43.6695 99.2986 43.6695C99.1657 43.7858 99.0411 44.0351 98.9248 44.4172C98.8085 44.7828 98.7088 45.1732 98.6257 45.5886C98.5592 46.004 98.5011 46.3446 98.4512 46.6105C98.418 46.8098 98.3931 47.0923 98.3765 47.4578C98.3599 47.8068 98.3516 48.1474 98.3516 48.4797C98.3516 48.7954 98.3516 49.0114 98.3516 49.1277C98.3516 49.4434 98.3266 49.6677 98.2768 49.8006C98.2436 49.9169 98.1771 49.9751 98.0774 49.9751ZM92.4448 48.0061C92.8269 48.0061 93.1842 47.8483 93.5165 47.5326C93.8654 47.2003 94.2475 46.8514 94.6629 46.4858C94.9122 46.2366 95.1697 45.9625 95.4355 45.6634C95.7014 45.3477 95.9423 45.0403 96.1583 44.7412C96.3909 44.4421 96.5737 44.1846 96.7066 43.9686C96.8396 43.7526 96.906 43.6114 96.906 43.5449C96.906 43.4618 96.8396 43.3871 96.7066 43.3206C96.5903 43.2541 96.4491 43.2043 96.2829 43.1711C96.1168 43.1212 95.9672 43.1129 95.8343 43.1461C95.4355 43.2624 95.1115 43.4369 94.8623 43.6695C94.6297 43.9021 94.2891 44.2677 93.8405 44.7661C93.3919 45.3145 93.0346 45.8378 92.7688 46.3363C92.5029 46.8348 92.3368 47.2418 92.2703 47.5575C92.2205 47.8566 92.2786 48.0061 92.4448 48.0061ZM102.622 49.7757C101.974 49.5098 101.525 49.0778 101.276 48.4797C101.027 47.8815 100.96 47.084 101.077 46.0871C101.11 45.572 101.093 45.2314 101.027 45.0652C100.96 44.8825 100.836 44.708 100.653 44.5418C100.603 44.4754 100.487 44.3674 100.304 44.2178C100.121 44.0517 100.038 43.9271 100.055 43.844C100.038 43.7277 100.063 43.5864 100.13 43.4203C100.196 43.2375 100.254 43.1378 100.304 43.1212C100.42 43.0714 100.537 43.0132 100.653 42.9468C100.786 42.8803 100.886 42.8637 100.952 42.8969C101.019 42.8969 101.118 42.9384 101.251 43.0215C101.401 43.1046 101.476 43.1794 101.476 43.2458C101.542 43.3621 101.642 43.3123 101.775 43.0963C101.924 42.8803 102.082 42.6061 102.248 42.2738C102.414 42.008 102.622 41.7588 102.871 41.5261C103.12 41.2935 103.37 41.0858 103.619 40.9031C103.885 40.7037 104.109 40.5541 104.292 40.4544C104.375 40.4212 104.533 40.3714 104.765 40.3049C105.015 40.2384 105.272 40.1886 105.538 40.1554C105.804 40.1055 106.003 40.0889 106.136 40.1055C106.435 40.1221 106.751 40.2467 107.083 40.4794C107.416 40.712 107.673 40.928 107.856 41.1274C108.072 41.2769 108.213 41.5095 108.28 41.8252C108.363 42.1243 108.396 42.44 108.379 42.7723C108.363 43.1046 108.296 43.3871 108.18 43.6197C108.13 43.7858 107.956 44.0184 107.656 44.3175C107.357 44.6166 107.025 44.9074 106.66 45.1898C106.311 45.4557 106.012 45.6385 105.762 45.7381C105.546 45.788 105.289 45.8295 104.99 45.8628C104.691 45.8794 104.408 45.8794 104.142 45.8628C103.893 45.8295 103.719 45.788 103.619 45.7381C103.503 45.6717 103.403 45.6966 103.32 45.8129C103.253 45.9126 103.195 46.1951 103.145 46.6603C103.129 46.8431 103.129 47.0009 103.145 47.1338C103.179 47.2668 103.212 47.3665 103.245 47.4329C103.361 47.6323 103.478 47.7818 103.594 47.8815C103.71 47.9646 103.926 47.9895 104.242 47.9563C104.558 47.9231 104.873 47.732 105.189 47.3831C105.521 47.0175 105.82 46.7268 106.086 46.5108C106.153 46.3945 106.294 46.3197 106.51 46.2865C106.743 46.2366 107.017 46.2532 107.332 46.3363C107.515 46.4526 107.598 46.6354 107.582 46.8846C107.582 47.1338 107.449 47.4994 107.183 47.9812C107.133 48.0975 106.992 48.272 106.759 48.5046C106.543 48.7206 106.302 48.9449 106.036 49.1775C105.787 49.3935 105.58 49.5514 105.413 49.6511C104.915 49.9169 104.425 50.0415 103.943 50.0249C103.461 50.0083 103.021 49.9252 102.622 49.7757ZM104.466 44.168C104.716 44.1015 104.923 44.0351 105.089 43.9686C105.272 43.9021 105.447 43.7941 105.613 43.6446C105.779 43.4951 105.97 43.2708 106.186 42.9717C106.252 42.7889 106.286 42.6311 106.286 42.4981C106.302 42.3652 106.294 42.2821 106.261 42.2489C106.128 42.116 105.978 42.0744 105.812 42.1243C105.663 42.1575 105.496 42.2406 105.314 42.3735C105.197 42.4234 105.031 42.5314 104.815 42.6975C104.616 42.8471 104.416 43.0215 104.217 43.2209C104.034 43.4037 103.885 43.5781 103.768 43.7443C103.669 43.8938 103.652 43.9852 103.719 44.0184C103.685 44.0849 103.777 44.1264 103.993 44.1431C104.225 44.1597 104.383 44.168 104.466 44.168Z" fill="black"/>
</svg>
