<svg width="177" height="64" viewBox="0 0 177 64" fill="none" xmlns="http://www.w3.org/2000/svg">
<rect width="177" height="64" rx="12" fill="#FFF9EE"/>
<rect x="11" y="16.5" width="31" height="31" rx="7.75" fill="#F3B96B"/>
<path d="M37.5338 31.3407L38.9688 29.9689V29.6665H34.0112L30.4766 38.4815L26.4586 29.6665H21.2585V29.9689L22.9326 31.9847C23.014 32.0576 23.0769 32.1487 23.1164 32.2505C23.1559 32.3523 23.1708 32.462 23.1598 32.5707V40.499C23.1837 40.6399 23.1743 40.7844 23.1321 40.9208C23.09 41.0573 23.0164 41.182 22.9173 41.2849L21.0312 43.574V43.873H26.3732V43.5723L24.4889 41.2866C24.3888 41.1839 24.3134 41.0598 24.2684 40.9236C24.2235 40.7875 24.2101 40.6429 24.2292 40.5008V33.6435L28.9186 43.8747H29.4653L33.4918 33.6435V41.7974C33.4918 42.0143 33.4918 42.0553 33.3483 42.1988L31.8997 43.6048V43.9055H38.9329V43.6048L37.5355 42.2313C37.4747 42.1853 37.4276 42.1237 37.3993 42.0529C37.371 41.9822 37.3626 41.905 37.3749 41.8298V31.7421C37.3626 31.6669 37.371 31.5898 37.3993 31.5191C37.4276 31.4483 37.473 31.3866 37.5338 31.3407Z" fill="black"/>
<path fill-rule="evenodd" clip-rule="evenodd" d="M38.9825 20.8396C33.0126 20.1778 26.9877 20.1778 21.0177 20.8396C17.5805 21.224 14.8045 23.9317 14.4013 27.386C13.693 33.4413 13.693 39.5585 14.4013 45.6139C14.8045 49.0681 17.5788 51.7758 21.0177 52.1602C26.9877 52.8213 33.0125 52.8213 38.9825 52.1602C42.4197 51.7758 45.1958 49.0681 45.5989 45.6139C46.3072 39.5585 46.3072 33.4413 45.5989 27.386C45.1958 23.9317 42.4214 21.224 38.9825 20.8396ZM21.3013 23.385C27.0828 22.7442 32.9174 22.7442 38.699 23.385C40.971 23.6413 42.7904 25.4333 43.0552 27.6849C43.7402 33.5416 43.7402 39.4582 43.0552 45.3149C42.9183 46.4169 42.4138 47.4405 41.6234 48.2204C40.8329 49.0003 39.8026 49.4909 38.699 49.6131C32.9174 50.254 27.0828 50.254 21.3013 49.6131C20.1976 49.4909 19.1673 49.0003 18.3769 48.2204C17.5865 47.4405 17.082 46.4169 16.945 45.3149C16.2601 39.4582 16.2601 33.5416 16.945 27.6849C17.082 26.583 17.5865 25.5594 18.3769 24.7795C19.1673 23.9996 20.1976 23.5072 21.3013 23.385Z" fill="black"/>
<path d="M67.0594 31.7945C66.3449 31.3292 65.9212 30.864 65.7883 30.3988C65.672 29.9335 65.8382 29.5597 66.2868 29.2772C66.3865 29.2108 66.5775 29.2025 66.86 29.2523C67.1591 29.3022 67.3834 29.4018 67.5329 29.5514C67.8652 29.8505 68.2391 30.0332 68.6545 30.0997C69.0865 30.1828 69.6099 30.1412 70.2246 29.9751C70.9225 29.7591 71.4542 29.4932 71.8197 29.1775C72.2019 28.8452 72.6256 28.3966 73.0908 27.8317C73.4397 27.3831 73.6806 26.9428 73.8136 26.5108C73.9631 26.0788 74.0296 25.6883 74.0129 25.3394C74.0129 24.9738 73.9299 24.6997 73.7637 24.5169C73.3483 23.9354 72.8333 23.5366 72.2185 23.3206C71.6037 23.088 70.7979 23.1046 69.8009 23.3704C69.6846 23.3871 69.5102 23.4203 69.2776 23.4701C69.0449 23.52 68.8372 23.5698 68.6545 23.6197C68.4717 23.6529 68.372 23.6695 68.3554 23.6695C68.2391 23.7028 68.1477 23.7194 68.0812 23.7194C68.0148 23.7194 67.9317 23.8024 67.832 23.9686C67.7489 24.1181 67.616 24.4421 67.4332 24.9406C67.2505 25.4225 66.9763 26.1701 66.6108 27.1837C66.2619 28.1972 65.9628 28.92 65.7135 29.352C65.4809 29.7674 65.2732 29.9585 65.0905 29.9252C64.9077 29.8754 64.7 29.6926 64.4674 29.3769C64.3345 29.1443 64.1849 28.8868 64.0188 28.6043C63.8692 28.3218 63.8775 28.0311 64.0437 27.732C64.1268 27.5825 64.1932 27.4495 64.2431 27.3332C64.2929 27.2003 64.3594 26.976 64.4425 26.6603C64.5255 26.4111 64.6834 25.9791 64.916 25.3643C65.1652 24.7329 65.456 24.0018 65.7883 23.1711C66.1206 22.3237 66.4695 21.4514 66.8351 20.5541C67.2006 19.6569 67.5496 18.8095 67.8819 18.012C68.2308 17.2144 68.5216 16.5415 68.7542 15.9932C68.9868 15.4781 69.128 15.1043 69.1779 14.8717C69.2277 14.639 69.2111 14.5144 69.128 14.4978C69.128 14.4147 69.1031 14.34 69.0532 14.2735C69.0034 14.1904 68.9868 14.1157 69.0034 14.0492C69.0034 13.9827 69.1446 13.8913 69.4271 13.775C69.7262 13.6587 70.0419 13.5507 70.3742 13.451C70.7065 13.3513 70.9474 13.3181 71.0969 13.3513C71.18 13.3513 71.2797 13.3513 71.396 13.3513C71.5123 13.3347 71.5705 13.2932 71.5705 13.2267C71.6203 13.2267 71.7782 13.2101 72.044 13.1769C72.3099 13.1437 72.6006 13.1437 72.9163 13.1769C74.0296 13.2766 74.9434 13.6006 75.6579 14.1489C76.3723 14.6806 76.7213 15.5363 76.7046 16.716C76.688 16.9984 76.5717 17.364 76.3557 17.8126C76.1397 18.2612 75.8656 18.7098 75.5333 19.1584C75.2176 19.6071 74.877 19.9975 74.5114 20.3298C74.2954 20.5126 74.0628 20.7037 73.8136 20.9031C73.5809 21.0858 73.3733 21.2437 73.1905 21.3766C73.0243 21.4929 72.9413 21.5511 72.9413 21.5511C72.9413 21.5511 73.0077 21.576 73.1406 21.6258C73.2736 21.6757 73.4148 21.7255 73.5643 21.7754C74.3286 22.0578 74.9268 22.4151 75.3588 22.8471C75.8074 23.2791 76.1231 23.8772 76.3059 24.6415C76.3723 24.8908 76.3723 25.1981 76.3059 25.5637C76.256 25.9292 76.1813 26.2948 76.0816 26.6603C75.9819 27.0092 75.8739 27.3083 75.7576 27.5575C75.6413 27.6738 75.5499 27.7985 75.4834 27.9314C75.417 28.0477 75.3837 28.1058 75.3837 28.1058C75.3837 28.1391 75.3173 28.272 75.1843 28.5046C75.0514 28.7206 74.8936 28.9615 74.7108 29.2274C74.528 29.4932 74.3536 29.7258 74.1874 29.9252C74.0213 30.0582 73.7803 30.2409 73.4646 30.4735C73.1656 30.7228 72.8333 30.9637 72.4677 31.1963C72.1188 31.4289 71.7865 31.6034 71.4708 31.7197C71.0056 31.9191 70.4822 32.052 69.9006 32.1185C69.3357 32.2015 68.7957 32.2099 68.2806 32.1434C67.7656 32.0935 67.3585 31.9772 67.0594 31.7945ZM68.8539 21.4514C68.8539 21.4514 68.9868 21.4264 69.2526 21.3766C69.5351 21.3101 69.8425 21.2437 70.1748 21.1772C70.5071 21.0941 70.7563 21.0194 70.9225 20.9529C71.0056 20.9031 71.1219 20.8366 71.2714 20.7535C71.4376 20.6704 71.6037 20.5458 71.7699 20.3797C72.0025 20.1637 72.2517 19.9227 72.5176 19.6569C72.7834 19.3744 73.0409 19.0754 73.2902 18.7597C73.556 18.444 73.7803 18.1034 73.9631 17.7378C74.3453 17.1397 74.553 16.7077 74.5862 16.4418C74.6194 16.176 74.528 15.935 74.312 15.719C74.1625 15.5363 73.9548 15.4034 73.6889 15.3203C73.4231 15.2206 73.1323 15.1707 72.8166 15.1707C72.5176 15.1541 72.2268 15.1874 71.9443 15.2704C71.7283 15.3369 71.5622 15.42 71.4459 15.5197C71.3296 15.6027 71.2714 15.7357 71.2714 15.9184C71.2714 16.068 71.2216 16.2258 71.1219 16.392C71.0388 16.5415 70.9557 16.6578 70.8726 16.7409C70.856 16.8572 70.7979 16.9735 70.6982 17.0898C70.6151 17.1895 70.5736 17.2394 70.5736 17.2394C70.5736 17.3058 70.4656 17.5135 70.2496 17.8624C70.0502 18.1947 69.8342 18.6766 69.6016 19.308C69.3025 20.0224 69.1031 20.5375 69.0034 20.8532C68.9037 21.1689 68.8539 21.3683 68.8539 21.4514ZM78.1362 29.4766C78.0697 29.3437 77.9202 29.2108 77.6876 29.0778C77.4716 28.9449 77.3636 28.8452 77.3636 28.7788C77.3636 28.7123 77.322 28.6126 77.2389 28.4797C77.1725 28.3302 77.106 28.2222 77.0396 28.1557C76.9565 28.056 76.9814 27.8151 77.1143 27.4329C77.2472 27.0341 77.4466 26.5523 77.7125 25.9874C77.9783 25.4225 78.2691 24.8492 78.5848 24.2677C78.7177 24.1348 78.8506 23.9603 78.9836 23.7443C79.1165 23.5283 79.2162 23.3871 79.2826 23.3206C79.2826 23.2541 79.3076 23.196 79.3574 23.1461C79.4072 23.0797 79.4654 23.0464 79.5319 23.0464L79.7312 22.6477C79.7645 22.5812 79.8642 22.4483 80.0303 22.2489C80.2131 22.0495 80.4291 21.8335 80.6783 21.6009C80.9276 21.3517 81.1768 21.1191 81.426 20.9031C81.6919 20.6871 81.9079 20.5292 82.074 20.4295C82.4229 20.1969 82.7802 20.0889 83.1457 20.1055C83.5279 20.1221 83.8519 20.2384 84.1177 20.4544C84.1676 20.5043 84.2756 20.604 84.4417 20.7535C84.6245 20.9031 84.8239 21.0692 85.0399 21.252C85.2725 21.4348 85.4719 21.6009 85.638 21.7504L86.5602 22.5729L86.1365 23.8191C85.9205 24.4837 85.8623 25.0652 85.962 25.5637C86.0617 26.0621 86.2196 26.4941 86.4356 26.8597C86.5186 27.0425 86.6266 27.1837 86.7596 27.2834C86.9091 27.3831 87.1002 27.4495 87.3328 27.4828C87.4657 27.4994 87.5903 27.5492 87.7067 27.6323C87.823 27.7154 87.8811 27.8483 87.8811 28.0311C87.8811 28.4298 87.8063 28.7206 87.6568 28.9034C87.5239 29.0695 87.3743 29.1692 87.2082 29.2025C86.6599 29.2689 86.1365 29.2108 85.638 29.028C85.1396 28.8452 84.691 28.3717 84.2922 27.6074C84.2257 27.5077 84.1343 27.3249 84.018 27.0591C83.9183 26.7766 83.8602 26.5938 83.8436 26.5108C83.7771 26.5938 83.6857 26.7018 83.5694 26.8348C83.4697 26.9511 83.37 27.0591 83.2703 27.1588C82.0906 28.3551 81.0771 29.136 80.2297 29.5015C79.3989 29.8505 78.7011 29.8422 78.1362 29.4766ZM79.5069 27.408C79.6232 27.4246 79.806 27.3665 80.0553 27.2335C80.3045 27.084 80.6368 26.8431 81.0522 26.5108C81.6171 26.0289 82.0823 25.6301 82.4479 25.3145C82.8134 24.9988 83.1706 24.5917 83.5196 24.0932L84.0679 23.196C83.9017 22.8138 83.7522 22.5646 83.6193 22.4483C83.4863 22.332 83.3534 22.2738 83.2205 22.2738C83.0045 22.2738 82.7469 22.4151 82.4479 22.6975C82.1488 22.9634 81.8082 23.3621 81.426 23.8938C81.0605 24.4089 80.6451 25.0569 80.1799 25.8378C79.9639 26.2034 79.7977 26.5606 79.6814 26.9095C79.5651 27.2418 79.5069 27.408 79.5069 27.408ZM91.6766 30.0997C91.1948 30.1828 90.7129 30.1412 90.2311 29.9751C89.7659 29.8089 89.3754 29.5431 89.0597 29.1775C88.7606 28.7954 88.6111 28.3385 88.6111 27.8068C88.5612 27.3083 88.6028 26.7185 88.7357 26.0372C88.8852 25.3394 89.1012 24.6415 89.3837 23.9437C89.6828 23.2458 90.0234 22.656 90.4056 22.1741C90.7379 21.7754 91.0702 21.4098 91.4025 21.0775C91.7348 20.7452 92.0339 20.5209 92.2997 20.4046C92.5323 20.3049 92.8148 20.2301 93.1471 20.1803C93.496 20.1138 93.7369 20.0806 93.8699 20.0806C94.1357 20.1471 94.4265 20.2551 94.7422 20.4046C95.0745 20.5541 95.2406 20.7286 95.2406 20.928C95.2406 20.928 95.2573 20.9529 95.2905 21.0027C95.3403 21.036 95.3653 21.0526 95.3653 21.0526C95.4649 21.0526 95.5729 21.1772 95.6893 21.4264C95.8222 21.6591 95.9219 21.9332 95.9883 22.2489C96.0548 22.548 96.0382 22.7889 95.9385 22.9717C95.872 23.2874 95.7391 23.5948 95.5397 23.8938C95.3569 24.1929 95.1991 24.3424 95.0662 24.3424C94.9997 24.3424 94.9333 24.3508 94.8668 24.3674C94.8169 24.3674 94.792 24.4089 94.792 24.492C94.792 24.5751 94.7006 24.6166 94.5179 24.6166C94.3517 24.6166 94.1773 24.5834 93.9945 24.5169C93.8117 24.4504 93.6954 24.3508 93.6456 24.2178C93.6456 24.1348 93.6622 24.0268 93.6954 23.8938C93.7286 23.7609 93.7785 23.5366 93.8449 23.2209C93.9446 22.7557 93.9529 22.4483 93.8699 22.2988C93.7868 22.1326 93.5791 22.116 93.2468 22.2489C92.8314 22.4815 92.4908 22.7557 92.2249 23.0714C91.9591 23.3704 91.7182 23.7941 91.5022 24.3424C91.3028 24.8908 91.0785 25.6551 90.8292 26.6354C90.7296 27.0175 90.7129 27.3166 90.7794 27.5326C90.8625 27.7486 90.9289 27.8649 90.9788 27.8815C91.2114 27.948 91.4606 27.9646 91.7265 27.9314C92.0089 27.8815 92.2416 27.8068 92.4243 27.7071C92.6902 27.5741 92.9228 27.4329 93.1222 27.2834C93.3382 27.1172 93.5708 26.9428 93.82 26.76C93.9031 26.7101 93.9779 26.6188 94.0443 26.4858C94.1108 26.3363 94.2105 26.2283 94.3434 26.1618C94.4763 25.9625 94.6425 25.8628 94.8419 25.8628C95.0579 25.8461 95.2656 25.8378 95.4649 25.8378C95.5979 25.8711 95.7391 25.9541 95.8886 26.0871C96.0382 26.22 96.1462 26.3529 96.2126 26.4858C96.2957 26.6021 96.2874 26.6852 96.1877 26.7351C96.1213 26.7351 96.0797 26.76 96.0631 26.8098C96.0631 26.8431 96.0631 26.8597 96.0631 26.8597C96.0963 26.9261 96.0216 27.0757 95.8388 27.3083C95.6726 27.5409 95.4566 27.7901 95.1908 28.056C94.9249 28.3218 94.6674 28.5545 94.4182 28.7538C94.1856 28.9366 94.0194 29.028 93.9197 29.028C93.7536 29.028 93.6705 29.0778 93.6705 29.1775C93.6705 29.2108 93.5459 29.2938 93.2966 29.4268C93.064 29.5597 92.7899 29.6926 92.4742 29.8255C92.1751 29.9585 91.9092 30.0498 91.6766 30.0997ZM98.3874 29.8255C98.1381 29.7425 97.9138 29.6095 97.7145 29.4268C97.5317 29.244 97.4569 28.9449 97.4901 28.5295C97.5234 28.2803 97.5732 28.0228 97.6397 27.7569C97.7061 27.4745 97.7892 27.2003 97.8889 26.9345C97.9388 26.6354 97.9969 26.3363 98.0634 26.0372C98.1465 25.7381 98.2794 25.4557 98.4622 25.1898C98.6782 24.5751 98.9025 23.9686 99.1351 23.3704C99.3677 22.7557 99.5671 22.116 99.7332 21.4514C99.9825 20.8532 100.207 20.3215 100.406 19.8563C100.622 19.3911 100.88 18.7929 101.179 18.0618C101.345 17.6797 101.486 17.256 101.602 16.7907C101.735 16.3089 101.935 15.8852 102.201 15.5197C102.317 15.3701 102.4 15.2455 102.45 15.1458C102.516 15.0295 102.583 14.9215 102.649 14.8218C102.766 14.5892 102.94 14.4812 103.173 14.4978C103.422 14.5144 103.588 14.5809 103.671 14.6972C103.954 14.8135 104.153 15.0295 104.269 15.3452C104.386 15.6443 104.427 15.8603 104.394 15.9932C104.394 16.176 104.327 16.3754 104.194 16.5914C104.128 16.6578 104.062 16.7575 103.995 16.8904C103.929 17.0067 103.829 17.1646 103.696 17.364C103.63 17.58 103.563 17.796 103.497 18.012C103.43 18.228 103.355 18.4274 103.272 18.6101C103.189 18.7929 103.098 18.9757 102.998 19.1584C102.898 19.3412 102.832 19.4907 102.799 19.6071C102.649 19.9892 102.483 20.3631 102.3 20.7286C102.134 21.0775 101.985 21.4514 101.852 21.8501C101.719 22.2323 101.578 22.6394 101.428 23.0714C101.278 23.4868 101.087 23.8855 100.855 24.2677C100.738 24.4338 100.672 24.6581 100.655 24.9406C100.655 25.2231 100.622 25.4972 100.556 25.7631C100.439 26.0621 100.331 26.3363 100.232 26.5855C100.149 26.8348 100.107 26.9926 100.107 27.0591C99.9908 27.4246 99.8994 27.7901 99.8329 28.1557C99.7665 28.5046 99.6585 28.812 99.5089 29.0778C99.5089 29.4766 99.4009 29.7258 99.1849 29.8255C98.9689 29.9252 98.7031 29.9252 98.3874 29.8255ZM104.095 30.0498C103.829 30.0166 103.63 29.9668 103.497 29.9003C103.364 29.8172 103.114 29.6428 102.749 29.3769C102.55 29.1775 102.3 28.8702 102.001 28.4548C101.702 28.0394 101.403 27.5991 101.104 27.1338C100.805 26.652 100.539 26.2449 100.306 25.9126L101.677 24.168C101.893 24.4338 102.068 24.6831 102.201 24.9157C102.334 25.1483 102.442 25.3061 102.525 25.3892C102.907 25.9541 103.206 26.4111 103.422 26.76C103.638 27.1089 103.821 27.3914 103.97 27.6074C104.136 27.8234 104.319 28.0145 104.518 28.1806C104.718 28.3468 104.975 28.5212 105.291 28.704C105.341 28.7372 105.391 28.8203 105.441 28.9532C105.49 29.0695 105.507 29.1942 105.49 29.3271C105.457 29.5265 105.333 29.6926 105.117 29.8255C104.917 29.9418 104.577 30.0166 104.095 30.0498ZM100.481 25.4391C100.381 25.1566 100.356 24.8409 100.406 24.492C100.473 24.1264 100.614 23.8855 100.83 23.7692C100.896 23.6529 100.963 23.5781 101.029 23.5449C101.112 23.4951 101.162 23.4369 101.179 23.3704C101.212 23.304 101.295 23.2126 101.428 23.0963C101.578 22.98 101.71 22.872 101.827 22.7723C102.093 22.6061 102.383 22.4068 102.699 22.1741C103.031 21.9249 103.347 21.6757 103.646 21.4264C103.962 21.1772 104.219 20.9612 104.419 20.7784C104.635 20.5957 104.768 20.4794 104.818 20.4295C104.867 20.3631 104.967 20.3215 105.117 20.3049C105.283 20.2883 105.441 20.3132 105.59 20.3797C105.79 20.4295 105.947 20.5375 106.064 20.7037C106.197 20.8698 106.263 21.1024 106.263 21.4015C106.313 21.5843 106.205 21.8086 105.939 22.0744C105.69 22.3237 105.374 22.5729 104.992 22.8221C104.859 22.9052 104.676 23.0298 104.444 23.196C104.228 23.3621 104.037 23.52 103.87 23.6695C103.754 23.736 103.58 23.8523 103.347 24.0184C103.131 24.168 102.94 24.3175 102.774 24.4671C102.641 24.5501 102.483 24.6997 102.3 24.9157C102.134 25.1151 101.943 25.2646 101.727 25.3643C101.195 25.8628 100.871 26.1037 100.755 26.0871C100.655 26.0705 100.564 25.8545 100.481 25.4391ZM110.326 34.9099C110.027 35.0594 109.637 35.0926 109.155 35.0095C108.69 34.9265 108.224 34.7603 107.759 34.5111C107.31 34.2785 106.945 34.0043 106.662 33.6886C106.513 33.5225 106.38 33.3231 106.264 33.0905C106.147 32.8579 106.073 32.6335 106.039 32.4175C106.006 32.2182 106.048 32.0852 106.164 32.0188C106.314 31.9191 106.488 31.8692 106.687 31.8692C106.903 31.8692 107.086 31.8942 107.236 31.944C107.402 31.9939 107.485 32.052 107.485 32.1185C107.668 32.2846 107.842 32.4259 108.008 32.5422C108.191 32.6751 108.366 32.7748 108.532 32.8412C108.764 32.9409 108.972 32.9575 109.155 32.8911C109.354 32.8412 109.537 32.7332 109.703 32.5671C109.836 32.3843 109.952 32.1517 110.052 31.8692C110.168 31.6034 110.26 31.296 110.326 30.9471L110.401 30.6231C110.584 29.7923 110.758 29.0114 110.924 28.2803C111.107 27.5326 111.257 26.9926 111.373 26.6603C111.34 26.6603 111.298 26.6686 111.248 26.6852C111.198 26.7018 111.149 26.7268 111.099 26.76C110.999 26.8098 110.899 26.8597 110.8 26.9095C110.7 26.9594 110.6 27.0092 110.501 27.0591C110.285 27.1754 110.094 27.2668 109.927 27.3332C109.761 27.3831 109.612 27.4246 109.479 27.4578C109.263 27.5243 109.105 27.5492 109.005 27.5326C108.906 27.516 108.822 27.5077 108.756 27.5077C108.59 27.5077 108.374 27.4578 108.108 27.3581C107.842 27.2418 107.618 27.1006 107.435 26.9345C107.286 26.7849 107.178 26.6354 107.111 26.4858C107.045 26.3197 107.003 26.1452 106.986 25.9625C106.97 25.7797 106.962 25.5969 106.962 25.4141C106.962 25.1649 107.094 24.7246 107.36 24.0932C107.626 23.4452 108.017 22.8138 108.532 22.1991C108.847 21.8834 109.263 21.5677 109.778 21.252C110.293 20.9363 110.816 20.6704 111.348 20.4544C111.896 20.2218 112.345 20.1055 112.694 20.1055C112.76 20.1055 112.835 20.1138 112.918 20.1304C113.018 20.1471 113.109 20.1886 113.192 20.2551C113.475 20.3215 113.757 20.4794 114.04 20.7286C114.322 20.9612 114.571 21.2686 114.787 21.6508C114.92 21.9166 115.028 22.1991 115.111 22.4981C115.211 22.7972 115.261 23.1129 115.261 23.4452C115.261 23.7111 115.211 23.9437 115.111 24.1431C115.028 24.3258 114.945 24.4338 114.862 24.4671C114.829 24.5003 114.787 24.5252 114.738 24.5418C114.688 24.5418 114.63 24.5501 114.563 24.5668C114.53 24.5668 114.463 24.5834 114.364 24.6166C114.264 24.6664 114.164 24.7578 114.065 24.8908C113.982 25.0071 113.898 25.2148 113.815 25.5138C113.799 25.5969 113.782 25.68 113.766 25.7631C113.749 25.8461 113.724 25.9292 113.691 26.0123C113.691 26.0289 113.666 26.0705 113.616 26.1369C113.583 26.1868 113.558 26.2532 113.541 26.3363C113.525 26.4526 113.491 26.5523 113.442 26.6354C113.408 26.7018 113.375 26.7766 113.342 26.8597C113.325 26.9261 113.317 26.9843 113.317 27.0341C113.317 27.0674 113.317 27.1006 113.317 27.1338L113.217 27.408C113.167 27.5741 113.118 27.7237 113.068 27.8566C113.034 27.9895 113.018 28.0726 113.018 28.1058L112.918 28.6043C112.885 28.7871 112.843 28.9698 112.794 29.1526C112.76 29.3354 112.727 29.5098 112.694 29.676C112.661 29.8422 112.619 30.0083 112.569 30.1745C112.204 31.6366 111.83 32.7415 111.448 33.4892C111.082 34.2369 110.708 34.7105 110.326 34.9099ZM108.856 25.2397C108.889 25.6052 109.196 25.7631 109.778 25.7132C110.359 25.6468 111.007 25.2978 111.722 24.6664C112.004 24.4338 112.254 24.168 112.47 23.8689C112.702 23.5698 112.86 23.2624 112.943 22.9468C113.026 22.6809 113.043 22.4981 112.993 22.3984C112.96 22.2821 112.818 22.2157 112.569 22.1991C112.237 22.1991 111.896 22.2738 111.547 22.4234C111.215 22.5563 110.858 22.7474 110.476 22.9966C110.26 23.2957 110.077 23.4868 109.927 23.5698C109.778 23.6529 109.678 23.6944 109.628 23.6944C109.595 23.6778 109.612 23.6861 109.678 23.7194C109.645 23.7858 109.612 23.844 109.578 23.8938C109.545 23.9437 109.512 23.9935 109.479 24.0434C109.379 24.2095 109.279 24.3508 109.18 24.4671C109.08 24.5834 108.997 24.6997 108.93 24.816C108.881 24.9323 108.856 25.0735 108.856 25.2397ZM116.613 29.3271C116.464 29.2108 116.298 29.0612 116.115 28.8785C115.949 28.6957 115.89 28.4382 115.94 28.1058C115.99 27.6406 116.057 27.2335 116.14 26.8846C116.223 26.5191 116.322 26.1037 116.439 25.6385C116.472 25.4391 116.555 25.0985 116.688 24.6166C116.838 24.1348 117.012 23.6114 117.211 23.0464C117.411 22.4815 117.618 21.9498 117.834 21.4514C118.05 20.9363 118.242 20.5541 118.408 20.3049C118.59 20.1387 118.856 20.0557 119.205 20.0557C119.571 20.0557 119.82 20.1221 119.953 20.2551C120.136 20.4046 120.194 20.6704 120.127 21.0526C120.061 21.4181 119.828 21.9914 119.43 22.7723C119.346 22.9717 119.238 23.1877 119.106 23.4203C118.989 23.6363 118.906 23.8191 118.856 23.9686C118.806 24.1015 118.823 24.1597 118.906 24.1431C119.006 23.9603 119.189 23.7526 119.454 23.52C119.72 23.2708 120.003 23.0298 120.302 22.7972C120.601 22.5646 120.883 22.3569 121.149 22.1741C121.415 21.9914 121.598 21.8751 121.698 21.8252C121.83 21.7421 121.98 21.6757 122.146 21.6258C122.329 21.5594 122.454 21.5095 122.52 21.4763C122.902 21.2935 123.318 21.2271 123.766 21.2769C124.231 21.3101 124.514 21.4514 124.614 21.7006C124.63 21.8335 124.68 21.9332 124.763 21.9997C124.863 22.0661 124.913 22.0994 124.913 22.0994C124.979 22.0994 125.012 22.1243 125.012 22.1741C125.029 22.224 125.037 22.2489 125.037 22.2489C125.037 22.3652 124.921 22.5314 124.688 22.7474C124.472 22.9634 124.231 23.0797 123.966 23.0963C123.75 23.1129 123.558 23.1544 123.392 23.2209C123.226 23.2874 123.027 23.3704 122.794 23.4701C122.163 23.8357 121.59 24.1597 121.074 24.4421C120.576 24.7246 120.061 25.1566 119.529 25.7381C119.413 25.8711 119.288 25.9957 119.155 26.112C119.022 26.2283 118.89 26.3945 118.757 26.6105C118.674 26.6935 118.59 26.8763 118.507 27.1588C118.424 27.4412 118.35 27.7154 118.283 27.9812C118.233 28.2305 118.208 28.38 118.208 28.4298C118.208 28.4298 118.183 28.5129 118.134 28.6791C118.084 28.8286 118.001 28.9782 117.884 29.1277C117.685 29.3935 117.486 29.5597 117.286 29.6262C117.103 29.6926 116.879 29.5929 116.613 29.3271ZM127.488 29.8006C127.14 29.8671 126.874 29.8505 126.691 29.7508C126.525 29.6345 126.35 29.4932 126.168 29.3271C125.902 29.1942 125.661 29.0114 125.445 28.7788C125.229 28.5295 125.063 28.272 124.946 28.0061C124.83 27.7403 124.78 27.5326 124.797 27.3831C124.847 26.8015 124.98 26.1701 125.196 25.4889C125.428 24.8077 125.719 24.1431 126.068 23.4951C126.433 22.8471 126.84 22.2738 127.289 21.7754C127.754 21.2603 128.253 20.8864 128.784 20.6538C129.117 20.5209 129.474 20.4711 129.856 20.5043C130.238 20.5375 130.496 20.6954 130.629 20.9778C130.878 21.4597 130.82 21.7671 130.454 21.9C130.404 21.9 130.346 21.9249 130.28 21.9748C130.213 22.008 130.18 22.0578 130.18 22.1243C130.247 22.1575 130.429 22.1658 130.728 22.1492C131.028 22.116 131.327 22.0661 131.626 21.9997C131.941 21.9166 132.149 21.8335 132.249 21.7504C132.348 21.7006 132.423 21.6757 132.473 21.6757C132.523 21.6757 132.648 21.6923 132.847 21.7255C133.129 21.8086 133.271 21.9083 133.271 22.0246C133.271 22.0911 133.296 22.1991 133.345 22.3486C133.395 22.4815 133.453 22.548 133.52 22.548C133.636 22.5646 133.661 22.6809 133.595 22.8969C133.545 23.1129 133.354 23.3372 133.021 23.5698C132.706 23.7692 132.506 23.9021 132.423 23.9686C132.357 24.0184 132.348 24.1348 132.398 24.3175C132.531 24.6332 132.523 25.0154 132.373 25.464C132.224 25.9126 131.975 26.3778 131.626 26.8597C131.277 27.3415 130.861 27.7985 130.38 28.2305C129.914 28.6458 129.424 29.0031 128.909 29.3022C128.411 29.5846 127.937 29.7508 127.488 29.8006ZM127.563 27.7071C127.63 27.7071 127.746 27.6738 127.912 27.6074C128.078 27.5243 128.211 27.4578 128.311 27.408C128.377 27.3415 128.46 27.2668 128.56 27.1837C128.676 27.084 128.768 27.0258 128.834 27.0092C128.901 27.0092 128.942 26.9843 128.959 26.9345C128.976 26.868 129.034 26.7434 129.133 26.5606C129.233 26.3612 129.432 26.0705 129.732 25.6883C130.064 25.3228 130.28 25.032 130.38 24.816C130.479 24.5834 130.488 24.3341 130.404 24.0683C130.388 24.0018 130.338 23.9603 130.255 23.9437C130.188 23.9271 130.097 23.8855 129.981 23.8191C129.815 23.8191 129.698 23.8606 129.632 23.9437C129.582 24.0101 129.466 23.9686 129.283 23.8191L128.884 23.3206L128.46 23.7443C128.195 24.0101 127.954 24.3424 127.738 24.7412C127.538 25.14 127.38 25.5471 127.264 25.9625C127.148 26.3778 127.073 26.7434 127.04 27.0591C127.023 27.3083 127.065 27.4745 127.164 27.5575C127.264 27.6406 127.397 27.6905 127.563 27.7071ZM135.895 29.1277C135.579 28.8452 135.305 28.5545 135.073 28.2554C134.84 27.9397 134.682 27.4578 134.599 26.8098C134.566 26.5108 134.599 26.0954 134.699 25.5637C134.799 25.032 134.948 24.4754 135.147 23.8938C135.347 23.2957 135.563 22.7474 135.795 22.2489C136.028 21.7504 136.261 21.3849 136.493 21.1523C136.693 20.9031 136.942 20.7037 137.241 20.5541C137.557 20.4046 137.881 20.4046 138.213 20.5541C138.396 20.7701 138.487 21.0692 138.487 21.4514C138.504 21.8169 138.412 22.1575 138.213 22.4732C137.881 22.9218 137.59 23.4868 137.341 24.168C137.108 24.8326 136.95 25.4308 136.867 25.9625C136.751 26.3446 136.701 26.6437 136.718 26.8597C136.734 27.0591 136.851 27.1837 137.067 27.2335C137.382 27.3166 137.706 27.2252 138.039 26.9594C138.387 26.6935 138.72 26.3031 139.035 25.788C139.368 25.2729 139.659 24.6831 139.908 24.0184C140.007 23.7858 140.082 23.5117 140.132 23.196C140.199 22.8803 140.265 22.6477 140.331 22.4981C140.415 22.1658 140.556 21.9083 140.755 21.7255C140.971 21.5261 141.195 21.4015 141.428 21.3517C141.661 21.3018 141.835 21.3268 141.951 21.4264C142.101 21.4929 142.259 21.6009 142.425 21.7504C142.591 21.9 142.658 22.1658 142.624 22.548C142.624 23.1628 142.491 23.6861 142.226 24.1181C141.96 24.5501 141.735 25.0071 141.553 25.4889C141.403 25.8378 141.162 26.2449 140.83 26.7101C140.498 27.1754 140.14 27.5991 139.758 27.9812C139.393 28.3634 139.052 28.6209 138.736 28.7538C138.271 29.0529 137.798 29.2357 137.316 29.3022C136.834 29.352 136.36 29.2938 135.895 29.1277ZM151.325 29.9003C151.076 29.9003 150.835 29.8255 150.603 29.676C150.37 29.5098 150.179 29.2855 150.029 29.0031C149.88 28.704 149.805 28.3551 149.805 27.9563C149.805 27.7071 149.847 27.3581 149.93 26.9095C150.029 26.4443 150.171 25.8628 150.353 25.1649C150.387 24.9323 150.412 24.7828 150.428 24.7163C150.461 24.6498 150.478 24.5834 150.478 24.5169C150.478 24.4837 150.47 24.4588 150.453 24.4421C150.453 24.4089 150.437 24.3923 150.403 24.3923C150.27 24.3923 150.088 24.4837 149.855 24.6664C149.639 24.8326 149.39 25.032 149.107 25.2646C149.057 25.2978 148.999 25.3394 148.933 25.3892C148.883 25.4391 148.825 25.4889 148.758 25.5388C148.709 25.5886 148.65 25.6385 148.584 25.6883C148.418 25.788 148.16 25.9791 147.811 26.2615C147.479 26.544 147.13 26.8431 146.765 27.1588C146.416 27.4745 146.108 27.7403 145.842 27.9563C145.709 28.056 145.593 28.1391 145.493 28.2055C145.41 28.272 145.352 28.3052 145.319 28.3052C145.286 28.3052 145.153 28.2637 144.92 28.1806C144.704 28.0809 144.488 27.948 144.272 27.7818C144.073 27.5991 143.973 27.3914 143.973 27.1588C143.973 27.0092 144.031 26.7101 144.148 26.2615C144.281 25.8129 144.463 25.2812 144.696 24.6664C144.929 24.0517 145.194 23.4286 145.493 22.7972C145.56 22.6477 145.61 22.4483 145.643 22.1991C145.676 21.9498 145.709 21.7089 145.743 21.4763C145.793 21.2271 145.876 21.0443 145.992 20.928C146.042 20.8449 146.1 20.7867 146.166 20.7535C146.249 20.7037 146.333 20.6787 146.416 20.6787C146.582 20.6787 146.74 20.7203 146.889 20.8034C147.039 20.8698 147.18 20.9861 147.313 21.1523C147.562 21.4181 147.695 21.7338 147.712 22.0994C147.745 22.4483 147.72 22.7889 147.637 23.1212C147.554 23.4535 147.462 23.7277 147.363 23.9437C147.263 24.1431 147.213 24.2261 147.213 24.1929C147.28 24.1597 147.371 24.0766 147.487 23.9437C147.62 23.8108 147.845 23.6529 148.16 23.4701C148.592 23.1378 148.925 22.9052 149.157 22.7723C149.39 22.6228 149.564 22.5148 149.681 22.4483C149.813 22.3818 149.93 22.3071 150.029 22.224C150.113 22.1575 150.171 22.116 150.204 22.0994C150.254 22.0828 150.279 22.0744 150.279 22.0744C150.329 22.0744 150.412 22.0412 150.528 21.9748C150.661 21.9083 150.785 21.8751 150.902 21.8751C151.068 21.8751 151.242 21.9166 151.425 21.9997C151.608 22.0661 151.766 22.1658 151.899 22.2988C152.032 22.4151 152.098 22.5397 152.098 22.6726C152.098 22.7224 152.115 22.764 152.148 22.7972C152.181 22.8304 152.214 22.872 152.248 22.9218C152.331 23.0215 152.422 23.1628 152.522 23.3455C152.638 23.5117 152.696 23.7858 152.696 24.168C152.696 24.4338 152.638 24.8243 152.522 25.3394C152.405 25.8545 152.281 26.3612 152.148 26.8597C152.015 27.3748 151.949 27.7901 151.949 28.1058C151.965 28.4049 151.998 28.6375 152.048 28.8037C152.098 28.9532 152.123 29.0778 152.123 29.1775C152.123 29.3105 152.057 29.4683 151.924 29.6511C151.791 29.8172 151.591 29.9003 151.325 29.9003ZM161.22 30.2991C161.037 30.3655 160.829 30.3988 160.596 30.3988C160.38 30.4154 160.131 30.3157 159.849 30.0997C159.683 29.9169 159.566 29.7258 159.5 29.5265C159.45 29.3271 159.425 29.0197 159.425 28.6043C159.458 28.3551 159.525 27.9978 159.624 27.5326C159.724 27.0508 159.832 26.5523 159.948 26.0372C160.081 25.5055 160.198 25.032 160.297 24.6166C160.414 24.1846 160.505 23.8938 160.572 23.7443C160.688 23.3455 160.713 23.0963 160.646 22.9966C160.58 22.8969 160.38 22.8388 160.048 22.8221C159.666 22.8055 159.267 22.9883 158.852 23.3704C158.436 23.7526 157.963 24.3591 157.431 25.1898C157.032 25.8046 156.792 26.3114 156.708 26.7101C156.625 27.0923 156.617 27.3581 156.684 27.5077C156.717 27.5741 156.775 27.6157 156.858 27.6323C156.958 27.6323 157.074 27.6074 157.207 27.5575C157.356 27.5077 157.514 27.4412 157.68 27.3581C157.797 27.2917 157.938 27.2252 158.104 27.1588C158.287 27.0757 158.461 27.0009 158.628 26.9345C158.727 26.9345 158.794 26.9926 158.827 27.1089C158.877 27.2252 158.902 27.3665 158.902 27.5326C158.902 27.5991 158.918 27.7237 158.952 27.9065C159.001 28.0892 159.084 28.2138 159.201 28.2803C159.267 28.3468 159.126 28.488 158.777 28.704C158.445 28.9034 158.013 29.1526 157.481 29.4517C156.983 29.568 156.609 29.6262 156.36 29.6262C156.127 29.6262 155.869 29.5182 155.587 29.3022C155.122 29.0197 154.823 28.4963 154.69 27.732C154.573 26.9677 154.673 26.1203 154.989 25.1898C155.304 24.4421 155.653 23.8024 156.036 23.2708C156.434 22.7224 156.85 22.224 157.282 21.7754C157.348 21.7089 157.556 21.576 157.905 21.3766C158.254 21.1772 158.611 21.0194 158.976 20.9031C159.392 20.7701 159.741 20.7203 160.023 20.7535C160.322 20.7701 160.605 20.8698 160.871 21.0526C161.17 21.1191 161.369 21.1107 161.469 21.0277C161.585 20.9446 161.718 20.712 161.868 20.3298C162.167 19.4991 162.482 18.66 162.815 17.8126C163.147 16.9486 163.496 16.0763 163.861 15.1957C164.028 14.88 164.127 14.639 164.16 14.4729C164.21 14.2901 164.268 14.1655 164.335 14.099L165.033 13.8747C165.216 13.8249 165.423 13.908 165.656 14.124C165.905 14.34 166.063 14.5477 166.129 14.747C166.129 14.8966 166.063 15.2289 165.93 15.744C165.797 16.2424 165.581 16.8406 165.282 17.5384C165.016 18.1532 164.75 18.7763 164.484 19.4077C164.235 20.0224 163.994 20.6787 163.762 21.3766C163.579 21.8917 163.413 22.3071 163.263 22.6228C163.114 22.9384 163.014 23.2126 162.964 23.4452C162.864 23.8772 162.74 24.2677 162.59 24.6166C162.457 24.9489 162.366 25.1815 162.316 25.3145C162.1 25.9458 161.934 26.4692 161.818 26.8846C161.701 27.2834 161.627 27.6323 161.593 27.9314C161.56 28.2138 161.552 28.4963 161.568 28.7788C161.585 29.0446 161.618 29.352 161.668 29.7009C161.668 29.7674 161.618 29.8671 161.519 30C161.436 30.1163 161.336 30.216 161.22 30.2991ZM68.6296 51.62C68.3305 51.5369 68.0896 51.4622 67.9068 51.3957C67.724 51.3458 67.6326 51.3209 67.6326 51.3209C67.6659 51.2378 67.6492 51.1631 67.5828 51.0966C67.5329 51.0302 67.4166 50.9886 67.2339 50.972C66.9846 50.8058 66.7271 50.5732 66.4612 50.2742C66.1954 49.9751 65.9628 49.6677 65.7634 49.352C65.564 49.0363 65.4311 48.8037 65.3646 48.6542C65.2483 48.4049 65.2566 48.2554 65.3895 48.2055C65.5225 48.1391 65.6803 48.0643 65.8631 47.9812C66.0459 47.8483 66.2369 47.7486 66.4363 47.6821C66.6523 47.6157 66.8268 47.7237 66.9597 48.0061C67.1757 48.3883 67.508 48.7123 67.9566 48.9782C68.4219 49.244 68.9452 49.4018 69.5268 49.4517C70.1249 49.5015 70.7231 49.4018 71.3213 49.1526C71.72 48.9698 71.936 48.7206 71.9693 48.4049C72.0025 48.0726 71.8779 47.6905 71.5954 47.2585C71.5456 47.1255 71.4708 47.0175 71.3711 46.9345C71.288 46.8514 71.1551 46.7434 70.9723 46.6105C70.8062 46.4775 70.5652 46.2615 70.2496 45.9625C70.0003 45.8461 69.7677 45.7381 69.5517 45.6385C69.3523 45.5388 69.1363 45.4308 68.9037 45.3145C68.6379 45.1815 68.3388 44.9988 68.0065 44.7661C67.6742 44.5169 67.3668 44.2511 67.0843 43.9686C66.8019 43.6695 66.5859 43.3871 66.4363 43.1212C66.1705 42.872 66.0043 42.5314 65.9379 42.0994C65.8714 41.6508 65.8797 41.1772 65.9628 40.6787C66.0625 40.1803 66.2203 39.7317 66.4363 39.3329C66.536 39.1003 66.7188 38.8012 66.9846 38.4357C67.2505 38.0535 67.5496 37.6631 67.8819 37.2643C68.2142 36.8655 68.5299 36.5083 68.8289 36.1926C69.1446 35.8603 69.3939 35.636 69.5766 35.5197C69.7096 35.3867 69.8508 35.2538 70.0003 35.1209C70.1499 34.9714 70.2246 34.8966 70.2246 34.8966C70.2412 34.8135 70.2662 34.772 70.2994 34.772C70.3492 34.772 70.3742 34.772 70.3742 34.772C70.4572 34.7221 70.64 34.639 70.9225 34.5227C71.2049 34.4064 71.5123 34.1904 71.8446 33.8747C72.9579 33.343 73.9049 32.9858 74.6859 32.803C75.4668 32.6037 76.0816 32.504 76.5302 32.504C76.9456 32.5206 77.3526 32.6369 77.7514 32.8529C78.1502 33.0523 78.4908 33.3098 78.7733 33.6255C79.0723 33.9412 79.2468 34.2984 79.2967 34.6972C79.413 35.096 79.3548 35.5778 79.1222 36.1427C78.9062 36.691 78.5988 37.2144 78.2 37.7129C77.8179 38.1947 77.4191 38.552 77.0037 38.7846C76.5385 38.984 76.1397 39.0089 75.8074 38.8594C75.4917 38.7098 75.3422 38.4772 75.3588 38.1615C75.3588 38.0286 75.4003 37.8707 75.4834 37.688C75.5831 37.5052 75.8406 37.1812 76.256 36.716C76.7877 35.935 77.0702 35.3784 77.1034 35.0461C77.1366 34.7138 76.9871 34.5227 76.6548 34.4729C76.5551 34.4397 76.364 34.448 76.0816 34.4978C75.7991 34.5477 75.4917 34.6141 75.1594 34.6972C74.8437 34.7637 74.5613 34.8384 74.312 34.9215C74.0794 35.0046 73.9631 35.0627 73.9631 35.096C73.9631 35.096 73.9631 35.1209 73.9631 35.1707C73.9631 35.2206 73.9299 35.2372 73.8634 35.2206C73.8302 35.2206 73.7139 35.2787 73.5145 35.395C73.3317 35.4947 73.1074 35.6277 72.8416 35.7938C72.5757 35.96 72.3099 36.1344 72.044 36.3172C71.7948 36.4834 71.5788 36.6329 71.396 36.7658C71.2133 36.8987 71.1136 36.9818 71.0969 37.015C71.0637 37.1978 70.8726 37.364 70.5237 37.5135C70.1914 37.7129 69.9006 37.9954 69.6514 38.3609C69.4022 38.7264 69.1114 39.1917 68.7791 39.7566C68.4966 40.1387 68.2972 40.5541 68.1809 41.0027C68.0646 41.4348 68.0646 41.7837 68.1809 42.0495C68.264 42.3154 68.4883 42.5812 68.8539 42.8471C69.236 43.0963 69.7511 43.412 70.3991 43.7941C70.964 44.1098 71.4957 44.4421 71.9942 44.7911C72.4926 45.14 72.9163 45.4806 73.2653 45.8129C73.6142 46.1286 73.8385 46.3945 73.9382 46.6105C74.1376 46.8929 74.2539 47.2169 74.2871 47.5825C74.3369 47.948 74.3369 48.3052 74.2871 48.6542C74.2539 48.9865 74.204 49.2606 74.1376 49.4766C74.0213 49.7425 73.8385 50.0249 73.5893 50.324C73.3566 50.6231 73.1406 50.7643 72.9413 50.7477C72.7585 50.7975 72.6173 50.8557 72.5176 50.9222C72.4345 50.9886 72.3348 51.0468 72.2185 51.0966C72.1022 51.1631 71.828 51.2378 71.396 51.3209C70.964 51.4206 70.4905 51.4954 69.9754 51.5452C69.4603 51.6117 69.0117 51.6366 68.6296 51.62ZM79.0885 50.0249C78.9057 49.9917 78.7064 49.8837 78.4903 49.7009C78.2743 49.5015 78.075 49.2855 77.8922 49.0529C77.726 48.8037 77.618 48.596 77.5682 48.4298C77.5682 48.3966 77.5433 48.3551 77.4934 48.3052C77.4602 48.2554 77.4436 48.2305 77.4436 48.2305C77.3771 48.1806 77.3356 47.9646 77.319 47.5825C77.319 47.1837 77.3439 46.7434 77.3937 46.2615C77.4436 45.7797 77.5017 45.3975 77.5682 45.1151C77.6513 44.8492 77.7759 44.492 77.942 44.0434C78.1082 43.5781 78.2494 43.1628 78.3657 42.7972L79.0387 41.3517L78.0417 41.0775C77.9254 41.0443 77.8257 40.9778 77.7427 40.8781C77.6762 40.7784 77.643 40.6954 77.643 40.6289C77.643 40.496 77.7177 40.3049 77.8673 40.0557C78.0168 39.8064 78.1248 39.6818 78.1913 39.6818C78.2743 39.6984 78.4239 39.7067 78.6399 39.7067C78.8725 39.7067 79.0968 39.6984 79.3128 39.6818C79.5288 39.6652 79.6617 39.6486 79.7116 39.632C79.778 39.5987 79.8445 39.5572 79.911 39.5074C79.9774 39.4409 80.0273 39.3495 80.0605 39.2332C80.1436 39.0504 80.2184 38.9092 80.2848 38.8095C80.3513 38.7098 80.4427 38.5603 80.559 38.3609C80.6753 38.1449 80.7667 37.9621 80.8331 37.8126C80.9162 37.6631 81.0408 37.4554 81.207 37.1895C81.29 37.0732 81.3814 36.932 81.4811 36.7658C81.5808 36.5997 81.7054 36.4584 81.855 36.3421C82.0045 36.2092 82.2454 36.1178 82.5777 36.068C82.9267 36.0015 83.2257 36.0763 83.475 36.2923C83.6079 36.4584 83.6827 36.6163 83.6993 36.7658C83.7159 36.9154 83.6494 37.1064 83.4999 37.339C83.367 37.6215 83.2091 37.8791 83.0264 38.1117C82.8602 38.3277 82.7024 38.5769 82.5528 38.8594C82.287 39.2249 82.2371 39.4326 82.4033 39.4824C82.5694 39.5323 83.0347 39.4991 83.799 39.3827C84.2808 39.2997 84.6297 39.3495 84.8457 39.5323C85.0617 39.7151 85.1864 39.9477 85.2196 40.2301C85.2694 40.6289 85.2279 40.8698 85.095 40.9529C84.9621 41.036 84.5799 41.0775 83.9485 41.0775C83.5497 41.144 83.2091 41.1855 82.9267 41.2021C82.6442 41.2021 82.4365 41.2021 82.3036 41.2021C82.0876 41.2187 81.9464 41.2271 81.8799 41.2271C81.8134 41.2271 81.7137 41.2437 81.5808 41.2769C81.4479 41.3101 81.3482 41.3683 81.2817 41.4514C81.2319 41.5178 81.1737 41.6175 81.1073 41.7504C81.0408 41.8169 80.9411 41.9914 80.8082 42.2738C80.6753 42.5563 80.5091 42.8637 80.3097 43.196C80.0771 43.8938 79.8777 44.5668 79.7116 45.2148C79.562 45.8461 79.4291 46.4775 79.3128 47.1089C79.263 47.4246 79.2713 47.6572 79.3377 47.8068C79.4208 47.9397 79.6368 48.0228 79.9857 48.056C80.1685 48.0726 80.4344 48.0726 80.7833 48.056C81.1322 48.0228 81.423 47.9729 81.6556 47.9065C81.8384 47.8234 82.0294 47.7403 82.2288 47.6572C82.4282 47.5575 82.611 47.4578 82.7771 47.3581C82.9267 47.2751 83.0762 47.192 83.2257 47.1089C83.3753 47.0092 83.4501 46.9594 83.4501 46.9594C83.5331 46.8265 83.6494 46.8514 83.799 47.0341C83.9651 47.2003 84.0814 47.3831 84.1479 47.5825C84.1479 47.7818 84.1064 48.0228 84.0233 48.3052C83.9402 48.5711 83.6328 48.8535 83.1011 49.1526C82.3534 49.6178 81.6057 49.9003 80.858 50C80.1104 50.0997 79.5205 50.108 79.0885 50.0249ZM87.2647 49.8255C87.0487 49.8255 86.8742 49.784 86.7413 49.7009C86.625 49.6178 86.4754 49.5015 86.2927 49.352C85.977 49.0197 85.7194 48.6625 85.52 48.2803C85.3373 47.8981 85.2708 47.5658 85.3206 47.2834C85.3705 47.1505 85.3871 47.0258 85.3705 46.9095C85.3705 46.7766 85.3705 46.7101 85.3705 46.7101C85.2874 46.6271 85.2625 46.5772 85.2957 46.5606C85.329 46.5274 85.3622 46.4775 85.3954 46.4111C85.4951 46.4111 85.5283 46.3197 85.4951 46.1369C85.4619 46.004 85.5117 45.7215 85.6447 45.2895C85.7942 44.8409 85.9936 44.4172 86.2428 44.0184C86.3425 43.8523 86.492 43.6363 86.6914 43.3704C86.8908 43.088 87.1068 42.8138 87.3394 42.548C87.5887 42.2655 87.813 42.0412 88.0123 41.8751C88.4277 41.5261 88.8099 41.2437 89.1588 41.0277C89.5244 40.8117 89.8899 40.6621 90.2554 40.5791C90.621 40.496 90.9948 40.4544 91.377 40.4544C91.7757 40.4544 92.0997 40.5874 92.349 40.8532C92.7311 41.0194 92.997 41.2437 93.1465 41.5261C93.3127 41.8086 93.4207 42.1741 93.4705 42.6228C93.5204 43.1212 93.4705 43.736 93.321 44.4671C93.1714 45.1815 92.7644 46.0123 92.0997 46.9594C91.6844 47.5575 91.2773 48.0228 90.8785 48.3551C90.4797 48.6874 90.0394 48.9948 89.5576 49.2772C89.2087 49.5098 88.8348 49.6511 88.436 49.7009C88.0373 49.7508 87.6468 49.7923 87.2647 49.8255ZM89.8068 46.7849C90.1724 46.4692 90.4299 46.1203 90.5794 45.7381C90.7456 45.356 90.92 44.9074 91.1028 44.3923C91.1693 44.2926 91.2108 44.1264 91.2274 43.8938C91.2607 43.6612 91.269 43.4369 91.2524 43.2209C91.2357 42.9883 91.1776 42.8554 91.0779 42.8221C90.9284 42.7058 90.7788 42.6809 90.6293 42.7474C90.4797 42.7972 90.2887 42.9052 90.056 43.0714C89.5576 43.4868 89.0924 43.9686 88.6603 44.5169C88.245 45.0486 87.9542 45.7049 87.788 46.4858C87.7382 46.9012 87.7797 47.2169 87.9127 47.4329C88.0622 47.6323 88.2948 47.6905 88.6105 47.6074C88.9428 47.5077 89.3416 47.2335 89.8068 46.7849ZM96.5935 49.4766C96.5437 49.4932 96.4357 49.4849 96.2695 49.4517C96.12 49.4185 95.9621 49.3769 95.796 49.3271C95.6464 49.2772 95.555 49.2357 95.5218 49.2025C95.4553 49.136 95.364 49.0197 95.2477 48.8535C95.1313 48.6708 95.0649 48.4298 95.0483 48.1308C95.0483 47.8317 95.1895 47.4745 95.472 47.0591C95.555 46.8929 95.6547 46.6437 95.771 46.3114C95.8873 45.9791 96.0037 45.6301 96.12 45.2646C96.2529 44.8825 96.3692 44.5418 96.4689 44.2428C96.5852 43.9437 96.6683 43.736 96.7181 43.6197C96.7513 43.3372 96.7347 43.1378 96.6683 43.0215C96.6184 42.8886 96.4772 42.8138 96.2446 42.7972C96.0784 42.7972 95.9455 42.7391 95.8458 42.6228C95.7627 42.5064 95.7212 42.2988 95.7212 41.9997C95.7544 41.7671 95.8126 41.5677 95.8957 41.4015C95.9953 41.2188 96.1283 41.0692 96.2944 40.9529C96.4606 40.8698 96.6683 40.8117 96.9175 40.7784C97.1833 40.7452 97.4409 40.7369 97.6901 40.7535C97.9393 40.7701 98.1138 40.8283 98.2135 40.928C98.3298 40.9944 98.4212 41.144 98.4877 41.3766C98.5707 41.5926 98.6372 41.8169 98.687 42.0495C98.7369 42.2821 98.7701 42.4566 98.7867 42.5729C98.9529 42.44 99.1357 42.2572 99.335 42.0246C99.551 41.7754 99.767 41.5428 99.983 41.3268C100.249 41.144 100.565 40.9612 100.93 40.7784C101.296 40.5791 101.562 40.4794 101.728 40.4794C101.91 40.4794 102.135 40.5707 102.401 40.7535C102.666 40.9197 102.833 41.0692 102.899 41.2021C103.065 41.4846 103.182 41.7837 103.248 42.0994C103.331 42.3984 103.281 42.6643 103.098 42.8969C102.932 43.1129 102.7 43.3289 102.401 43.5449C102.102 43.7443 101.728 43.8024 101.279 43.7194C101.179 43.6861 101.071 43.5615 100.955 43.3455C100.855 43.1295 100.797 42.9717 100.781 42.872C100.781 42.8221 100.706 42.872 100.556 43.0215C100.423 43.1544 100.257 43.3206 100.058 43.52C99.875 43.7194 99.7006 43.9021 99.5344 44.0683C99.252 44.4172 98.9529 44.8908 98.6372 45.4889C98.3215 46.0871 97.9477 46.8098 97.5157 47.6572C97.3163 48.0726 97.1501 48.4714 97.0172 48.8535C96.8843 49.2191 96.743 49.4268 96.5935 49.4766ZM104.976 55.9317C104.91 55.9483 104.81 55.9234 104.677 55.8569C104.561 55.7905 104.461 55.6742 104.378 55.508C104.295 55.3419 104.27 55.1259 104.304 54.86C104.237 54.6274 104.245 54.3366 104.328 53.9877C104.428 53.6554 104.636 53.1569 104.952 52.4923C105.118 52.2265 105.267 51.9108 105.4 51.5452C105.55 51.1797 105.716 50.8142 105.899 50.4486C105.982 50.2991 106.123 50.0415 106.322 49.676C106.538 49.3105 106.771 48.8785 107.02 48.38C107.286 47.8649 107.527 47.3332 107.743 46.7849C107.311 47.2335 106.937 47.6572 106.621 48.056C106.322 48.4382 106.048 48.7455 105.799 48.9782C105.566 49.1942 105.317 49.2938 105.051 49.2772C104.835 49.2274 104.578 49.0862 104.279 48.8535C103.98 48.6209 103.788 48.3634 103.705 48.0809C103.639 47.7154 103.614 47.2501 103.631 46.6852C103.664 46.1203 103.772 45.2646 103.955 44.1181C104.088 43.5532 104.146 43.1212 104.129 42.8221C104.129 42.5064 104.088 42.2738 104.004 42.1243C103.921 41.9748 103.813 41.8418 103.68 41.7255C103.464 41.5261 103.448 41.3101 103.631 41.0775C103.813 40.8449 104.021 40.6704 104.254 40.5541C104.603 40.4711 104.877 40.4544 105.076 40.5043C105.292 40.5375 105.508 40.6787 105.724 40.928C105.857 41.144 105.99 41.3766 106.123 41.6258C106.256 41.8751 106.322 42.2323 106.322 42.6975C106.322 42.8969 106.314 43.1212 106.297 43.3704C106.281 43.6031 106.264 43.8191 106.248 44.0184C106.231 44.2178 106.214 44.3757 106.198 44.492C106.032 45.1068 105.882 45.6385 105.749 46.0871C105.616 46.5357 105.591 46.76 105.674 46.76C106.007 46.4941 106.289 46.2366 106.522 45.9874C106.771 45.7381 107.037 45.4391 107.319 45.0901C107.602 44.7412 107.951 44.2843 108.366 43.7194C108.516 43.4369 108.665 43.1628 108.815 42.8969C108.964 42.6311 109.089 42.3569 109.188 42.0744C109.288 41.8584 109.421 41.6341 109.587 41.4015C109.753 41.1523 109.87 41.0194 109.936 41.0027C110.019 40.9695 110.136 40.9778 110.285 41.0277C110.435 41.0775 110.576 41.1357 110.709 41.2021C110.858 41.252 110.933 41.2935 110.933 41.3268C110.95 41.3434 111.033 41.36 111.182 41.3766C111.332 41.3932 111.481 41.4098 111.631 41.4264C111.78 41.4264 111.855 41.4514 111.855 41.5012C111.855 41.5344 111.805 41.6591 111.706 41.8751C111.623 42.0911 111.523 42.332 111.407 42.5978C111.29 42.8637 111.182 43.1046 111.083 43.3206C111 43.52 110.966 43.6363 110.983 43.6695C111.016 43.7028 110.991 43.8274 110.908 44.0434C110.825 44.2428 110.725 44.4671 110.609 44.7163C110.509 44.9655 110.418 45.1898 110.335 45.3892C110.169 45.9375 109.978 46.4858 109.762 47.0341C109.546 47.5658 109.288 48.0975 108.989 48.6292C108.889 48.8286 108.74 49.136 108.54 49.5514C108.358 49.9668 108.175 50.3738 107.992 50.7726C107.826 51.188 107.693 51.5037 107.593 51.7197C107.527 51.8526 107.427 52.0603 107.294 52.3428C107.178 52.6419 107.045 52.9659 106.896 53.3148C106.763 53.6637 106.63 53.9877 106.497 54.2868C106.364 54.6025 106.264 54.8434 106.198 55.0095C106.164 55.3252 106.09 55.5579 105.973 55.7074C105.824 55.8569 105.616 55.9317 105.35 55.9317C105.101 55.9317 104.976 55.9317 104.976 55.9317Z" fill="black"/>
</svg>
