<svg width="141" height="64" viewBox="0 0 141 64" fill="none" xmlns="http://www.w3.org/2000/svg">
<rect width="141" height="64" rx="12" fill="#FFF9EE"/>
<rect x="12" y="16" width="31" height="31" rx="7.75" fill="#F3B96B"/>
<path fill-rule="evenodd" clip-rule="evenodd" d="M27.375 29.6663C27.375 28.7229 28.1398 27.958 29.0833 27.958H33.3542C34.9399 27.958 36.4608 28.588 37.5821 29.7093C38.7034 30.8306 39.3333 32.3514 39.3333 33.9372C39.3333 35.5229 38.7034 37.0438 37.5821 38.1651C36.4608 39.2864 34.9399 39.9163 33.3542 39.9163H30.7917V43.333C30.7917 44.2765 30.0268 45.0413 29.0833 45.0413C28.1398 45.0413 27.375 44.2765 27.375 43.333V29.6663ZM30.7917 36.4997H33.3542C34.0338 36.4997 34.6856 36.2297 35.1661 35.7491C35.6467 35.2686 35.9167 34.6168 35.9167 33.9372C35.9167 33.2576 35.6467 32.6058 35.1661 32.1252C34.6856 31.6447 34.0338 31.3747 33.3542 31.3747H30.7917V36.4997Z" fill="black"/>
<path fill-rule="evenodd" clip-rule="evenodd" d="M25.9628 20.7169C28.0355 19.8584 30.2569 19.4165 32.5003 19.4165C34.7437 19.4165 36.9652 19.8584 39.0378 20.7169C41.1105 21.5754 42.9937 22.8338 44.5801 24.4201C46.1664 26.0064 47.4247 27.8897 48.2833 29.9623C49.1418 32.035 49.5837 34.2564 49.5837 36.4998C49.5837 38.7433 49.1418 40.9647 48.2833 43.0373C47.4247 45.11 46.1664 46.9932 44.5801 48.5796C42.9937 50.1659 41.1105 51.4243 39.0378 52.2828C36.9652 53.1413 34.7437 53.5832 32.5003 53.5832C30.2569 53.5832 28.0355 53.1413 25.9628 52.2828C23.8902 51.4243 22.0069 50.1659 20.4206 48.5796C18.8343 46.9932 17.5759 45.11 16.7174 43.0373C15.8589 40.9647 15.417 38.7433 15.417 36.4998C15.417 34.2564 15.8589 32.035 16.7174 29.9623C17.5759 27.8897 18.8343 26.0064 20.4206 24.4201C22.0069 22.8338 23.8902 21.5754 25.9628 20.7169ZM32.5003 22.8332C30.7056 22.8332 28.9284 23.1867 27.2703 23.8735C25.6122 24.5603 24.1056 25.567 22.8365 26.836C21.5675 28.1051 20.5608 29.6117 19.874 31.2698C19.1872 32.9279 18.8337 34.7051 18.8337 36.4998C18.8337 38.2946 19.1872 40.0717 19.874 41.7298C20.5608 43.388 21.5675 44.8946 22.8365 46.1636C24.1056 47.4327 25.6122 48.4394 27.2703 49.1262C28.9284 49.813 30.7056 50.1665 32.5003 50.1665C34.2951 50.1665 36.0722 49.813 37.7303 49.1262C39.3884 48.4394 40.895 47.4327 42.1641 46.1636C43.4332 44.8946 44.4399 43.388 45.1267 41.7298C45.8135 40.0717 46.167 38.2946 46.167 36.4998C46.167 34.7051 45.8135 32.9279 45.1267 31.2698C44.4399 29.6117 43.4332 28.1051 42.1641 26.836C40.895 25.567 39.3884 24.5603 37.7303 23.8735C36.0722 23.1867 34.2951 22.8332 32.5003 22.8332Z" fill="black"/>
<path d="M64.8662 31.4206C64.6668 31.4206 64.5006 31.3126 64.3677 31.0966C64.268 30.9969 64.16 30.8391 64.0437 30.6231C63.9274 30.4071 63.8859 30.0582 63.9191 29.5763C63.9689 29.0778 64.1517 28.3551 64.4674 27.408C64.6335 26.7766 64.7665 26.3197 64.8662 26.0372C64.9659 25.7381 65.0157 25.5221 65.0157 25.3892C65.0157 25.2065 65.0323 25.0569 65.0655 24.9406C65.1154 24.8077 65.1403 24.6831 65.1403 24.5668C65.24 24.5668 65.3397 24.4754 65.4394 24.2926C65.5391 24.1098 65.6222 23.8606 65.6886 23.5449C65.7551 23.2624 65.8132 23.0381 65.8631 22.872C65.9295 22.6892 65.9628 22.5646 65.9628 22.4981C66.0459 22.3652 66.1289 22.1575 66.212 21.8751C66.3117 21.5926 66.4612 21.252 66.6606 20.8532C66.7935 20.3547 66.9431 19.8397 67.1092 19.308C67.2754 18.7597 67.4416 18.2529 67.6077 17.7877C67.7905 17.3058 67.94 16.932 68.0563 16.6661C68.2391 16.151 68.3803 15.7938 68.48 15.5944C68.5797 15.3784 68.5797 15.2372 68.48 15.1707C68.3637 15.0877 68.3056 14.88 68.3056 14.5477C68.3222 14.1987 68.48 13.8997 68.7791 13.6504C68.9619 13.4344 69.1945 13.2849 69.4769 13.2018C69.7594 13.1021 70.0834 13.0523 70.4489 13.0523C70.8145 13.0523 71.1966 13.0689 71.5954 13.1021C71.8945 13.1187 72.2102 13.127 72.5425 13.127C72.8914 13.127 73.1074 13.127 73.1905 13.127C73.34 13.1935 73.5228 13.2683 73.7388 13.3513C73.9548 13.4344 74.1459 13.5175 74.312 13.6006C74.4948 13.667 74.5862 13.7252 74.5862 13.775C74.5862 13.8747 74.6194 13.9412 74.6859 13.9744C74.769 13.991 74.852 14.0077 74.9351 14.0243C75.0514 14.0243 75.2425 14.1323 75.5083 14.3483C75.7742 14.5477 76.04 14.7969 76.3059 15.096C76.5883 15.3784 76.7877 15.6609 76.904 15.9434C77.037 16.2258 77.145 16.4917 77.228 16.7409C77.3277 16.9901 77.336 17.3474 77.253 17.8126C77.2363 18.0618 77.1948 18.3111 77.1283 18.5603C77.0785 18.8095 77.0203 18.9757 76.9539 19.0587C76.8542 19.1252 76.7628 19.2083 76.6797 19.308C76.5966 19.4077 76.5551 19.4991 76.5551 19.5821C76.5551 19.6486 76.4886 19.8147 76.3557 20.0806C76.2228 20.3298 76.0566 20.6206 75.8573 20.9529C75.6579 21.2686 75.4419 21.5843 75.2093 21.9C74.9766 22.2157 74.7606 22.4649 74.5613 22.6477C74.3453 22.9135 74.0877 23.1628 73.7886 23.3954C73.5062 23.628 73.2486 23.8191 73.016 23.9686C72.584 24.168 72.0856 24.3591 71.5206 24.5418C70.9723 24.7246 70.4406 24.8741 69.9256 24.9905C69.4105 25.0901 68.9951 25.1317 68.6794 25.1151C68.1976 25.1815 67.8819 25.248 67.7323 25.3145C67.5828 25.3643 67.4748 25.5055 67.4083 25.7381C67.3252 25.9541 67.2422 26.1785 67.1591 26.4111C67.0926 26.6437 67.0594 26.8098 67.0594 26.9095C67.0262 26.976 66.9514 27.1588 66.8351 27.4578C66.7354 27.7569 66.6108 28.1058 66.4612 28.5046C66.3283 28.9034 66.2037 29.3022 66.0874 29.7009C65.9711 30.0997 65.8797 30.4403 65.8132 30.7228C65.7468 30.9554 65.6055 31.1298 65.3895 31.2462C65.1902 31.3625 65.0157 31.4206 64.8662 31.4206ZM68.4052 23.0963C68.4717 23.1628 68.6877 23.1711 69.0532 23.1212C69.4188 23.0714 69.8591 22.9468 70.3742 22.7474C70.7065 22.6311 71.0388 22.4898 71.3711 22.3237C71.72 22.1575 72.0523 21.9748 72.368 21.7754C72.5342 21.6591 72.7086 21.5178 72.8914 21.3517C73.0742 21.1689 73.3317 20.8698 73.664 20.4544C73.7139 20.3714 73.7969 20.2135 73.9133 19.9809C74.0462 19.7317 74.1625 19.4991 74.2622 19.2831C74.4117 19.0504 74.5613 18.7098 74.7108 18.2612C74.8603 17.796 74.8936 17.4138 74.8105 17.1147C74.7274 16.6827 74.5613 16.3255 74.312 16.043C74.0628 15.744 73.7471 15.528 73.3649 15.395C72.9994 15.3286 72.692 15.287 72.4428 15.2704C72.2102 15.2538 71.9526 15.2704 71.6702 15.3203C71.4043 15.4034 71.2133 15.5197 71.0969 15.6692C70.9973 15.8187 70.8477 16.1344 70.6483 16.6163C70.532 16.8489 70.3659 17.1729 70.1499 17.5883C69.9339 17.9871 69.7511 18.3941 69.6016 18.8095C69.3025 19.9061 69.0366 20.7452 68.804 21.3268C68.588 21.9083 68.4468 22.2904 68.3803 22.4732C68.3969 22.656 68.3886 22.7889 68.3554 22.872C68.3222 22.9384 68.3388 23.0132 68.4052 23.0963ZM76.6242 29.3271C76.4747 29.2108 76.3085 29.0612 76.1258 28.8785C75.9596 28.6957 75.9015 28.4382 75.9513 28.1058C76.0012 27.6406 76.0676 27.2335 76.1507 26.8846C76.2338 26.5191 76.3335 26.1037 76.4498 25.6385C76.483 25.4391 76.5661 25.0985 76.699 24.6166C76.8485 24.1348 77.023 23.6114 77.2224 23.0464C77.4218 22.4815 77.6295 21.9498 77.8455 21.4514C78.0615 20.9363 78.2525 20.5541 78.4187 20.3049C78.6015 20.1387 78.8673 20.0557 79.2162 20.0557C79.5818 20.0557 79.831 20.1221 79.9639 20.2551C80.1467 20.4046 80.2049 20.6704 80.1384 21.0526C80.0719 21.4181 79.8393 21.9914 79.4405 22.7723C79.3575 22.9717 79.2495 23.1877 79.1165 23.4203C79.0002 23.6363 78.9172 23.8191 78.8673 23.9686C78.8175 24.1015 78.8341 24.1597 78.9172 24.1431C79.0169 23.9603 79.1996 23.7526 79.4655 23.52C79.7313 23.2708 80.0138 23.0298 80.3129 22.7972C80.6119 22.5646 80.8944 22.3569 81.1602 22.1741C81.4261 21.9914 81.6089 21.8751 81.7085 21.8252C81.8415 21.7421 81.991 21.6757 82.1572 21.6258C82.3399 21.5594 82.4646 21.5095 82.531 21.4763C82.9132 21.2935 83.3286 21.2271 83.7772 21.2769C84.2424 21.3101 84.5249 21.4514 84.6246 21.7006C84.6412 21.8335 84.691 21.9332 84.7741 21.9997C84.8738 22.0661 84.9236 22.0994 84.9236 22.0994C84.9901 22.0994 85.0233 22.1243 85.0233 22.1741C85.0399 22.224 85.0482 22.2489 85.0482 22.2489C85.0482 22.3652 84.9319 22.5314 84.6993 22.7474C84.4833 22.9634 84.2424 23.0797 83.9766 23.0963C83.7606 23.1129 83.5695 23.1544 83.4033 23.2209C83.2372 23.2874 83.0378 23.3704 82.8052 23.4701C82.1738 23.8357 81.6005 24.1597 81.0855 24.4421C80.587 24.7246 80.0719 25.1566 79.5402 25.7381C79.4239 25.8711 79.2993 25.9957 79.1664 26.112C79.0335 26.2283 78.9005 26.3945 78.7676 26.6105C78.6845 26.6935 78.6015 26.8763 78.5184 27.1588C78.4353 27.4412 78.3605 27.7154 78.2941 27.9812C78.2442 28.2305 78.2193 28.38 78.2193 28.4298C78.2193 28.4298 78.1944 28.5129 78.1445 28.6791C78.0947 28.8286 78.0116 28.9782 77.8953 29.1277C77.6959 29.3935 77.4965 29.5597 77.2972 29.6262C77.1144 29.6926 76.8901 29.5929 76.6242 29.3271ZM86.8266 29.8255C86.6106 29.8255 86.4361 29.784 86.3032 29.7009C86.1869 29.6178 86.0373 29.5015 85.8546 29.352C85.5389 29.0197 85.2813 28.6625 85.0819 28.2803C84.8992 27.8981 84.8327 27.5658 84.8825 27.2834C84.9324 27.1505 84.949 27.0258 84.9324 26.9095C84.9324 26.7766 84.9324 26.7101 84.9324 26.7101C84.8493 26.6271 84.8244 26.5772 84.8576 26.5606C84.8909 26.5274 84.9241 26.4775 84.9573 26.4111C85.057 26.4111 85.0902 26.3197 85.057 26.1369C85.0238 26.004 85.0736 25.7215 85.2065 25.2895C85.3561 24.8409 85.5555 24.4172 85.8047 24.0184C85.9044 23.8523 86.0539 23.6363 86.2533 23.3704C86.4527 23.088 86.6687 22.8138 86.9013 22.548C87.1506 22.2655 87.3749 22.0412 87.5742 21.8751C87.9896 21.5261 88.3718 21.2437 88.7207 21.0277C89.0863 20.8117 89.4518 20.6621 89.8173 20.5791C90.1829 20.496 90.5567 20.4544 90.9389 20.4544C91.3376 20.4544 91.6616 20.5874 91.9109 20.8532C92.293 21.0194 92.5589 21.2437 92.7084 21.5261C92.8746 21.8086 92.9826 22.1741 93.0324 22.6228C93.0823 23.1212 93.0324 23.736 92.8829 24.4671C92.7333 25.1815 92.3263 26.0123 91.6616 26.9594C91.2463 27.5575 90.8392 28.0228 90.4404 28.3551C90.0416 28.6874 89.6013 28.9948 89.1195 29.2772C88.7706 29.5098 88.3967 29.6511 87.9979 29.7009C87.5992 29.7508 87.2087 29.7923 86.8266 29.8255ZM89.3687 26.7849C89.7343 26.4692 89.9918 26.1203 90.1413 25.7381C90.3075 25.356 90.4819 24.9074 90.6647 24.3923C90.7312 24.2926 90.7727 24.1264 90.7893 23.8938C90.8226 23.6612 90.8309 23.4369 90.8143 23.2209C90.7976 22.9883 90.7395 22.8554 90.6398 22.8221C90.4903 22.7058 90.3407 22.6809 90.1912 22.7474C90.0416 22.7972 89.8506 22.9052 89.6179 23.0714C89.1195 23.4868 88.6542 23.9686 88.2222 24.5169C87.8069 25.0486 87.5161 25.7049 87.3499 26.4858C87.3001 26.9012 87.3416 27.2169 87.4746 27.4329C87.6241 27.6323 87.8567 27.6905 88.1724 27.6074C88.5047 27.5077 88.9035 27.2335 89.3687 26.7849ZM101.314 29.9751C101.065 29.9917 100.833 30 100.617 30C100.417 30 100.259 29.9668 100.143 29.9003C99.844 29.6511 99.6446 29.4517 99.5449 29.3022C99.4619 29.1526 99.4203 28.9865 99.4203 28.8037C99.4369 28.5711 99.4453 28.3385 99.4453 28.1058C99.4453 27.8566 99.4453 27.6655 99.4453 27.5326C99.3788 27.4661 99.2459 27.5409 99.0465 27.7569C98.8471 27.9729 98.6145 28.1806 98.3486 28.38C97.8336 28.9615 97.3766 29.3852 96.9779 29.6511C96.5791 29.9003 96.2136 30.0415 95.8812 30.0748C95.5489 30.1246 95.2166 30.1329 94.8843 30.0997C94.5852 30.0665 94.3194 29.9169 94.0868 29.6511C93.8708 29.3852 93.7046 29.0612 93.5883 28.6791C93.4886 28.2969 93.4554 27.9231 93.4886 27.5575C93.5717 26.8763 93.7212 26.2615 93.9372 25.7132C94.1532 25.1483 94.4772 24.5584 94.9092 23.9437C95.1086 23.6778 95.3745 23.3871 95.7068 23.0714C96.0557 22.7557 96.4296 22.4649 96.8283 22.1991C97.2271 21.9166 97.5843 21.7172 97.9 21.6009C98.3819 21.3849 98.7806 21.2852 99.0963 21.3018C99.4286 21.3184 99.7526 21.3683 100.068 21.4514C100.301 21.5677 100.484 21.6258 100.617 21.6258C100.766 21.6258 100.874 21.5428 100.941 21.3766C101.04 21.2437 101.115 21.0775 101.165 20.8781C101.215 20.6787 101.298 20.4877 101.414 20.3049L101.962 18.6849C102.145 18.2363 102.361 17.7212 102.61 17.1397C102.86 16.5581 103.142 15.9101 103.458 15.1957C103.84 14.5477 104.164 14.207 104.43 14.1738C104.712 14.1406 105.003 14.2901 105.302 14.6224C105.502 14.8218 105.61 15.071 105.626 15.3701C105.659 15.6526 105.585 15.9849 105.402 16.367C105.286 16.5498 105.161 16.7824 105.028 17.0649C104.895 17.3307 104.737 17.6464 104.554 18.012C104.372 18.444 104.181 18.876 103.981 19.308C103.798 19.74 103.607 20.2135 103.408 20.7286C103.342 20.9944 103.25 21.3018 103.134 21.6508C103.034 21.9997 102.951 22.3154 102.885 22.5978C102.835 22.8637 102.777 23.1129 102.71 23.3455C102.66 23.5615 102.602 23.6695 102.536 23.6695C102.403 23.7858 102.278 24.0351 102.162 24.4172C102.046 24.7828 101.946 25.1732 101.863 25.5886C101.796 26.004 101.738 26.3446 101.688 26.6105C101.655 26.8098 101.63 27.0923 101.614 27.4578C101.597 27.8068 101.589 28.1474 101.589 28.4797C101.589 28.7954 101.589 29.0114 101.589 29.1277C101.589 29.4434 101.564 29.6677 101.514 29.8006C101.481 29.9169 101.414 29.9751 101.314 29.9751ZM95.6819 28.0061C96.064 28.0061 96.4212 27.8483 96.7536 27.5326C97.1025 27.2003 97.4846 26.8514 97.9 26.4858C98.1492 26.2366 98.4068 25.9625 98.6726 25.6634C98.9385 25.3477 99.1794 25.0403 99.3954 24.7412C99.628 24.4421 99.8108 24.1846 99.9437 23.9686C100.077 23.7526 100.143 23.6114 100.143 23.5449C100.143 23.4618 100.077 23.3871 99.9437 23.3206C99.8274 23.2541 99.6862 23.2043 99.52 23.1711C99.3539 23.1212 99.2043 23.1129 99.0714 23.1461C98.6726 23.2624 98.3486 23.4369 98.0994 23.6695C97.8668 23.9021 97.5262 24.2677 97.0776 24.7661C96.6289 25.3145 96.2717 25.8378 96.0059 26.3363C95.74 26.8348 95.5739 27.2418 95.5074 27.5575C95.4576 27.8566 95.5157 28.0061 95.6819 28.0061ZM110.246 30.1495C110.129 30.216 109.971 30.1911 109.772 30.0748C109.589 29.9585 109.406 29.784 109.224 29.5514C109.107 29.352 109.016 29.1526 108.95 28.9532C108.9 28.7372 108.875 28.4215 108.875 28.0061C108.891 27.6738 108.891 27.4495 108.875 27.3332C108.875 27.2003 108.8 27.192 108.65 27.3083C108.518 27.408 108.243 27.6572 107.828 28.056C107.413 28.4714 107.014 28.8286 106.632 29.1277C106.266 29.4102 105.967 29.5431 105.734 29.5265C105.618 29.5265 105.46 29.4517 105.261 29.3022C105.062 29.1526 104.87 28.9698 104.688 28.7538C104.505 28.5212 104.372 28.3052 104.289 28.1058C104.189 27.7071 104.181 27.192 104.264 26.5606C104.364 25.9292 104.522 25.2729 104.738 24.5917C104.954 23.8938 105.194 23.2458 105.46 22.6477C105.743 22.0329 106.017 21.5428 106.283 21.1772C106.565 20.7951 106.806 20.6123 107.006 20.6289C107.288 20.6621 107.529 20.8034 107.728 21.0526C107.944 21.2852 108.11 21.5428 108.227 21.8252C108.293 21.9415 108.318 22.0412 108.302 22.1243C108.302 22.2074 108.235 22.3071 108.102 22.4234C107.953 22.6228 107.77 22.9135 107.554 23.2957C107.354 23.6612 107.147 24.06 106.931 24.492C106.731 24.924 106.549 25.3394 106.382 25.7381C106.233 26.1203 106.125 26.436 106.058 26.6852C105.992 26.9345 105.992 27.0591 106.058 27.0591C106.291 27.0591 106.507 27.0009 106.706 26.8846C106.906 26.7517 107.155 26.544 107.454 26.2615C107.803 25.9126 108.11 25.5637 108.376 25.2148C108.642 24.8492 108.916 24.4338 109.199 23.9686C109.415 23.6363 109.639 23.2708 109.872 22.872C110.121 22.4732 110.279 22.1908 110.345 22.0246C110.578 21.5926 110.752 21.2686 110.869 21.0526C110.985 20.8366 111.126 20.7037 111.292 20.6538C111.375 20.6538 111.492 20.6538 111.641 20.6538C111.791 20.6538 111.866 20.6538 111.866 20.6538C111.965 20.6704 112.082 20.7452 112.214 20.8781C112.347 20.9446 112.48 21.036 112.613 21.1523C112.763 21.2686 112.838 21.3683 112.838 21.4514C112.771 21.6175 112.663 21.8668 112.514 22.1991C112.381 22.5148 112.281 22.7474 112.214 22.8969C111.899 23.6114 111.591 24.3175 111.292 25.0154C111.01 25.6966 110.802 26.3945 110.669 27.1089C110.636 27.3415 110.628 27.6157 110.644 27.9314C110.678 28.2305 110.727 28.4465 110.794 28.5794C110.844 28.6791 110.902 28.7954 110.968 28.9283C111.051 29.0446 111.143 29.1443 111.242 29.2274C111.392 29.3271 111.384 29.4517 111.218 29.6012C111.068 29.7508 110.877 29.8837 110.644 30C110.428 30.0997 110.295 30.1495 110.246 30.1495ZM117.102 29.7757C116.886 29.8754 116.637 29.9169 116.355 29.9003C116.072 29.8837 115.69 29.7923 115.208 29.6262C115.175 29.6262 115.059 29.5514 114.859 29.4018C114.66 29.2523 114.46 29.0778 114.261 28.8785C114.062 28.6791 113.929 28.5129 113.862 28.38C113.596 27.9978 113.513 27.4329 113.613 26.6852C113.729 25.9375 113.995 25.0403 114.411 23.9935C114.527 23.7443 114.701 23.4286 114.934 23.0464C115.183 22.6643 115.424 22.3154 115.657 21.9997C115.906 21.6674 116.08 21.4763 116.18 21.4264C116.18 21.4264 116.272 21.3932 116.454 21.3268C116.637 21.2603 116.87 21.1523 117.152 21.0027C117.235 20.9695 117.376 20.928 117.576 20.8781C117.792 20.8283 118.008 20.7867 118.224 20.7535C118.456 20.7037 118.614 20.6871 118.697 20.7037C119.03 20.7203 119.37 20.8449 119.719 21.0775C120.085 21.2935 120.384 21.5511 120.616 21.8501C120.849 22.1326 120.924 22.3818 120.841 22.5978C120.841 22.6311 120.791 22.7391 120.691 22.9218C120.608 23.088 120.517 23.2624 120.417 23.4452C120.317 23.6114 120.234 23.736 120.168 23.8191C120.085 23.9188 119.935 23.9603 119.719 23.9437C119.52 23.9271 119.337 23.8606 119.171 23.7443C119.005 23.628 118.913 23.4701 118.897 23.2708C118.864 23.1378 118.739 23.0132 118.523 22.8969C118.324 22.7806 118.224 22.7224 118.224 22.7224C118.091 22.7224 117.916 22.8554 117.7 23.1212C117.484 23.3871 117.26 23.6861 117.028 24.0184C116.728 24.3175 116.512 24.6415 116.38 24.9905C116.263 25.3228 116.18 25.6385 116.13 25.9375C116.097 26.22 116.056 26.436 116.006 26.5855C115.939 26.7517 115.939 26.9594 116.006 27.2086C116.072 27.4578 116.155 27.5991 116.255 27.6323C116.404 27.6489 116.604 27.6406 116.853 27.6074C117.119 27.5575 117.393 27.4994 117.676 27.4329C117.975 27.3498 118.274 27.2668 118.573 27.1837C118.872 27.084 119.138 26.9843 119.37 26.8846C119.686 26.6852 119.96 26.6105 120.193 26.6603C120.425 26.6935 120.6 26.7268 120.716 26.76C120.899 26.8265 120.99 26.9677 120.99 27.1837C120.99 27.3997 120.916 27.6323 120.766 27.8815C120.616 28.1141 120.4 28.3052 120.118 28.4548C119.852 28.5877 119.611 28.7372 119.395 28.9034C119.196 29.0529 119.096 29.1692 119.096 29.2523C119.03 29.2523 118.955 29.2772 118.872 29.3271C118.805 29.3603 118.747 29.3686 118.697 29.352C118.664 29.352 118.531 29.3769 118.299 29.4268C118.066 29.4766 117.825 29.5348 117.576 29.6012C117.343 29.6677 117.185 29.7258 117.102 29.7757ZM124.7 30.0249C124.517 29.9917 124.318 29.8837 124.102 29.7009C123.886 29.5015 123.686 29.2855 123.503 29.0529C123.337 28.8037 123.229 28.596 123.179 28.4298C123.179 28.3966 123.155 28.3551 123.105 28.3052C123.071 28.2554 123.055 28.2305 123.055 28.2305C122.988 28.1806 122.947 27.9646 122.93 27.5825C122.93 27.1837 122.955 26.7434 123.005 26.2615C123.055 25.7797 123.113 25.3975 123.179 25.1151C123.263 24.8492 123.387 24.492 123.553 24.0434C123.719 23.5781 123.861 23.1628 123.977 22.7972L124.65 21.3517L123.653 21.0775C123.537 21.0443 123.437 20.9778 123.354 20.8781C123.287 20.7784 123.254 20.6954 123.254 20.6289C123.254 20.496 123.329 20.3049 123.479 20.0557C123.628 19.8064 123.736 19.6818 123.803 19.6818C123.886 19.6984 124.035 19.7067 124.251 19.7067C124.484 19.7067 124.708 19.6984 124.924 19.6818C125.14 19.6652 125.273 19.6486 125.323 19.632C125.389 19.5987 125.456 19.5572 125.522 19.5074C125.589 19.4409 125.639 19.3495 125.672 19.2332C125.755 19.0504 125.83 18.9092 125.896 18.8095C125.963 18.7098 126.054 18.5603 126.17 18.3609C126.287 18.1449 126.378 17.9621 126.444 17.8126C126.527 17.6631 126.652 17.4554 126.818 17.1895C126.901 17.0732 126.993 16.932 127.092 16.7658C127.192 16.5997 127.317 16.4584 127.466 16.3421C127.616 16.2092 127.857 16.1178 128.189 16.068C128.538 16.0015 128.837 16.0763 129.086 16.2923C129.219 16.4584 129.294 16.6163 129.311 16.7658C129.327 16.9154 129.261 17.1064 129.111 17.339C128.978 17.6215 128.82 17.8791 128.638 18.1117C128.471 18.3277 128.314 18.5769 128.164 18.8594C127.898 19.2249 127.848 19.4326 128.015 19.4824C128.181 19.5323 128.646 19.4991 129.41 19.3827C129.892 19.2997 130.241 19.3495 130.457 19.5323C130.673 19.7151 130.798 19.9477 130.831 20.2301C130.881 20.6289 130.839 20.8698 130.706 20.9529C130.573 21.036 130.191 21.0775 129.56 21.0775C129.161 21.144 128.82 21.1855 128.538 21.2021C128.255 21.2021 128.048 21.2021 127.915 21.2021C127.699 21.2187 127.558 21.2271 127.491 21.2271C127.425 21.2271 127.325 21.2437 127.192 21.2769C127.059 21.3101 126.959 21.3683 126.893 21.4514C126.843 21.5178 126.785 21.6175 126.719 21.7504C126.652 21.8169 126.552 21.9914 126.419 22.2738C126.287 22.5563 126.12 22.8637 125.921 23.196C125.688 23.8938 125.489 24.5668 125.323 25.2148C125.173 25.8461 125.04 26.4775 124.924 27.1089C124.874 27.4246 124.883 27.6572 124.949 27.8068C125.032 27.9397 125.248 28.0228 125.597 28.056C125.78 28.0726 126.046 28.0726 126.395 28.056C126.743 28.0228 127.034 27.9729 127.267 27.9065C127.45 27.8234 127.641 27.7403 127.84 27.6572C128.039 27.5575 128.222 27.4578 128.388 27.3581C128.538 27.2751 128.687 27.192 128.837 27.1089C128.987 27.0092 129.061 26.9594 129.061 26.9594C129.144 26.8265 129.261 26.8514 129.41 27.0341C129.576 27.2003 129.693 27.3831 129.759 27.5825C129.759 27.7818 129.718 28.0228 129.635 28.3052C129.551 28.5711 129.244 28.8535 128.712 29.1526C127.965 29.6178 127.217 29.9003 126.469 30C125.722 30.0997 125.132 30.108 124.7 30.0249ZM65.8132 52.268C65.8132 52.268 65.7302 52.2348 65.564 52.1683C65.3979 52.1185 65.2151 52.0686 65.0157 52.0188C64.8329 51.9689 64.6917 51.944 64.592 51.944C64.3262 51.8775 64.1351 51.728 64.0188 51.4954C63.9025 51.2794 63.8775 51.0385 63.944 50.7726C64.0105 50.7062 64.0603 50.5649 64.0935 50.3489C64.1268 50.1329 64.1434 49.9585 64.1434 49.8255C64.2099 49.6926 64.2514 49.6012 64.268 49.5514C64.2846 49.4849 64.3262 49.3188 64.3926 49.0529C64.4425 48.7705 64.5255 48.38 64.6419 47.8815C64.7748 47.3665 64.916 46.8181 65.0655 46.2366C65.2317 45.6551 65.3895 45.0985 65.5391 44.5668C65.6886 44.0351 65.8215 43.5864 65.9379 43.2209C66.0708 42.8554 66.1622 42.6477 66.212 42.5978C66.212 42.5978 66.212 42.5729 66.212 42.5231C66.212 42.4566 66.212 42.3901 66.212 42.3237C66.212 42.3237 66.2203 42.2489 66.2369 42.0994C66.2702 41.9332 66.3532 41.7504 66.4862 41.5511C66.5526 41.3683 66.6108 41.1689 66.6606 40.9529C66.7105 40.7369 66.7354 40.5957 66.7354 40.5292C66.8019 40.4461 66.8932 40.2467 67.0095 39.9311C67.1425 39.5987 67.2671 39.2747 67.3834 38.9591C67.4831 38.6932 67.5911 38.4107 67.7074 38.1117C67.8403 37.8126 67.9483 37.555 68.0314 37.339C68.1311 37.123 68.1809 37.015 68.1809 37.015C68.1809 36.9486 68.1809 36.9154 68.1809 36.9154C68.1809 36.8987 68.1809 36.8904 68.1809 36.8904C68.2474 36.824 68.4052 36.4917 68.6545 35.8935C68.9203 35.2787 69.2776 34.4895 69.7262 33.5258C69.7926 33.3929 69.8923 33.1852 70.0252 32.9027C70.1582 32.6037 70.2246 32.4209 70.2246 32.3544C70.4739 32.1052 70.7148 32.0221 70.9474 32.1052C71.1966 32.1717 71.4126 32.3129 71.5954 32.5289C71.7948 32.7449 71.936 32.9443 72.0191 33.127L72.2683 33.5258L71.3462 35.3203C71.0803 35.7855 70.8477 36.2092 70.6483 36.5914C70.4656 36.9735 70.3742 37.1978 70.3742 37.2643C70.3742 37.2643 70.3326 37.364 70.2496 37.5634C70.1831 37.7627 70.1 38.0203 70.0003 38.336C69.9006 38.6351 69.8009 38.9341 69.7012 39.2332C69.5185 39.7483 69.344 40.1803 69.1779 40.5292C69.0117 40.8615 68.9286 41.0609 68.9286 41.1274C68.9286 41.0941 69.0948 41.0692 69.4271 41.0526C69.776 41.036 70.208 41.0277 70.7231 41.0277C71.2382 41.0277 71.7616 41.0277 72.2933 41.0277C72.8416 41.0111 73.3317 41.0027 73.7637 41.0027C74.1957 40.9861 74.4948 40.9612 74.661 40.928L75.957 40.8034L76.6548 38.5852C76.7877 38.12 76.9622 37.555 77.1782 36.8904C77.3942 36.2258 77.5853 35.6609 77.7514 35.1957C78.0173 34.4314 78.2997 33.8997 78.5988 33.6006C78.8979 33.2849 79.1471 33.127 79.3465 33.127C79.3963 33.127 79.4877 33.1769 79.6207 33.2766C79.7702 33.3597 79.9197 33.4593 80.0693 33.5757C80.2188 33.692 80.3102 33.8 80.3434 33.8997C80.5428 34.0824 80.6342 34.2901 80.6176 34.5227C80.6176 34.7554 80.4847 35.0627 80.2188 35.4449C79.953 35.8935 79.7287 36.3837 79.5459 36.9154C79.3797 37.4304 79.2302 37.8541 79.0973 38.1864C79.0973 38.3858 79.0723 38.552 79.0225 38.6849C78.9727 38.8012 78.9145 38.8926 78.848 38.9591C78.8148 38.9923 78.7483 39.1169 78.6487 39.3329C78.549 39.5489 78.4576 39.7649 78.3745 39.9809C78.2914 40.1969 78.2499 40.3298 78.2499 40.3797C78.2499 40.496 78.225 40.6372 78.1751 40.8034C78.1253 40.9695 78.0671 41.0858 78.0006 41.1523C77.9674 41.252 77.8927 41.5012 77.7763 41.9C77.66 42.2988 77.5271 42.7723 77.3776 43.3206C77.228 43.8523 77.0702 44.3757 76.904 44.8908C76.7379 45.3892 76.5883 45.8046 76.4554 46.1369C76.4554 46.2532 76.4139 46.4028 76.3308 46.5855C76.2477 46.7517 76.2062 46.9012 76.2062 47.0341C76.1397 47.2335 76.0566 47.4828 75.957 47.7818C75.8573 48.0809 75.8074 48.272 75.8074 48.3551C75.7243 48.7372 75.633 49.1775 75.5333 49.676C75.4502 50.1745 75.3754 50.6148 75.309 50.9969C75.2591 51.3791 75.2342 51.5951 75.2342 51.6449C74.8022 51.6948 74.4782 51.6366 74.2622 51.4705C74.0462 51.3043 73.8468 51.188 73.664 51.1215C73.3483 50.9388 73.1573 50.7062 73.0908 50.4237C73.0409 50.1578 73.1074 49.8338 73.2902 49.4517C73.3733 49.3188 73.4729 48.9948 73.5893 48.4797C73.7222 47.948 73.8551 47.4246 73.988 46.9095C74.0877 46.6603 74.1957 46.3446 74.312 45.9625C74.4283 45.5803 74.5363 45.2065 74.636 44.8409C74.7523 44.4588 74.852 44.1348 74.9351 43.8689C75.0182 43.6031 75.0763 43.4535 75.1096 43.4203C75.1096 43.3538 75.1096 43.2957 75.1096 43.2458C75.1096 43.196 75.1096 43.1711 75.1096 43.1711C75.0763 43.1378 74.9102 43.1129 74.6111 43.0963C74.312 43.0631 73.9299 43.0548 73.4646 43.0714C73.016 43.0714 72.5259 43.088 71.9942 43.1212C71.4625 43.1378 70.9557 43.1794 70.4739 43.2458C70.2911 43.2458 70.0252 43.2458 69.6763 43.2458C69.344 43.2458 69.1114 43.2458 68.9785 43.2458C68.7957 43.2458 68.6379 43.2458 68.5049 43.2458C68.3886 43.2458 68.3305 43.2458 68.3305 43.2458C68.2972 43.2957 68.2308 43.4618 68.1311 43.7443C68.048 44.0268 67.94 44.3674 67.8071 44.7661C67.6908 45.1649 67.5662 45.572 67.4332 45.9874C67.3169 46.4028 67.2089 46.7849 67.1092 47.1338C67.0262 47.4661 66.968 47.7071 66.9348 47.8566C66.8683 48.1557 66.7769 48.5295 66.6606 48.9782C66.5609 49.4268 66.4446 49.8837 66.3117 50.3489C66.1954 50.8308 66.0874 51.2462 65.9877 51.5951C65.9046 51.944 65.8465 52.1683 65.8132 52.268ZM84.6855 49.9502C84.5193 49.784 84.3864 49.5597 84.2867 49.2772C84.187 48.9782 84.0873 48.6375 83.9877 48.2554C83.9544 48.1225 83.9378 47.9729 83.9378 47.8068C83.9544 47.6406 83.9544 47.5077 83.9378 47.408C83.888 47.5243 83.8049 47.6738 83.6886 47.8566C83.5889 48.0394 83.4892 48.1723 83.3895 48.2554C83.323 48.3218 83.1735 48.4548 82.9409 48.6542C82.7083 48.8369 82.4756 48.9865 82.243 49.1028C81.6947 49.4517 81.2046 49.6178 80.7726 49.6012C80.3572 49.568 79.9916 49.352 79.676 48.9532C79.4101 48.7372 79.1941 48.4631 79.028 48.1308C78.8618 47.7985 78.8286 47.3997 78.9283 46.9345C78.9615 46.3529 79.0446 45.788 79.1775 45.2397C79.3104 44.6748 79.5846 43.9271 80 42.9966C80.3489 42.3154 80.6147 41.7837 80.7975 41.4015C80.9803 41.0194 81.0966 40.7951 81.1464 40.7286C81.3956 40.6455 81.703 40.6538 82.0686 40.7535C82.4341 40.8366 82.6335 40.9944 82.6667 41.2271C82.7664 41.3932 82.7664 41.7089 82.6667 42.1741C82.567 42.6228 82.3676 43.1378 82.0686 43.7194C81.836 44.2843 81.6116 44.8326 81.3956 45.3643C81.1963 45.896 81.0716 46.3446 81.0218 46.7101C80.9886 47.0757 81.0883 47.3 81.3209 47.3831C81.4704 47.4661 81.6864 47.4578 81.9689 47.3581C82.268 47.2585 82.6169 46.9594 83.0157 46.4609C83.4144 45.9625 83.8381 45.1732 84.2867 44.0932C84.4197 43.7609 84.5193 43.4701 84.5858 43.2209C84.6523 42.9551 84.6938 42.6643 84.7104 42.3486C84.6772 42.1492 84.727 41.9415 84.86 41.7255C85.0095 41.5095 85.184 41.3434 85.3833 41.2271C85.4498 41.144 85.5412 41.0692 85.6575 41.0027C85.7738 40.9197 85.8486 40.9197 85.8818 41.0027L86.2806 40.9778C86.347 40.9612 86.4218 41.0277 86.5049 41.1772C86.588 41.3268 86.671 41.4348 86.7541 41.5012C86.9369 41.6508 87.02 41.9748 87.0034 42.4732C86.9867 42.9717 86.7874 43.6695 86.4052 44.5668C86.0895 45.248 85.8735 45.7631 85.7572 46.112C85.6575 46.4609 85.5993 46.8015 85.5827 47.1338C85.5827 47.4329 85.6077 47.6905 85.6575 47.9065C85.7073 48.1058 85.8569 48.3135 86.1061 48.5295C86.2889 48.6458 86.3886 48.8452 86.4052 49.1277C86.4384 49.3935 86.4467 49.6262 86.4301 49.8255C86.3969 49.9751 86.264 50.0748 86.0313 50.1246C85.8153 50.1911 85.5744 50.2077 85.3086 50.1745C85.0593 50.1412 84.8517 50.0665 84.6855 49.9502ZM96.5768 49.4018C96.2112 49.3686 95.9038 49.2938 95.6546 49.1775C95.422 49.0446 95.2309 48.7871 95.0814 48.4049C95.0149 48.1391 94.9817 47.8649 94.9817 47.5825C94.9983 47.2834 95.0232 47.0009 95.0564 46.7351C95.0897 46.4526 95.1063 46.2117 95.1063 46.0123C95.1063 45.9791 95.1063 45.9126 95.1063 45.8129C95.1063 45.7132 95.1063 45.6218 95.1063 45.5388C95.0731 45.2895 95.0066 45.14 94.9069 45.0901C94.8238 45.0237 94.6743 45.032 94.4583 45.1151C94.1094 45.2812 93.7272 45.5055 93.3118 45.788C92.9131 46.0538 92.4894 46.3695 92.0407 46.7351C91.6087 47.084 91.1601 47.4578 90.6949 47.8566C90.3294 48.2554 90.0552 48.5794 89.8724 48.8286C89.7063 49.0778 89.5318 49.2025 89.349 49.2025C89.2161 49.2689 89.0749 49.2523 88.9254 49.1526C88.7758 49.0529 88.618 48.9366 88.4518 48.8037C88.3355 48.6708 88.1943 48.5046 88.0281 48.3052C87.8786 48.0892 87.7872 47.948 87.754 47.8815C87.754 47.6157 87.7706 47.3748 87.8038 47.1588C87.8537 46.9428 87.9201 46.7185 88.0032 46.4858C88.1029 46.2532 88.2192 45.9874 88.3521 45.6883C88.4186 45.572 88.4767 45.4557 88.5266 45.3394C88.593 45.2065 88.6678 45.0652 88.7509 44.9157C88.8174 44.6831 88.9087 44.4172 89.025 44.1181C89.158 43.8191 89.2826 43.5366 89.3989 43.2708C89.5817 42.8388 89.7229 42.4649 89.8226 42.1492C89.9223 41.8335 90.0054 41.4929 90.0718 41.1274C90.0552 41.0941 90.0635 41.0443 90.0967 40.9778C90.13 40.9114 90.1798 40.8698 90.2463 40.8532H90.2712H90.2961C90.4124 40.7701 90.6284 40.7618 90.9441 40.8283C91.2764 40.8781 91.5257 40.9695 91.6918 41.1024C92.0407 41.4015 92.2069 41.792 92.1903 42.2738C92.1737 42.7557 91.9244 43.3871 91.4426 44.168C91.3263 44.4338 91.2017 44.6831 91.0687 44.9157C90.9524 45.1317 90.8943 45.2812 90.8943 45.3643C90.8943 45.3643 90.9607 45.3145 91.0937 45.2148C91.2266 45.1151 91.3844 44.9988 91.5672 44.8658C91.75 44.7163 91.9078 44.6 92.0407 44.5169C92.1238 44.4338 92.3066 44.2843 92.5891 44.0683C92.8715 43.8357 93.1789 43.5948 93.5112 43.3455C93.8435 43.0963 94.1094 42.9052 94.3088 42.7723C94.4915 42.6394 94.7241 42.5064 95.0066 42.3735C95.2891 42.224 95.4635 42.1492 95.53 42.1492C95.6961 42.1492 95.8955 42.2074 96.1281 42.3237C96.3774 42.44 96.6017 42.5812 96.8011 42.7474C97.0171 42.8969 97.1417 43.0381 97.1749 43.1711C97.1749 43.2375 97.1666 43.3289 97.15 43.4452C97.1334 43.5449 97.1251 43.6363 97.1251 43.7194C97.1084 43.9852 97.1001 44.3092 97.1001 44.6914C97.1168 45.0569 97.1251 45.4308 97.1251 45.8129C97.1251 46.1785 97.0918 46.5108 97.0254 46.8098C97.0254 46.8098 97.0337 46.8265 97.0503 46.8597C97.0669 46.8763 97.0835 46.9095 97.1001 46.9594C97.0835 46.976 97.0752 47.0092 97.0752 47.0591C97.0918 47.0923 97.1001 47.1089 97.1001 47.1089C97.1334 47.2252 97.1666 47.3415 97.1998 47.4578C97.2497 47.5741 97.3078 47.7071 97.3743 47.8566C97.4408 47.9895 97.5155 48.164 97.5986 48.38C97.582 48.596 97.4574 48.812 97.2248 49.028C97.0088 49.2274 96.7928 49.352 96.5768 49.4018ZM102.707 50.1495C102.475 50.0831 102.242 49.9668 102.01 49.8006C101.777 49.6345 101.536 49.4434 101.287 49.2274C101.087 48.9615 100.946 48.7206 100.863 48.5046C100.78 48.272 100.73 48.0061 100.714 47.7071C100.714 47.3914 100.714 46.9926 100.714 46.5108C100.714 46.3114 100.747 46.0289 100.813 45.6634C100.896 45.2978 100.979 44.9157 101.063 44.5169C101.162 44.1181 101.254 43.7692 101.337 43.4701C101.42 43.1544 101.47 42.9468 101.486 42.8471C101.536 42.6311 101.453 42.5064 101.237 42.4732C101.021 42.44 100.78 42.4317 100.514 42.4483C100.265 42.4483 100.099 42.4234 100.016 42.3735C99.9493 42.3569 99.9161 42.2738 99.9161 42.1243C99.9161 41.9581 99.9161 41.8751 99.9161 41.8751C99.9161 41.8086 99.8828 41.7671 99.8164 41.7504C99.7499 41.7172 99.6918 41.6591 99.6419 41.576C99.6087 41.5095 99.6502 41.3849 99.7665 41.2021C99.8828 41.0194 100.032 40.9114 100.215 40.8781C100.365 40.8449 100.589 40.82 100.888 40.8034C101.187 40.7701 101.486 40.712 101.785 40.6289C102.101 40.5292 102.342 40.3797 102.508 40.1803C102.658 39.8147 102.824 39.4243 103.007 39.0089C103.189 38.5769 103.364 38.2031 103.53 37.8874C103.696 37.555 103.812 37.3474 103.879 37.2643C104.161 37.1147 104.452 37.0566 104.751 37.0898C105.05 37.1064 105.283 37.2477 105.449 37.5135C105.532 37.6298 105.599 37.7129 105.648 37.7627C105.715 37.8126 105.74 37.8874 105.723 37.9871C105.723 38.0867 105.657 38.2695 105.524 38.5354C105.407 38.7846 105.208 39.1751 104.926 39.7067C104.843 39.8729 104.768 40.0224 104.701 40.1554C104.635 40.2717 104.602 40.3298 104.602 40.3298C104.668 40.3464 104.768 40.3547 104.901 40.3547C105.034 40.3547 105.2 40.3464 105.399 40.3298C105.582 40.2966 105.781 40.2717 105.997 40.2551C106.213 40.2218 106.404 40.2218 106.571 40.2551C106.953 40.2551 107.235 40.3631 107.418 40.5791C107.601 40.7951 107.7 41.0692 107.717 41.4015C107.75 41.5843 107.684 41.7421 107.518 41.8751C107.351 42.008 107.044 42.0744 106.595 42.0744C106.446 42.0744 106.23 42.0828 105.947 42.0994C105.665 42.116 105.374 42.1326 105.075 42.1492C104.776 42.1658 104.519 42.1908 104.303 42.224C104.103 42.2406 104.003 42.2655 104.003 42.2988C103.954 42.332 103.871 42.4649 103.754 42.6975C103.655 42.9135 103.547 43.1794 103.43 43.4951C103.331 43.8108 103.239 44.1098 103.156 44.3923C103.04 44.9572 102.957 45.5055 102.907 46.0372C102.857 46.5689 102.849 47.0341 102.882 47.4329C102.932 47.8151 103.031 48.0892 103.181 48.2554C103.331 48.4049 103.555 48.4049 103.854 48.2554C104.17 48.0892 104.46 47.8981 104.726 47.6821C105.025 47.4329 105.283 47.3581 105.499 47.4578C105.715 47.5409 105.848 47.7237 105.898 48.0061C105.964 48.272 105.889 48.5628 105.673 48.8785C105.474 49.1942 105.191 49.46 104.826 49.676C104.46 49.892 104.087 50.0415 103.704 50.1246C103.322 50.2243 102.99 50.2326 102.707 50.1495Z" fill="black"/>
</svg>
