<svg width="177" height="64" viewBox="0 0 177 64" fill="none" xmlns="http://www.w3.org/2000/svg">
<rect width="177" height="64" rx="12" fill="#FFF9EE"/>
<rect x="15.7832" y="12.54" width="31" height="31" rx="7.75" fill="#F3B96B"/>
<path d="M25.473 34.9024C25.3552 34.9024 25.2571 34.8417 25.1787 34.7205C25.1198 34.6645 25.056 34.5759 24.9873 34.4547C24.9187 34.3334 24.8941 34.1375 24.9138 33.867C24.9432 33.5872 25.0511 33.1814 25.2375 32.6498C25.3356 32.2953 25.4141 32.0388 25.473 31.8802C25.5318 31.7123 25.5613 31.5911 25.5613 31.5165C25.5613 31.4139 25.5711 31.3299 25.5907 31.2646C25.6201 31.19 25.6348 31.12 25.6348 31.0547C25.6937 31.0547 25.7526 31.0034 25.8114 30.9008C25.8703 30.7982 25.9193 30.6583 25.9586 30.4811C25.9978 30.3225 26.0322 30.1966 26.0616 30.1033C26.1008 30.0007 26.1205 29.9308 26.1205 29.8935C26.1695 29.8188 26.2186 29.7022 26.2676 29.5437C26.3265 29.3851 26.4148 29.1939 26.5325 28.97C26.611 28.6902 26.6993 28.401 26.7974 28.1026C26.8955 27.7948 26.9936 27.5103 27.0917 27.2491C27.1996 26.9786 27.2879 26.7687 27.3566 26.6195C27.4645 26.3303 27.5479 26.1298 27.6068 26.0179C27.6656 25.8966 27.6656 25.8173 27.6068 25.78C27.5381 25.7334 27.5037 25.6168 27.5037 25.4302C27.5136 25.2343 27.6068 25.0664 27.7833 24.9265C27.8913 24.8053 28.0286 24.7213 28.1954 24.6747C28.3622 24.6187 28.5535 24.5907 28.7693 24.5907C28.9851 24.5907 29.2108 24.6001 29.4462 24.6187C29.6228 24.628 29.8092 24.6327 30.0054 24.6327C30.2115 24.6327 30.339 24.6327 30.388 24.6327C30.4763 24.67 30.5843 24.712 30.7118 24.7586C30.8393 24.8053 30.9521 24.8519 31.0503 24.8985C31.1582 24.9359 31.2121 24.9685 31.2121 24.9965C31.2121 25.0524 31.2317 25.0898 31.271 25.1084C31.32 25.1177 31.3691 25.1271 31.4181 25.1364C31.4868 25.1364 31.5996 25.197 31.7566 25.3183C31.9136 25.4302 32.0705 25.5701 32.2275 25.738C32.3943 25.8966 32.512 26.0552 32.5807 26.2137C32.6592 26.3723 32.7229 26.5215 32.772 26.6615C32.8309 26.8014 32.8358 27.0019 32.7867 27.2631C32.7769 27.403 32.7524 27.5429 32.7131 27.6828C32.6837 27.8227 32.6494 27.916 32.6101 27.9627C32.5513 28 32.4973 28.0466 32.4483 28.1026C32.3992 28.1585 32.3747 28.2098 32.3747 28.2565C32.3747 28.2938 32.3354 28.3871 32.2569 28.5363C32.1785 28.6762 32.0804 28.8394 31.9626 29.026C31.8449 29.2032 31.7174 29.3804 31.58 29.5577C31.4427 29.7349 31.3151 29.8748 31.1974 29.9774C31.0699 30.1267 30.9178 30.2666 30.7412 30.3972C30.5744 30.5277 30.4224 30.635 30.285 30.719C30.03 30.8309 29.7356 30.9382 29.4021 31.0408C29.0783 31.1434 28.7644 31.2273 28.4603 31.2926C28.1561 31.3486 27.9109 31.3719 27.7245 31.3626C27.44 31.3999 27.2536 31.4372 27.1653 31.4745C27.077 31.5025 27.0132 31.5818 26.974 31.7123C26.9249 31.8336 26.8759 31.9595 26.8268 32.0901C26.7876 32.2207 26.768 32.314 26.768 32.3699C26.7483 32.4072 26.7042 32.5099 26.6355 32.6777C26.5767 32.8456 26.5031 33.0415 26.4148 33.2654C26.3363 33.4892 26.2627 33.7131 26.194 33.937C26.1254 34.1608 26.0714 34.352 26.0322 34.5106C25.9929 34.6412 25.9095 34.7391 25.782 34.8044C25.6643 34.8697 25.5613 34.9024 25.473 34.9024ZM27.5626 30.2293C27.6019 30.2666 27.7294 30.2712 27.9452 30.2432C28.1611 30.2153 28.421 30.1453 28.7252 30.0334C28.9214 29.9681 29.1176 29.8888 29.3138 29.7955C29.5198 29.7022 29.716 29.5996 29.9024 29.4877C30.0005 29.4224 30.1035 29.3431 30.2115 29.2499C30.3194 29.1473 30.4714 28.9794 30.6676 28.7462C30.6971 28.6995 30.7461 28.6109 30.8148 28.4803C30.8933 28.3404 30.962 28.2098 31.0208 28.0886C31.1091 27.958 31.1974 27.7668 31.2857 27.5149C31.374 27.2538 31.3936 27.0392 31.3446 26.8713C31.2955 26.6288 31.1974 26.4283 31.0503 26.2697C30.9031 26.1018 30.7167 25.9805 30.4911 25.9059C30.2752 25.8686 30.0937 25.8453 29.9466 25.836C29.8092 25.8266 29.6572 25.836 29.4904 25.8639C29.3334 25.9106 29.2206 25.9759 29.1519 26.0598C29.0931 26.1438 29.0048 26.321 28.887 26.5915C28.8184 26.7221 28.7203 26.904 28.5927 27.1372C28.4652 27.361 28.3573 27.5895 28.269 27.8227C28.0924 28.4384 27.9354 28.9094 27.7981 29.2359C27.6705 29.5623 27.5871 29.7769 27.5479 29.8795C27.5577 29.9821 27.5528 30.0567 27.5332 30.1033C27.5136 30.1406 27.5234 30.1826 27.5626 30.2293Z" fill="black"/>
<path d="M33.9901 35.0003C33.5878 35.0003 33.22 34.935 32.8864 34.8044C32.5528 34.6832 32.3468 34.408 32.2683 33.9789C32.2781 33.7458 32.288 33.6012 32.2978 33.5452C32.3174 33.4799 32.3566 33.4473 32.4155 33.4473C32.4547 33.4473 32.4842 33.4426 32.5038 33.4333C32.5332 33.4146 32.5479 33.3727 32.5479 33.3074C32.5577 33.1488 32.5823 32.9622 32.6215 32.7477C32.6706 32.5238 32.7245 32.3186 32.7834 32.1321C32.8521 31.9362 32.9158 31.801 32.9747 31.7263C33.0336 31.5398 33.1169 31.2833 33.2249 30.9568C33.3328 30.6303 33.4456 30.2899 33.5633 29.9354C33.6909 29.5717 33.8037 29.2405 33.9018 28.942C34.0097 28.6436 34.0882 28.4337 34.1372 28.3124C34.1863 28.1912 34.2648 28.0233 34.3727 27.8087C34.4806 27.5849 34.5542 27.3983 34.5934 27.2491C34.6621 27.0625 34.7357 26.862 34.8142 26.6475C34.8926 26.4236 34.9662 26.251 35.0349 26.1298L35.2851 25.71L34.8877 25.3882C34.7504 25.2577 34.6817 25.1271 34.6817 24.9965C34.6817 24.8472 34.7749 24.7213 34.9613 24.6187C35.1575 24.5161 35.3832 24.4462 35.6382 24.4088C35.7364 24.3902 35.8492 24.3809 35.9767 24.3809C36.1141 24.3809 36.2416 24.3809 36.3593 24.3809C36.6438 24.3809 36.9283 24.3902 37.2128 24.4088C37.4973 24.4275 37.7328 24.4508 37.9192 24.4788C38.0271 24.4975 38.1645 24.5394 38.3312 24.6047C38.498 24.67 38.6599 24.7446 38.8169 24.8286C38.9738 24.9125 39.0866 24.9918 39.1553 25.0664C39.1553 25.0664 39.1749 25.0851 39.2142 25.1224C39.2534 25.1504 39.2927 25.1644 39.3319 25.1644C39.3908 25.1924 39.4938 25.2996 39.6409 25.4862C39.7979 25.6727 39.95 25.8826 40.0971 26.1158C40.2443 26.3397 40.3326 26.5449 40.362 26.7314C40.3914 26.8713 40.4111 27.0252 40.4209 27.1931C40.4405 27.3517 40.4503 27.4963 40.4503 27.6269C40.4405 27.8507 40.4258 28.0653 40.4062 28.2705C40.3964 28.4757 40.3718 28.6995 40.3326 28.942C40.3032 29.1566 40.2492 29.3944 40.1707 29.6556C40.102 29.9075 40.0236 30.1546 39.9353 30.3972C39.8568 30.6303 39.7832 30.8216 39.7145 30.9708C39.6557 31.12 39.6164 31.1947 39.5968 31.1947C39.5379 31.1947 39.5036 31.2087 39.4938 31.2366C39.484 31.2646 39.4791 31.2973 39.4791 31.3346C39.4693 31.4279 39.4055 31.5771 39.2878 31.7823C39.17 31.9782 39.0229 32.1927 38.8463 32.4259C38.6697 32.6498 38.4833 32.8596 38.2871 33.0555C38.1007 33.2514 37.929 33.396 37.772 33.4892C37.4581 33.8157 37.0804 34.0909 36.6389 34.3147C36.1974 34.5479 35.7413 34.7205 35.2704 34.8324C34.8093 34.9444 34.3825 35.0003 33.9901 35.0003ZM34.358 33.5872C34.4561 33.5872 34.613 33.5825 34.8289 33.5732C35.0545 33.5545 35.236 33.5219 35.3734 33.4753C35.6088 33.4193 35.8933 33.298 36.2269 33.1115C36.5604 32.9156 36.8646 32.6871 37.1393 32.4259C37.4434 32.1274 37.7181 31.8196 37.9633 31.5025C38.2086 31.176 38.449 30.7283 38.6844 30.1593C38.8512 29.7862 38.9689 29.4084 39.0376 29.026C39.1161 28.6436 39.1553 28.2984 39.1553 27.9906C39.1553 27.4403 39.0474 26.9972 38.8316 26.6615C38.6157 26.3163 38.3361 26.0831 37.9928 25.9619C37.8554 25.9152 37.7132 25.8826 37.566 25.8639C37.4189 25.836 37.2766 25.822 37.1393 25.822C37.0412 25.822 36.9381 25.8266 36.8302 25.836C36.7321 25.8453 36.6684 25.8593 36.6389 25.8779C36.5604 25.8779 36.4721 25.9526 36.374 26.1018C36.2857 26.251 36.2024 26.4376 36.1239 26.6615C36.0454 26.8853 35.9718 27.1045 35.9031 27.319C35.8246 27.5895 35.7511 27.8087 35.6824 27.9766C35.6137 28.1352 35.545 28.2984 35.4764 28.4663C35.4077 28.6342 35.3243 28.8721 35.2262 29.1799C35.0889 29.4317 34.9711 29.6883 34.873 29.9494C34.7847 30.2013 34.7112 30.4251 34.6523 30.621C34.5934 30.8076 34.5493 30.9382 34.5198 31.0128C34.461 31.1247 34.3972 31.2926 34.3285 31.5165C34.2697 31.731 34.2108 31.9642 34.152 32.216C34.1029 32.4679 34.0588 32.7011 34.0195 32.9156C33.9901 33.1301 33.9754 33.2934 33.9754 33.4053C33.9754 33.4799 34.0146 33.5312 34.0931 33.5592C34.1716 33.5779 34.2599 33.5872 34.358 33.5872Z" fill="black"/>
<path d="M40.9416 34.3287C40.8827 34.2728 40.7993 34.1935 40.6914 34.0909C40.5933 33.9883 40.505 33.8763 40.4265 33.7551C40.3578 33.6338 40.3431 33.5219 40.3824 33.4193C40.5099 33.3167 40.5737 33.1908 40.5737 33.0415C40.6227 32.8736 40.6522 32.771 40.662 32.7337C40.6718 32.6964 40.6914 32.6591 40.7208 32.6218C40.7208 32.6218 40.7355 32.5751 40.765 32.4819C40.7944 32.3886 40.8287 32.2813 40.868 32.1601C40.9072 32.0295 40.9416 31.9129 40.971 31.8103C41.0004 31.7077 41.0151 31.6517 41.0151 31.6424C41.025 31.5584 41.0446 31.4698 41.074 31.3765C41.1034 31.2739 41.1231 31.204 41.1329 31.1667C41.1819 31.12 41.2261 31.0501 41.2653 30.9568C41.3144 30.8542 41.3634 30.7423 41.4125 30.621C41.4223 30.4904 41.4468 30.3925 41.486 30.3272C41.5253 30.2619 41.5645 30.2153 41.6038 30.1873C41.6626 30.094 41.6921 29.9774 41.6921 29.8375C41.6528 29.8375 41.6626 29.7489 41.7215 29.5717C41.7804 29.3851 41.9128 29.0633 42.1188 28.6063C42.2169 28.4384 42.2905 28.2845 42.3396 28.1445C42.3984 27.9953 42.4279 27.9207 42.4279 27.9207C42.4279 27.8834 42.4426 27.8461 42.472 27.8087C42.5014 27.7714 42.5309 27.7108 42.5603 27.6269C42.5701 27.5802 42.6094 27.4916 42.678 27.361C42.7467 27.2211 42.8056 27.0812 42.8546 26.9413C42.8939 26.8107 42.938 26.6801 42.9871 26.5495C43.0459 26.4096 43.0999 26.2977 43.1489 26.2137C43.1784 26.0831 43.2323 25.9665 43.3108 25.8639C43.3893 25.752 43.4432 25.6447 43.4727 25.5421C43.5315 25.2343 43.6787 25.0431 43.9142 24.9685C44.1496 24.8939 44.3654 24.9778 44.5616 25.2203C44.6401 25.3229 44.7186 25.3742 44.7971 25.3742C44.8854 25.3742 45.0277 25.3229 45.2239 25.2203C45.3416 25.2203 45.5231 25.2064 45.7683 25.1784C46.0234 25.1504 46.254 25.1177 46.46 25.0804C46.6268 25.0804 46.7935 25.0711 46.9603 25.0524C47.1271 25.0245 47.2301 25.0105 47.2694 25.0105C47.2988 24.9825 47.3773 24.9732 47.5048 24.9825C47.6323 24.9825 47.7599 25.0011 47.8874 25.0385C48.0248 25.0664 48.1229 25.1084 48.1817 25.1644C48.2014 25.211 48.221 25.309 48.2406 25.4582C48.2602 25.6074 48.27 25.7474 48.27 25.8779C48.27 26.0085 48.2553 26.0738 48.2259 26.0738C48.1965 26.0738 48.1082 26.0738 47.961 26.0738C47.8236 26.0738 47.6569 26.0738 47.4607 26.0738C47.2743 26.0738 47.0584 26.0925 46.8132 26.1298C46.5777 26.1671 46.4011 26.1951 46.2834 26.2137C46.1559 26.2137 46.0136 26.2324 45.8566 26.2697C45.6997 26.2977 45.5574 26.3117 45.4299 26.3117C45.165 26.3397 44.9737 26.3536 44.856 26.3536C44.7382 26.3536 44.6549 26.3676 44.6058 26.3956C44.5567 26.4143 44.5028 26.4889 44.4439 26.6195C44.3164 26.9086 44.2085 27.1512 44.1202 27.347C44.0319 27.5429 43.9485 27.7668 43.87 28.0186L43.6934 28.6202H43.9289C44.2722 28.6016 44.5518 28.5783 44.7677 28.5503C44.9835 28.5223 45.1699 28.4943 45.3269 28.4663C45.4937 28.4384 45.6751 28.4197 45.8714 28.4104C46.2736 28.3544 46.5728 28.3917 46.769 28.5223C46.9652 28.6436 47.0584 28.8255 47.0486 29.068C47.0486 29.1053 46.9996 29.1752 46.9015 29.2778C46.8132 29.3804 46.6022 29.4551 46.2687 29.5017C46.1019 29.511 45.8763 29.5297 45.5918 29.5577C45.3072 29.5763 45.0129 29.5996 44.7088 29.6276C44.4145 29.6463 44.1496 29.6649 43.9142 29.6836C43.6885 29.7022 43.5463 29.7116 43.4874 29.7116C43.3304 29.6929 43.2372 29.6929 43.2078 29.7116C43.1882 29.7302 43.1735 29.7675 43.1636 29.8235C43.1636 29.8608 43.1489 29.9261 43.1195 30.0194C43.0901 30.1127 43.0704 30.1826 43.0606 30.2293C43.0214 30.2852 42.9674 30.3738 42.8988 30.4951C42.8399 30.607 42.7958 30.7283 42.7663 30.8589C42.7271 30.9801 42.6927 31.0687 42.6633 31.1247C42.6339 31.1807 42.6143 31.232 42.6044 31.2786C42.5848 31.3066 42.5456 31.3952 42.4867 31.5444C42.4377 31.6937 42.3739 31.8662 42.2954 32.0621C42.2267 32.258 42.1581 32.4492 42.0894 32.6358C42.0305 32.8223 41.9815 32.9669 41.9422 33.0695C41.8245 33.4426 41.7215 33.7318 41.6332 33.937C41.5547 34.1329 41.4615 34.2588 41.3536 34.3147C41.2555 34.3707 41.1182 34.3754 40.9416 34.3287Z" fill="black"/>
<path d="M26.2748 46.5529H46.7252M26.2748 41.2753H39.4686M22.7832 21.5328V48.4676C22.7832 50.1205 24.1231 51.4604 25.776 51.4604H47.224C48.8769 51.4604 50.2168 50.1205 50.2168 48.4676V21.5328C50.2168 19.8799 48.8769 18.54 47.224 18.54H25.776C24.1231 18.54 22.7832 19.8799 22.7832 21.5328Z" stroke="black" stroke-width="1.37867"/>
<path d="M75.5005 32.6419C75.1848 32.6917 74.8027 32.6834 74.354 32.6169C73.9054 32.5671 73.4236 32.4757 72.9085 32.3428C72.6426 32.2597 72.4516 32.16 72.3353 32.0437C72.2356 31.9274 72.0611 31.7114 71.8119 31.3957C71.6457 31.1465 71.5377 30.864 71.4879 30.5483C71.4546 30.2326 71.4962 29.9502 71.6125 29.7009C71.7454 29.4517 71.9614 29.3022 72.2605 29.2523C72.3934 29.2191 72.5513 29.2523 72.734 29.352C72.9334 29.4351 73.1411 29.5431 73.3571 29.676C73.706 29.8754 74.0799 30.0748 74.4787 30.2742C74.8774 30.4902 75.243 30.5732 75.5753 30.5234C75.8079 30.4735 76.082 30.4403 76.3977 30.4237C76.73 30.4237 77.0457 30.3988 77.3448 30.3489C77.6605 30.2991 77.9097 30.2077 78.0925 30.0748C78.9731 29.4766 79.6294 29.0031 80.0614 28.6542C80.4934 28.2886 80.7094 28.1058 80.7094 28.1058C80.7427 28.0394 80.8008 27.9895 80.8839 27.9563C80.9836 27.9065 81.0999 27.8566 81.2328 27.8068C81.3325 27.7071 81.4904 27.5492 81.7064 27.3332C81.9224 27.1006 82.1301 26.8763 82.3294 26.6603C82.5454 26.4443 82.6784 26.3197 82.7282 26.2865C82.7614 26.1369 82.7947 26.0206 82.8279 25.9375C82.8611 25.8378 82.8777 25.7381 82.8777 25.6385C83.0107 25.5055 83.1851 25.2314 83.4011 24.816C83.6337 24.384 83.8664 23.9104 84.099 23.3954C84.3316 22.8637 84.4978 22.3818 84.5974 21.9498C84.8134 21.036 84.8882 20.2052 84.8218 19.4575C84.7553 18.7098 84.5642 18.0369 84.2485 17.4387C83.9328 16.8406 83.5091 16.3172 82.9774 15.8686C82.7947 15.719 82.5454 15.5612 82.2297 15.395C81.9141 15.2123 81.5901 15.0461 81.2577 14.8966C80.9254 14.7304 80.6264 14.6058 80.3605 14.5227C80.1113 14.4397 79.9617 14.4064 79.9119 14.423C79.8454 14.4397 79.7125 14.6972 79.5131 15.1957C79.3304 15.6775 79.0977 16.3006 78.8153 17.0649C78.5494 17.8292 78.2587 18.6517 77.943 19.5323C77.6439 20.3963 77.3531 21.2187 77.0707 21.9997C76.9876 22.3154 76.8796 22.6477 76.7467 22.9966C76.6303 23.3455 76.5307 23.6529 76.4476 23.9188C76.3645 24.168 76.323 24.3341 76.323 24.4172C76.1402 24.6997 75.9491 25.1317 75.7497 25.7132C75.5503 26.2948 75.3842 27.1255 75.2513 28.2055C75.1017 28.7705 74.9937 29.244 74.9273 29.6262C74.8608 29.9917 74.7943 30.1662 74.7279 30.1495C74.7279 30.1495 74.7196 30.2243 74.703 30.3738C74.6863 30.54 74.6531 30.648 74.6033 30.6978C74.6033 30.7975 74.5036 30.864 74.3042 30.8972C74.1048 30.9305 73.8722 30.8889 73.6063 30.7726C73.3405 30.6563 73.0913 30.432 72.8586 30.0997C72.8088 29.9169 72.7673 29.6511 72.734 29.3022C72.7174 28.9366 72.7756 28.5129 72.9085 28.0311C72.9916 27.7154 73.1079 27.3083 73.2574 26.8098C73.407 26.3114 73.5731 25.7963 73.7559 25.2646C73.9387 24.7329 74.1048 24.2428 74.2543 23.7941C74.4205 23.3455 74.5368 23.0132 74.6033 22.7972C74.7196 22.5148 74.8857 21.9831 75.1017 21.2021C75.2347 20.7701 75.3676 20.3381 75.5005 19.9061C75.65 19.4741 75.7913 19.092 75.9242 18.7597C76.0571 18.4107 76.1485 18.1864 76.1983 18.0867C76.2814 17.8707 76.3811 17.5218 76.4974 17.04C76.6303 16.5415 76.8297 15.9766 77.0956 15.3452L77.27 14.5227L76.9959 14.3981C76.7965 14.4646 76.6387 14.4895 76.5223 14.4729C76.4227 14.4397 76.3562 14.4147 76.323 14.3981C76.2233 14.4314 76.0903 14.4064 75.9242 14.3234C75.7747 14.2237 75.6334 14.099 75.5005 13.9495C75.3842 13.8 75.3094 13.6753 75.2762 13.5757C75.243 13.5092 75.218 13.4261 75.2014 13.3264C75.2014 13.2101 75.2014 13.152 75.2014 13.152C75.218 13.0523 75.3593 12.9526 75.6251 12.8529C75.891 12.7366 76.2316 12.6286 76.647 12.5289C77.079 12.4292 77.5359 12.3544 78.0177 12.3046C78.4996 12.2547 78.9482 12.2464 79.3636 12.2797C79.7956 12.3129 80.3273 12.4126 80.9587 12.5787C81.5901 12.7449 82.1301 12.911 82.5787 13.0772C83.1104 13.2766 83.6836 13.6172 84.2984 14.099C84.9131 14.5809 85.4698 15.1541 85.9682 15.8187C86.4833 16.4834 86.8239 17.1812 86.9901 17.9123C87.0399 18.1117 87.0898 18.3941 87.1396 18.7597C87.1894 19.1252 87.2144 19.4824 87.2144 19.8314C87.231 20.1637 87.1978 20.3797 87.1147 20.4794C87.0814 20.5458 87.0565 20.6289 87.0399 20.7286C87.0399 20.8117 87.0731 20.8698 87.1396 20.9031C87.123 20.9529 87.0648 21.144 86.9651 21.4763C86.8654 21.792 86.7741 22.0661 86.691 22.2988C86.6578 22.7308 86.5414 23.2292 86.3421 23.7941C86.1593 24.3591 85.9516 24.8991 85.719 25.4141C85.503 25.9126 85.3119 26.3031 85.1458 26.5855C85.0793 26.5855 85.0128 26.6021 84.9464 26.6354C84.8965 26.652 84.9048 26.6686 84.9713 26.6852C84.9713 26.7683 84.8799 26.9261 84.6971 27.1588C84.6307 27.2086 84.5227 27.3332 84.3731 27.5326C84.2402 27.7154 84.1322 27.84 84.0491 27.9065C84.0325 28.0228 83.9827 28.1225 83.8996 28.2055C83.8165 28.272 83.7417 28.3052 83.6753 28.3052C83.6753 28.3052 83.6587 28.3052 83.6254 28.3052C83.6088 28.3052 83.6005 28.3385 83.6005 28.4049C83.4676 28.6043 83.2433 28.8618 82.9276 29.1775C82.6119 29.4932 82.2547 29.8172 81.8559 30.1495C81.4571 30.4818 81.0584 30.7892 80.6596 31.0717C80.2608 31.3542 79.8953 31.5618 79.563 31.6948C79.3968 31.8111 79.2224 31.9025 79.0396 31.9689C78.8568 32.052 78.6824 32.1351 78.5162 32.2182C78.4331 32.2846 78.1922 32.3428 77.7934 32.3926C77.3947 32.4425 76.971 32.484 76.5223 32.5172C76.0903 32.5505 75.7497 32.592 75.5005 32.6419ZM89.275 29.8255C89.059 29.8255 88.8845 29.784 88.7516 29.7009C88.6353 29.6178 88.4858 29.5015 88.303 29.352C87.9873 29.0197 87.7298 28.6625 87.5304 28.2803C87.3476 27.8981 87.2812 27.5658 87.331 27.2834C87.3809 27.1505 87.3975 27.0258 87.3809 26.9095C87.3809 26.7766 87.3809 26.7101 87.3809 26.7101C87.2978 26.6271 87.2728 26.5772 87.3061 26.5606C87.3393 26.5274 87.3725 26.4775 87.4058 26.4111C87.5055 26.4111 87.5387 26.3197 87.5055 26.1369C87.4722 26.004 87.5221 25.7215 87.655 25.2895C87.8045 24.8409 88.0039 24.4172 88.2532 24.0184C88.3529 23.8523 88.5024 23.6363 88.7018 23.3704C88.9012 23.088 89.1172 22.8138 89.3498 22.548C89.599 22.2655 89.8233 22.0412 90.0227 21.8751C90.4381 21.5261 90.8202 21.2437 91.1692 21.0277C91.5347 20.8117 91.9002 20.6621 92.2658 20.5791C92.6313 20.496 93.0052 20.4544 93.3873 20.4544C93.7861 20.4544 94.1101 20.5874 94.3593 20.8532C94.7415 21.0194 95.0073 21.2437 95.1569 21.5261C95.323 21.8086 95.431 22.1741 95.4809 22.6228C95.5307 23.1212 95.4809 23.736 95.3313 24.4671C95.1818 25.1815 94.7747 26.0123 94.1101 26.9594C93.6947 27.5575 93.2876 28.0228 92.8889 28.3551C92.4901 28.6874 92.0498 28.9948 91.5679 29.2772C91.219 29.5098 90.8452 29.6511 90.4464 29.7009C90.0476 29.7508 89.6572 29.7923 89.275 29.8255ZM91.8172 26.7849C92.1827 26.4692 92.4402 26.1203 92.5898 25.7381C92.7559 25.356 92.9304 24.9074 93.1132 24.3923C93.1796 24.2926 93.2212 24.1264 93.2378 23.8938C93.271 23.6612 93.2793 23.4369 93.2627 23.2209C93.2461 22.9883 93.1879 22.8554 93.0882 22.8221C92.9387 22.7058 92.7892 22.6809 92.6396 22.7474C92.4901 22.7972 92.299 22.9052 92.0664 23.0714C91.5679 23.4868 91.1027 23.9686 90.6707 24.5169C90.2553 25.0486 89.9645 25.7049 89.7984 26.4858C89.7485 26.9012 89.7901 27.2169 89.923 27.4329C90.0725 27.6323 90.3052 27.6905 90.6209 27.6074C90.9532 27.5077 91.3519 27.2335 91.8172 26.7849ZM98.1112 29.2523C97.862 29.2523 97.6128 29.0695 97.3635 28.704C97.1143 28.3218 96.9149 27.8566 96.7654 27.3083C96.6325 26.76 96.5826 26.22 96.6158 25.6883C96.6158 25.1566 96.6408 24.7329 96.6906 24.4172C96.7571 24.0849 96.8235 23.7609 96.89 23.4452C96.9398 23.3455 96.9648 23.2624 96.9648 23.196C96.9814 23.1295 96.998 23.0215 97.0146 22.872C97.0478 22.7224 97.106 22.4732 97.1891 22.1243C97.2555 21.8418 97.322 21.6092 97.3885 21.4264C97.4715 21.2437 97.538 21.1191 97.5878 21.0526C97.7872 20.7867 98.0115 20.6289 98.2608 20.5791C98.51 20.5126 98.7343 20.5375 98.9337 20.6538C99.1497 20.7701 99.2743 20.9446 99.3075 21.1772C99.4072 21.2603 99.4571 21.4514 99.4571 21.7504C99.4737 22.0329 99.4571 22.332 99.4072 22.6477C99.3574 22.9468 99.2826 23.1628 99.1829 23.2957C99.1497 23.3788 99.1082 23.5948 99.0583 23.9437C99.0251 24.2926 98.9835 24.6581 98.9337 25.0403C98.9005 25.4225 98.8589 25.7298 98.8091 25.9625C98.7592 26.2615 98.7758 26.4526 98.8589 26.5357C98.9586 26.6021 99.1248 26.5274 99.3574 26.3114C99.6066 26.0788 99.9306 25.6717 100.329 25.0901C100.662 24.5917 100.903 24.2012 101.052 23.9188C101.218 23.6363 101.343 23.3788 101.426 23.1461C101.526 22.9135 101.634 22.6394 101.75 22.3237C101.833 22.0578 101.908 21.8418 101.974 21.6757C102.057 21.5095 102.132 21.3932 102.199 21.3268C102.381 21.0609 102.622 20.9529 102.921 21.0027C103.237 21.036 103.495 21.1191 103.694 21.252C103.893 21.4514 104.01 21.7255 104.043 22.0744C104.093 22.4068 104.018 22.7723 103.819 23.1711C103.686 23.4369 103.553 23.7526 103.42 24.1181C103.304 24.4837 103.204 24.8492 103.121 25.2148C103.054 25.5803 103.021 25.896 103.021 26.1618C103.021 26.4941 103.063 26.6935 103.146 26.76C103.245 26.8098 103.362 26.8348 103.495 26.8348C103.694 26.8348 103.885 26.7683 104.068 26.6354C104.251 26.4858 104.516 26.2283 104.865 25.8628C105.015 25.7132 105.198 25.4889 105.414 25.1898C105.63 24.8908 105.837 24.5751 106.037 24.2428C106.253 23.9104 106.427 23.6197 106.56 23.3704C106.71 23.1046 106.784 22.9384 106.784 22.872C106.784 22.7723 106.859 22.6311 107.009 22.4483C107.108 22.3154 107.183 22.2157 107.233 22.1492C107.3 22.0661 107.416 21.9831 107.582 21.9C107.715 21.8335 107.864 21.8252 108.031 21.8751C108.197 21.9083 108.338 21.9914 108.454 22.1243C108.537 22.1908 108.596 22.3569 108.629 22.6228C108.679 22.872 108.704 23.0963 108.704 23.2957C108.654 23.4784 108.579 23.736 108.479 24.0683C108.38 24.384 108.272 24.6914 108.155 24.9905C108.056 25.2729 107.964 25.464 107.881 25.5637C107.815 25.6301 107.698 25.7548 107.532 25.9375C107.366 26.1037 107.216 26.2865 107.084 26.4858C106.668 26.9843 106.369 27.3083 106.186 27.4578C106.004 27.6074 105.846 27.7486 105.713 27.8815C105.364 28.2305 104.965 28.5129 104.516 28.7289C104.068 28.9283 103.644 29.0446 103.245 29.0778C102.847 29.0945 102.531 29.0197 102.298 28.8535C101.783 28.5877 101.526 28.1391 101.526 27.5077C101.526 27.3748 101.501 27.2585 101.451 27.1588C101.418 27.0425 101.401 26.9843 101.401 26.9843C101.335 26.9843 101.243 27.0009 101.127 27.0341C101.027 27.0674 100.919 27.1837 100.803 27.3831C100.653 27.6655 100.396 27.9563 100.03 28.2554C99.6814 28.5378 99.3242 28.7788 98.9586 28.9782C98.5931 29.1609 98.3106 29.2523 98.1112 29.2523ZM117.192 29.9003C116.943 29.9003 116.702 29.8255 116.47 29.676C116.237 29.5098 116.046 29.2855 115.896 29.0031C115.747 28.704 115.672 28.3551 115.672 27.9563C115.672 27.7071 115.714 27.3581 115.797 26.9095C115.896 26.4443 116.038 25.8628 116.22 25.1649C116.254 24.9323 116.279 24.7828 116.295 24.7163C116.328 24.6498 116.345 24.5834 116.345 24.5169C116.345 24.4837 116.337 24.4588 116.32 24.4421C116.32 24.4089 116.303 24.3923 116.27 24.3923C116.137 24.3923 115.955 24.4837 115.722 24.6664C115.506 24.8326 115.257 25.032 114.974 25.2646C114.924 25.2978 114.866 25.3394 114.8 25.3892C114.75 25.4391 114.692 25.4889 114.625 25.5388C114.575 25.5886 114.517 25.6385 114.451 25.6883C114.285 25.788 114.027 25.9791 113.678 26.2615C113.346 26.544 112.997 26.8431 112.631 27.1588C112.283 27.4745 111.975 27.7403 111.709 27.9563C111.576 28.056 111.46 28.1391 111.36 28.2055C111.277 28.272 111.219 28.3052 111.186 28.3052C111.153 28.3052 111.02 28.2637 110.787 28.1806C110.571 28.0809 110.355 27.948 110.139 27.7818C109.94 27.5991 109.84 27.3914 109.84 27.1588C109.84 27.0092 109.898 26.7101 110.015 26.2615C110.147 25.8129 110.33 25.2812 110.563 24.6664C110.795 24.0517 111.061 23.4286 111.36 22.7972C111.427 22.6477 111.477 22.4483 111.51 22.1991C111.543 21.9498 111.576 21.7089 111.61 21.4763C111.659 21.2271 111.743 21.0443 111.859 20.928C111.909 20.8449 111.967 20.7867 112.033 20.7535C112.116 20.7037 112.199 20.6787 112.283 20.6787C112.449 20.6787 112.607 20.7203 112.756 20.8034C112.906 20.8698 113.047 20.9861 113.18 21.1523C113.429 21.4181 113.562 21.7338 113.579 22.0994C113.612 22.4483 113.587 22.7889 113.504 23.1212C113.421 23.4535 113.329 23.7277 113.23 23.9437C113.13 24.1431 113.08 24.2261 113.08 24.1929C113.147 24.1597 113.238 24.0766 113.354 23.9437C113.487 23.8108 113.711 23.6529 114.027 23.4701C114.459 23.1378 114.791 22.9052 115.024 22.7723C115.257 22.6228 115.431 22.5148 115.547 22.4483C115.68 22.3818 115.797 22.3071 115.896 22.224C115.979 22.1575 116.038 22.116 116.071 22.0994C116.121 22.0828 116.146 22.0744 116.146 22.0744C116.195 22.0744 116.279 22.0412 116.395 21.9748C116.528 21.9083 116.652 21.8751 116.769 21.8751C116.935 21.8751 117.109 21.9166 117.292 21.9997C117.475 22.0661 117.633 22.1658 117.766 22.2988C117.899 22.4151 117.965 22.5397 117.965 22.6726C117.965 22.7224 117.982 22.764 118.015 22.7972C118.048 22.8304 118.081 22.872 118.115 22.9218C118.198 23.0215 118.289 23.1628 118.389 23.3455C118.505 23.5117 118.563 23.7858 118.563 24.168C118.563 24.4338 118.505 24.8243 118.389 25.3394C118.272 25.8545 118.148 26.3612 118.015 26.8597C117.882 27.3748 117.815 27.7901 117.815 28.1058C117.832 28.4049 117.865 28.6375 117.915 28.8037C117.965 28.9532 117.99 29.0778 117.99 29.1775C117.99 29.3105 117.923 29.4683 117.791 29.6511C117.658 29.8172 117.458 29.9003 117.192 29.9003ZM120.856 30.7477C120.64 30.6646 120.465 30.5317 120.332 30.3489C120.199 30.1828 120.125 29.9335 120.108 29.6012C120.091 29.3852 120.1 29.0695 120.133 28.6542C120.166 28.2221 120.224 27.7901 120.307 27.3581C120.307 27.3249 120.307 27.2917 120.307 27.2585C120.324 27.2086 120.332 27.1754 120.332 27.1588C120.349 27.0923 120.366 26.9926 120.382 26.8597C120.399 26.7101 120.415 26.5938 120.432 26.5108C120.465 26.4111 120.482 26.4028 120.482 26.4858L120.631 25.8129C120.698 25.5138 120.773 25.2065 120.856 24.8908C120.939 24.5751 121.014 24.3009 121.08 24.0683C121.163 23.8191 121.213 23.6778 121.23 23.6446C121.23 23.6446 121.254 23.5532 121.304 23.3704C121.371 23.1711 121.437 22.9717 121.504 22.7723C121.77 21.9415 122.019 21.252 122.251 20.7037C122.501 20.1554 122.717 19.7566 122.899 19.5074C122.916 19.4575 122.941 19.3994 122.974 19.3329C123.007 19.2498 123.032 19.1834 123.049 19.1335C123.049 18.9507 123.057 18.8178 123.074 18.7347C123.107 18.6517 123.149 18.5769 123.199 18.5104C123.232 18.444 123.282 18.3609 123.348 18.2612C123.415 18.1449 123.489 18.0037 123.572 17.8375L123.672 17.5634C123.772 17.3474 123.896 17.0981 124.046 16.8157C124.195 16.5166 124.303 16.2923 124.37 16.1427C124.42 15.9932 124.519 15.8187 124.669 15.6194C124.819 15.4034 124.985 15.2621 125.167 15.1957L125.143 15.1707C125.226 15.0212 125.383 14.9049 125.616 14.8218C125.849 14.7221 126.04 14.6723 126.189 14.6723C126.422 14.6723 126.596 14.7387 126.713 14.8717C126.846 15.0046 126.912 15.1874 126.912 15.42C126.912 15.6692 126.904 15.852 126.887 15.9683C126.887 16.068 126.829 16.1843 126.713 16.3172H126.738C126.771 16.284 126.763 16.3338 126.713 16.4667C126.663 16.5997 126.621 16.691 126.588 16.7409C126.555 16.824 126.513 16.9154 126.463 17.015C126.43 17.1147 126.389 17.1895 126.339 17.2394C126.289 17.3058 126.156 17.5384 125.94 17.9372C125.724 18.3194 125.483 18.7763 125.217 19.308C124.951 19.8231 124.694 20.3298 124.445 20.8283C124.212 21.3101 124.046 21.684 123.946 21.9498L123.822 22.3237C123.805 22.3901 123.797 22.44 123.797 22.4732C123.747 22.5895 123.697 22.7058 123.647 22.8221C123.597 22.9384 123.547 23.0381 123.498 23.1212L123.099 24.6664L122.999 25.1898L122.775 25.7631L122.625 26.2366C122.592 26.3363 122.567 26.4443 122.551 26.5606C122.534 26.6769 122.501 26.76 122.451 26.8098C122.451 26.8265 122.443 26.8514 122.426 26.8846C122.426 26.9012 122.426 26.9178 122.426 26.9345C122.359 27.2003 122.243 27.5741 122.077 28.056C121.927 28.5378 121.836 29.0695 121.803 29.6511C121.803 29.6677 121.794 29.6843 121.778 29.7009C121.778 29.7175 121.778 29.7342 121.778 29.7508C121.728 30.0997 121.62 30.3655 121.454 30.5483C121.304 30.7477 121.105 30.8142 120.856 30.7477ZM127.479 29.8006C127.13 29.8671 126.864 29.8505 126.681 29.7508C126.515 29.6345 126.341 29.4932 126.158 29.3271C125.892 29.1942 125.651 29.0114 125.435 28.7788C125.219 28.5295 125.053 28.272 124.937 28.0061C124.82 27.7403 124.77 27.5326 124.787 27.3831C124.837 26.8015 124.97 26.1701 125.186 25.4889C125.418 24.8077 125.709 24.1431 126.058 23.4951C126.424 22.8471 126.831 22.2738 127.279 21.7754C127.745 21.2603 128.243 20.8864 128.775 20.6538C129.107 20.5209 129.464 20.4711 129.846 20.5043C130.229 20.5375 130.486 20.6954 130.619 20.9778C130.868 21.4597 130.81 21.7671 130.445 21.9C130.395 21.9 130.337 21.9249 130.27 21.9748C130.204 22.008 130.17 22.0578 130.17 22.1243C130.237 22.1575 130.42 22.1658 130.719 22.1492C131.018 22.116 131.317 22.0661 131.616 21.9997C131.932 21.9166 132.139 21.8335 132.239 21.7504C132.339 21.7006 132.413 21.6757 132.463 21.6757C132.513 21.6757 132.638 21.6923 132.837 21.7255C133.12 21.8086 133.261 21.9083 133.261 22.0246C133.261 22.0911 133.286 22.1991 133.336 22.3486C133.385 22.4815 133.444 22.548 133.51 22.548C133.626 22.5646 133.651 22.6809 133.585 22.8969C133.535 23.1129 133.344 23.3372 133.012 23.5698C132.696 23.7692 132.497 23.9021 132.413 23.9686C132.347 24.0184 132.339 24.1348 132.389 24.3175C132.521 24.6332 132.513 25.0154 132.364 25.464C132.214 25.9126 131.965 26.3778 131.616 26.8597C131.267 27.3415 130.852 27.7985 130.37 28.2305C129.905 28.6458 129.414 29.0031 128.899 29.3022C128.401 29.5846 127.927 29.7508 127.479 29.8006ZM127.553 27.7071C127.62 27.7071 127.736 27.6738 127.902 27.6074C128.069 27.5243 128.201 27.4578 128.301 27.408C128.368 27.3415 128.451 27.2668 128.55 27.1837C128.667 27.084 128.758 27.0258 128.825 27.0092C128.891 27.0092 128.933 26.9843 128.949 26.9345C128.966 26.868 129.024 26.7434 129.124 26.5606C129.223 26.3612 129.423 26.0705 129.722 25.6883C130.054 25.3228 130.27 25.032 130.37 24.816C130.469 24.5834 130.478 24.3341 130.395 24.0683C130.378 24.0018 130.328 23.9603 130.245 23.9437C130.179 23.9271 130.087 23.8855 129.971 23.8191C129.805 23.8191 129.689 23.8606 129.622 23.9437C129.572 24.0101 129.456 23.9686 129.273 23.8191L128.874 23.3206L128.451 23.7443C128.185 24.0101 127.944 24.3424 127.728 24.7412C127.529 25.14 127.371 25.5471 127.254 25.9625C127.138 26.3778 127.063 26.7434 127.03 27.0591C127.013 27.3083 127.055 27.4745 127.155 27.5575C127.254 27.6406 127.387 27.6905 127.553 27.7071ZM135.611 29.5514C135.412 29.6012 135.188 29.5431 134.938 29.3769C134.689 29.2108 134.465 29.0031 134.265 28.7538C134.066 28.5046 133.941 28.2803 133.892 28.0809C133.825 27.732 133.842 27.3083 133.941 26.8098C134.058 26.2948 134.249 25.7548 134.515 25.1898C134.78 24.6083 135.113 24.0434 135.512 23.4951C135.91 22.9301 136.359 22.4234 136.857 21.9748C137.356 21.5261 137.896 21.1772 138.477 20.928C138.727 20.7951 138.901 20.712 139.001 20.6787C139.1 20.6289 139.2 20.6289 139.3 20.6787C139.4 20.712 139.574 20.7951 139.823 20.928C140.056 20.9944 140.288 21.0775 140.521 21.1772C140.77 21.2603 140.986 21.4264 141.169 21.6757C141.302 21.9249 141.402 22.1741 141.468 22.4234C141.535 22.6726 141.593 22.9551 141.643 23.2708C141.776 23.6861 141.825 23.9603 141.792 24.0932C141.759 24.2095 141.709 24.3009 141.643 24.3674C141.51 24.5335 141.476 24.6166 141.543 24.6166C141.543 24.6166 141.535 24.6498 141.518 24.7163C141.518 24.7661 141.485 24.8492 141.418 24.9655C141.302 25.3311 141.211 25.68 141.144 26.0123C141.094 26.328 141.103 26.6105 141.169 26.8597C141.302 27.2252 141.476 27.4412 141.692 27.5077C141.925 27.5741 142.224 27.4246 142.59 27.0591C142.772 26.9261 142.98 26.8431 143.213 26.8098C143.445 26.76 143.562 26.8015 143.562 26.9345C143.562 26.9345 143.587 26.9594 143.636 27.0092C143.686 27.0425 143.744 27.0591 143.811 27.0591C143.894 27.0591 143.927 27.1421 143.911 27.3083C143.894 27.4578 143.861 27.6323 143.811 27.8317C143.761 28.0311 143.695 28.1972 143.612 28.3302C143.362 28.5794 143.238 28.7455 143.238 28.8286C143.238 28.8286 143.204 28.8618 143.138 28.9283C143.088 28.9782 142.997 29.0612 142.864 29.1775C142.565 29.3603 142.183 29.4517 141.717 29.4517C141.269 29.4517 140.92 29.3603 140.671 29.1775C140.421 28.9948 140.172 28.7705 139.923 28.5046C139.69 28.2388 139.541 27.9895 139.474 27.7569L139.35 27.5077L138.627 27.9812C138.444 28.164 138.311 28.3052 138.228 28.4049C138.145 28.488 138.07 28.5628 138.004 28.6292C137.954 28.6957 137.896 28.7538 137.829 28.8037C137.78 28.8535 137.721 28.8785 137.655 28.8785C137.588 28.8785 137.53 28.8785 137.48 28.8785C137.431 28.8785 137.406 28.8785 137.406 28.8785C137.406 28.9449 137.289 29.0363 137.057 29.1526C136.824 29.2523 136.567 29.3437 136.284 29.4268C136.002 29.5098 135.777 29.5514 135.611 29.5514ZM136.135 27.4578C136.234 27.4578 136.384 27.3997 136.583 27.2834C136.799 27.1505 137.032 26.9926 137.281 26.8098C137.53 26.6271 137.755 26.4443 137.954 26.2615C138.17 26.0788 138.328 25.9292 138.428 25.8129C138.494 25.7465 138.569 25.6385 138.652 25.4889C138.752 25.3394 138.86 25.2065 138.976 25.0901C139.358 24.6581 139.599 24.3175 139.699 24.0683C139.798 23.8024 139.757 23.52 139.574 23.2209C139.508 23.0381 139.424 22.9384 139.325 22.9218C139.225 22.9052 139.017 22.9634 138.702 23.0963C138.502 23.2126 138.286 23.4037 138.054 23.6695C137.821 23.9354 137.58 24.2344 137.331 24.5668C137.098 24.8991 136.882 25.2397 136.683 25.5886C136.484 25.9375 136.317 26.2532 136.184 26.5357C136.068 26.8181 136.01 27.0425 136.01 27.2086C136.01 27.2751 136.027 27.3332 136.06 27.3831C136.11 27.4329 136.135 27.4578 136.135 27.4578ZM151.411 30.4735C151.195 30.5234 150.979 30.4652 150.763 30.2991C150.564 30.1495 150.422 29.9834 150.339 29.8006C150.24 29.5348 150.173 29.2855 150.14 29.0529C150.123 28.8037 150.107 28.5212 150.09 28.2055L150.065 27.3581L149.043 28.2803C148.478 28.812 147.947 29.1942 147.448 29.4268C146.966 29.6428 146.526 29.7508 146.127 29.7508C145.945 29.7175 145.72 29.6012 145.454 29.4018C145.205 29.1858 144.973 28.9532 144.757 28.704C144.557 28.4382 144.416 28.2221 144.333 28.056C144.233 27.8234 144.2 27.4994 144.233 27.084C144.283 26.6686 144.383 26.2117 144.532 25.7132C144.698 25.2148 144.898 24.7246 145.13 24.2428C145.38 23.7609 145.662 23.3455 145.978 22.9966C146.526 22.1658 147.207 21.6508 148.022 21.4514C148.836 21.2354 149.558 21.3018 150.19 21.6508C150.489 21.8003 150.705 21.8584 150.838 21.8252C150.971 21.792 151.054 21.684 151.087 21.5012C151.154 21.2354 151.228 20.9861 151.311 20.7535C151.394 20.5209 151.511 20.172 151.66 19.7067C152.076 18.444 152.433 17.4554 152.732 16.7409C153.048 16.0264 153.33 15.4034 153.579 14.8717C153.762 14.4895 153.945 14.2237 154.128 14.0741C154.31 13.9246 154.468 13.8581 154.601 13.8747C154.784 13.8747 155.008 13.9412 155.274 14.0741C155.557 14.207 155.739 14.3898 155.822 14.6224C155.889 14.772 155.914 14.9298 155.897 15.096C155.897 15.2621 155.847 15.4366 155.748 15.6194C155.532 16.0181 155.274 16.5498 154.975 17.2144C154.693 17.8624 154.402 18.5769 154.103 19.3578C153.82 20.1387 153.554 20.9114 153.305 21.6757C153.056 22.44 152.848 23.1129 152.682 23.6944C152.582 24.06 152.499 24.5252 152.433 25.0901C152.383 25.6551 152.342 26.2366 152.308 26.8348C152.292 27.4163 152.292 27.9397 152.308 28.4049C152.325 28.8535 152.35 29.1443 152.383 29.2772C152.483 29.6095 152.483 29.8588 152.383 30.0249C152.283 30.1911 152.142 30.2991 151.959 30.3489C151.777 30.4154 151.594 30.4569 151.411 30.4735ZM147.299 27.4578C147.531 27.3748 147.739 27.2751 147.922 27.1588C148.105 27.0425 148.321 26.8929 148.57 26.7101C149.068 26.328 149.426 25.9957 149.642 25.7132C149.874 25.4308 150.057 25.0818 150.19 24.6664C150.273 24.4172 150.273 24.2012 150.19 24.0184C150.123 23.8357 149.999 23.6612 149.816 23.4951C149.633 23.3455 149.401 23.2874 149.118 23.3206C148.836 23.3372 148.512 23.5117 148.146 23.844C147.747 24.2095 147.407 24.6332 147.124 25.1151C146.842 25.5969 146.609 26.2865 146.426 27.1837C146.393 27.3498 146.451 27.4661 146.601 27.5326C146.75 27.5991 146.983 27.5741 147.299 27.4578ZM74.1796 51.1465C73.731 50.8142 73.382 50.3406 73.1328 49.7258C72.9002 49.0945 72.7922 48.5129 72.8088 47.9812C72.7922 46.9511 72.8753 45.8877 73.058 44.7911C73.2574 43.6944 73.515 42.6726 73.8307 41.7255C74.0467 41.1274 74.2793 40.5209 74.5285 39.9061C74.7777 39.2914 75.0353 38.7098 75.3011 38.1615C75.567 37.5966 75.8245 37.123 76.0737 36.7409C76.5888 35.8603 77.1122 35.1541 77.6439 34.6224C78.1922 34.0907 78.6076 33.7418 78.89 33.5757C79.3553 33.343 79.9119 33.1686 80.5599 33.0523C81.2079 32.9193 81.8393 32.9193 82.4541 33.0523C82.8861 33.1686 83.3097 33.3347 83.7251 33.5507C84.1571 33.7667 84.531 34.0326 84.8467 34.3483C85.0294 34.5144 85.1707 34.6889 85.2704 34.8717C85.3701 35.0544 85.4199 35.2455 85.4199 35.4449C85.4199 35.6941 85.3036 35.935 85.071 36.1677C84.8384 36.4003 84.5808 36.5581 84.2984 36.6412C84.0159 36.7243 83.7999 36.6744 83.6504 36.4917C83.4344 36.1594 83.2267 35.9101 83.0273 35.744C82.8279 35.5612 82.6202 35.4283 82.4042 35.3452C82.2214 35.2289 81.9722 35.1707 81.6565 35.1707C81.3574 35.1707 81.0334 35.2289 80.6845 35.3452C80.3356 35.4449 80.0033 35.6277 79.6876 35.8935C79.5713 35.9932 79.4134 36.1344 79.214 36.3172C79.0313 36.5 78.8319 36.7243 78.6159 36.9901C78.4165 37.2394 78.2337 37.5135 78.0676 37.8126C77.6024 38.5769 77.2036 39.3578 76.8713 40.1554C76.5556 40.9363 76.2731 41.792 76.0239 42.7224C75.9076 43.1046 75.783 43.5781 75.65 44.1431C75.5171 44.6914 75.3925 45.2397 75.2762 45.788C75.1765 46.3363 75.11 46.8181 75.0768 47.2335C75.027 47.8151 75.0436 48.272 75.1267 48.6043C75.2097 48.9366 75.3842 49.1609 75.65 49.2772C75.9159 49.3769 76.2897 49.3686 76.7716 49.2523C77.2036 49.1526 77.6356 48.9865 78.0676 48.7538C78.5162 48.5046 78.9482 48.1972 79.3636 47.8317C79.779 47.4495 80.1528 47.0009 80.4851 46.4858C80.7842 45.9209 81.0251 45.4058 81.2079 44.9406C81.4073 44.4754 81.507 44.1098 81.507 43.844C81.5236 43.5615 81.3824 43.4286 81.0833 43.4452C80.402 43.4618 79.8537 43.4369 79.4384 43.3704C79.0396 43.304 78.7654 43.1378 78.6159 42.872C78.3999 42.8221 78.2836 42.6394 78.267 42.3237C78.267 42.008 78.4248 41.7504 78.7405 41.5511C79.023 41.4015 79.4134 41.3101 79.9119 41.2769C80.4104 41.2437 80.9171 41.2603 81.4322 41.3268C81.9639 41.3766 82.3876 41.4929 82.7033 41.6757C83.0688 41.8584 83.3181 42.1326 83.451 42.4981C83.6005 42.8471 83.6753 43.2209 83.6753 43.6197C83.6919 44.0184 83.667 44.3923 83.6005 44.7412C83.451 45.3228 83.2433 45.8877 82.9774 46.436C82.7282 46.9843 82.3876 47.5409 81.9556 48.1058C81.7064 48.4548 81.3657 48.8203 80.9337 49.2025C80.5017 49.5846 80.0448 49.9252 79.563 50.2243C79.0977 50.54 78.6574 50.7892 78.242 50.972C77.5774 51.2711 76.8796 51.4871 76.1485 51.62C75.434 51.7529 74.7777 51.5951 74.1796 51.1465ZM90.9065 49.9502C90.7403 49.784 90.6074 49.5597 90.5077 49.2772C90.408 48.9782 90.3083 48.6375 90.2087 48.2554C90.1754 48.1225 90.1588 47.9729 90.1588 47.8068C90.1754 47.6406 90.1754 47.5077 90.1588 47.408C90.109 47.5243 90.0259 47.6738 89.9096 47.8566C89.8099 48.0394 89.7102 48.1723 89.6105 48.2554C89.544 48.3218 89.3945 48.4548 89.1619 48.6542C88.9293 48.8369 88.6966 48.9865 88.464 49.1028C87.9157 49.4517 87.4256 49.6178 86.9936 49.6012C86.5782 49.568 86.2126 49.352 85.897 48.9532C85.6311 48.7372 85.4151 48.4631 85.2489 48.1308C85.0828 47.7985 85.0496 47.3997 85.1493 46.9345C85.1825 46.3529 85.2656 45.788 85.3985 45.2397C85.5314 44.6748 85.8056 43.9271 86.221 42.9966C86.5699 42.3154 86.8357 41.7837 87.0185 41.4015C87.2013 41.0194 87.3176 40.7951 87.3674 40.7286C87.6166 40.6455 87.924 40.6538 88.2896 40.7535C88.6551 40.8366 88.8545 40.9944 88.8877 41.2271C88.9874 41.3932 88.9874 41.7089 88.8877 42.1741C88.788 42.6228 88.5886 43.1378 88.2896 43.7194C88.057 44.2843 87.8326 44.8326 87.6166 45.3643C87.4173 45.896 87.2926 46.3446 87.2428 46.7101C87.2096 47.0757 87.3093 47.3 87.5419 47.3831C87.6914 47.4661 87.9074 47.4578 88.1899 47.3581C88.489 47.2585 88.8379 46.9594 89.2367 46.4609C89.6354 45.9625 90.0591 45.1732 90.5077 44.0932C90.6407 43.7609 90.7403 43.4701 90.8068 43.2209C90.8733 42.9551 90.9148 42.6643 90.9314 42.3486C90.8982 42.1492 90.948 41.9415 91.081 41.7255C91.2305 41.5095 91.405 41.3434 91.6043 41.2271C91.6708 41.144 91.7622 41.0692 91.8785 41.0027C91.9948 40.9197 92.0696 40.9197 92.1028 41.0027L92.5016 40.9778C92.568 40.9612 92.6428 41.0277 92.7259 41.1772C92.809 41.3268 92.892 41.4348 92.9751 41.5012C93.1579 41.6508 93.241 41.9748 93.2244 42.4732C93.2077 42.9717 93.0084 43.6695 92.6262 44.5668C92.3105 45.248 92.0945 45.7631 91.9782 46.112C91.8785 46.4609 91.8203 46.8015 91.8037 47.1338C91.8037 47.4329 91.8287 47.6905 91.8785 47.9065C91.9283 48.1058 92.0779 48.3135 92.3271 48.5295C92.5099 48.6458 92.6096 48.8452 92.6262 49.1277C92.6594 49.3935 92.6677 49.6262 92.6511 49.8255C92.6179 49.9751 92.485 50.0748 92.2523 50.1246C92.0363 50.1911 91.7954 50.2077 91.5296 50.1745C91.2803 50.1412 91.0727 50.0665 90.9065 49.9502ZM96.0187 49.9751C95.6199 49.9751 95.271 49.7674 94.9719 49.352C94.6894 48.92 94.515 48.4049 94.4485 47.8068C94.4651 47.6738 94.4817 47.4828 94.4983 47.2335C94.5316 46.9843 94.5648 46.7268 94.598 46.4609C94.6645 46.1452 94.7559 45.7381 94.8722 45.2397C94.9885 44.7412 95.1131 44.2428 95.246 43.7443C95.379 43.2292 95.4953 42.7889 95.595 42.4234C95.6947 42.0412 95.7528 41.8169 95.7694 41.7504C95.8691 41.5178 96.0934 41.4597 96.4424 41.576C96.7913 41.6923 97.0904 41.9415 97.3396 42.3237C97.4393 42.4566 97.4974 42.6144 97.514 42.7972C97.5473 42.98 97.5224 43.2458 97.4393 43.5948C97.3728 43.9437 97.2399 44.4588 97.0405 45.14C96.8577 45.8046 96.7165 46.3446 96.6168 46.76C96.5337 47.1588 96.5005 47.5825 96.5171 48.0311C96.4507 48.7954 96.3842 49.3188 96.3177 49.6012C96.2513 49.8671 96.1516 49.9917 96.0187 49.9751ZM98.3116 39.632C98.2451 39.6818 98.1787 39.7067 98.1122 39.7067C98.0624 39.6901 97.971 39.6403 97.838 39.5572C97.7217 39.5406 97.5722 39.4658 97.3894 39.3329C97.2233 39.1834 97.0737 39.0338 96.9408 38.8843C96.8245 38.7347 96.7664 38.6434 96.7664 38.6101C96.7497 38.444 96.758 38.1781 96.7913 37.8126C96.8411 37.447 96.9325 37.1064 97.0654 36.7907C97.215 36.4584 97.4144 36.284 97.6636 36.2674C97.73 36.2674 97.8713 36.3006 98.0873 36.367C98.3199 36.4335 98.5608 36.5166 98.8101 36.6163C98.943 36.8655 99.0676 37.1895 99.1839 37.5883C99.3002 37.9871 99.3085 38.3775 99.2088 38.7597C99.1257 39.1252 98.8267 39.416 98.3116 39.632ZM106.294 49.9751C106.045 49.9917 105.812 50 105.596 50C105.397 50 105.239 49.9668 105.123 49.9003C104.824 49.6511 104.624 49.4517 104.525 49.3022C104.442 49.1526 104.4 48.9865 104.4 48.8037C104.417 48.5711 104.425 48.3385 104.425 48.1058C104.425 47.8566 104.425 47.6655 104.425 47.5326C104.359 47.4661 104.226 47.5409 104.026 47.7569C103.827 47.9729 103.594 48.1806 103.328 48.38C102.813 48.9615 102.356 49.3852 101.958 49.6511C101.559 49.9003 101.193 50.0415 100.861 50.0748C100.529 50.1246 100.196 50.1329 99.864 50.0997C99.565 50.0665 99.2991 49.9169 99.0665 49.6511C98.8505 49.3852 98.6843 49.0612 98.568 48.6791C98.4683 48.2969 98.4351 47.9231 98.4683 47.5575C98.5514 46.8763 98.7009 46.2615 98.9169 45.7132C99.133 45.1483 99.457 44.5584 99.889 43.9437C100.088 43.6778 100.354 43.3871 100.686 43.0714C101.035 42.7557 101.409 42.4649 101.808 42.1991C102.207 41.9166 102.564 41.7172 102.88 41.6009C103.362 41.3849 103.76 41.2852 104.076 41.3018C104.408 41.3184 104.732 41.3683 105.048 41.4514C105.281 41.5677 105.463 41.6258 105.596 41.6258C105.746 41.6258 105.854 41.5428 105.92 41.3766C106.02 41.2437 106.095 41.0775 106.145 40.8781C106.195 40.6787 106.278 40.4877 106.394 40.3049L106.942 38.6849C107.125 38.2363 107.341 37.7212 107.59 37.1397C107.839 36.5581 108.122 35.9101 108.438 35.1957C108.82 34.5477 109.144 34.207 109.41 34.1738C109.692 34.1406 109.983 34.2901 110.282 34.6224C110.481 34.8218 110.589 35.071 110.606 35.3701C110.639 35.6526 110.564 35.9849 110.382 36.367C110.265 36.5498 110.141 36.7824 110.008 37.0649C109.875 37.3307 109.717 37.6464 109.534 38.012C109.351 38.444 109.16 38.876 108.961 39.308C108.778 39.74 108.587 40.2135 108.388 40.7286C108.321 40.9944 108.23 41.3018 108.114 41.6508C108.014 41.9997 107.931 42.3154 107.864 42.5978C107.815 42.8637 107.756 43.1129 107.69 43.3455C107.64 43.5615 107.582 43.6695 107.515 43.6695C107.383 43.7858 107.258 44.0351 107.142 44.4172C107.025 44.7828 106.926 45.1732 106.843 45.5886C106.776 46.004 106.718 46.3446 106.668 46.6105C106.635 46.8098 106.61 47.0923 106.593 47.4578C106.577 47.8068 106.568 48.1474 106.568 48.4797C106.568 48.7954 106.568 49.0114 106.568 49.1277C106.568 49.4434 106.543 49.6677 106.494 49.8006C106.46 49.9169 106.394 49.9751 106.294 49.9751ZM100.662 48.0061C101.044 48.0061 101.401 47.8483 101.733 47.5326C102.082 47.2003 102.464 46.8514 102.88 46.4858C103.129 46.2366 103.386 45.9625 103.652 45.6634C103.918 45.3477 104.159 45.0403 104.375 44.7412C104.608 44.4421 104.791 44.1846 104.923 43.9686C105.056 43.7526 105.123 43.6114 105.123 43.5449C105.123 43.4618 105.056 43.3871 104.923 43.3206C104.807 43.2541 104.666 43.2043 104.5 43.1711C104.334 43.1212 104.184 43.1129 104.051 43.1461C103.652 43.2624 103.328 43.4369 103.079 43.6695C102.846 43.9021 102.506 44.2677 102.057 44.7661C101.609 45.3145 101.251 45.8378 100.986 46.3363C100.72 46.8348 100.554 47.2418 100.487 47.5575C100.437 47.8566 100.495 48.0061 100.662 48.0061ZM110.839 49.7757C110.191 49.5098 109.742 49.0778 109.493 48.4797C109.244 47.8815 109.177 47.084 109.294 46.0871C109.327 45.572 109.31 45.2314 109.244 45.0652C109.177 44.8825 109.053 44.708 108.87 44.5418C108.82 44.4754 108.704 44.3674 108.521 44.2178C108.338 44.0517 108.255 43.9271 108.272 43.844C108.255 43.7277 108.28 43.5864 108.346 43.4203C108.413 43.2375 108.471 43.1378 108.521 43.1212C108.637 43.0714 108.754 43.0132 108.87 42.9468C109.003 42.8803 109.102 42.8637 109.169 42.8969C109.235 42.8969 109.335 42.9384 109.468 43.0215C109.618 43.1046 109.692 43.1794 109.692 43.2458C109.759 43.3621 109.858 43.3123 109.991 43.0963C110.141 42.8803 110.299 42.6061 110.465 42.2738C110.631 42.008 110.839 41.7588 111.088 41.5261C111.337 41.2935 111.586 41.0858 111.836 40.9031C112.102 40.7037 112.326 40.5541 112.509 40.4544C112.592 40.4212 112.75 40.3714 112.982 40.3049C113.231 40.2384 113.489 40.1886 113.755 40.1554C114.021 40.1055 114.22 40.0889 114.353 40.1055C114.652 40.1221 114.968 40.2467 115.3 40.4794C115.632 40.712 115.89 40.928 116.073 41.1274C116.289 41.2769 116.43 41.5095 116.496 41.8252C116.579 42.1243 116.613 42.44 116.596 42.7723C116.579 43.1046 116.513 43.3871 116.397 43.6197C116.347 43.7858 116.172 44.0184 115.873 44.3175C115.574 44.6166 115.242 44.9074 114.876 45.1898C114.527 45.4557 114.228 45.6385 113.979 45.7381C113.763 45.788 113.506 45.8295 113.206 45.8628C112.907 45.8794 112.625 45.8794 112.359 45.8628C112.11 45.8295 111.935 45.788 111.836 45.7381C111.719 45.6717 111.62 45.6966 111.537 45.8129C111.47 45.9126 111.412 46.1951 111.362 46.6603C111.346 46.8431 111.346 47.0009 111.362 47.1338C111.395 47.2668 111.429 47.3665 111.462 47.4329C111.578 47.6323 111.694 47.7818 111.811 47.8815C111.927 47.9646 112.143 47.9895 112.459 47.9563C112.774 47.9231 113.09 47.732 113.406 47.3831C113.738 47.0175 114.037 46.7268 114.303 46.5108C114.37 46.3945 114.511 46.3197 114.727 46.2865C114.959 46.2366 115.234 46.2532 115.549 46.3363C115.732 46.4526 115.815 46.6354 115.798 46.8846C115.798 47.1338 115.666 47.4994 115.4 47.9812C115.35 48.0975 115.209 48.272 114.976 48.5046C114.76 48.7206 114.519 48.9449 114.253 49.1775C114.004 49.3935 113.796 49.5514 113.63 49.6511C113.132 49.9169 112.642 50.0415 112.16 50.0249C111.678 50.0083 111.238 49.9252 110.839 49.7757ZM112.683 44.168C112.932 44.1015 113.14 44.0351 113.306 43.9686C113.489 43.9021 113.663 43.7941 113.83 43.6446C113.996 43.4951 114.187 43.2708 114.403 42.9717C114.469 42.7889 114.502 42.6311 114.502 42.4981C114.519 42.3652 114.511 42.2821 114.478 42.2489C114.345 42.116 114.195 42.0744 114.029 42.1243C113.879 42.1575 113.713 42.2406 113.53 42.3735C113.414 42.4234 113.248 42.5314 113.032 42.6975C112.833 42.8471 112.633 43.0215 112.434 43.2209C112.251 43.4037 112.102 43.5781 111.985 43.7443C111.886 43.8938 111.869 43.9852 111.935 44.0184C111.902 44.0849 111.994 44.1264 112.21 44.1431C112.442 44.1597 112.6 44.168 112.683 44.168Z" fill="black"/>
</svg>
