<svg width="254" height="254" viewBox="0 0 254 254" fill="none" xmlns="http://www.w3.org/2000/svg">
<g clip-path="url(#clip0_3738_11277)">
<rect x="7" y="7" width="240" height="240" rx="92" fill="#FFF9EE"/>
<path d="M304.009 115.13C303.711 114.832 304.033 114.172 304.723 113.664C306.589 112.291 307.405 112.751 305.877 114.315C305.147 115.062 304.306 115.429 304.009 115.13Z" fill="#F2B667"/>
<path d="M305.931 118.678C305.465 118.572 305.168 118.117 305.271 117.668C305.374 117.219 305.616 116.888 305.81 116.932C306.005 116.977 306.301 117.431 306.47 117.943C306.639 118.454 306.396 118.785 305.931 118.678Z" fill="#F2B667"/>
<path d="M298.76 125.361C298.572 125.055 298.745 124.467 299.145 124.055C300.075 123.094 302.237 123.566 301.984 124.674C301.76 125.652 299.264 126.183 298.76 125.361Z" fill="#F2B667"/>
<path d="M299.093 137.301C298.59 137.478 298.267 137.233 298.376 136.758C298.484 136.283 298.933 135.976 299.373 136.077C299.813 136.177 300.136 136.421 300.091 136.62C300.045 136.818 299.596 137.124 299.093 137.301Z" fill="#F2B667"/>
<path d="M300.178 139.697C299.712 139.591 299.637 139.187 300.012 138.8C300.387 138.413 300.852 138.133 301.046 138.178C301.24 138.222 301.314 138.626 301.212 139.075C301.109 139.524 300.643 139.804 300.178 139.697Z" fill="#F2B667"/>
<path d="M291.083 158.804C290.857 158.437 291.364 157.329 292.21 156.341C293.054 155.354 294.045 154.616 294.411 154.699C295.54 154.958 294.815 156.299 293.434 156.505C292.715 156.612 291.984 157.323 291.81 158.086C291.635 158.848 291.308 159.172 291.083 158.804Z" fill="#F2B667"/>
<path d="M292.573 161.492C292.259 161.177 292.082 160.574 292.179 160.151C292.275 159.728 292.654 159.452 293.021 159.535C293.388 159.619 293.565 160.223 293.415 160.877C293.266 161.531 292.887 161.807 292.573 161.492Z" fill="#F2B667"/>
<path d="M290.081 164.017C289.886 163.972 289.59 163.518 289.421 163.007C289.252 162.496 289.495 162.165 289.96 162.271C290.426 162.378 290.723 162.832 290.62 163.281C290.517 163.73 290.275 164.061 290.081 164.017Z" fill="#F2B667"/>
<path d="M291.415 166.028C290.844 165.888 291.017 165.59 291.846 165.28C293.614 164.618 293.891 164.681 293.046 165.555C292.671 165.941 291.937 166.154 291.415 166.028Z" fill="#F2B667"/>
<path d="M288.131 168.129C287.22 168.714 286.182 167.451 286.934 166.674C287.283 166.314 287.906 166.096 288.321 166.191C289.18 166.388 289.069 167.526 288.131 168.129Z" fill="#F2B667"/>
<path d="M287.193 172.822C286.653 172.101 286.243 171.373 286.282 171.204C286.491 170.289 287.809 171.435 287.978 172.677C288.143 173.894 288.013 173.918 287.193 172.822Z" fill="#F2B667"/>
<path d="M289.348 176.191C289.454 175.727 289.837 175.157 290.199 174.926C290.56 174.693 290.999 174.735 291.173 175.02C291.347 175.304 290.964 175.873 290.322 176.286C289.615 176.74 289.231 176.702 289.348 176.191Z" fill="#F2B667"/>
<path d="M285.797 176.781C285.331 176.675 285.256 176.271 285.631 175.884C286.006 175.498 286.47 175.217 286.665 175.262C286.859 175.306 286.933 175.71 286.831 176.159C286.728 176.608 286.262 176.888 285.797 176.781Z" fill="#F2B667"/>
<path d="M283.373 191.26C282.87 191.437 282.547 191.192 282.656 190.717C282.765 190.242 283.214 189.935 283.654 190.036C284.093 190.137 284.416 190.381 284.371 190.579C284.325 190.777 283.877 191.084 283.373 191.26Z" fill="#F2B667"/>
<path d="M279.674 200.522C278.701 201.141 278.631 201.027 279.331 199.963C279.816 199.227 280.367 198.876 280.555 199.184C280.744 199.491 280.348 200.093 279.674 200.522Z" fill="#F2B667"/>
<path d="M278.643 204.352C278.178 204.246 278.103 203.842 278.477 203.455C278.852 203.069 279.317 202.788 279.511 202.833C279.705 202.877 279.78 203.281 279.677 203.73C279.574 204.179 279.109 204.459 278.643 204.352Z" fill="#F2B667"/>
<path d="M276.027 215.78C275.561 215.674 275.486 215.27 275.861 214.883C276.236 214.497 276.701 214.216 276.895 214.261C277.089 214.305 277.163 214.709 277.061 215.158C276.958 215.607 276.492 215.887 276.027 215.78Z" fill="#F2B667"/>
<path d="M273.817 223.81C273.378 223.71 273.84 223.249 274.844 222.784C275.849 222.321 277.031 222.024 277.471 222.124C277.91 222.225 277.449 222.687 276.444 223.151C275.439 223.615 274.257 223.911 273.817 223.81Z" fill="#F2B667"/>
<path d="M275.691 226.872C275.497 226.827 275.2 226.373 275.031 225.861C274.862 225.35 275.105 225.019 275.571 225.126C276.036 225.232 276.333 225.687 276.231 226.136C276.128 226.585 275.885 226.916 275.691 226.872Z" fill="#F2B667"/>
<path d="M273.977 228.627C273.474 228.804 273.151 228.559 273.26 228.084C273.369 227.609 273.818 227.302 274.257 227.402C274.697 227.503 275.02 227.747 274.975 227.945C274.929 228.144 274.481 228.45 273.977 228.627Z" fill="#F2B667"/>
<path d="M272.715 233.922C272.25 233.815 272.175 233.412 272.55 233.025C272.924 232.638 273.389 232.358 273.583 232.403C273.778 232.447 273.852 232.851 273.749 233.3C273.646 233.749 273.181 234.029 272.715 233.922Z" fill="#F2B667"/>
<path d="M271.336 237.015C270.225 236.738 270.304 236.561 271.854 235.845C274.137 234.791 274.304 234.833 273.384 236.223C272.977 236.838 272.055 237.195 271.336 237.015Z" fill="#F2B667"/>
<path d="M272.25 239.324C271.955 239.027 272.482 238.263 273.42 237.625C275.674 236.095 276.606 236.974 274.456 238.601C273.539 239.296 272.546 239.621 272.25 239.324Z" fill="#F2B667"/>
<path d="M276.113 241.572C275.647 241.466 275.35 241.011 275.453 240.562C275.556 240.113 275.798 239.782 275.992 239.827C276.187 239.871 276.483 240.326 276.652 240.837C276.821 241.348 276.578 241.679 276.113 241.572Z" fill="#F2B667"/>
<path d="M270.987 241.688C270.484 241.864 270.161 241.62 270.27 241.145C270.379 240.669 270.828 240.362 271.267 240.463C271.707 240.564 272.03 240.808 271.985 241.006C271.939 241.205 271.49 241.511 270.987 241.688Z" fill="#F2B667"/>
<path d="M275.718 244.918C275.058 244.767 274.589 244.338 274.674 243.964C274.76 243.589 275.37 243.407 276.029 243.558C276.689 243.709 277.159 244.138 277.073 244.513C276.988 244.887 276.378 245.069 275.718 244.918Z" fill="#F2B667"/>
<path d="M269.772 246.993C269.333 246.893 269.057 246.443 269.16 245.994C269.262 245.545 269.706 245.26 270.146 245.361C270.586 245.462 270.862 245.911 270.759 246.36C270.656 246.809 270.212 247.094 269.772 246.993Z" fill="#F2B667"/>
<path d="M267.55 251.639C267.14 251.545 267.624 250.883 268.625 250.167C269.626 249.451 270.747 248.935 271.114 249.019C271.482 249.103 270.998 249.765 270.039 250.491C269.08 251.216 267.96 251.733 267.55 251.639Z" fill="#F2B667"/>
<path d="M265.722 262.684C265.143 262.291 264.945 261.685 265.281 261.338C266.125 260.466 266.396 260.626 266.598 262.116C266.714 262.973 266.423 263.162 265.722 262.684Z" fill="#F2B667"/>
<path d="M265.562 267.193C266.182 267.616 266.987 267.42 267.44 266.737C267.875 266.079 268.553 265.614 268.945 265.704C269.982 265.941 269.694 266.501 267.8 267.934C266.202 269.144 263.974 268.646 264.315 267.156C264.403 266.77 264.964 266.786 265.562 267.193Z" fill="#F2B667"/>
<path d="M265.416 270.619C264.814 270.72 263.915 270.514 263.417 270.161C262.919 269.809 263.411 269.727 264.51 269.979C265.61 270.23 266.018 270.519 265.416 270.619Z" fill="#F2B667"/>
<path d="M266.889 273.126C266.485 273.719 266.34 273.482 266.519 272.522C266.682 271.654 266.981 271.215 267.184 271.547C267.388 271.879 267.255 272.59 266.889 273.126Z" fill="#F2B667"/>
<path d="M262.952 283.219C261.5 282.875 261.42 282.695 262.536 282.277C264.321 281.609 265.17 281.804 264.935 282.826C264.833 283.275 263.94 283.452 262.952 283.219Z" fill="#F2B667"/>
<path d="M263.648 286.827C263.454 286.783 263.157 286.328 262.988 285.817C262.819 285.306 263.062 284.975 263.528 285.081C263.993 285.188 264.291 285.643 264.188 286.092C264.085 286.541 263.843 286.872 263.648 286.827Z" fill="#F2B667"/>
<path d="M263.619 292.362C263.817 291.438 263.648 290.143 263.243 289.483C262.839 288.824 262.785 288.348 263.124 288.425C263.464 288.503 264.152 289.235 264.652 290.052C265.323 291.147 265.26 291.866 264.412 292.789C263.355 293.938 263.29 293.904 263.619 292.362Z" fill="#F2B667"/>
<path d="M262.176 293.882C261.849 294.092 261.152 293.963 260.629 293.595C260.051 293.189 260.285 293.039 261.225 293.213C262.076 293.371 262.504 293.671 262.176 293.882Z" fill="#F2B667"/>
<path d="M257.932 295.998C256.97 296.495 256.87 296.363 257.494 295.419C258.487 293.919 259.715 294.171 261.399 296.219C262.791 297.912 261.798 298.041 260.178 296.378C259.543 295.725 258.725 295.587 257.932 295.998Z" fill="#F2B667"/>
<path d="M258.799 298.603C258.359 298.502 258.083 298.053 258.186 297.604C258.289 297.155 258.733 296.87 259.173 296.97C259.612 297.071 259.888 297.521 259.785 297.97C259.683 298.419 259.239 298.704 258.799 298.603Z" fill="#F2B667"/>
<path d="M261.717 300.56C261.214 300.737 260.891 300.492 261 300.017C261.109 299.542 261.558 299.235 261.998 299.335C262.437 299.436 262.76 299.68 262.715 299.878C262.669 300.077 262.221 300.383 261.717 300.56Z" fill="#F2B667"/>
<path d="M257.579 301.12C256.624 300.713 256.127 300.087 256.474 299.728C257.246 298.932 257.932 299.07 259.081 300.253C260.371 301.581 258.577 303.715 256.604 303.201C255.019 302.787 255.054 302.726 257.109 302.308L259.316 301.86L257.579 301.12Z" fill="#F2B667"/>
<path d="M255.87 305.664C255.185 305.507 254.945 305.047 255.338 304.641C255.821 304.142 256.361 304.317 257.01 305.184C257.779 306.21 258.167 306.265 258.964 305.459C259.511 304.905 259.874 304.849 259.77 305.334C259.666 305.818 258.484 306.871 257.143 307.674C255.802 308.477 254.804 308.702 254.924 308.174C255.045 307.647 255.504 307.299 255.943 307.399C256.383 307.5 256.827 307.215 256.93 306.766C257.033 306.317 256.555 305.821 255.87 305.664Z" fill="#F2B667"/>
<path d="M255.381 313.533C254.448 313.566 253.76 313.261 253.853 312.853C253.946 312.447 254.742 312.279 255.622 312.48C256.502 312.681 257.189 312.987 257.15 313.159C257.11 313.331 256.314 313.499 255.381 313.533Z" fill="#F2B667"/>
<path d="M257.321 316.305C256.855 316.199 256.558 315.744 256.661 315.295C256.763 314.846 257.006 314.515 257.2 314.56C257.394 314.604 257.691 315.059 257.86 315.57C258.029 316.081 257.786 316.412 257.321 316.305Z" fill="#F2B667"/>
<path d="M255.889 319.136C255.819 318.691 256.328 318.121 257.021 317.869C259.167 317.088 259.571 317.604 257.751 318.802C256.798 319.43 255.96 319.58 255.889 319.136Z" fill="#F2B667"/>
<path d="M254.439 323.377C253.805 323.232 253.179 322.785 253.045 322.383C252.912 321.981 253.497 321.812 254.344 322.006C255.192 322.2 255.819 322.647 255.738 323C255.658 323.352 255.073 323.523 254.439 323.377Z" fill="#F2B667"/>
<path d="M251.133 334.99C249.694 335.999 249 335.643 250.131 334.476C250.53 334.063 251.21 333.806 251.641 333.905C252.073 334.004 251.844 334.492 251.133 334.99Z" fill="#F2B667"/>
<path d="M248.334 343.396C246.629 342.949 246.628 342.911 248.308 342.591C249.276 342.407 250.163 342.251 250.281 342.244C250.398 342.238 250.41 342.6 250.307 343.049C250.204 343.498 249.316 343.654 248.334 343.396Z" fill="#F2B667"/>
<path d="M245.925 353.214C245.24 353.057 244.763 352.561 244.865 352.112C244.968 351.663 245.391 351.373 245.805 351.468C246.219 351.563 246.696 352.059 246.865 352.57C247.034 353.081 246.611 353.371 245.925 353.214Z" fill="#F2B667"/>
<path d="M248.677 353.844C248.237 353.743 247.961 353.294 248.064 352.845C248.167 352.396 248.611 352.111 249.051 352.211C249.491 352.312 249.766 352.762 249.664 353.211C249.561 353.66 249.117 353.945 248.677 353.844Z" fill="#F2B667"/>
<path d="M247.641 357.205C247.237 357.797 247.092 357.56 247.271 356.6C247.433 355.732 247.733 355.294 247.936 355.625C248.139 355.957 248.007 356.668 247.641 357.205Z" fill="#F2B667"/>
<path d="M248.121 359.73C247.656 359.624 247.581 359.22 247.956 358.833C248.33 358.447 248.795 358.166 248.989 358.211C249.184 358.255 249.258 358.659 249.155 359.108C249.052 359.557 248.587 359.837 248.121 359.73Z" fill="#F2B667"/>
<path d="M248.878 363C248.55 363.21 247.853 363.081 247.331 362.713C246.752 362.307 246.986 362.157 247.927 362.331C248.778 362.489 249.205 362.789 248.878 363Z" fill="#F2B667"/>
<path d="M243.687 364.614C243.844 363.925 244.297 363.154 244.692 362.901C245.088 362.647 245.453 362.893 245.504 363.448C245.554 364.003 245.101 364.774 244.497 365.161C243.692 365.678 243.476 365.533 243.687 364.614Z" fill="#F2B667"/>
<path d="M245.407 368.129C244.903 368.306 244.581 368.061 244.689 367.586C244.798 367.111 245.247 366.804 245.687 366.905C246.127 367.005 246.45 367.249 246.404 367.448C246.359 367.646 245.91 367.952 245.407 368.129Z" fill="#F2B667"/>
<path d="M243.153 370.62C242.713 370.519 242.485 369.864 242.645 369.164C242.805 368.465 243.244 368.201 243.62 368.579C243.997 368.958 244.226 369.612 244.129 370.035C244.032 370.458 243.593 370.721 243.153 370.62Z" fill="#F2B667"/>
<path d="M243.222 377.672C242.976 378.745 241.312 377.657 241.194 376.346C241.135 375.704 241.543 375.606 242.251 376.089C242.885 376.522 243.322 377.233 243.222 377.672Z" fill="#F2B667"/>
<path d="M239.023 380.145C238.619 380.737 238.473 380.5 238.653 379.54C238.815 378.672 239.114 378.234 239.318 378.566C239.521 378.897 239.389 379.608 239.023 380.145Z" fill="#F2B667"/>
<path d="M242.463 380.771C241.997 380.664 241.922 380.261 242.297 379.874C242.672 379.487 243.137 379.207 243.331 379.252C243.525 379.296 243.599 379.7 243.497 380.149C243.394 380.597 242.928 380.877 242.463 380.771Z" fill="#F2B667"/>
<path d="M240.443 382.456C239.94 382.633 239.617 382.388 239.726 381.913C239.835 381.438 240.284 381.131 240.724 381.232C241.164 381.333 241.486 381.577 241.441 381.775C241.396 381.973 240.947 382.279 240.443 382.456Z" fill="#F2B667"/>
<path d="M243.222 385.24C242.757 385.134 242.459 384.679 242.562 384.23C242.665 383.781 242.907 383.45 243.102 383.494C243.296 383.539 243.593 383.993 243.762 384.505C243.931 385.016 243.688 385.347 243.222 385.24Z" fill="#F2B667"/>
<path d="M234.617 385.847C234.178 385.747 233.902 385.297 234.005 384.848C234.107 384.399 234.551 384.114 234.991 384.215C235.431 384.316 235.707 384.765 235.604 385.214C235.501 385.663 235.057 385.948 234.617 385.847Z" fill="#F2B667"/>
<path d="M239.368 386.935C238.903 386.829 238.828 386.425 239.203 386.038C239.577 385.651 240.042 385.371 240.236 385.416C240.431 385.46 240.505 385.864 240.402 386.313C240.299 386.762 239.834 387.042 239.368 386.935Z" fill="#F2B667"/>
<path d="M231.751 387.339C231.375 386.961 231.146 386.306 231.243 385.883C231.34 385.46 231.779 385.198 232.218 385.298C232.658 385.399 232.887 386.054 232.727 386.754C232.567 387.453 232.127 387.717 231.751 387.339Z" fill="#F2B667"/>
<path d="M239.682 391.173C239.12 391.554 237.88 389.979 238.074 389.132C238.175 388.691 238.652 388.92 239.135 389.64C239.618 390.36 239.864 391.05 239.682 391.173Z" fill="#F2B667"/>
<path d="M229.498 389.83C229.058 389.729 228.824 389.096 228.978 388.422C229.132 387.749 229.618 387.28 230.058 387.381C230.498 387.482 230.732 388.115 230.578 388.789C230.424 389.462 229.938 389.931 229.498 389.83Z" fill="#F2B667"/>
<path d="M233.885 391.287C233.429 390.022 233.102 388.791 233.157 388.55C233.425 387.378 234.766 388.671 234.884 390.217C234.957 391.185 235.401 391.844 235.868 391.68C236.335 391.515 236.633 391.749 236.53 392.198C236.125 393.967 234.67 393.467 233.885 391.287Z" fill="#F2B667"/>
<path d="M230.619 392.226C230.237 391.841 230.208 391.232 230.558 390.872C231.502 389.897 231.934 390.217 231.605 391.652C231.445 392.351 231.002 392.61 230.619 392.226Z" fill="#F2B667"/>
<path d="M8.12686 342.157C7.62349 342.334 7.34287 341.905 7.50302 341.206C7.66318 340.506 8.15423 340.016 8.59407 340.116C9.0339 340.217 9.31471 340.645 9.21791 341.068C9.12111 341.49 8.63024 341.98 8.12686 342.157Z" fill="#F2B667"/>
<path d="M108.223 368.047C108.492 368.859 109.319 368.715 111.152 367.539C112.558 366.636 114.313 366.037 115.053 366.207C116.144 366.457 115.942 366.807 113.974 368.07C110.571 370.254 107.2 370.655 106.372 368.974C105.891 367.997 105.998 367.565 106.786 367.287C107.371 367.082 108.017 367.424 108.223 368.047Z" fill="#F2B667"/>
<path d="M175.283 382.573C175.895 382.713 176.522 382.276 176.676 381.603C176.831 380.93 177.496 380.502 178.156 380.653C178.816 380.804 179.272 381.295 179.169 381.744C179.066 382.193 179.522 382.684 180.182 382.835C180.841 382.986 181.255 383.661 181.101 384.334C180.947 385.008 180.461 385.476 180.021 385.375C179.581 385.275 179.305 384.825 179.408 384.376C179.823 382.564 176.611 383.046 174.717 385.08C172.385 387.586 171.687 387.253 173.156 384.335C173.714 383.225 174.671 382.433 175.283 382.573Z" fill="#F2B667"/>
<path d="M232.775 395.735C232.243 395.024 231.888 394.095 231.985 393.669C232.083 393.243 232.576 393.569 233.082 394.393C233.587 395.218 233.943 396.147 233.871 396.459C233.8 396.771 233.306 396.445 232.775 395.735Z" fill="#F2B667"/>
<path d="M11.1922 345.645C10.5077 346.084 9.25403 344.586 9.47978 343.6C9.60387 343.058 10.0487 343.225 10.6609 344.043C11.201 344.765 11.4401 345.485 11.1922 345.645Z" fill="#F2B667"/>
<path d="M34.2875 351.153C32.8152 350.816 32.9629 349.45 34.4997 349.193C36.4039 348.875 36.8303 349.123 36.5423 350.38C36.2108 351.829 37.1074 352.177 38.6395 351.193C39.2433 350.806 40.0768 350.83 40.4922 351.247C41.5349 352.295 40.1231 353.572 38.868 352.717C38.2806 352.316 37.7335 352.529 37.5752 353.221C37.217 354.786 35.9232 354.471 35.6921 352.763C35.5936 352.032 34.9616 351.307 34.2875 351.153Z" fill="#F2B667"/>
<path d="M218.733 392.52C218.267 392.413 218.192 392.01 218.567 391.623C218.942 391.236 219.406 390.956 219.601 391C219.795 391.045 219.869 391.448 219.767 391.897C219.664 392.346 219.198 392.626 218.733 392.52Z" fill="#F2B667"/>
<path d="M228.024 394.647C227.829 394.602 227.533 394.148 227.364 393.637C227.195 393.125 227.438 392.795 227.903 392.901C228.369 393.008 228.666 393.462 228.563 393.911C228.461 394.36 228.218 394.691 228.024 394.647Z" fill="#F2B667"/>
<path d="M17.7754 347.802C17.3991 347.424 17.1753 346.747 17.2781 346.298C17.3809 345.849 17.7729 345.791 18.1492 346.17C18.5255 346.548 18.7493 347.225 18.6465 347.674C18.5437 348.122 18.1517 348.181 17.7754 347.802Z" fill="#F2B667"/>
<path d="M162.729 383.135C161.677 382.894 160.137 380.323 160.389 379.224C160.688 377.917 161.159 378.26 162.848 381.014C164.618 383.901 165.143 384.189 165.533 382.488C165.687 381.815 166.33 381.382 166.963 381.527C168.724 381.93 167.396 384.892 165.422 384.964C164.469 385 163.651 384.643 163.605 384.172C163.557 383.702 163.164 383.235 162.729 383.135Z" fill="#F2B667"/>
<path d="M193.186 388.308C192.996 387.731 193.409 387.052 194.105 386.799C195.955 386.126 196.612 386.43 196.295 387.813C196.141 388.486 196.555 389.161 197.214 389.312C197.874 389.463 198.33 389.954 198.227 390.403C197.983 391.469 195.826 390.965 195.423 389.747C195.251 389.227 194.756 388.927 194.322 389.079C193.888 389.231 193.377 388.884 193.186 388.308Z" fill="#F2B667"/>
<path d="M154.481 381.805C153.75 382.274 151.196 378.939 151.447 377.842C151.696 376.757 152.365 377.188 153.808 379.365C154.543 380.474 154.845 381.572 154.481 381.805Z" fill="#F2B667"/>
<path d="M12.6035 348.336C12.2272 347.958 12.0034 347.282 12.1062 346.833C12.2089 346.384 12.601 346.326 12.9772 346.704C13.3535 347.082 13.5774 347.759 13.4746 348.208C13.3718 348.657 12.9798 348.715 12.6035 348.336Z" fill="#F2B667"/>
<path d="M74.061 362.811C73.8028 362.057 73.6496 361.163 73.7196 360.825C73.9564 359.687 75.4956 360.574 75.6826 361.955C75.9361 363.826 74.6418 364.509 74.061 362.811Z" fill="#F2B667"/>
<path d="M136.752 378.906C135.636 378.651 133.443 375.611 133.667 374.63C133.754 374.251 134.365 374.064 135.025 374.215C135.684 374.366 136.098 375.041 135.944 375.714C135.79 376.388 136.203 377.062 136.863 377.213C137.523 377.364 137.979 377.855 137.876 378.304C137.773 378.753 137.267 379.024 136.752 378.906Z" fill="#F2B667"/>
<path d="M219.819 395.346C219.379 395.245 219.103 394.795 219.206 394.346C219.309 393.897 219.753 393.612 220.193 393.713C220.632 393.814 220.908 394.264 220.805 394.712C220.703 395.161 220.259 395.446 219.819 395.346Z" fill="#F2B667"/>
<path d="M224.524 396.852C224.147 396.474 223.918 395.819 224.015 395.397C224.112 394.974 224.551 394.711 224.991 394.812C225.431 394.912 225.659 395.568 225.499 396.267C225.339 396.967 224.9 397.231 224.524 396.852Z" fill="#F2B667"/>
<path d="M14.862 349.283C14.3966 349.176 14.3215 348.773 14.6962 348.386C15.0708 347.999 15.5356 347.719 15.7299 347.764C15.9243 347.808 15.9985 348.212 15.8957 348.661C15.7929 349.11 15.3274 349.39 14.862 349.283Z" fill="#F2B667"/>
<path d="M89.9411 367.33C88.9327 367.099 88.5024 365.659 89.2907 365.153C90.4016 364.44 91.2628 365.016 90.9739 366.278C90.8197 366.952 90.3553 367.425 89.9411 367.33Z" fill="#F2B667"/>
<path d="M91.3498 368.313C92.3578 367.953 93.2886 367.196 93.4181 366.631C93.6816 365.48 95.0216 365.534 95.411 366.712C95.6849 367.541 92.3551 369.601 91.1771 369.331C90.7789 369.24 90.1667 369.584 89.816 370.094C89.3134 370.826 89.2147 370.805 89.3482 369.993C89.4413 369.429 90.3417 368.672 91.3498 368.313Z" fill="#F2B667"/>
<path d="M149.199 380.494C148.792 380.084 148.771 379.427 149.152 379.034C149.617 378.553 150.061 378.67 150.501 379.387C151.288 380.67 150.252 381.551 149.199 380.494Z" fill="#F2B667"/>
<path d="M177.943 386.679C176.474 387.194 175.989 386.631 177.001 385.586C177.406 385.168 178.058 385.146 178.448 385.539C178.908 386 178.73 386.402 177.943 386.679Z" fill="#F2B667"/>
<path d="M181.187 387.817C180.78 387.407 180.759 386.751 181.14 386.357C181.605 385.877 182.049 385.993 182.489 386.71C183.276 387.993 182.24 388.874 181.187 387.817Z" fill="#F2B667"/>
<path d="M201.221 392.713C200.293 392.088 199.843 391.256 200.221 390.866C201.151 389.906 201.563 390.078 202.675 391.892C203.885 393.864 203.364 394.158 201.221 392.713Z" fill="#F2B667"/>
<path d="M217.132 396.013C216.76 395.639 216.534 394.988 216.631 394.565C216.9 393.391 217.414 393.781 217.622 395.317C217.728 396.106 217.519 396.403 217.132 396.013Z" fill="#F2B667"/>
<path d="M120.18 374.515C118.748 374.566 118.651 374.408 119.643 373.633C120.997 372.576 122.342 372.631 122.091 373.731C122 374.128 121.14 374.48 120.18 374.515Z" fill="#F2B667"/>
<path d="M140.981 379.445C140.478 379.622 140.197 379.193 140.357 378.494C140.517 377.794 141.008 377.303 141.448 377.404C141.888 377.505 142.169 377.932 142.072 378.355C141.975 378.778 141.485 379.268 140.981 379.445Z" fill="#F2B667"/>
<path d="M190.869 391.295C190.743 391.267 190.559 390.645 190.46 389.913C190.351 389.111 190.736 388.688 191.429 388.846C192.123 389.005 192.285 389.553 191.839 390.229C191.431 390.844 190.994 391.324 190.869 391.295Z" fill="#F2B667"/>
<path d="M220.997 397.334C220.532 397.227 220.457 396.823 220.831 396.437C221.206 396.05 221.671 395.77 221.865 395.814C222.06 395.859 222.134 396.262 222.031 396.711C221.928 397.16 221.463 397.44 220.997 397.334Z" fill="#F2B667"/>
<path d="M33.1114 355.809C32.9091 355.479 33.1317 354.808 33.6066 354.318C34.301 353.601 34.4898 353.644 34.5702 354.535C34.6863 355.808 33.6598 356.703 33.1114 355.809Z" fill="#F2B667"/>
<path d="M42.4777 357.323C42.0634 357.229 41.8092 356.784 41.912 356.335C42.0148 355.886 42.6603 355.647 43.3456 355.804C44.031 355.961 44.2859 356.406 43.9113 356.792C43.5366 357.179 42.8919 357.418 42.4777 357.323Z" fill="#F2B667"/>
<path d="M65.7585 364.208C65.5828 363.92 65.8653 363.05 66.3869 362.276C67.2899 360.934 67.3336 360.942 67.2883 362.426C67.2389 364.046 66.3182 365.12 65.7585 364.208Z" fill="#F2B667"/>
<path d="M115.147 373.947C113.664 373.596 113.574 373.411 114.685 372.995C116.397 372.354 116.314 372.335 116.684 373.453C116.855 373.971 116.176 374.189 115.147 373.947Z" fill="#F2B667"/>
<path d="M10.4435 350.419C9.94009 350.596 9.61741 350.351 9.72617 349.876C9.83493 349.401 10.2839 349.094 10.7238 349.195C11.1636 349.295 11.4865 349.539 11.4411 349.738C11.3957 349.936 10.9468 350.242 10.4435 350.419Z" fill="#F2B667"/>
<path d="M29.5428 355.221C29.103 355.121 28.8272 354.671 28.93 354.222C29.0327 353.773 29.4767 353.488 29.9165 353.589C30.3564 353.689 30.6321 354.139 30.5294 354.588C30.4266 355.037 29.9826 355.322 29.5428 355.221Z" fill="#F2B667"/>
<path d="M72.4378 365.203C72.0338 365.795 71.8885 365.558 72.0679 364.598C72.2304 363.73 72.5295 363.292 72.7329 363.624C72.9364 363.955 72.8039 364.666 72.4378 365.203Z" fill="#F2B667"/>
<path d="M77.1397 366.134C76.5994 365.413 76.1897 364.685 76.2284 364.516C76.4379 363.601 77.756 364.747 77.9244 365.989C78.0893 367.206 77.9601 367.23 77.1397 366.134Z" fill="#F2B667"/>
<path d="M143.429 383.459C143.48 383.236 144.31 382.456 145.275 381.726C147.243 380.237 148.549 380.178 147.594 381.622C146.961 382.578 143.256 384.212 143.429 383.459Z" fill="#F2B667"/>
<path d="M156.224 386.388C156.275 386.165 157.106 385.385 158.07 384.655C160.038 383.166 161.344 383.107 160.389 384.551C159.756 385.507 156.051 387.141 156.224 386.388Z" fill="#F2B667"/>
<path d="M214.273 397.512C213.833 397.412 213.558 396.962 213.66 396.513C213.763 396.064 214.207 395.779 214.647 395.88C215.087 395.981 215.362 396.43 215.26 396.879C215.157 397.328 214.713 397.613 214.273 397.512Z" fill="#F2B667"/>
<path d="M49.3955 360.625C48.9301 360.519 48.6328 360.064 48.7355 359.615C48.8383 359.166 49.0808 358.835 49.2751 358.88C49.4694 358.924 49.766 359.378 49.9351 359.89C50.1042 360.401 49.861 360.732 49.3955 360.625Z" fill="#F2B667"/>
<path d="M122.168 377.285C121.703 377.179 121.405 376.724 121.508 376.275C121.611 375.826 121.853 375.495 122.048 375.54C122.242 375.584 122.539 376.039 122.708 376.55C122.877 377.061 122.634 377.392 122.168 377.285Z" fill="#F2B667"/>
<path d="M142.56 381.954C142.366 381.909 142.069 381.455 141.9 380.944C141.731 380.433 141.974 380.102 142.44 380.208C142.905 380.315 143.203 380.769 143.1 381.218C142.997 381.667 142.755 381.998 142.56 381.954Z" fill="#F2B667"/>
<path d="M150.91 383.865C150.47 383.765 150.194 383.315 150.297 382.866C150.4 382.417 150.844 382.132 151.284 382.233C151.724 382.334 151.999 382.783 151.897 383.232C151.794 383.681 151.35 383.966 150.91 383.865Z" fill="#F2B667"/>
<path d="M169.022 387.464C168.304 387.571 167.797 387.303 167.896 386.869C167.996 386.433 168.617 386.201 169.277 386.352C169.937 386.503 170.443 386.771 170.403 386.948C170.363 387.124 169.741 387.356 169.022 387.464Z" fill="#F2B667"/>
<path d="M177.903 390.032C176.45 389.688 176.37 389.509 177.487 389.091C179.272 388.423 180.12 388.617 179.886 389.64C179.783 390.089 178.89 390.265 177.903 390.032Z" fill="#F2B667"/>
<path d="M183.417 390.759C182.698 390.866 182.192 390.598 182.291 390.164C182.391 389.729 183.012 389.497 183.672 389.648C184.331 389.799 184.838 390.067 184.798 390.243C184.757 390.419 184.136 390.652 183.417 390.759Z" fill="#F2B667"/>
<path d="M186.896 392.104C186.457 392.003 186.181 391.554 186.284 391.105C186.386 390.656 186.83 390.371 187.27 390.471C187.71 390.572 187.986 391.022 187.883 391.471C187.78 391.92 187.336 392.205 186.896 392.104Z" fill="#F2B667"/>
<path d="M193.247 393.558C192.781 393.451 192.706 393.048 193.081 392.661C193.456 392.274 193.921 391.994 194.115 392.038C194.309 392.083 194.383 392.486 194.281 392.935C194.178 393.384 193.712 393.664 193.247 393.558Z" fill="#F2B667"/>
<path d="M205.29 396.315C204.85 396.214 204.574 395.764 204.677 395.315C204.779 394.866 205.223 394.582 205.663 394.682C206.103 394.783 206.379 395.233 206.276 395.682C206.173 396.131 205.729 396.416 205.29 396.315Z" fill="#F2B667"/>
<path d="M35.5666 358.318C35.1268 358.218 34.851 357.768 34.9538 357.319C35.0566 356.87 35.5005 356.585 35.9404 356.686C36.3802 356.787 36.656 357.236 36.5532 357.685C36.4504 358.134 36.0064 358.419 35.5666 358.318Z" fill="#F2B667"/>
<path d="M44.2947 360.632C44.4011 360.167 44.7839 359.598 45.1458 359.366C45.5071 359.134 45.946 359.176 46.1199 359.46C46.2939 359.744 45.9111 360.314 45.2688 360.726C44.5614 361.18 44.1777 361.143 44.2947 360.632Z" fill="#F2B667"/>
<path d="M53.607 362.448C52.9217 362.292 52.4444 361.796 52.5471 361.347C52.6499 360.898 53.0723 360.608 53.4865 360.703C53.9008 360.798 54.3773 361.293 54.5464 361.804C54.7155 362.316 54.2923 362.605 53.607 362.448Z" fill="#F2B667"/>
<path d="M82.7488 369.12C82.309 369.019 82.0332 368.57 82.136 368.121C82.2388 367.672 82.6827 367.387 83.1226 367.487C83.5624 367.588 83.8381 368.038 83.7354 368.487C83.6326 368.936 83.1886 369.221 82.7488 369.12Z" fill="#F2B667"/>
<path d="M112.431 375.486C111.928 375.663 111.605 375.418 111.714 374.943C111.823 374.468 112.272 374.161 112.711 374.261C113.151 374.362 113.474 374.606 113.429 374.804C113.383 375.003 112.934 375.309 112.431 375.486Z" fill="#F2B667"/>
<path d="M127.179 379.292C126.985 379.247 126.688 378.793 126.519 378.282C126.35 377.77 126.593 377.439 127.059 377.546C127.524 377.653 127.822 378.107 127.719 378.556C127.616 379.005 127.374 379.336 127.179 379.292Z" fill="#F2B667"/>
<path d="M138.485 381.349C137.863 380.925 137.388 380.434 137.429 380.258C137.58 379.596 139.019 380.317 139.311 381.201C139.485 381.727 139.133 381.79 138.485 381.349Z" fill="#F2B667"/>
<path d="M161.525 387.128C161.085 387.027 161.346 386.713 162.106 386.429C162.865 386.145 163.846 385.995 164.286 386.095C164.726 386.196 164.465 386.511 163.705 386.795C162.946 387.079 161.965 387.229 161.525 387.128Z" fill="#F2B667"/>
<path d="M31.4747 357.811C30.9713 357.988 30.6486 357.743 30.7574 357.268C30.8662 356.793 31.3152 356.486 31.755 356.587C32.1948 356.687 32.5177 356.931 32.4723 357.13C32.4269 357.328 31.9781 357.634 31.4747 357.811Z" fill="#F2B667"/>
<path d="M73.8587 367.514C73.3553 367.691 73.0326 367.446 73.1414 366.971C73.2502 366.496 73.6991 366.189 74.139 366.29C74.5788 366.391 74.9017 366.635 74.8563 366.833C74.8109 367.031 74.362 367.337 73.8587 367.514Z" fill="#F2B667"/>
<path d="M93.8511 372.091C93.3478 372.268 93.0251 372.023 93.1339 371.548C93.2426 371.073 93.6916 370.766 94.1315 370.867C94.5713 370.968 94.8942 371.212 94.8487 371.41C94.8033 371.608 94.3545 371.914 93.8511 372.091Z" fill="#F2B667"/>
<path d="M48.9695 363.964C47.9523 363.731 47.9646 363.516 49.0428 362.725C50.7007 361.508 50.8214 361.532 50.4806 363.021C50.3264 363.695 49.6461 364.119 48.9695 363.964Z" fill="#F2B667"/>
<path d="M87.126 371.84C86.6606 371.734 86.5856 371.33 86.9602 370.943C87.3349 370.557 87.7997 370.276 87.994 370.321C88.1884 370.365 88.2626 370.769 88.1598 371.218C88.057 371.667 87.5915 371.947 87.126 371.84Z" fill="#F2B667"/>
<path d="M152.042 386.272C151.539 386.449 151.216 386.204 151.325 385.729C151.434 385.254 151.883 384.947 152.323 385.048C152.762 385.149 153.085 385.393 153.04 385.591C152.994 385.789 152.546 386.096 152.042 386.272Z" fill="#F2B667"/>
<path d="M164.5 389.541C163.929 389.402 164.102 389.104 164.931 388.793C166.699 388.131 166.976 388.195 166.13 389.068C165.756 389.455 165.022 389.667 164.5 389.541Z" fill="#F2B667"/>
<path d="M113.282 378.687C112.842 378.587 112.789 378.188 113.163 377.801C113.538 377.414 114.204 377.18 114.644 377.281C115.084 377.382 115.138 377.781 114.763 378.167C114.388 378.554 113.722 378.788 113.282 378.687Z" fill="#F2B667"/>
<path d="M118.351 379.958C116.85 380.682 116.829 380.647 118.119 379.58C118.903 378.933 119.68 378.434 119.845 378.472C120.504 378.623 119.927 379.196 118.351 379.958Z" fill="#F2B667"/>
<path d="M157.467 389.327C157.306 389.065 157.501 388.513 157.901 388.101C158.988 386.978 159.391 387.337 158.521 388.652C158.101 389.285 157.627 389.589 157.467 389.327Z" fill="#F2B667"/>
<path d="M183.703 394.809C183.237 394.703 183.162 394.299 183.537 393.912C183.912 393.525 184.376 393.245 184.571 393.29C184.765 393.334 184.839 393.738 184.736 394.187C184.634 394.636 184.168 394.916 183.703 394.809Z" fill="#F2B667"/>
<path d="M177.071 394.15C176.631 394.049 176.578 393.65 176.952 393.264C177.327 392.877 177.993 392.643 178.433 392.744C178.873 392.844 178.927 393.243 178.552 393.63C178.177 394.017 177.511 394.251 177.071 394.15Z" fill="#F2B667"/>
<path fill-rule="evenodd" clip-rule="evenodd" d="M70.6632 21.6253C73.2731 20.4668 76.7942 19.3615 78.4875 19.1701C83.0871 18.651 283.461 64.381 288.738 67.1542C294.502 70.1834 299.869 76.5082 301.879 82.6381C302.828 85.5349 303.832 88.3523 304.11 88.8987C304.387 89.445 304.363 90.309 304.057 90.8196C303.696 91.4207 304.055 91.7005 305.073 91.6132C306.581 91.4842 306.577 91.5048 304.988 92.0919C303.704 92.5661 303.476 93.007 303.984 94.0372C304.344 94.7691 304.326 95.6928 303.942 96.0887C303.559 96.4837 303.458 97.6145 303.718 98.5999C304.032 99.7895 303.882 100.5 303.273 100.714C301.877 101.204 301.846 102.547 303.236 102.338C304.873 102.095 306.362 99.0661 305.347 98.0459C304.901 97.5986 304.862 97.0243 305.259 96.7689C305.656 96.5145 306.315 97.1061 306.724 98.0829C307.445 99.8046 307.526 99.824 309.271 98.703C310.402 97.9781 311.108 97.9148 311.164 98.5333C311.307 100.111 308.423 101.524 307.016 100.565C306.082 99.9282 305.858 100.027 306.161 100.944C306.438 101.779 305.669 102.632 303.808 103.553C302.002 104.447 301.474 105.022 302.283 105.209C302.965 105.368 304.026 105.174 304.643 104.778C305.478 104.242 306.024 104.486 306.795 105.741C307.362 106.667 307.555 107.597 307.224 107.81C306.893 108.022 306.91 108.781 307.262 109.496C308.048 111.093 307.311 110.994 305.618 109.278C304.265 107.904 301.63 107.882 301.319 109.24C301.195 109.779 301.879 109.953 303.307 109.744C304.584 109.557 305.414 109.732 305.315 110.166C305.221 110.574 304.407 110.973 303.504 111.052C302.602 111.133 301.243 111.693 300.484 112.298C299.287 113.253 299.306 113.369 300.626 113.184C302.527 112.915 302.398 113.663 300.284 115.174C298.787 116.244 298.739 116.466 299.677 117.997C300.238 118.912 301.013 119.44 301.4 119.171C301.786 118.902 301.691 118.415 301.186 118.089C299.345 116.896 300.658 116.136 303.269 116.883C305.559 117.539 305.794 117.835 304.879 118.909C304.213 119.69 304.093 120.232 304.56 120.339C304.975 120.434 304.957 121.203 304.522 122.049C304.086 122.894 303.258 123.477 302.682 123.346C302.105 123.214 301.323 123.711 300.941 124.45C300.42 125.463 300.33 125.335 300.576 123.937C300.936 121.9 299.477 120.961 299.024 122.938C298.87 123.611 298.384 124.08 297.944 123.979C296.102 123.557 297.043 125.073 298.975 125.637C301.765 126.452 303.531 130.242 301.677 131.432C300.147 132.414 297.78 132.051 298.049 130.876C298.151 130.427 297.696 129.936 297.036 129.785C295.184 129.361 295.3 130.043 297.887 134.775C298.981 136.776 299.944 136.031 298.935 133.965C298.206 132.477 298.275 132.456 299.711 133.723C301.666 135.448 301.485 136.532 299.209 136.733C297.986 136.841 297.134 136.215 296.351 134.633C295.374 132.659 295.19 132.563 294.869 133.86C294.424 135.652 295.521 137.592 297.723 138.906C298.619 139.442 299.233 140.407 299.086 141.05C298.719 142.655 297.435 142.224 297.19 140.415C297.032 139.247 296.737 139.101 295.786 139.717C294.84 140.332 294.842 140.738 295.798 141.625C297.509 143.21 297.02 144.692 295.292 143.161C293.484 141.56 293.085 141.531 292.753 142.979C292.599 143.652 293.1 144.359 293.866 144.55C295.085 144.853 295.081 144.986 293.833 145.616C291.78 146.651 290.785 149.355 292.553 149.09C294.331 148.825 294.189 149.27 292.06 150.636C290.818 151.433 290.596 151.896 291.261 152.306C291.767 152.619 291.874 153.191 291.498 153.58C290.929 154.167 288.959 161.816 287.931 167.433C287.657 168.921 289.918 170.065 290.252 168.608C290.355 168.159 290.843 167.884 291.336 167.997C291.957 168.139 291.84 168.511 290.958 169.199C290.256 169.748 289.097 170.063 288.381 169.901C287.318 169.66 286.824 170.615 285.7 175.086C284.855 178.444 284.623 180.88 285.101 181.376C285.667 181.964 285.606 182.127 284.879 181.97C284.328 181.85 283.666 182.671 283.409 183.794C283.152 184.916 283.346 185.927 283.839 186.04C284.489 186.189 284.408 186.503 283.548 187.174C282.846 187.722 281.934 190.323 281.324 193.512C280.31 198.816 280.327 198.9 282.185 197.877C284.328 196.696 283.417 198.034 280.565 200.255C279.051 201.434 279.042 201.512 280.453 201.303C284.102 200.762 284.822 200.85 282.596 201.567C279.795 202.47 278.678 203.864 279.289 205.694C279.648 206.768 280.063 206.886 281.586 206.35C282.608 205.988 283.368 206.028 283.275 206.437C283.181 206.846 281.937 207.318 280.51 207.485C279.083 207.652 277.827 208.176 277.719 208.648C277.457 209.794 278.525 209.978 279.986 209.04C280.637 208.622 281.089 208.633 280.991 209.063C280.892 209.494 280.011 210.132 279.033 210.48C277.274 211.107 276.065 214.328 277.469 214.649C277.869 214.741 277.671 215.226 277.028 215.728C275.879 216.625 275.721 219.404 276.805 219.652C277.11 219.721 277.941 219.429 278.652 219.001C279.696 218.373 279.822 218.443 279.303 219.364C278.949 219.992 277.91 220.45 276.993 220.381C275.62 220.278 275.171 220.893 274.441 223.878C273.954 225.869 273.927 227.584 274.381 227.688C274.929 227.813 274.862 228.159 274.184 228.716C272.581 230.034 272.331 232.526 273.825 232.302C275.446 232.06 277.921 233.499 277.682 234.545C277.575 235.011 276.895 234.798 276.019 234.023C274.833 232.97 274.218 232.92 272.923 233.765C271.426 234.742 271.402 234.934 272.59 236.35C273.502 237.437 273.539 237.805 272.72 237.618C272.008 237.456 271.287 238.286 270.83 239.793C270.309 241.519 270.417 242.122 271.199 241.859C271.887 241.628 271.771 241.914 270.892 242.617C269.604 243.645 269.787 244.191 271.451 244.3C272.557 244.372 271.878 245.365 270.186 246.149C268.799 246.792 268.734 246.962 269.772 247.223C270.45 247.393 271.538 247.191 272.189 246.773C272.918 246.305 273.54 246.365 273.809 246.929C274.048 247.432 274.116 247.728 273.96 247.587C273.805 247.446 272.506 247.715 271.075 248.186C268.322 249.09 267.396 250.839 268.615 252.827C269.019 253.487 269.008 253.949 268.59 253.853C268.173 253.758 267.099 256.605 266.204 260.179C265.251 263.986 264.902 266.753 265.362 266.858C265.795 266.957 266.088 266.251 266.014 265.29C265.92 264.049 266.244 263.624 267.134 263.828C267.823 263.986 268.471 263.747 268.574 263.298C268.677 262.849 268.132 262.332 267.364 262.149C266.213 261.875 266.2 261.732 267.292 261.336C269.268 260.618 270.543 263.805 268.636 264.696C267.882 265.048 267.212 265.571 267.147 265.858C266.929 266.807 268.487 266.736 270.063 265.726C270.915 265.178 271.54 265.05 271.45 265.442C271.201 266.53 269.051 267.703 267.823 267.422C266.643 267.152 263.999 268.576 263.763 269.61C263.684 269.956 264.152 269.897 264.803 269.479C265.454 269.061 266.543 268.85 267.225 269.009C267.979 269.185 267.436 269.693 265.835 270.309C264.018 271.008 263.509 271.533 264.183 272.008C264.978 272.567 264.896 272.822 263.742 273.376C262.524 273.96 262.537 274.037 263.829 273.918C264.656 273.841 265.282 274.002 265.22 274.275C265.157 274.548 264.364 275.115 263.458 275.536C262.071 276.179 262.006 276.348 263.044 276.609C263.723 276.78 264.81 276.577 265.462 276.159C266.113 275.741 266.581 275.683 266.501 276.029C266.288 276.961 263.67 278.498 262.681 278.272C262.21 278.164 261.741 278.443 261.638 278.892C261.535 279.341 261.969 279.827 262.603 279.972C263.237 280.117 264.062 279.919 264.437 279.533C265.234 278.71 266.687 278.893 266.482 279.791C266.404 280.131 265.176 280.643 263.751 280.931C261.096 281.467 259.938 283.751 261.041 286.272C261.375 287.034 261.273 287.399 260.759 287.282C260.28 287.172 259.429 289.586 258.662 293.233C257.457 298.961 257.484 299.362 259.08 299.256C260.02 299.194 261.368 298.665 262.075 298.082C262.782 297.499 263.535 297.306 263.747 297.652C264.291 298.541 261.326 300.297 259.85 299.96C258.192 299.58 255.93 302.2 257.16 303.075C257.743 303.489 257.723 303.887 257.105 304.206C255.559 305.002 255.187 306.624 256.484 306.921C257.143 307.072 257.767 306.828 257.87 306.379C257.973 305.93 258.473 305.658 258.98 305.774C259.508 305.895 259.132 306.537 258.104 307.271C257.115 307.978 255.959 308.22 255.537 307.807C255.114 307.395 255.121 307.792 255.55 308.69C256.213 310.073 256.164 310.288 255.228 310.097C254.49 309.946 254.547 310.385 255.402 311.425C256.576 312.851 256.182 313.293 254.429 312.517C254.042 312.346 254.039 312.842 254.422 313.618C254.97 314.731 254.874 315.085 253.973 315.283C253.056 315.484 253.022 315.684 253.802 316.29C254.625 316.929 254.579 317.129 253.508 317.577C252.49 318.002 252.424 318.237 253.175 318.768C253.894 319.277 253.833 319.647 252.917 320.362C251.59 321.399 252.437 321.84 254.391 321.128C255.086 320.875 255.502 320.203 255.314 319.635C255.126 319.066 255.38 318.695 255.878 318.809C257.438 319.166 255.708 321.686 253.528 322.232C252.134 322.582 251.713 323.02 252.252 323.562C252.831 324.144 252.756 324.563 251.983 325.059C250.353 326.106 250.439 327.028 252.146 326.787C253.486 326.598 253.497 326.709 252.234 327.714C251.446 328.342 251.001 329.182 251.245 329.58C251.489 329.978 252.362 329.708 253.185 328.98C254.008 328.253 254.609 327.974 254.521 328.36C254.432 328.747 253.595 329.611 252.661 330.278C250.646 331.718 249.557 334.685 250.591 335.919C251.121 336.552 251.019 336.85 250.233 336.982C249.631 337.084 249.061 337.505 248.967 337.916C248.663 339.245 250.798 339.172 252.327 337.801C253.144 337.068 254.062 336.719 254.365 337.024C255.144 337.806 251.836 339.889 249.525 340.071C247.549 340.228 246.544 341.585 248.134 341.949C248.688 342.076 248.646 342.899 248.019 344.143C247.37 345.433 247.352 346.016 247.97 345.799C248.494 345.615 248.833 345.854 248.724 346.329C248.615 346.804 247.946 347.061 247.238 346.899C246.244 346.671 246.287 347.043 247.421 348.52C248.833 350.358 248.28 352.292 246.46 351.875C245.9 351.747 246.019 351.36 246.81 350.743C247.562 350.155 247.761 349.555 247.342 349.135C246.264 348.051 244.658 351.56 245.695 352.732C246.401 353.529 246.359 353.798 245.508 353.942C243.938 354.207 243.822 355.611 245.39 355.377C246.109 355.27 246.604 355.588 246.49 356.086C246.377 356.583 245.652 356.851 244.881 356.681C244.036 356.496 243.765 356.69 244.2 357.169C244.596 357.607 245.009 358.687 245.117 359.568C245.225 360.45 245.694 361.038 246.158 360.875C246.621 360.712 247.044 361.046 247.096 361.617C247.149 362.209 247.686 362.481 248.342 362.251C248.976 362.028 249.419 361.288 249.327 360.606C249.234 359.923 249.519 359.448 249.959 359.549C250.399 359.65 251.232 358.999 251.81 358.103L252.861 356.474L252.909 358.356C252.935 359.391 252.7 359.979 252.384 359.662C252.069 359.345 251.465 359.442 251.043 359.878C250.067 360.886 251.605 362.48 253.402 362.324C254.591 362.221 254.587 362.283 253.368 362.806C252.598 363.136 251.412 363.078 250.733 362.678C250.053 362.278 249.161 362.298 248.749 362.723C248.307 363.179 247.096 363.064 245.796 362.444C243.489 361.342 242.752 361.991 243.999 364.026C244.408 364.693 244.38 365.144 243.935 365.042C243.495 364.942 242.804 364.319 242.4 363.66C241.828 362.728 241.594 362.769 241.347 363.848C241.172 364.612 241.389 365.318 241.829 365.419C243.185 365.73 242.368 367.118 240.856 367.071C239.68 367.034 239.761 367.579 241.321 370.188C242.439 372.059 242.802 373.409 242.209 373.495C241.659 373.575 240.567 372.385 239.783 370.851C238.999 369.317 237.834 367.941 237.196 367.795C236.278 367.585 236.261 367.941 237.112 369.499C238.462 371.968 237.308 372.897 235.739 370.604C234.254 368.433 232.95 369.198 234.208 371.502C235.727 374.281 234.279 375.529 232.64 372.855C230.806 369.864 229.695 370.638 231.439 373.691C232.302 375.203 232.433 376.178 231.803 376.4C231.263 376.59 230.909 376.356 231.018 375.881C231.126 375.406 230.706 374.9 230.082 374.757C229.459 374.614 228.894 374.002 228.826 373.396C228.758 372.79 228.386 372.48 227.999 372.708C227.612 372.936 228.305 374.667 229.54 376.556C230.776 378.444 231.483 380.183 231.114 380.421C229.964 381.158 229.094 380.605 229.388 379.323C229.542 378.65 229.376 378.032 229.02 377.95C228.662 377.868 227.736 376.844 226.96 375.674C225.028 372.761 224.023 373.702 225.857 376.707C228.237 380.604 228.911 382.298 228.251 382.722C227.911 382.94 226.654 381.47 225.458 379.455C224.262 377.439 222.963 375.903 222.57 376.041C222.177 376.178 221.54 375.648 221.152 374.86C220.764 374.073 220.097 373.552 219.669 373.702C219.242 373.852 219.442 374.875 220.117 375.975C220.791 377.074 221.71 377.844 222.16 377.686C222.611 377.527 223.119 377.824 223.292 378.343C223.463 378.863 223.223 379.2 222.757 379.094C222.292 378.987 221.742 379.634 221.537 380.532C221.331 381.43 220.661 382.05 220.049 381.91C219.436 381.77 218.602 382.158 218.194 382.774C217.787 383.389 216.903 383.767 216.229 383.613C215.555 383.458 214.872 383.909 214.711 384.615C214.45 385.755 214.315 385.731 213.498 384.399C212.992 383.574 212.739 382.198 212.936 381.34C213.226 380.072 210.918 377.242 209.291 376.87C208.041 376.584 208.862 378.675 210.411 379.723C211.437 380.418 211.969 381.303 211.594 381.691C210.555 382.763 209.952 382.382 207.96 379.393C206.795 377.645 205.933 376.979 205.583 377.56C204.842 378.796 203.48 378.387 202.728 376.703C201.929 374.914 198.035 372.904 197.753 374.136C197.416 375.604 195.99 374.833 193.583 371.883C192.342 370.362 191.242 369.489 191.138 369.943C191.034 370.397 191.44 371.104 192.041 371.514C192.642 371.922 193.004 372.82 192.847 373.508C192.685 374.213 193.257 374.917 194.16 375.124C195.04 375.325 195.675 375.857 195.572 376.306C195.47 376.755 194.692 376.964 193.845 376.77C192.998 376.576 192.046 377.007 191.731 377.729C191.196 378.956 191.094 378.932 190.13 377.362C189.565 376.439 188.879 375.633 188.607 375.571C188.335 375.509 187.507 374.449 186.769 373.217C184.782 369.904 182.139 367.622 181.507 368.674C181.224 369.146 180.483 369.416 179.86 369.273C179.237 369.13 178.6 369.564 178.446 370.238C178.154 371.513 176.788 371.649 176.58 370.424C176.444 369.623 172.478 365.006 171.792 364.849C171.544 364.792 171.422 365.344 171.52 366.075C171.619 366.807 172.213 367.522 172.839 367.666C173.466 367.809 174.06 368.525 174.158 369.256C174.258 369.988 174.84 370.701 175.453 370.841C176.065 370.981 176.44 371.647 176.286 372.321C175.898 374.017 174.636 373.553 173.181 371.18C171.79 368.913 170.733 368.439 169.955 369.735C169.662 370.224 169.055 370.255 168.607 369.805C167.464 368.656 167.909 367.396 169.343 367.724C170.003 367.875 170.632 367.607 170.742 367.128C170.987 366.056 165.496 366.345 162.315 367.57C162.116 367.646 162.301 368.415 162.726 369.279C163.383 370.612 163.268 370.918 161.959 371.314C161.112 371.571 160.3 372.302 160.154 372.938C159.992 373.648 159.453 373.799 158.764 373.33C157.817 372.684 157.94 372.437 159.543 371.768C161.768 370.839 162.706 368.341 160.718 368.638C158.594 368.955 159.688 366.764 162.237 365.599C164.301 364.654 166.357 362.745 165.516 362.553C165.343 362.513 163.871 363.336 162.243 364.381C159.076 366.413 157.139 366.612 158.351 364.778C158.759 364.163 158.694 363.568 158.207 363.457C157.72 363.345 157.195 363.805 157.041 364.479C156.887 365.152 156.414 365.623 155.988 365.526C155.564 365.429 153.788 366.244 152.042 367.336C149.914 368.668 148.833 368.948 148.765 368.186C148.707 367.56 149.324 366.847 150.135 366.602C150.945 366.357 151.688 365.807 151.785 365.38C152.087 364.062 149.711 364.005 148.431 365.299C147.607 366.13 147.159 366.182 147.035 365.457C146.935 364.871 146.291 364.474 145.602 364.577C144.835 364.692 144.468 364.256 144.652 363.452C144.817 362.731 144.439 362.023 143.811 361.879C143.184 361.736 142.693 360.946 142.72 360.126C142.753 359.136 142.503 358.905 141.977 359.44C141.531 359.892 141.859 361.282 142.727 362.618C144.278 365.002 144.542 366.342 143.409 366.083C143.075 366.006 141.658 364.336 140.261 362.371C137.63 358.67 136.662 357.914 136.343 359.31C136.24 359.759 136.695 360.25 137.355 360.401C138.015 360.552 138.429 361.227 138.274 361.9C137.94 363.363 136.982 363.267 136.005 361.674C135.468 360.799 134.921 360.712 133.75 361.318C132.453 361.99 132.135 361.909 131.772 360.811C131.535 360.092 131.031 359.702 130.653 359.945C129.755 360.521 131.119 363.269 132.454 363.574C133.023 363.705 133.746 363.388 134.06 362.868C134.417 362.279 135.498 363.333 136.938 365.675C138.207 367.738 138.801 369.323 138.258 369.199C137.716 369.075 136.662 367.787 135.918 366.337C134.232 363.057 132.921 363.644 134.106 367.148L134.982 369.737L133.376 367.007C131.615 364.013 130.679 363.464 129.779 364.895C129.454 365.412 128.947 365.468 128.653 365.02C128.358 364.572 128.663 364.014 129.332 363.78C130.182 363.481 130.32 363.125 129.79 362.592C129.373 362.173 128.621 361.975 128.117 362.152C127.614 362.329 127.291 362.084 127.4 361.609C127.509 361.134 126.77 360.555 125.759 360.324C124.747 360.092 123.593 359.37 123.195 358.72C122.796 358.07 122.132 357.754 121.721 358.018C121.31 358.282 121.524 359.005 122.198 359.625C122.872 360.246 123.142 361.044 122.798 361.399C122.438 361.77 121.597 361.464 120.816 360.678C119.93 359.786 119.194 359.549 118.696 359.997C118.277 360.374 116.825 360.977 115.47 361.337C114.114 361.695 112.894 362.479 112.757 363.076C112.62 363.674 112.148 364.08 111.709 363.98C110.695 363.748 110.823 363.221 112.309 361.483C112.964 360.719 113.974 360.203 114.553 360.336C116.059 360.68 120.702 357.779 121.046 356.279C121.466 354.446 118.031 353.918 115.058 355.359C112.793 356.457 112.251 356.263 112.917 354.592C113.358 353.481 112.209 353.785 110.358 355.267C108.788 356.523 108.352 356.54 107.484 355.382C106.629 354.24 106.194 354.189 104.82 355.07C103.506 355.914 103.336 356.363 103.966 357.322C104.573 358.248 104.889 358.308 105.352 357.585C105.682 357.07 106.304 356.729 106.733 356.827C107.162 356.925 107.155 357.375 106.716 357.828C106.193 358.368 106.381 358.582 107.263 358.45C108.76 358.227 110.113 359.921 109.739 361.553C109.606 362.137 109.148 362.534 108.721 362.437C108.296 362.339 108.316 361.702 108.767 361.02C109.418 360.038 109.207 359.795 107.747 359.848C106.735 359.884 105.988 359.558 106.087 359.125C106.186 358.691 105.82 358.494 105.273 358.687C104.576 358.931 104.471 359.352 104.922 360.088C105.587 361.171 103.205 362.837 101.537 362.455C101.098 362.354 101.562 361.892 102.569 361.427C103.953 360.788 104.227 360.3 103.694 359.429C103.159 358.558 102.647 358.452 101.598 358.994C100.655 359.483 100.108 359.401 99.8887 358.739C99.7118 358.202 100.128 357.892 100.813 358.049C101.499 358.206 102.186 357.783 102.34 357.11C102.494 356.437 102.073 355.76 101.404 355.607C100.735 355.454 99.9879 354.316 99.7434 353.079C99.4998 351.842 99.0231 350.767 98.6856 350.689C98.3473 350.612 97.6551 349.871 97.1473 349.042C96.6393 348.213 95.9794 347.787 95.6806 348.096C95.382 348.404 96.0258 349.617 97.1108 350.793C99.2767 353.136 99.4655 354.304 97.611 353.88C96.9529 353.729 95.3727 352.014 94.1003 350.069C92.8278 348.124 91.4111 346.453 90.9513 346.354C90.4914 346.257 90.5649 346.638 91.1142 347.202C91.9109 348.019 91.5875 348.318 89.5144 348.676C87.2896 349.06 87.1287 349.229 88.399 349.857C89.2149 350.259 90.11 350.21 90.3876 349.747C91.1967 348.4 92.7193 349.171 93.4299 351.288C94.2797 353.818 93.0409 354.637 92.0265 352.216C91.4584 350.859 90.9615 350.556 90.1555 351.073C89.3485 351.591 89.394 352.374 90.325 354.02C92.1058 357.167 91.5577 358.378 89.6603 355.49C88.128 353.158 88.0641 353.135 86.6 354.425C85.1409 355.71 85.0621 355.679 83.3225 353.143C79.791 347.992 79.4182 347.698 77.7647 348.76C76.9358 349.292 76.1251 350.304 75.9635 351.01C75.802 351.716 75.2684 352.201 74.7766 352.088C74.2576 351.969 73.9037 352.659 73.9313 353.737C73.9663 355.073 73.793 355.286 73.3125 354.502C72.8315 353.718 73.0939 352.773 74.2523 351.118C75.6969 349.053 75.7265 348.623 74.546 346.842C73.1653 344.76 71.6805 343.985 71.402 345.202C71.3112 345.598 71.9126 346.28 72.7385 346.716C73.6703 347.208 74.083 348.196 73.826 349.318C73.3741 351.292 73.1436 351.108 69.6923 346.001C68.1993 343.792 66.7595 343.423 66.364 345.151C66.2564 345.621 66.7564 345.918 67.4754 345.81C68.2717 345.692 68.6751 346.084 68.5081 346.814C68.3571 347.474 68.7733 348.137 69.4331 348.288C70.8014 348.601 70.7448 349.936 69.3427 350.428C68.8267 350.609 67.4369 349.18 66.2548 347.253C64.3097 344.081 64.2583 343.702 65.7097 343.263C66.5922 342.996 67.134 342.482 66.9125 342.122C66.6919 341.763 65.4375 341.878 64.1246 342.379L61.737 343.29L64.1419 347.346C65.964 350.42 66.2785 351.612 65.4383 352.267C63.7257 353.605 62.051 352.829 60.4304 349.946C59.2206 347.793 58.6508 347.418 57.3174 347.894C55.6752 348.479 54.7899 347.916 55.1158 346.493C55.2124 346.071 55.804 346.075 56.4307 346.503C57.3058 347.099 57.5399 346.874 57.4371 345.536C57.3429 344.301 57.669 343.876 58.5575 344.08C59.2468 344.238 59.6845 344.918 59.5303 345.591C59.3761 346.265 59.7482 346.93 60.3559 347.069C60.9645 347.208 61.4821 348.098 61.5066 349.046C61.555 350.901 63.4913 352.688 64.6364 351.936C65.0217 351.683 63.9772 349.481 62.3152 347.043L59.2939 342.609L61.3943 341.261C62.5496 340.52 63.3528 339.68 63.1787 339.397C62.6188 338.482 61.1766 339.418 57.1729 343.294C52.8824 347.448 51.3201 348.368 51.7503 346.489C51.9045 345.815 52.449 345.117 52.9605 344.938C54.0275 344.563 53.7137 342.971 52.519 342.697C52.0791 342.597 51.8297 342.848 51.9644 343.256C52.0991 343.664 51.7444 344.452 51.1769 345.009C50.2962 345.87 50.0701 345.781 49.646 344.402C48.9635 342.185 47.971 342.127 45.0861 344.137C43.7303 345.082 42.4414 345.562 42.222 345.204C42.0018 344.846 42.9728 343.932 44.3778 343.173C45.7837 342.414 47.0364 341.346 47.1616 340.799C47.2868 340.252 47.929 339.928 48.5888 340.079C49.2485 340.231 49.6622 340.905 49.508 341.578C49.18 343.011 50.3967 343.494 51.4899 342.366C51.9064 341.936 51.8324 341.116 51.3253 340.544C50.6122 339.74 50.6512 339.463 51.4978 339.32C52.1001 339.218 52.6666 338.81 52.7574 338.414C52.848 338.018 51.5027 338.159 49.7675 338.728C48.0322 339.297 46.2808 339.43 45.8758 339.023C45.4708 338.616 44.5517 338.586 43.8337 338.958C42.9362 339.423 42.4273 339.329 42.206 338.66C42.0292 338.124 42.2261 337.764 42.6452 337.86C43.0642 337.956 43.7832 337.466 44.2428 336.77C45.029 335.582 44.9698 335.569 43.2656 336.546C42.2685 337.119 40.5355 337.377 39.4144 337.12C36.6594 336.489 34.7093 338.015 36.0249 339.772C36.5605 340.487 36.8515 341.668 36.6699 342.395C36.3775 343.57 36.2577 343.53 35.6051 342.047C34.794 340.204 33.1582 339.471 32.851 340.813C32.6219 341.814 27.7052 344.681 26.589 344.465C26.169 344.385 27.685 343.137 29.9587 341.694C33.8721 339.209 35.1574 337.834 33.8021 337.577C33.4689 337.515 31.0655 338.723 28.46 340.263C25.8544 341.803 23.5526 342.785 23.3442 342.445C23.1359 342.105 24.0175 341.342 25.3035 340.75C26.8551 340.035 27.4351 339.34 27.0265 338.683C26.2948 337.508 24.3455 338.266 21.6716 340.767C20.6683 341.704 19.9532 342.008 20.0833 341.44C20.3274 340.374 20.6314 340.094 24.9682 336.932C27.4533 335.121 27.5429 335.119 27.5882 336.888C27.6427 338.988 28.5593 339.484 29.5681 337.959C29.9479 337.385 31.6425 336.776 33.3342 336.607C36.0872 336.331 38.1581 334.255 36.1413 333.793C35.7014 333.693 35.2606 333.964 35.162 334.395C34.8985 335.546 29.2301 335.495 24.6638 334.299C21.9617 333.592 20.3031 333.583 19.47 334.271C18.3966 335.158 18.2208 335.091 18.0313 333.728C17.9127 332.875 17.3291 332.064 16.7333 331.928C16.1375 331.791 15.1412 330.78 14.5195 329.679C13.3739 327.654 11.11 327.294 10.0639 328.97C9.76338 329.452 9.84117 329.05 10.2363 328.078C10.7372 326.845 10.5592 326.219 9.64755 326.01C7.35801 325.486 1.8959 318.196 0.593462 313.926C-0.426999 310.583 -0.42604 308.41 0.59869 302.412L1.86271 295.019L-3.02393 293.895C-9.88563 292.318 -13.1021 290.322 -15.2044 286.336C-17.4209 282.133 -16.8539 278.855 -13.47 276.308C-11.0664 274.5 -10.8321 274.502 -2.54878 276.398L5.91605 278.336L8.2701 268.05L10.625 257.764L3.20887 256.153C-3.3373 254.73 -4.46108 254.25 -6.37306 252.054C-8.17029 249.99 -8.41704 249.035 -7.82333 246.442C-7.2384 243.887 -6.48718 242.973 -3.70115 241.431C-0.432847 239.621 -0.00385916 239.611 6.87515 241.186L14.0444 242.827L16.1935 233.44L18.3426 224.052L11.5052 222.487C1.43143 220.181 -1.8026 216.698 0.711275 210.864C2.5434 206.611 6.16441 205.808 14.7083 207.76L21.7065 209.359L22.9212 204.053L24.1359 198.747L19.5481 197.649C11.1227 195.631 7.65077 192.018 11.663 189.443C13.134 188.499 14.287 188.624 19.5053 190.296L25.6221 192.255L27.4019 184.481L29.1816 176.707L23.0927 175.313C18.3433 174.226 16.4196 173.379 14.3453 171.463C10.9089 168.287 10.1596 164.432 12.4707 161.811C15.1251 158.8 19.4927 158.169 26.5342 159.78L32.7323 161.198L35.0207 151.198L37.3092 141.198L29.7704 139.472C23.3633 138.005 21.9523 137.412 20.3672 135.516C17.141 131.658 18.9426 125.611 23.8333 123.887C26.2501 123.035 28.0079 123.154 33.5481 124.548L40.3121 126.25L43.178 114.751L46.0446 103.251L41.4251 102.188C28.5287 99.2228 23.4915 90.4229 31.681 85.1666L34.7098 83.2226L42.1351 85.4552L49.5614 87.6871L52.3595 75.4647L55.1577 63.2424L50.4594 62.1668C43.3277 60.5341 41.05 59.1974 38.3776 55.0737C36.2867 51.8476 36.0862 50.977 36.999 49.0855C37.5856 47.8685 39.1406 46.1532 40.4539 45.2727C42.6211 43.8204 43.5237 43.8114 50.2331 45.1714C54.2987 45.9956 58.1324 46.5941 58.7537 46.5018C59.6235 46.371 60.1852 44.4799 61.2082 38.2358C63.0385 27.0539 64.595 24.321 70.6632 21.6253ZM252.066 97.718L265.269 101.305L239.353 213.575L213.437 325.845L136.223 308.365C93.7557 298.751 56.8055 290.163 54.112 289.283L49.2151 287.682L73.2228 184.359C86.4264 127.53 98.207 76.9104 99.4001 71.8676L101.57 62.6999L170.217 78.4154C207.972 87.0589 244.804 95.7454 252.066 97.718ZM65.222 255.745C65.1162 254.965 65.4814 254.167 66.0334 253.973C66.8633 253.682 197.698 283.404 207.19 286.041C209.585 286.706 210.085 287.18 209.784 288.498C209.413 290.118 208.877 290.008 137.412 273.647C72.1345 258.703 65.3961 257.032 65.222 255.745ZM63.4657 270.501C62.9206 270.356 62.6423 269.502 62.8479 268.604C63.2189 266.984 63.755 267.094 135.195 283.449C195.632 297.285 207.126 300.105 206.911 301.045C206.746 301.766 205.264 302.032 202.743 301.792C199.934 301.523 72.145 272.814 63.4657 270.501ZM64.9683 282.422C60.8939 280.808 60.9466 279.556 65.0676 280.047C66.7575 280.249 98.4511 287.288 135.498 295.69C200.611 310.457 205.424 311.721 202.839 313.382C201.972 313.938 69.3521 284.157 64.9683 282.422ZM228.897 59.7973L273.576 70.5052L270.854 82.91L268.132 95.3137L184.948 76.2373L101.764 57.1602L104.327 48.297C105.736 43.4223 107.277 37.7494 107.75 35.6902L108.611 31.9476L146.415 40.5181C167.207 45.2317 204.324 53.9079 228.897 59.7973ZM39.025 314.051C39.6409 311.474 54.6514 246.679 72.3825 170.06L104.62 30.753L93.2322 28.2336C80.679 25.4568 77.2837 25.2225 74.2626 26.9234C70.74 28.9072 68.9685 32.3254 66.9934 40.9528C65.2883 48.4007 65.2578 49.1626 66.6282 49.9815C68.8783 51.3247 72.9929 51.0786 74.3267 49.5206C76.3846 47.1156 79.7764 48.6626 82.2061 53.1148C85.0997 58.4188 84.3597 61.8464 79.597 65.1992L76.1576 67.6204L69.4183 65.8362C65.7109 64.8551 62.4335 64.3041 62.1358 64.6122C62.0389 64.7121 61.8011 65.4021 61.4656 66.5253C61.1673 67.5243 60.7918 68.866 60.3697 70.4399C59.8032 72.5524 59.1528 75.0832 58.4926 77.7648L55.3927 90.3571L59.3888 90.9962C61.9997 91.4144 64.1145 91.2018 65.4864 90.3853C67.0931 89.4293 67.8893 89.4071 68.8741 90.2923C70.8501 92.0685 73.9229 97.8105 74.0573 99.977C74.2311 102.798 70.8285 106.728 67.3539 107.719C64.3848 108.564 63.3357 108.316 55.4842 104.912L52.5924 103.659L52.0407 106.28L51.0852 110.82L49.9387 116.268L47.2852 128.878L49.745 129.162C51.0977 129.318 53.8005 128.843 55.7518 128.106C58.7867 126.958 59.5797 126.968 61.2504 128.174C64.2234 130.319 66.2874 136.864 65.0107 140.099C63.7672 143.252 62.3549 144.454 58.7722 145.41C56.475 146.022 55.5087 145.839 52.1434 144.15C49.9771 143.062 47.2124 142.198 46.0002 142.229L43.7947 142.286L43.3802 144.097L42.4173 148.303L41.3688 152.882L38.943 163.479L41.1542 163.985C42.3697 164.263 44.8762 164.064 46.7227 163.541C52.013 162.046 54.3011 163.333 56.3426 168.952C57.5465 172.266 56.8936 175.063 54.2774 177.796C51.113 181.101 47.4909 181.427 42.0186 178.899C39.5504 177.758 37.1287 176.966 36.6372 177.138C36.4373 177.209 36.1015 177.933 35.6976 179.099C35.2985 180.251 34.8329 181.833 34.3663 183.641C34.1418 184.51 33.917 185.432 33.6994 186.383C31.7024 195.106 31.6965 195.323 33.4582 195.708C34.4504 195.925 36.9969 195.735 39.1171 195.285C41.2381 194.836 43.6332 194.62 44.4393 194.805C47.7069 195.553 48.1829 202.84 45.0694 204.452C43.6133 205.206 40.5728 204.15 32.4591 200.072C30.8039 199.24 30.7224 199.387 29.2455 205.838L27.7303 212.456L30.2141 213.025C31.696 213.364 33.8436 212.99 35.5403 212.097C39.3739 210.078 40.7829 210.581 43.9299 215.091C46.139 218.256 46.4964 219.467 45.9834 222.032C45.4888 224.501 44.7088 225.555 42.1818 227.175L42.0275 227.274C41.1449 227.84 40.5086 228.248 39.8164 228.472C38.0283 229.05 35.8669 228.4 28.1224 226.07L27.5956 225.911L25.2335 225.2L24.6239 227.623L23.6263 231.586L22.6269 235.557L20.0203 245.913L22.6001 246.504C24.0979 246.847 26.6927 246.472 28.7833 245.611L32.3869 244.127L34.7986 246.275C37.6389 248.805 39.3831 253.461 38.6651 256.597C38.3306 258.059 36.9618 259.593 34.6937 261.049C31.583 263.045 30.9406 263.146 28.3649 262.041C26.7877 261.364 23.6525 260.182 21.3985 259.414L17.2997 258.018L16.639 260.903L15.6391 265.271L14.7596 269.113C13.3625 275.215 12.2468 280.504 12.2791 280.867C12.3879 282.064 19.2989 282.853 21.0224 281.864C23.6808 280.34 26.1696 281.434 28.4316 285.123C30.0849 287.819 30.3654 289.175 29.7906 291.686C28.3019 298.188 24.4115 299.698 15.243 297.33L8.6872 295.637L8.32034 297.247L7.51487 300.78C7.46365 301.005 7.41438 301.226 7.36707 301.444C5.92077 308.1 6.29937 311.678 8.8773 316.504L11.1565 320.771L108.39 343.246C195.952 363.485 205.7 365.605 206.395 364.554C206.82 363.913 206.972 362.401 206.735 361.196L206.303 359.004L172.916 351.276C154.554 347.026 137.608 342.845 135.259 341.987C129.358 339.831 188.376 352.138 198.516 355.179L206.588 357.598L209.415 345.252C212.193 333.118 212.212 332.891 210.539 332.07C209.603 331.61 174.143 323.14 131.739 313.248C89.3353 303.354 53.1629 294.645 51.3556 293.893L48.0697 292.527L45.3271 305.521L42.5843 318.517L46.06 319.584C52.5686 321.581 53.3245 321.231 54.6095 315.619C55.2701 312.733 56.0065 310.957 56.384 311.338C56.7399 311.695 56.4835 313.932 55.8146 316.31L54.5984 320.634L58.542 322.061C60.7114 322.845 73.3504 325.978 86.6287 329.022C100.259 332.147 110.893 334.924 111.05 335.402C111.465 336.658 101.201 334.91 68.5686 328.169C46.4005 323.588 38.9983 321.806 38.2587 320.868C37.7206 320.186 36.6016 319.283 35.772 318.863C34.407 318.172 34.4368 318.13 36.0847 318.417C37.7454 318.706 38.0042 318.322 39.025 314.051ZM121.325 316.807C116.047 318.235 113.124 323.32 114.33 328.975C116.207 337.778 125.052 339.776 130.663 332.662C135.875 326.056 133.053 318.138 124.832 316.304C124.337 316.194 122.759 316.42 121.325 316.807ZM290.806 76.3733C292.463 77.9612 294.471 80.7361 295.27 82.5409C295.409 82.8556 295.545 83.1433 295.674 83.4177L295.676 83.4204C295.84 83.7683 295.994 84.095 296.133 84.4285C298.262 89.55 296.719 96.2831 271.479 206.424C271.427 206.648 271.376 206.873 271.324 207.098C270.07 212.57 268.758 218.297 267.385 224.29C250.821 296.594 236.912 355.867 236.126 357.5C233.671 362.601 227.281 367.369 222.746 367.487L220.68 367.539L252.93 226.043C275.205 128.311 285.291 85.2356 285.537 86.7755C285.775 88.2665 275.613 134.231 254.847 225.591C237.771 300.712 223.987 362.482 224.217 362.855C224.446 363.229 225.62 362.902 226.826 362.128L229.018 360.721L242.051 304.667C249.221 273.837 263.013 212.736 272.702 168.886C273.761 164.092 274.758 159.581 275.697 155.335L275.698 155.332C289.418 93.2898 290.637 87.7774 288.787 83.7474C288.607 83.3544 288.398 82.9756 288.168 82.5598C288.006 82.2678 287.835 81.9576 287.656 81.6115C286.222 78.8304 283.011 75.5352 282.226 76.0386C280.666 77.0395 268.222 128.716 243.482 236.936C228.855 300.918 216.512 356.273 216.054 359.948C215.129 367.358 214.915 367.848 212.813 367.367C211.451 367.055 211.633 365.629 215.519 346.295C221.114 318.46 277.388 75.6895 278.891 72.9066C280.04 70.7797 280.198 70.7541 283.935 72.0984C286.058 72.8627 289.15 74.7862 290.806 76.3733ZM124.217 329.865C126 329.363 126.55 328.685 126.812 326.678C127.078 324.635 126.754 324.008 125.18 323.515C122.2 322.58 121.072 323.078 120.499 325.582C119.746 328.872 121.317 330.683 124.217 329.865Z" fill="#222222"/>
<path d="M290.806 76.3733C292.463 77.9612 294.471 80.7361 295.27 82.5409C295.409 82.8556 295.545 83.1433 295.674 83.4177L295.676 83.4204C295.84 83.7683 295.994 84.095 296.133 84.4285C298.262 89.55 296.719 96.2831 271.479 206.424L271.324 207.098C270.07 212.57 268.758 218.297 267.385 224.29C250.821 296.594 236.912 355.867 236.126 357.5C233.671 362.601 227.281 367.369 222.746 367.487L220.68 367.539L252.93 226.043C275.205 128.311 285.291 85.2356 285.537 86.7755C285.775 88.2665 275.613 134.231 254.847 225.591C237.771 300.712 223.987 362.482 224.217 362.855C224.446 363.229 225.62 362.902 226.826 362.128L229.018 360.721L242.051 304.667C249.221 273.837 263.013 212.736 272.702 168.886C273.761 164.092 274.758 159.581 275.697 155.335L275.698 155.332C289.418 93.2898 290.637 87.7774 288.787 83.7474C288.607 83.3544 288.398 82.9756 288.168 82.5598C288.006 82.2678 287.835 81.9576 287.656 81.6115C286.222 78.8304 283.011 75.5352 282.226 76.0386C280.666 77.0395 268.222 128.716 243.482 236.936C228.855 300.918 216.512 356.273 216.054 359.948C215.129 367.358 214.915 367.848 212.813 367.367C211.451 367.055 211.633 365.629 215.519 346.295C221.114 318.46 277.388 75.6895 278.891 72.9066C280.04 70.7797 280.198 70.7541 283.935 72.0984C286.058 72.8627 289.15 74.7862 290.806 76.3733Z" fill="#FFF9EE"/>
<path fill-rule="evenodd" clip-rule="evenodd" d="M252.066 97.718L265.269 101.305L239.353 213.575L213.437 325.845L136.223 308.365C93.7557 298.751 56.8055 290.163 54.112 289.283L49.2151 287.682L73.2228 184.359C86.4264 127.53 98.207 76.9104 99.4001 71.8676L101.57 62.6999L170.217 78.4154C207.972 87.0589 244.804 95.7454 252.066 97.718ZM65.222 255.745C65.1162 254.965 65.4814 254.167 66.0334 253.973C66.8633 253.682 197.698 283.404 207.19 286.041C209.585 286.706 210.085 287.18 209.784 288.498C209.413 290.118 208.877 290.008 137.412 273.647C72.1345 258.703 65.3961 257.032 65.222 255.745ZM63.4657 270.501C62.9206 270.356 62.6423 269.502 62.8479 268.604C63.2189 266.984 63.755 267.094 135.195 283.449C195.632 297.285 207.126 300.105 206.911 301.045C206.746 301.766 205.264 302.032 202.743 301.792C199.934 301.523 72.145 272.814 63.4657 270.501ZM64.9683 282.422C60.8939 280.808 60.9466 279.556 65.0676 280.047C66.7575 280.249 98.4511 287.288 135.498 295.69C200.611 310.457 205.424 311.721 202.839 313.382C201.972 313.938 69.3521 284.157 64.9683 282.422Z" fill="#FFF9EE"/>
<path fill-rule="evenodd" clip-rule="evenodd" d="M61.4656 66.5253C61.1673 67.5243 60.7918 68.866 60.3697 70.4399C60.5944 70.478 60.8207 70.516 61.0486 70.5539C70.4429 72.1153 71.2104 72.1192 71.5569 70.6058C71.9041 69.0889 71.405 68.8551 61.4656 66.5253ZM52.0407 106.28L51.0852 110.82C55.3294 111.915 58.8325 112.685 59.7411 112.604C60.9016 112.502 61.7142 111.761 61.9904 110.554L62.4231 108.665L52.0407 106.28ZM43.3802 144.097L42.4173 148.303C48.3705 149.457 52.8133 150.122 53.0991 149.859C53.4677 149.521 53.7498 148.509 53.7265 147.611C53.6963 146.46 53.0507 145.89 51.5362 145.679C50.7715 145.573 47.5586 144.946 43.3802 144.097ZM35.6976 179.099C35.2985 180.251 34.8329 181.833 34.3663 183.641C45.3042 186.079 45.7592 185.72 45.6847 182.591C45.6538 181.296 44.7672 180.904 39.5036 179.857C38.5056 179.659 37.1901 179.397 35.6976 179.099ZM24.6239 227.623L23.6263 231.586C24.9694 231.816 26.2476 232.006 27.4118 232.142C32.4387 232.73 33.6624 232.598 34.1799 231.411C35.0947 229.312 34.1069 228.385 31.1801 228.593C30.3746 228.65 27.8698 228.266 24.6239 227.623ZM16.639 260.903C21.7678 262.006 25.5287 262.836 25.8421 262.938C26.2727 263.079 26.5139 264.202 26.3783 265.434L26.1323 267.674L15.6391 265.271L16.639 260.903ZM8.32034 297.247L7.51487 300.78C7.46365 301.005 7.41438 301.226 7.36707 301.444C9.74197 301.998 12.0101 302.485 13.9694 302.851C17.4393 303.498 17.8461 303.379 18.2531 301.601L18.7029 299.637L8.32034 297.247Z" fill="#FFF9EE"/>
<path fill-rule="evenodd" clip-rule="evenodd" d="M39.025 314.051C39.6409 311.474 54.6514 246.679 72.3825 170.06L104.62 30.753L93.2322 28.2336C80.679 25.4568 77.2837 25.2225 74.2626 26.9234C70.74 28.9072 68.9685 32.3254 66.9934 40.9528C65.2883 48.4007 65.2578 49.1626 66.6282 49.9815C68.8783 51.3247 72.9929 51.0786 74.3267 49.5206C76.3846 47.1156 79.7764 48.6626 82.2061 53.1148C85.0997 58.4188 84.3597 61.8464 79.597 65.1992L76.1576 67.6204L69.4183 65.8362C65.7109 64.8551 62.4335 64.3041 62.1358 64.6122C62.0389 64.7121 61.8011 65.4021 61.4656 66.5253C71.405 68.8551 71.9041 69.0889 71.5569 70.6058C71.2104 72.1192 70.4429 72.1153 61.0486 70.5539C60.8207 70.516 60.5944 70.478 60.3697 70.4399C59.8032 72.5524 59.1528 75.0832 58.4926 77.7648L55.3927 90.3571L59.3888 90.9962C61.9997 91.4144 64.1145 91.2018 65.4864 90.3853C67.0931 89.4293 67.8893 89.4071 68.8741 90.2923C70.8501 92.0685 73.9229 97.8105 74.0573 99.977C74.2311 102.798 70.8285 106.728 67.3539 107.719C64.3848 108.564 63.3357 108.316 55.4842 104.912L52.5924 103.659L52.0407 106.28L62.4231 108.665L61.9904 110.554C61.7142 111.761 60.9016 112.502 59.7411 112.604C58.8325 112.685 55.3294 111.915 51.0852 110.82L49.9387 116.268L47.2852 128.878L49.745 129.162C51.0977 129.318 53.8005 128.843 55.7518 128.106C58.7867 126.958 59.5797 126.968 61.2504 128.174C64.2234 130.319 66.2874 136.864 65.0107 140.099C63.7672 143.252 62.3549 144.454 58.7722 145.41C56.475 146.022 55.5087 145.839 52.1434 144.15C49.9771 143.062 47.2124 142.198 46.0002 142.229L43.7947 142.286L43.3802 144.097C47.5586 144.946 50.7715 145.573 51.5362 145.679C53.0507 145.89 53.6963 146.46 53.7265 147.611C53.7498 148.509 53.4677 149.521 53.0991 149.859C52.8133 150.122 48.3705 149.457 42.4173 148.303L41.3688 152.882L38.943 163.479L41.1542 163.985C42.3697 164.263 44.8762 164.064 46.7227 163.541C52.013 162.046 54.3011 163.333 56.3426 168.952C57.5465 172.266 56.8936 175.063 54.2774 177.796C51.113 181.101 47.4909 181.427 42.0186 178.899C39.5504 177.758 37.1287 176.966 36.6372 177.138C36.4373 177.209 36.1015 177.933 35.6976 179.099C37.1901 179.397 38.5056 179.659 39.5036 179.857C44.7672 180.904 45.6538 181.296 45.6847 182.591C45.7592 185.72 45.3042 186.079 34.3663 183.641C34.1418 184.51 33.917 185.432 33.6994 186.383C31.7024 195.106 31.6965 195.323 33.4582 195.708C34.4504 195.925 36.9969 195.735 39.1171 195.285C41.2381 194.836 43.6332 194.62 44.4393 194.805C47.7069 195.553 48.1829 202.84 45.0694 204.452C43.6133 205.206 40.5728 204.15 32.4591 200.072C30.8039 199.24 30.7224 199.387 29.2455 205.838L27.7303 212.456L30.2141 213.025C31.696 213.364 33.8436 212.99 35.5403 212.097C39.3739 210.078 40.7829 210.581 43.9299 215.091C46.139 218.256 46.4964 219.467 45.9834 222.032C45.4888 224.501 44.7088 225.555 42.1818 227.175L42.0275 227.274C41.1449 227.84 40.5086 228.248 39.8164 228.472C38.0283 229.05 35.8669 228.4 28.1224 226.07L27.5956 225.911L25.2335 225.2L24.6239 227.623C27.8698 228.266 30.3746 228.65 31.1801 228.593C34.1069 228.385 35.0947 229.312 34.1799 231.411C33.6624 232.598 32.4387 232.73 27.4118 232.142C26.2476 232.006 24.9694 231.816 23.6263 231.586L22.6269 235.557L20.0203 245.913L22.6001 246.504C24.0979 246.847 26.6927 246.472 28.7833 245.611L32.3869 244.127L34.7986 246.275C37.6389 248.805 39.3831 253.461 38.6651 256.597C38.3306 258.059 36.9618 259.593 34.6937 261.049C31.583 263.045 30.9406 263.146 28.3649 262.041C26.7877 261.364 23.6525 260.182 21.3985 259.414L17.2997 258.018L16.639 260.903C21.7678 262.006 25.5287 262.836 25.8421 262.938C26.2727 263.079 26.5139 264.202 26.3783 265.434L26.1323 267.674L15.6391 265.271L14.7596 269.113C13.3625 275.215 12.2468 280.504 12.2791 280.867C12.3879 282.064 19.2989 282.853 21.0224 281.864C23.6808 280.34 26.1696 281.434 28.4316 285.123C30.0849 287.819 30.3654 289.175 29.7906 291.686C28.3019 298.188 24.4115 299.698 15.243 297.33L8.6872 295.637L8.32034 297.247L18.7029 299.637L18.2531 301.601C17.8461 303.379 17.4393 303.498 13.9694 302.851C12.0101 302.485 9.74197 301.998 7.36707 301.444C5.92077 308.1 6.29937 311.678 8.8773 316.504L11.1565 320.771L108.39 343.246C195.952 363.485 205.7 365.605 206.395 364.554C206.82 363.913 206.972 362.401 206.735 361.196L206.303 359.004L172.916 351.276C154.554 347.026 137.608 342.845 135.259 341.987C129.358 339.831 188.376 352.138 198.516 355.179L206.588 357.598L209.415 345.252C212.193 333.118 212.212 332.891 210.539 332.07C209.603 331.61 174.143 323.14 131.739 313.248C89.3353 303.354 53.1629 294.645 51.3556 293.893L48.0697 292.527L45.3271 305.521L42.5843 318.517L46.06 319.584C52.5686 321.581 53.3245 321.231 54.6095 315.619C55.2701 312.733 56.0065 310.957 56.384 311.338C56.7399 311.695 56.4835 313.932 55.8146 316.31L54.5984 320.634L58.542 322.061C60.7114 322.845 73.3504 325.978 86.6287 329.022C100.259 332.147 110.893 334.924 111.05 335.402C111.465 336.658 101.201 334.91 68.5686 328.169C46.4005 323.588 38.9983 321.806 38.2587 320.868C37.7206 320.186 36.6016 319.283 35.772 318.863C34.407 318.172 34.4368 318.13 36.0847 318.417C37.7454 318.706 38.0042 318.322 39.025 314.051ZM114.33 328.975C113.124 323.32 116.047 318.235 121.325 316.807C122.759 316.42 124.337 316.194 124.832 316.304C133.053 318.138 135.875 326.056 130.663 332.662C125.052 339.776 116.207 337.778 114.33 328.975Z" fill="#F2B667"/>
<path d="M228.897 59.7973L273.576 70.5052L270.854 82.91L268.132 95.3137L184.948 76.2373L101.764 57.1602L104.327 48.297C105.736 43.4223 107.277 37.7494 107.75 35.6902L108.611 31.9476L146.415 40.5181C167.207 45.2317 204.324 53.9079 228.897 59.7973Z" fill="#F2B667"/>
<path d="M183.649 99.9874C183.764 99.4657 185.309 99.3978 187.807 99.8046C189.993 100.161 192.408 100.535 193.174 100.636C194.218 100.774 194.702 101.664 195.111 104.194C195.411 106.05 196.732 110.195 198.045 113.404C199.359 116.614 200.96 120.969 201.604 123.083C202.71 126.718 202.843 126.866 204.057 125.825C204.763 125.22 206.477 123.35 207.865 121.668C209.253 119.987 212.734 116.123 215.599 113.081L220.808 107.549L226.516 108.856C230.293 109.721 232.163 110.426 232.045 110.941C231.742 112.264 226.127 118.741 217.69 127.498C205.768 139.872 206.994 137.683 204.459 151.133L202.252 162.838L199.828 162.748C198.495 162.699 195.824 162.018 193.893 161.237L190.381 159.815L192.649 148.346C194.603 138.459 194.797 136.529 194.059 134.356C193.587 132.97 191.395 126.701 189.188 120.424C185.353 109.525 183.254 101.778 183.649 99.9874Z" fill="#222222"/>
<path d="M157.101 125.13C160.563 110.03 163.741 97.0202 164.162 96.2167C164.874 94.8626 165.31 94.8439 170.196 95.9626L175.464 97.1686L169.661 124.751C165.598 144.066 163.501 152.874 162.666 154.139C161.529 155.858 161.329 155.889 158.429 154.787C156.755 154.152 154.355 153.395 153.096 153.107L150.806 152.583L157.101 125.13Z" fill="#222222"/>
<path fill-rule="evenodd" clip-rule="evenodd" d="M110.807 82.1614L108.856 82.0186L102.99 109.52C99.7634 124.646 97.1601 137.49 97.2043 138.061C97.2713 138.924 99.1874 139.453 108.527 141.187C115.072 142.402 121.256 143.167 123.325 143.02C130.574 142.504 139.038 137.001 144.41 129.312C146.707 126.024 147.526 124.096 148.653 119.311C149.921 113.928 149.937 112.898 148.829 108.085C147.386 101.821 143.039 94.386 138.936 91.1628C137.378 89.9381 134.233 88.1721 131.947 87.2374C127.95 85.6033 114.845 82.4564 110.807 82.1614ZM135.712 121.303C140.275 111.238 136.282 101.238 126.372 97.9142C124.186 97.1809 121.584 96.2553 120.59 95.8562C119.596 95.4579 118.728 95.1931 118.66 95.2675C118.592 95.3421 116.669 103.117 114.388 112.544L110.239 129.686L114.899 130.29C122.48 131.274 124.953 130.867 129.675 127.857C133.319 125.534 134.254 124.519 135.712 121.303Z" fill="#222222"/>
<path d="M93.2435 172.31L95.1071 164.17L96.9708 156.029L102.31 157.251C107.873 158.525 108.109 158.698 106.855 160.586C106.499 161.123 105.686 161.139 103.562 160.653C99.7504 159.781 99.142 159.933 98.6986 161.87L98.3289 163.484L101.182 164.362C104.436 165.363 104.705 165.614 103.937 166.931C103.458 167.754 102.992 167.792 100.473 167.215L97.5624 166.549L97.3478 168.187L97.1326 169.825L100.618 170.776L104.104 171.727L103.697 173.504L103.29 175.282L99.6497 174.113C97.6474 173.469 95.3869 172.801 94.6263 172.627L93.2435 172.31Z" fill="#222222"/>
<path d="M130.808 180.953C130.724 180.815 131.485 177.076 132.5 172.643L134.345 164.585L139.441 165.752L144.538 166.919L144.142 168.645L143.747 170.372L140.107 169.539L136.466 168.705L136.015 170.679L135.563 172.652L138.96 173.43C142.234 174.18 142.348 174.252 142.084 175.406C141.834 176.499 141.558 176.576 138.946 176.283C135.042 175.845 134.72 175.916 134.606 177.234C134.515 178.288 134.792 178.459 137.992 179.332L141.478 180.283L141.152 181.708L140.825 183.134L135.893 182.17C133.181 181.639 130.892 181.092 130.808 180.953Z" fill="#222222"/>
<path d="M173.244 191.023L175.151 182.693L177.058 174.364L182.185 175.537L187.313 176.711L186.793 178.28L186.274 179.849L182.755 179.043L179.236 178.237L178.756 180.334L178.276 182.431L181.431 183.153C184.432 183.84 184.573 183.933 184.317 185.051C184.018 186.358 182.891 186.584 179.957 185.924C178.796 185.663 178.025 185.771 177.714 186.239C176.565 187.97 176.848 188.285 180.416 189.259L183.902 190.209L183.687 191.845L183.473 193.481L178.358 192.252L173.244 191.023Z" fill="#222222"/>
<path d="M106.937 170.513C106.708 170.284 106.702 169.304 106.924 168.335L107.327 166.574L111.158 167.692C113.266 168.306 115.093 168.978 115.22 169.183C115.347 169.389 115.195 170.063 114.883 170.682C114.373 171.695 113.97 171.763 110.835 171.368C108.92 171.127 107.166 170.742 106.937 170.513Z" fill="#222222"/>
<path d="M108.068 195.175L108.816 190.284L109.564 185.393L111.062 185.735L112.56 186.078L110.737 192.8C109.734 196.498 108.696 200.007 108.43 200.599C107.998 201.559 107.862 201.581 107.163 200.796C106.733 200.312 105.544 197.926 104.522 195.493C103.499 193.06 102.432 191.15 102.15 191.249C101.868 191.347 101.234 193.19 100.74 195.345C99.9277 198.895 99.7546 199.243 98.9013 199.048C98.3829 198.929 97.8632 198.544 97.7458 198.191C97.6283 197.838 98.1907 194.462 98.9955 190.688C100.279 184.67 100.554 183.85 101.237 184.013C102.322 184.273 102.934 184.987 103.801 187.007C104.213 187.966 105.341 190.195 106.308 191.962L108.068 195.175Z" fill="#222222"/>
<path d="M127.831 190.808C127.908 190.471 128.593 190.24 129.353 190.295C131.64 190.461 136.709 191.585 137.456 192.093C138.157 192.57 138.023 194.261 137.182 195.528C136.853 196.024 136.301 196.03 135.133 195.553L133.535 194.898L132.165 200.883C130.893 206.439 130.728 206.853 129.87 206.657C129.038 206.466 129.037 205.909 129.85 201.07C130.829 195.253 130.77 194.233 129.422 193.659C128.444 193.243 127.614 191.754 127.831 190.808Z" fill="#222222"/>
<path d="M194.673 211.108C194.899 211.159 196.835 210.201 198.975 208.977C202.775 206.805 204.458 206.405 204.151 207.748C203.964 208.563 200.89 211.303 198.799 212.519L197.261 213.414L199.439 217.229C201.901 221.539 201.993 223.168 199.747 222.654C198.592 222.39 198.039 221.716 196.855 219.136C196.05 217.381 195.129 215.885 194.808 215.812C194.479 215.736 193.856 216.669 193.38 217.951C191.99 221.689 191.503 222.074 190.411 220.302C189.855 219.398 191.785 207.07 192.698 205.694C192.963 205.295 193.589 205.16 194.158 205.381C195.007 205.709 195.088 206.154 194.708 208.39C194.463 209.833 194.447 211.056 194.673 211.108Z" fill="#222222"/>
<path d="M138.169 200.983C139.058 196.735 139.872 193.204 139.98 193.137C140.44 192.845 148.921 195.417 149.248 195.948C149.446 196.269 149.356 196.966 149.048 197.495C148.549 198.35 148.114 198.372 145.122 197.687C141.603 196.881 141.448 196.952 141.526 199.33C141.561 200.381 141.869 200.577 144.42 201.161C147.122 201.779 147.261 201.879 147.001 203.015C146.708 204.296 146.296 204.408 142.75 204.166C140.901 204.04 140.57 204.179 140.489 205.114C140.405 206.095 140.737 206.305 143.638 207.107C146.878 208.001 146.881 208.004 146.547 209.46L146.214 210.917L141.384 209.812L136.554 208.706L138.169 200.983Z" fill="#222222"/>
<path fill-rule="evenodd" clip-rule="evenodd" d="M117.479 188.292C115.689 189.155 113.568 191.584 112.586 193.897C110.843 197.999 114.826 204.067 118.991 203.655C121.165 203.44 124.234 201.195 125.553 198.855C126.807 196.631 126.574 194.332 124.764 191.079C123.51 188.825 123.121 188.496 121.182 188.052C119.71 187.715 118.514 187.793 117.479 188.292ZM122.769 197.3C123.173 195.535 122.893 193.028 122.214 192.331C121.091 191.177 118.65 191.099 117.339 192.175C114.509 194.497 115.073 199.634 118.237 200.359C119.957 200.753 122.348 199.139 122.769 197.3Z" fill="#222222"/>
<path fill-rule="evenodd" clip-rule="evenodd" d="M168.366 199.877C166.932 200.116 164.054 202.33 162.711 204.226C161.791 205.526 161.685 206.044 161.885 208.246C162.35 213.352 166.388 216.446 170.672 214.98C174.516 213.665 176.581 208.55 174.949 204.385C174.47 203.162 173.706 201.743 173.252 201.232C172.345 200.213 170.094 199.589 168.366 199.877ZM170.483 211.511C172.427 210.704 173.045 206.34 171.457 204.632C170.465 203.567 168.348 203.552 166.836 204.6C164.876 205.959 164.564 207.354 165.71 209.629C166.734 211.665 168.468 212.349 170.483 211.511Z" fill="#222222"/>
<path fill-rule="evenodd" clip-rule="evenodd" d="M180.091 204.309L176.738 206.451L176.258 209.544C175.806 212.455 175.881 212.792 177.527 215.301C180.012 219.09 181.742 219.429 185.699 216.901C189.314 214.591 190.259 212.76 189.595 209.349C188.987 206.232 187.281 203.738 185.161 202.87C183.555 202.213 183.228 202.306 180.091 204.309ZM185.75 213.505C187.107 212.181 187.128 210.517 185.812 208.382C184.578 206.378 182.92 205.962 181.016 207.179C178.477 208.8 178.273 212.384 180.624 214.074C182.204 215.211 184.233 214.985 185.75 213.505Z" fill="#222222"/>
<path fill-rule="evenodd" clip-rule="evenodd" d="M160.091 179.306L158.171 187.694L161.341 188.419C163.085 188.819 165.287 189.007 166.234 188.838C168.286 188.472 171.672 186.1 172.507 184.444C173.545 182.387 173.54 179.237 172.495 177.022C171.05 173.959 169.163 172.558 165.287 171.67L162.011 170.919L160.091 179.306ZM169.333 182.652C170.349 180.297 170.132 178.579 168.629 177.093C167.891 176.363 166.468 175.577 165.467 175.347L163.648 174.928L162.779 178.753C162.301 180.857 161.928 183.135 161.95 183.816C161.987 184.953 162.175 185.069 164.259 185.251C167.002 185.489 168.422 184.762 169.333 182.652Z" fill="#222222"/>
<path fill-rule="evenodd" clip-rule="evenodd" d="M188.469 184.428C187.457 188.665 186.544 192.404 186.439 192.737C186.332 193.08 186.919 193.567 187.792 193.858L189.334 194.374L189.899 191.905C190.21 190.547 190.725 189.345 191.044 189.234C191.953 188.917 193.501 190.87 194.612 193.734C195.504 196.034 195.794 196.35 196.986 196.321C197.733 196.302 198.457 196.214 198.595 196.126C198.733 196.038 198.379 194.827 197.807 193.437C197.236 192.046 196.814 190.708 196.869 190.464C196.925 190.22 197.772 189.533 198.752 188.936C200.882 187.638 201.472 185.768 200.587 183.111C199.649 180.291 198.334 179.236 194.116 177.915L190.309 176.724L188.469 184.428ZM193.537 186.34C196.476 187.248 198.835 185.227 197.268 183.144C196.945 182.715 195.711 182.021 194.525 181.602L192.37 180.842L191.969 183.288L191.567 185.733L193.537 186.34Z" fill="#222222"/>
<path fill-rule="evenodd" clip-rule="evenodd" d="M148.132 211.463L149.966 203.454L151.799 195.444L155.388 196.516C159.32 197.69 160.397 198.676 160.897 201.555C161.135 202.926 161.011 203.353 160.088 204.341C159.054 205.447 159.039 205.582 159.8 206.908C160.886 208.8 160.46 210.199 158.328 211.735C156.614 212.971 156.375 212.991 152.337 212.243L148.132 211.463ZM156.24 206.919C156.545 207.231 156.599 207.999 156.36 208.626C156.004 209.563 155.597 209.719 154.072 209.502C152.32 209.254 152.235 209.159 152.544 207.811C152.723 207.026 153.05 206.269 153.27 206.129C153.826 205.774 155.577 206.239 156.24 206.919ZM155.187 203.106C157.054 203.534 157.17 203.483 157.318 202.166C157.454 200.958 157.24 200.699 155.69 200.205C153.984 199.66 153.889 199.702 153.559 201.145C153.23 202.582 153.309 202.677 155.187 203.106Z" fill="#222222"/>
<path fill-rule="evenodd" clip-rule="evenodd" d="M117.99 169.088L116.082 177.418L117.231 177.926C118.753 178.6 118.913 178.443 119.552 175.65C120.057 173.444 120.187 173.286 121.296 173.54C122.181 173.743 122.861 174.652 123.906 177.03C125.024 179.578 125.541 180.237 126.389 180.202C126.978 180.177 127.624 180.192 127.825 180.234C128.616 180.4 128.377 179.124 127.141 176.588L125.848 173.934L128.007 172.805C130.837 171.327 131.312 169.508 129.771 166.045C128.541 163.281 127.648 162.691 122.917 161.511L119.896 160.758L117.99 169.088ZM125.891 170.42C127.147 170.068 127.717 168.132 126.888 167.032C126.565 166.602 125.344 165.913 124.174 165.5L122.047 164.75L121.468 167.281L120.889 169.812L122.862 170.264C123.947 170.512 125.311 170.583 125.891 170.42Z" fill="#222222"/>
<path fill-rule="evenodd" clip-rule="evenodd" d="M80.8844 185.952C80.5193 184.115 81.8193 182.147 84.235 180.882C86.4405 179.726 88.1179 180.133 89.2244 182.092C90.6649 184.642 90.4921 185.549 88.1701 187.63C86.158 189.433 86.1036 189.545 86.8295 190.395C87.5021 191.184 87.6854 191.164 88.4846 190.217C89.4995 189.014 91.3903 188.656 91.9475 189.56C92.1926 189.958 91.7934 190.871 90.7667 192.263C88.9045 194.788 88.42 196.371 89.5616 196.202C90.0913 196.124 90.2849 196.39 90.1444 197.003C89.8554 198.266 88.5071 198.361 87.7738 197.17C87.2673 196.348 86.8927 196.224 85.4714 196.405C81.7663 196.879 78.76 195.162 77.9492 192.108C77.601 190.797 79.1003 188.006 80.3549 187.628C81.0258 187.427 81.1191 187.131 80.8844 185.952ZM86.9463 184.198C86.7123 185.22 84.9635 186.511 84.085 186.309C83.1904 186.105 83.6578 184.391 84.8079 183.656C86.0409 182.869 87.1843 183.158 86.9463 184.198ZM83.1772 192.852C84.795 193.222 84.8949 193.158 85.2714 191.514C85.698 189.65 85.6455 189.603 83.4726 189.888C82.4382 190.024 81.9464 190.419 81.7514 191.27C81.5147 192.304 81.7046 192.514 83.1772 192.852Z" fill="#222222"/>
<path fill-rule="evenodd" clip-rule="evenodd" d="M148.201 174.345C146.077 177.487 143.898 180.822 143.359 181.757C142.409 183.402 142.418 183.473 143.608 184.001C145.166 184.691 145.615 184.526 145.931 183.147C146.321 181.442 147.394 181.073 150.133 181.7C152.821 182.315 153.359 182.888 153.398 185.176C153.416 186.244 153.721 186.675 154.599 186.876C155.245 187.024 155.954 186.874 156.174 186.543C156.533 186.003 155.092 174.142 154.25 170.7C154.065 169.944 153.497 169.169 152.989 168.978C152.21 168.687 151.449 169.54 148.201 174.345ZM149.329 178.436C149.624 179.32 152.338 179.701 152.525 178.885C152.617 178.484 152.446 177.399 152.145 176.473L151.598 174.789L150.377 176.351C149.705 177.21 149.234 178.148 149.329 178.436Z" fill="#222222"/>
</g>
<rect x="3.5" y="3.5" width="247" height="247" rx="95.5" stroke="black" stroke-width="7"/>
<defs>
<clipPath id="clip0_3738_11277">
<rect x="7" y="7" width="240" height="240" rx="92" fill="white"/>
</clipPath>
</defs>
</svg>
