<svg width="254" height="254" viewBox="0 0 254 254" fill="none" xmlns="http://www.w3.org/2000/svg">
<g clip-path="url(#clip0_3738_11277)">
<rect x="7" y="7" width="240" height="240" rx="92" fill="#FFF9EE"/>
<path d="M304.353 104.257C304.031 103.986 304.295 103.301 304.939 102.736C306.682 101.209 307.534 101.598 306.145 103.286C305.481 104.093 304.674 104.53 304.353 104.257Z" fill="#F2B667"/>
<path d="M306.571 107.629C306.098 107.562 305.763 107.135 305.827 106.679C305.891 106.222 306.104 105.872 306.302 105.9C306.499 105.927 306.833 106.355 307.045 106.85C307.258 107.345 307.043 107.695 306.571 107.629Z" fill="#F2B667"/>
<path d="M299.997 114.899C299.783 114.61 299.905 114.009 300.269 113.565C301.113 112.528 303.308 112.814 303.149 113.939C303.01 114.933 300.568 115.675 299.997 114.899Z" fill="#F2B667"/>
<path d="M301.347 126.767C300.86 126.986 300.518 126.77 300.586 126.287C300.653 125.805 301.075 125.46 301.521 125.523C301.968 125.586 302.311 125.802 302.282 126.003C302.254 126.205 301.833 126.548 301.347 126.767Z" fill="#F2B667"/>
<path d="M302.632 129.062C302.159 128.995 302.05 128.6 302.39 128.182C302.731 127.765 303.17 127.446 303.367 127.474C303.565 127.502 303.673 127.897 303.609 128.354C303.545 128.81 303.105 129.128 302.632 129.062Z" fill="#F2B667"/>
<path d="M295.201 148.875C294.945 148.529 295.355 147.382 296.113 146.325C296.871 145.27 297.795 144.449 298.166 144.501C299.313 144.663 298.706 146.06 297.347 146.384C296.64 146.552 295.972 147.323 295.864 148.097C295.755 148.872 295.456 149.222 295.201 148.875Z" fill="#F2B667"/>
<path d="M296.914 151.426C296.575 151.139 296.347 150.553 296.407 150.124C296.468 149.694 296.822 149.386 297.194 149.439C297.566 149.491 297.795 150.077 297.701 150.741C297.608 151.405 297.254 151.713 296.914 151.426Z" fill="#F2B667"/>
<path d="M294.647 154.155C294.45 154.127 294.115 153.699 293.903 153.204C293.691 152.709 293.905 152.359 294.378 152.425C294.851 152.492 295.186 152.92 295.122 153.376C295.058 153.832 294.844 154.182 294.647 154.155Z" fill="#F2B667"/>
<path d="M296.148 156.044C295.567 155.954 295.714 155.642 296.513 155.262C298.219 154.452 298.5 154.491 297.732 155.434C297.392 155.851 296.679 156.125 296.148 156.044Z" fill="#F2B667"/>
<path d="M293.055 158.418C292.197 159.079 291.055 157.908 291.739 157.07C292.055 156.682 292.658 156.412 293.079 156.471C293.952 156.594 293.938 157.738 293.055 158.418Z" fill="#F2B667"/>
<path d="M292.521 163.174C291.921 162.502 291.451 161.811 291.475 161.639C291.606 160.71 293.017 161.739 293.291 162.962C293.559 164.161 293.432 164.196 292.521 163.174Z" fill="#F2B667"/>
<path d="M294.956 166.347C295.022 165.875 295.355 165.275 295.696 165.014C296.036 164.751 296.477 164.756 296.674 165.024C296.872 165.292 296.539 165.892 295.934 166.358C295.268 166.871 294.883 166.866 294.956 166.347Z" fill="#F2B667"/>
<path d="M291.468 167.238C290.995 167.172 290.886 166.776 291.226 166.358C291.566 165.941 292.005 165.622 292.203 165.65C292.4 165.678 292.509 166.074 292.445 166.53C292.381 166.986 291.941 167.304 291.468 167.238Z" fill="#F2B667"/>
<path d="M290.289 181.871C289.802 182.09 289.46 181.874 289.527 181.391C289.595 180.908 290.017 180.564 290.463 180.627C290.91 180.69 291.253 180.905 291.224 181.107C291.196 181.308 290.775 181.652 290.289 181.871Z" fill="#F2B667"/>
<path d="M287.393 191.415C286.476 192.115 286.397 192.006 287.003 190.886C287.424 190.112 287.943 189.715 288.157 190.006C288.371 190.296 288.028 190.93 287.393 191.415Z" fill="#F2B667"/>
<path d="M286.693 195.319C286.22 195.252 286.111 194.856 286.451 194.439C286.791 194.022 287.231 193.703 287.428 193.731C287.625 193.759 287.734 194.154 287.67 194.61C287.606 195.066 287.166 195.385 286.693 195.319Z" fill="#F2B667"/>
<path d="M285.061 206.928C284.588 206.862 284.479 206.466 284.819 206.049C285.16 205.632 285.599 205.313 285.796 205.34C285.994 205.368 286.102 205.764 286.038 206.22C285.974 206.676 285.534 206.995 285.061 206.928Z" fill="#F2B667"/>
<path d="M283.545 215.118C283.098 215.055 283.519 214.556 284.48 214.008C285.442 213.46 286.594 213.063 287.041 213.126C287.488 213.189 287.067 213.689 286.105 214.236C285.144 214.784 283.992 215.18 283.545 215.118Z" fill="#F2B667"/>
<path d="M285.673 218.008C285.476 217.98 285.141 217.552 284.929 217.058C284.717 216.563 284.931 216.212 285.404 216.279C285.877 216.345 286.212 216.773 286.148 217.229C286.084 217.685 285.87 218.035 285.673 218.008Z" fill="#F2B667"/>
<path d="M284.115 219.903C283.629 220.122 283.286 219.906 283.354 219.423C283.422 218.94 283.843 218.596 284.29 218.659C284.737 218.722 285.079 218.937 285.051 219.139C285.023 219.34 284.601 219.684 284.115 219.903Z" fill="#F2B667"/>
<path d="M283.31 225.286C282.837 225.22 282.728 224.824 283.068 224.407C283.408 223.989 283.847 223.671 284.045 223.698C284.242 223.726 284.351 224.122 284.286 224.578C284.222 225.034 283.782 225.353 283.31 225.286Z" fill="#F2B667"/>
<path d="M282.199 228.486C281.069 228.304 281.132 228.121 282.616 227.276C284.8 226.031 284.971 226.058 284.173 227.522C283.819 228.17 282.931 228.604 282.199 228.486Z" fill="#F2B667"/>
<path d="M283.307 230.708C282.987 230.438 283.447 229.631 284.328 228.915C286.442 227.199 287.446 227.995 285.443 229.8C284.588 230.57 283.627 230.979 283.307 230.708Z" fill="#F2B667"/>
<path d="M287.347 232.619C286.875 232.553 286.54 232.125 286.604 231.669C286.668 231.213 286.881 230.862 287.078 230.89C287.276 230.918 287.61 231.345 287.822 231.84C288.034 232.335 287.82 232.685 287.347 232.619Z" fill="#F2B667"/>
<path d="M282.25 233.171C281.764 233.39 281.421 233.174 281.489 232.691C281.557 232.209 281.978 231.864 282.425 231.927C282.872 231.99 283.214 232.206 283.186 232.407C283.158 232.609 282.737 232.952 282.25 233.171Z" fill="#F2B667"/>
<path d="M287.24 235.986C286.569 235.892 286.065 235.504 286.118 235.124C286.172 234.744 286.764 234.51 287.434 234.604C288.104 234.698 288.609 235.086 288.555 235.467C288.502 235.847 287.91 236.081 287.24 235.986Z" fill="#F2B667"/>
<path d="M281.493 238.561C281.046 238.499 280.733 238.074 280.797 237.618C280.861 237.162 281.279 236.84 281.726 236.903C282.173 236.966 282.486 237.39 282.422 237.846C282.358 238.302 281.94 238.624 281.493 238.561Z" fill="#F2B667"/>
<path d="M279.675 243.38C279.258 243.321 279.684 242.62 280.62 241.821C281.557 241.023 282.629 240.412 283.002 240.465C283.376 240.517 282.95 241.218 282.057 242.023C281.163 242.828 280.092 243.438 279.675 243.38Z" fill="#F2B667"/>
<path d="M278.796 254.54C278.186 254.198 277.936 253.611 278.241 253.237C279.008 252.296 279.292 252.433 279.62 253.899C279.809 254.744 279.535 254.957 278.796 254.54Z" fill="#F2B667"/>
<path d="M279.021 259.046C279.675 259.415 280.461 259.151 280.853 258.432C281.231 257.739 281.866 257.218 282.265 257.274C283.318 257.422 283.079 258.004 281.315 259.594C279.825 260.935 277.563 260.63 277.776 259.116C277.831 258.723 278.391 258.691 279.021 259.046Z" fill="#F2B667"/>
<path d="M279.168 262.472C278.577 262.624 277.663 262.496 277.137 262.187C276.611 261.879 277.094 261.755 278.211 261.912C279.328 262.069 279.759 262.321 279.168 262.472Z" fill="#F2B667"/>
<path d="M280.85 264.845C280.498 265.469 280.333 265.246 280.43 264.274C280.518 263.395 280.778 262.933 281.009 263.246C281.24 263.559 281.169 264.279 280.85 264.845Z" fill="#F2B667"/>
<path d="M277.788 275.236C276.312 275.018 276.217 274.845 277.294 274.334C279.015 273.516 279.877 273.637 279.731 274.676C279.667 275.132 278.792 275.384 277.788 275.236Z" fill="#F2B667"/>
<path d="M278.79 278.772C278.593 278.745 278.258 278.317 278.046 277.822C277.834 277.327 278.048 276.977 278.521 277.043C278.994 277.11 279.329 277.537 279.265 277.993C279.201 278.449 278.987 278.8 278.79 278.772Z" fill="#F2B667"/>
<path d="M279.233 284.289C279.352 283.352 279.072 282.076 278.613 281.453C278.153 280.831 278.06 280.361 278.404 280.409C278.749 280.458 279.497 281.129 280.065 281.899C280.827 282.933 280.826 283.655 280.059 284.647C279.105 285.883 279.037 285.854 279.233 284.289Z" fill="#F2B667"/>
<path d="M277.925 285.927C277.617 286.164 276.912 286.095 276.359 285.773C275.748 285.418 275.969 285.248 276.921 285.341C277.782 285.426 278.234 285.689 277.925 285.927Z" fill="#F2B667"/>
<path d="M273.876 288.398C272.961 288.975 272.85 288.851 273.391 287.858C274.252 286.279 275.497 286.425 277.35 288.322C278.882 289.889 277.903 290.103 276.148 288.584C275.458 287.988 274.632 287.92 273.876 288.398Z" fill="#F2B667"/>
<path d="M274.963 290.919C274.516 290.856 274.203 290.432 274.267 289.976C274.331 289.52 274.749 289.198 275.196 289.261C275.643 289.323 275.956 289.748 275.892 290.204C275.828 290.66 275.41 290.982 274.963 290.919Z" fill="#F2B667"/>
<path d="M278.038 292.62C277.551 292.839 277.209 292.622 277.277 292.14C277.344 291.657 277.766 291.313 278.212 291.376C278.659 291.439 279.002 291.654 278.973 291.856C278.945 292.057 278.524 292.4 278.038 292.62Z" fill="#F2B667"/>
<path d="M273.962 293.531C272.976 293.207 272.427 292.625 272.743 292.238C273.443 291.379 274.139 291.459 275.385 292.539C276.783 293.752 275.178 296.032 273.168 295.687C271.554 295.411 271.583 295.346 273.595 294.755L275.756 294.12L273.962 293.531Z" fill="#F2B667"/>
<path d="M272.647 298.204C271.951 298.107 271.673 297.668 272.03 297.23C272.469 296.692 273.022 296.82 273.742 297.629C274.595 298.586 274.987 298.607 275.712 297.735C276.211 297.137 276.567 297.05 276.505 297.542C276.442 298.033 275.355 299.184 274.087 300.098C272.819 301.012 271.844 301.322 271.919 300.786C271.994 300.25 272.422 299.864 272.868 299.927C273.315 299.99 273.733 299.668 273.797 299.212C273.861 298.756 273.344 298.302 272.647 298.204Z" fill="#F2B667"/>
<path d="M272.831 306.086C271.904 306.199 271.193 305.953 271.251 305.539C271.309 305.126 272.088 304.891 272.982 305.017C273.875 305.142 274.586 305.388 274.562 305.562C274.537 305.737 273.758 305.973 272.831 306.086Z" fill="#F2B667"/>
<path d="M275.001 308.683C274.528 308.616 274.193 308.189 274.257 307.733C274.321 307.277 274.534 306.926 274.731 306.954C274.929 306.981 275.263 307.409 275.475 307.904C275.687 308.399 275.473 308.749 275.001 308.683Z" fill="#F2B667"/>
<path d="M273.816 311.625C273.708 311.188 274.167 310.577 274.835 310.266C276.907 309.305 277.353 309.785 275.643 311.134C274.746 311.841 273.924 312.062 273.816 311.625Z" fill="#F2B667"/>
<path d="M272.733 315.975C272.089 315.884 271.426 315.492 271.259 315.103C271.093 314.714 271.661 314.496 272.521 314.617C273.382 314.738 274.046 315.129 273.995 315.488C273.945 315.846 273.377 316.065 272.733 315.975Z" fill="#F2B667"/>
<path d="M270.429 327.828C269.082 328.956 268.36 328.66 269.387 327.4C269.75 326.955 270.405 326.641 270.843 326.703C271.282 326.764 271.096 327.271 270.429 327.828Z" fill="#F2B667"/>
<path d="M268.358 336.442C266.621 336.141 266.618 336.104 268.263 335.642C269.212 335.375 270.083 335.144 270.199 335.128C270.316 335.112 270.358 335.471 270.294 335.928C270.23 336.384 269.358 336.615 268.358 336.442Z" fill="#F2B667"/>
<path d="M266.796 346.429C266.1 346.331 265.582 345.878 265.646 345.422C265.71 344.966 266.106 344.641 266.527 344.7C266.948 344.759 267.465 345.213 267.677 345.707C267.889 346.202 267.492 346.527 266.796 346.429Z" fill="#F2B667"/>
<path d="M269.591 346.822C269.145 346.759 268.832 346.335 268.896 345.879C268.96 345.423 269.378 345.101 269.825 345.164C270.271 345.226 270.585 345.651 270.52 346.107C270.456 346.563 270.038 346.885 269.591 346.822Z" fill="#F2B667"/>
<path d="M268.846 350.259C268.494 350.883 268.329 350.66 268.426 349.688C268.514 348.809 268.774 348.347 269.005 348.66C269.236 348.973 269.165 349.693 268.846 350.259Z" fill="#F2B667"/>
<path d="M269.54 352.734C269.067 352.668 268.958 352.272 269.298 351.855C269.639 351.438 270.078 351.119 270.275 351.147C270.473 351.174 270.581 351.57 270.517 352.026C270.453 352.482 270.013 352.801 269.54 352.734Z" fill="#F2B667"/>
<path d="M270.573 355.927C270.264 356.165 269.559 356.096 269.007 355.774C268.396 355.418 268.616 355.249 269.568 355.342C270.429 355.427 270.881 355.69 270.573 355.927Z" fill="#F2B667"/>
<path d="M265.538 357.979C265.637 357.279 266.022 356.472 266.394 356.186C266.767 355.899 267.151 356.114 267.249 356.662C267.347 357.21 266.961 358.017 266.393 358.454C265.634 359.039 265.407 358.912 265.538 357.979Z" fill="#F2B667"/>
<path d="M267.552 361.334C267.065 361.553 266.723 361.337 266.791 360.854C266.859 360.372 267.28 360.028 267.727 360.09C268.174 360.153 268.516 360.369 268.488 360.57C268.459 360.772 268.038 361.115 267.552 361.334Z" fill="#F2B667"/>
<path d="M265.519 364.008C265.072 363.946 264.789 363.312 264.889 362.601C264.988 361.891 265.403 361.59 265.811 361.935C266.218 362.28 266.502 362.913 266.441 363.342C266.381 363.772 265.966 364.071 265.519 364.008Z" fill="#F2B667"/>
<path d="M266.19 371.028C266.036 372.119 264.286 371.177 264.055 369.88C263.942 369.246 264.34 369.114 265.087 369.534C265.756 369.911 266.252 370.583 266.19 371.028Z" fill="#F2B667"/>
<path d="M262.216 373.851C261.864 374.475 261.699 374.252 261.796 373.28C261.884 372.401 262.145 371.939 262.376 372.252C262.607 372.565 262.535 373.285 262.216 373.851Z" fill="#F2B667"/>
<path d="M265.698 374.181C265.225 374.115 265.116 373.719 265.456 373.301C265.796 372.884 266.235 372.565 266.433 372.593C266.63 372.621 266.739 373.017 266.674 373.473C266.61 373.929 266.17 374.248 265.698 374.181Z" fill="#F2B667"/>
<path d="M263.829 376.033C263.343 376.252 263 376.035 263.068 375.553C263.136 375.07 263.557 374.726 264.004 374.789C264.451 374.852 264.793 375.067 264.765 375.269C264.737 375.47 264.316 375.814 263.829 376.033Z" fill="#F2B667"/>
<path d="M266.835 378.569C266.363 378.503 266.028 378.075 266.092 377.619C266.156 377.163 266.369 376.812 266.566 376.84C266.764 376.868 267.098 377.295 267.31 377.79C267.522 378.285 267.308 378.636 266.835 378.569Z" fill="#F2B667"/>
<path d="M258.314 379.909C257.867 379.846 257.554 379.421 257.618 378.965C257.682 378.509 258.1 378.187 258.547 378.25C258.994 378.313 259.307 378.737 259.243 379.193C259.179 379.65 258.761 379.971 258.314 379.909Z" fill="#F2B667"/>
<path d="M263.14 380.587C262.668 380.52 262.558 380.125 262.899 379.707C263.239 379.29 263.678 378.971 263.876 378.999C264.073 379.027 264.181 379.422 264.117 379.878C264.053 380.335 263.613 380.653 263.14 380.587Z" fill="#F2B667"/>
<path d="M255.585 381.639C255.178 381.294 254.894 380.662 254.955 380.232C255.015 379.803 255.43 379.503 255.877 379.566C256.324 379.629 256.607 380.262 256.507 380.973C256.408 381.684 255.993 381.984 255.585 381.639Z" fill="#F2B667"/>
<path d="M263.814 384.783C263.287 385.21 261.917 383.747 262.038 382.886C262.101 382.438 262.596 382.625 263.138 383.302C263.681 383.978 263.985 384.645 263.814 384.783Z" fill="#F2B667"/>
<path d="M253.553 384.313C253.106 384.25 252.819 383.639 252.915 382.955C253.011 382.271 253.455 381.763 253.902 381.825C254.349 381.888 254.636 382.499 254.54 383.184C254.444 383.868 253.999 384.376 253.553 384.313Z" fill="#F2B667"/>
<path d="M258.048 385.391C257.486 384.169 257.055 382.97 257.089 382.726C257.257 381.535 258.702 382.709 258.952 384.239C259.108 385.198 259.606 385.816 260.057 385.613C260.508 385.409 260.826 385.616 260.761 386.072C260.509 387.87 259.016 387.495 258.048 385.391Z" fill="#F2B667"/>
<path d="M254.874 386.605C254.46 386.254 254.38 385.65 254.698 385.262C255.556 384.209 256.013 384.492 255.808 385.949C255.708 386.659 255.288 386.955 254.874 386.605Z" fill="#F2B667"/>
<path d="M28.9214 355.703C28.4349 355.922 28.1187 355.519 28.2186 354.809C28.3185 354.098 28.7659 353.567 29.2127 353.63C29.6595 353.693 29.9758 354.095 29.9155 354.524C29.8551 354.954 29.4078 355.484 28.9214 355.703Z" fill="#F2B667"/>
<path d="M130.861 372.957C131.199 373.744 132.011 373.53 133.737 372.201C135.061 371.182 136.758 370.436 137.509 370.541C138.618 370.697 138.447 371.064 136.594 372.49C133.389 374.957 130.064 375.644 129.096 374.04C128.534 373.107 128.603 372.667 129.365 372.324C129.93 372.069 130.603 372.355 130.861 372.957Z" fill="#F2B667"/>
<path d="M198.916 381.708C199.539 381.796 200.126 381.308 200.222 380.623C200.318 379.939 200.945 379.457 201.615 379.551C202.286 379.645 202.781 380.095 202.717 380.551C202.653 381.007 203.149 381.458 203.819 381.552C204.49 381.646 204.959 382.283 204.863 382.967C204.767 383.651 204.323 384.16 203.876 384.097C203.429 384.034 203.116 383.609 203.18 383.153C203.439 381.312 200.28 382.067 198.567 384.255C196.456 386.951 195.733 386.678 196.947 383.646C197.408 382.493 198.295 381.621 198.916 381.708Z" fill="#F2B667"/>
<path d="M257.322 389.917C256.731 389.255 256.298 388.359 256.359 387.926C256.419 387.493 256.939 387.776 257.513 388.554C258.087 389.333 258.52 390.228 258.476 390.545C258.431 390.862 257.912 390.579 257.322 389.917Z" fill="#F2B667"/>
<path d="M32.2732 358.917C31.6286 359.412 30.2517 358.027 30.3925 357.025C30.4698 356.475 30.9273 356.603 31.6071 357.366C32.2068 358.039 32.5064 358.736 32.2732 358.917Z" fill="#F2B667"/>
<path d="M55.7542 362.434C54.2585 362.224 54.2891 360.851 55.7984 360.463C57.6685 359.983 58.1144 360.194 57.9348 361.472C57.7281 362.943 58.6511 363.213 60.0938 362.103C60.6623 361.665 61.4948 361.618 61.9443 361.998C63.0726 362.953 61.775 364.346 60.4514 363.602C59.8319 363.252 59.3051 363.511 59.2064 364.214C58.9829 365.804 57.667 365.6 57.2911 363.918C57.1305 363.198 56.439 362.53 55.7542 362.434Z" fill="#F2B667"/>
<path d="M243.057 387.912C242.584 387.846 242.474 387.45 242.815 387.032C243.155 386.615 243.594 386.296 243.792 386.324C243.989 386.352 244.098 386.748 244.033 387.204C243.969 387.66 243.529 387.978 243.057 387.912Z" fill="#F2B667"/>
<path d="M252.495 389.238C252.298 389.211 251.963 388.783 251.751 388.288C251.539 387.793 251.753 387.443 252.226 387.509C252.699 387.576 253.034 388.003 252.97 388.46C252.906 388.916 252.692 389.266 252.495 389.238Z" fill="#F2B667"/>
<path d="M39.0164 360.504C38.6092 360.16 38.3285 359.505 38.3926 359.049C38.4567 358.592 38.8423 358.501 39.2495 358.846C39.6567 359.191 39.9375 359.846 39.8734 360.302C39.8093 360.758 39.4236 360.849 39.0164 360.504Z" fill="#F2B667"/>
<path d="M186.457 383.34C185.387 383.19 183.634 380.759 183.791 379.643C183.977 378.315 184.476 378.617 186.394 381.217C188.403 383.942 188.952 384.184 189.194 382.456C189.291 381.772 189.895 381.286 190.538 381.377C192.326 381.628 191.256 384.692 189.295 384.933C188.349 385.049 187.503 384.764 187.417 384.299C187.33 383.834 186.898 383.402 186.457 383.34Z" fill="#F2B667"/>
<path d="M217.244 385.895C217.005 385.337 217.359 384.625 218.03 384.314C219.816 383.485 220.496 383.732 220.299 385.136C220.203 385.821 220.672 386.457 221.343 386.552C222.013 386.646 222.509 387.096 222.445 387.552C222.292 388.636 220.1 388.317 219.595 387.138C219.379 386.635 218.86 386.378 218.441 386.567C218.022 386.755 217.483 386.453 217.244 385.895Z" fill="#F2B667"/>
<path d="M178.125 382.719C177.437 383.249 174.607 380.143 174.764 379.029C174.919 377.927 175.622 378.299 177.246 380.345C178.073 381.387 178.468 382.455 178.125 382.719Z" fill="#F2B667"/>
<path d="M33.9089 361.478C33.5017 361.133 33.221 360.478 33.2851 360.022C33.3492 359.566 33.7348 359.475 34.142 359.819C34.5492 360.164 34.8299 360.819 34.7658 361.275C34.7017 361.731 34.3161 361.823 33.9089 361.478Z" fill="#F2B667"/>
<path d="M96.3774 370.656C96.0557 369.926 95.8269 369.049 95.8677 368.706C96.0066 367.552 97.6158 368.305 97.92 369.665C98.3322 371.507 97.1009 372.298 96.3774 370.656Z" fill="#F2B667"/>
<path d="M160.214 381.343C159.079 381.184 156.635 378.342 156.775 377.346C156.829 376.96 157.422 376.722 158.092 376.817C158.762 376.911 159.232 377.548 159.136 378.232C159.039 378.916 159.509 379.553 160.179 379.647C160.85 379.741 161.346 380.191 161.281 380.647C161.217 381.104 160.737 381.417 160.214 381.343Z" fill="#F2B667"/>
<path d="M244.38 390.635C243.933 390.572 243.62 390.148 243.684 389.691C243.748 389.235 244.166 388.914 244.613 388.976C245.06 389.039 245.373 389.464 245.309 389.92C245.244 390.376 244.826 390.698 244.38 390.635Z" fill="#F2B667"/>
<path d="M249.196 391.735C248.789 391.39 248.505 390.757 248.565 390.328C248.625 389.898 249.04 389.599 249.487 389.661C249.934 389.724 250.218 390.358 250.118 391.068C250.018 391.779 249.603 392.079 249.196 391.735Z" fill="#F2B667"/>
<path d="M36.2399 362.228C35.7671 362.162 35.6579 361.766 35.9982 361.349C36.3385 360.931 36.7777 360.613 36.9751 360.64C37.1725 360.668 37.2809 361.064 37.2168 361.52C37.1527 361.976 36.7128 362.295 36.2399 362.228Z" fill="#F2B667"/>
<path d="M112.585 373.804C111.561 373.66 111.009 372.261 111.751 371.69C112.797 370.885 113.705 371.385 113.524 372.667C113.428 373.351 113.006 373.863 112.585 373.804Z" fill="#F2B667"/>
<path d="M114.072 374.662C115.046 374.218 115.909 373.385 115.99 372.81C116.154 371.641 117.494 371.58 117.982 372.72C118.326 373.523 115.184 375.86 113.987 375.692C113.583 375.635 113.002 376.03 112.696 376.568C112.258 377.34 112.158 377.327 112.222 376.508C112.266 375.937 113.099 375.106 114.072 374.662Z" fill="#F2B667"/>
<path d="M172.75 381.863C172.31 381.49 172.233 380.837 172.579 380.412C173.001 379.894 173.454 379.972 173.953 380.649C174.847 381.86 173.889 382.826 172.75 381.863Z" fill="#F2B667"/>
<path d="M201.917 385.573C200.498 386.211 199.966 385.692 200.885 384.564C201.253 384.113 201.9 384.036 202.323 384.394C202.821 384.814 202.677 385.23 201.917 385.573Z" fill="#F2B667"/>
<path d="M205.246 386.43C204.806 386.057 204.729 385.404 205.075 384.979C205.498 384.461 205.95 384.539 206.449 385.216C207.343 386.428 206.385 387.393 205.246 386.43Z" fill="#F2B667"/>
<path d="M225.625 389.599C224.647 389.055 224.127 388.265 224.471 387.844C225.316 386.808 225.741 386.944 227.003 388.656C228.377 390.518 227.883 390.856 225.625 389.599Z" fill="#F2B667"/>
<path d="M241.76 391.529C241.357 391.188 241.077 390.559 241.137 390.129C241.304 388.937 241.85 389.282 242.188 390.794C242.362 391.571 242.179 391.884 241.76 391.529Z" fill="#F2B667"/>
<path d="M143.327 378.382C141.904 378.555 141.794 378.406 142.716 377.549C143.975 376.38 145.321 376.32 145.164 377.438C145.107 377.841 144.28 378.266 143.327 378.382Z" fill="#F2B667"/>
<path d="M164.473 381.519C163.986 381.738 163.67 381.335 163.77 380.624C163.87 379.914 164.317 379.383 164.764 379.446C165.211 379.508 165.527 379.911 165.467 380.34C165.406 380.77 164.959 381.3 164.473 381.519Z" fill="#F2B667"/>
<path d="M215.19 389.069C215.062 389.051 214.826 388.447 214.664 387.727C214.488 386.937 214.835 386.483 215.539 386.582C216.244 386.681 216.452 387.213 216.065 387.924C215.711 388.572 215.317 389.087 215.19 389.069Z" fill="#F2B667"/>
<path d="M245.723 392.515C245.251 392.449 245.141 392.053 245.482 391.635C245.822 391.218 246.261 390.899 246.459 390.927C246.656 390.955 246.764 391.351 246.7 391.807C246.636 392.263 246.196 392.581 245.723 392.515Z" fill="#F2B667"/>
<path d="M54.9796 367.173C54.7499 366.862 54.9145 366.175 55.3458 365.646C55.9765 364.872 56.1683 364.899 56.3244 365.78C56.5486 367.038 55.6024 368.018 54.9796 367.173Z" fill="#F2B667"/>
<path d="M64.441 367.883C64.0201 367.824 63.7289 367.402 63.793 366.946C63.8571 366.49 64.4799 366.197 65.1761 366.295C65.8723 366.393 66.1644 366.815 65.824 367.232C65.4837 367.649 64.8618 367.942 64.441 367.883Z" fill="#F2B667"/>
<path d="M88.2243 372.756C88.0247 372.485 88.232 371.594 88.6856 370.777C89.4708 369.364 89.515 369.367 89.5965 370.85C89.6856 372.469 88.8598 373.617 88.2243 372.756Z" fill="#F2B667"/>
<path d="M138.264 378.246C136.756 378.023 136.65 377.845 137.722 377.336C139.374 376.552 139.289 376.54 139.753 377.622C139.968 378.124 139.31 378.399 138.264 378.246Z" fill="#F2B667"/>
<path d="M31.9345 363.737C31.448 363.957 31.1056 363.74 31.1735 363.258C31.2413 362.775 31.6625 362.431 32.1093 362.493C32.5561 362.556 32.8986 362.772 32.8703 362.973C32.842 363.175 32.4209 363.518 31.9345 363.737Z" fill="#F2B667"/>
<path d="M51.3739 366.892C50.9271 366.829 50.6139 366.405 50.678 365.949C50.7421 365.493 51.1602 365.171 51.607 365.234C52.0538 365.297 52.3669 365.721 52.3028 366.177C52.2387 366.633 51.8207 366.955 51.3739 366.892Z" fill="#F2B667"/>
<path d="M94.9642 373.177C94.6122 373.802 94.4472 373.578 94.544 372.607C94.6319 371.728 94.8924 371.265 95.1234 371.579C95.3545 371.892 95.2831 372.612 94.9642 373.177Z" fill="#F2B667"/>
<path d="M99.7283 373.704C99.1285 373.032 98.6582 372.341 98.6823 372.169C98.813 371.24 100.224 372.269 100.498 373.493C100.766 374.691 100.639 374.726 99.7283 373.704Z" fill="#F2B667"/>
<path d="M167.254 385.309C167.286 385.083 168.047 384.235 168.945 383.425C170.78 381.773 172.076 381.604 171.247 383.124C170.698 384.131 167.146 386.075 167.254 385.309Z" fill="#F2B667"/>
<path d="M180.252 387.136C180.284 386.91 181.045 386.062 181.944 385.252C183.778 383.6 185.074 383.431 184.245 384.95C183.696 385.957 180.145 387.901 180.252 387.136Z" fill="#F2B667"/>
<path d="M239.039 393.267C238.592 393.204 238.279 392.78 238.343 392.323C238.407 391.867 238.825 391.546 239.272 391.608C239.719 391.671 240.032 392.096 239.968 392.552C239.904 393.008 239.486 393.33 239.039 393.267Z" fill="#F2B667"/>
<path d="M71.6154 370.583C71.1425 370.516 70.8075 370.089 70.8716 369.632C70.9357 369.176 71.149 368.826 71.3464 368.854C71.5438 368.881 71.8781 369.309 72.0902 369.804C72.3023 370.299 72.0882 370.649 71.6154 370.583Z" fill="#F2B667"/>
<path d="M145.544 380.973C145.071 380.906 144.736 380.479 144.8 380.022C144.864 379.566 145.078 379.216 145.275 379.244C145.472 379.271 145.807 379.699 146.019 380.194C146.231 380.689 146.017 381.039 145.544 380.973Z" fill="#F2B667"/>
<path d="M166.26 383.884C166.063 383.856 165.729 383.429 165.517 382.934C165.304 382.439 165.519 382.089 165.991 382.155C166.464 382.221 166.799 382.649 166.735 383.105C166.671 383.561 166.458 383.912 166.26 383.884Z" fill="#F2B667"/>
<path d="M174.743 385.076C174.296 385.013 173.983 384.589 174.047 384.133C174.111 383.677 174.529 383.355 174.976 383.418C175.423 383.48 175.736 383.905 175.672 384.361C175.607 384.817 175.189 385.139 174.743 385.076Z" fill="#F2B667"/>
<path d="M193.096 387.116C192.389 387.284 191.861 387.06 191.923 386.619C191.985 386.177 192.585 385.892 193.255 385.987C193.925 386.081 194.453 386.305 194.428 386.484C194.402 386.663 193.803 386.947 193.096 387.116Z" fill="#F2B667"/>
<path d="M202.163 388.917C200.687 388.699 200.592 388.526 201.668 388.015C203.39 387.197 204.252 387.318 204.106 388.357C204.042 388.813 203.167 389.065 202.163 388.917Z" fill="#F2B667"/>
<path d="M207.719 389.171C207.012 389.339 206.484 389.115 206.546 388.674C206.609 388.232 207.208 387.948 207.878 388.042C208.548 388.136 209.076 388.36 209.051 388.539C209.026 388.718 208.426 389.003 207.719 389.171Z" fill="#F2B667"/>
<path d="M211.301 390.214C210.854 390.151 210.541 389.727 210.605 389.271C210.669 388.815 211.087 388.493 211.534 388.556C211.981 388.618 212.294 389.043 212.23 389.499C212.166 389.955 211.748 390.277 211.301 390.214Z" fill="#F2B667"/>
<path d="M217.752 391.121C217.279 391.054 217.17 390.658 217.51 390.241C217.851 389.824 218.29 389.505 218.487 389.533C218.685 389.561 218.793 389.956 218.729 390.412C218.665 390.869 218.225 391.187 217.752 391.121Z" fill="#F2B667"/>
<path d="M229.986 392.84C229.539 392.777 229.226 392.353 229.29 391.897C229.354 391.441 229.772 391.119 230.219 391.182C230.666 391.244 230.979 391.669 230.915 392.125C230.851 392.581 230.433 392.903 229.986 392.84Z" fill="#F2B667"/>
<path d="M57.64 369.464C57.1932 369.401 56.8801 368.977 56.9442 368.521C57.0083 368.065 57.4263 367.743 57.8731 367.806C58.3199 367.868 58.6331 368.293 58.569 368.749C58.5049 369.205 58.0868 369.527 57.64 369.464Z" fill="#F2B667"/>
<path d="M66.5337 371.024C66.6 370.553 66.9329 369.952 67.2737 369.691C67.6138 369.428 68.0547 369.433 68.2523 369.702C68.4499 369.97 68.117 370.57 67.5123 371.035C66.8462 371.548 66.4607 371.544 66.5337 371.024Z" fill="#F2B667"/>
<path d="M75.967 372.04C75.2708 371.942 74.7529 371.489 74.817 371.033C74.8811 370.577 75.2772 370.252 75.698 370.311C76.1189 370.37 76.6359 370.823 76.848 371.318C77.0601 371.813 76.6633 372.138 75.967 372.04Z" fill="#F2B667"/>
<path d="M105.572 376.201C105.125 376.138 104.812 375.713 104.876 375.257C104.94 374.801 105.358 374.479 105.805 374.542C106.252 374.605 106.565 375.029 106.501 375.485C106.437 375.942 106.019 376.263 105.572 376.201Z" fill="#F2B667"/>
<path d="M135.689 380.01C135.203 380.23 134.86 380.013 134.928 379.531C134.996 379.048 135.417 378.704 135.864 378.767C136.311 378.829 136.653 379.045 136.625 379.246C136.596 379.448 136.175 379.791 135.689 380.01Z" fill="#F2B667"/>
<path d="M150.708 382.544C150.511 382.516 150.176 382.089 149.964 381.594C149.752 381.099 149.966 380.748 150.439 380.815C150.912 380.881 151.247 381.309 151.183 381.765C151.119 382.221 150.906 382.572 150.708 382.544Z" fill="#F2B667"/>
<path d="M162.148 383.629C161.493 383.26 160.977 382.811 161.003 382.632C161.097 381.96 162.592 382.555 162.958 383.411C163.177 383.92 162.831 384.014 162.148 383.629Z" fill="#F2B667"/>
<path d="M185.597 387.421C185.15 387.358 185.384 387.023 186.116 386.675C186.849 386.327 187.813 386.094 188.26 386.157C188.707 386.219 188.473 386.555 187.741 386.903C187.009 387.251 186.044 387.484 185.597 387.421Z" fill="#F2B667"/>
<path d="M53.5197 369.308C53.0333 369.527 52.6909 369.311 52.7587 368.828C52.8266 368.345 53.2477 368.001 53.6945 368.064C54.1414 368.127 54.4839 368.342 54.4556 368.544C54.4272 368.745 54.0062 369.089 53.5197 369.308Z" fill="#F2B667"/>
<path d="M96.5771 375.359C96.0906 375.578 95.7483 375.362 95.8161 374.879C95.8839 374.397 96.3051 374.053 96.7519 374.115C97.1987 374.178 97.5412 374.394 97.5129 374.595C97.4846 374.797 97.0635 375.14 96.5771 375.359Z" fill="#F2B667"/>
<path d="M116.887 378.214C116.401 378.433 116.058 378.216 116.126 377.734C116.194 377.251 116.615 376.907 117.062 376.97C117.509 377.033 117.851 377.248 117.823 377.45C117.795 377.651 117.374 377.995 116.887 378.214Z" fill="#F2B667"/>
<path d="M71.4758 373.946C70.4424 373.8 70.4362 373.585 71.4431 372.705C72.9911 371.351 73.1135 371.365 72.9009 372.877C72.8047 373.562 72.1631 374.042 71.4758 373.946Z" fill="#F2B667"/>
<path d="M110.165 378.537C109.692 378.471 109.583 378.075 109.923 377.658C110.264 377.24 110.703 376.922 110.9 376.949C111.098 376.977 111.206 377.373 111.142 377.829C111.078 378.285 110.638 378.604 110.165 378.537Z" fill="#F2B667"/>
<path d="M176.076 387.378C175.59 387.597 175.247 387.38 175.315 386.898C175.383 386.415 175.804 386.071 176.251 386.134C176.698 386.197 177.04 386.412 177.012 386.614C176.984 386.815 176.563 387.159 176.076 387.378Z" fill="#F2B667"/>
<path d="M188.767 389.571C188.186 389.481 188.333 389.17 189.133 388.79C190.838 387.979 191.119 388.019 190.351 388.961C190.011 389.378 189.298 389.653 188.767 389.571Z" fill="#F2B667"/>
<path d="M136.81 383.128C136.363 383.065 136.276 382.672 136.616 382.255C136.957 381.838 137.6 381.547 138.047 381.61C138.494 381.673 138.581 382.066 138.241 382.483C137.901 382.9 137.257 383.19 136.81 383.128Z" fill="#F2B667"/>
<path d="M141.968 383.961C140.535 384.811 140.511 384.778 141.705 383.604C142.431 382.893 143.163 382.329 143.331 382.353C144 382.447 143.474 383.067 141.968 383.961Z" fill="#F2B667"/>
<path d="M181.741 389.958C181.559 389.711 181.706 389.144 182.07 388.7C183.057 387.489 183.489 387.812 182.734 389.195C182.37 389.862 181.924 390.205 181.741 389.958Z" fill="#F2B667"/>
<path d="M208.349 393.182C207.877 393.115 207.767 392.72 208.108 392.302C208.448 391.885 208.887 391.566 209.085 391.594C209.282 391.622 209.39 392.017 209.326 392.474C209.262 392.93 208.822 393.248 208.349 393.182Z" fill="#F2B667"/>
<path d="M201.686 393.091C201.239 393.028 201.152 392.635 201.492 392.218C201.832 391.801 202.476 391.511 202.923 391.574C203.37 391.636 203.457 392.029 203.117 392.447C202.776 392.864 202.133 393.154 201.686 393.091Z" fill="#F2B667"/>
<path fill-rule="evenodd" clip-rule="evenodd" d="M63.8798 31.0043C66.3814 29.6274 69.7953 28.2256 71.4661 27.8905C76.0047 26.9808 279.55 55.4468 285.044 57.7597C291.045 60.286 296.933 66.1298 299.458 72.0659C300.651 74.8711 301.891 77.5925 302.215 78.1132C302.538 78.6339 302.588 79.4967 302.327 80.0316C302.018 80.6613 302.4 80.9095 303.407 80.7356C304.898 80.4785 304.896 80.4993 303.362 81.2199C302.124 81.8019 301.935 82.2606 302.528 83.2438C302.949 83.9423 303.01 84.8641 302.662 85.2913C302.314 85.7176 302.31 86.8528 302.652 87.8125C303.067 88.9709 302.978 89.6916 302.39 89.9565C301.04 90.5643 301.124 91.9046 302.492 91.5784C304.102 91.1958 305.327 88.0514 304.228 87.1215C303.746 86.7138 303.658 86.145 304.031 85.8567C304.406 85.5693 305.113 86.1025 305.604 87.0409C306.469 88.6948 306.551 88.7072 308.194 87.4413C309.259 86.6227 309.957 86.4992 310.066 87.1107C310.343 88.6709 307.59 90.3246 306.106 89.4886C305.122 88.9341 304.907 89.0519 305.287 89.9391C305.634 90.7481 304.941 91.663 303.165 92.7402C301.442 93.7851 300.965 94.4022 301.787 94.5203C302.48 94.6202 303.521 94.3361 304.101 93.8891C304.888 93.2834 305.453 93.4803 306.328 94.6654C306.972 95.539 307.243 96.4499 306.932 96.6902C306.62 96.9297 306.702 97.6845 307.113 98.3664C308.033 99.8902 307.29 99.855 305.457 98.2892C303.991 97.0363 301.364 97.2387 301.17 98.6186C301.093 99.1659 301.789 99.2807 303.194 98.9505C304.45 98.656 305.292 98.7591 305.23 99.2003C305.172 99.6149 304.395 100.082 303.502 100.238C302.61 100.395 301.304 101.069 300.599 101.737C299.489 102.79 299.517 102.905 300.817 102.607C302.687 102.177 302.623 102.934 300.646 104.619C299.245 105.813 299.216 106.039 300.282 107.484C300.919 108.347 301.735 108.807 302.098 108.506C302.46 108.205 302.324 107.729 301.793 107.447C299.857 106.415 301.1 105.546 303.765 106.067C306.103 106.525 306.363 106.8 305.543 107.948C304.946 108.784 304.872 109.334 305.347 109.401C305.768 109.46 305.816 110.228 305.454 111.107C305.092 111.986 304.317 112.639 303.732 112.556C303.146 112.474 302.409 113.037 302.092 113.806C301.659 114.859 301.558 114.74 301.684 113.326C301.869 111.265 300.335 110.454 300.053 112.462C299.957 113.146 299.512 113.655 299.066 113.592C297.194 113.329 298.261 114.758 300.233 115.156C303.083 115.729 305.167 119.355 303.42 120.699C301.98 121.808 299.59 121.648 299.758 120.454C299.822 119.998 299.326 119.548 298.656 119.454C296.774 119.189 296.949 119.859 299.93 124.353C301.191 126.254 302.086 125.429 300.904 123.457C300.052 122.036 300.119 122.009 301.658 123.149C303.752 124.702 303.665 125.796 301.414 126.191C300.204 126.403 299.303 125.852 298.387 124.343C297.245 122.46 297.053 122.379 296.844 123.699C296.555 125.523 297.813 127.362 300.118 128.484C301.057 128.941 301.751 129.85 301.66 130.503C301.43 132.133 300.115 131.814 299.716 130.032C299.459 128.882 299.153 128.761 298.258 129.457C297.368 130.149 297.405 130.555 298.433 131.356C300.273 132.79 299.912 134.308 298.059 132.93C296.121 131.489 295.721 131.494 295.514 132.965C295.418 133.649 295.978 134.311 296.758 134.436C297.997 134.633 298.005 134.766 296.815 135.501C294.859 136.706 294.098 139.486 295.837 139.071C297.585 138.655 297.482 139.111 295.477 140.654C294.307 141.554 294.126 142.033 294.824 142.386C295.355 142.654 295.51 143.216 295.168 143.634C294.652 144.268 293.342 152.057 292.796 157.741C292.651 159.247 295.001 160.195 295.209 158.715C295.273 158.258 295.736 157.943 296.237 158.013C296.868 158.102 296.783 158.482 295.964 159.243C295.311 159.849 294.182 160.262 293.455 160.162C292.376 160.013 291.965 161.006 291.226 165.557C290.671 168.975 290.648 171.422 291.167 171.875C291.781 172.412 291.734 172.58 290.996 172.486C290.437 172.414 289.847 173.288 289.687 174.428C289.527 175.569 289.806 176.559 290.307 176.63C290.967 176.722 290.914 177.042 290.113 177.785C289.462 178.391 288.774 181.06 288.439 184.289C287.881 189.66 287.905 189.743 289.669 188.565C291.704 187.205 290.91 188.616 288.258 191.073C286.85 192.376 286.848 192.455 288.235 192.127C291.825 191.276 292.551 191.302 290.394 192.207C287.68 193.345 286.686 194.829 287.451 196.601C287.9 197.64 288.324 197.722 289.795 197.058C290.783 196.611 291.544 196.586 291.485 197.001C291.427 197.417 290.228 197.992 288.82 198.281C287.413 198.569 286.206 199.198 286.139 199.678C285.975 200.841 287.055 200.934 288.431 199.875C289.044 199.403 289.495 199.375 289.434 199.812C289.372 200.25 288.549 200.96 287.604 201.391C285.905 202.166 284.975 205.478 286.401 205.678C286.808 205.735 286.652 206.236 286.054 206.791C284.986 207.783 285.066 210.564 286.167 210.719C286.476 210.763 287.279 210.4 287.952 209.913C288.938 209.198 289.069 209.257 288.631 210.22C288.332 210.875 287.336 211.42 286.416 211.43C285.039 211.444 284.644 212.095 284.172 215.131C283.857 217.157 283.976 218.868 284.437 218.933C284.994 219.011 284.957 219.361 284.329 219.974C282.844 221.424 282.807 223.928 284.277 223.578C285.872 223.198 288.46 224.421 288.311 225.484C288.244 225.957 287.549 225.803 286.61 225.105C285.338 224.158 284.722 224.16 283.503 225.112C282.095 226.213 282.087 226.407 283.392 227.716C284.393 228.721 284.462 229.085 283.63 228.968C282.906 228.868 282.258 229.757 281.932 231.297C281.56 233.061 281.719 233.653 282.476 233.324C283.141 233.035 283.05 233.33 282.235 234.105C281.04 235.239 281.268 235.768 282.935 235.734C284.043 235.712 283.451 236.759 281.833 237.685C280.506 238.444 280.455 238.618 281.512 238.79C282.202 238.902 283.269 238.607 283.882 238.135C284.568 237.607 285.193 237.613 285.509 238.152C285.79 238.633 285.884 238.923 285.716 238.795C285.549 238.668 284.278 239.047 282.892 239.638C280.227 240.774 279.453 242.596 280.837 244.472C281.297 245.095 281.324 245.556 280.9 245.497C280.476 245.438 279.649 248.366 279.062 252.004C278.437 255.878 278.326 258.664 278.794 258.73C279.233 258.792 279.465 258.063 279.309 257.111C279.109 255.883 279.396 255.432 280.301 255.559C281.001 255.658 281.626 255.365 281.69 254.909C281.754 254.453 281.167 253.984 280.387 253.867C279.216 253.692 279.191 253.551 280.245 253.063C282.152 252.179 283.695 255.246 281.871 256.296C281.15 256.711 280.527 257.289 280.486 257.581C280.351 258.546 281.897 258.342 283.38 257.201C284.183 256.582 284.794 256.401 284.738 256.799C284.583 257.905 282.541 259.257 281.293 259.081C280.095 258.913 277.582 260.558 277.435 261.608C277.385 261.96 277.847 261.861 278.46 261.389C279.073 260.917 280.14 260.613 280.833 260.714C281.599 260.825 281.102 261.377 279.559 262.128C277.809 262.98 277.346 263.546 278.058 263.961C278.898 264.45 278.838 264.712 277.736 265.362C276.572 266.048 276.591 266.124 277.868 265.895C278.686 265.747 279.323 265.855 279.284 266.132C279.245 266.409 278.504 267.042 277.637 267.538C276.31 268.297 276.26 268.472 277.316 268.643C278.007 268.755 279.073 268.46 279.686 267.989C280.299 267.517 280.761 267.418 280.711 267.77C280.578 268.717 278.1 270.472 277.096 270.331C276.618 270.263 276.174 270.581 276.11 271.038C276.045 271.494 276.519 271.941 277.164 272.031C277.808 272.122 278.613 271.854 278.953 271.437C279.677 270.549 281.141 270.608 281.012 271.52C280.964 271.865 279.784 272.481 278.389 272.889C275.79 273.65 274.831 276.024 276.145 278.442C276.543 279.173 276.472 279.545 275.95 279.472C275.463 279.403 274.822 281.881 274.368 285.581C273.656 291.39 273.718 291.788 275.299 291.545C276.23 291.403 277.528 290.762 278.183 290.121C278.837 289.48 279.571 289.222 279.812 289.549C280.43 290.388 277.625 292.392 276.126 292.181C274.441 291.944 272.411 294.748 273.712 295.514C274.328 295.877 274.342 296.275 273.753 296.646C272.28 297.571 272.049 299.219 273.366 299.404C274.036 299.498 274.637 299.202 274.701 298.746C274.765 298.29 275.24 297.976 275.756 298.048C276.292 298.124 275.972 298.796 275.01 299.615C274.085 300.404 272.954 300.743 272.498 300.368C272.042 299.993 272.082 300.388 272.586 301.246C273.365 302.568 273.334 302.786 272.386 302.676C271.637 302.588 271.732 303.021 272.673 303.984C273.964 305.305 273.609 305.779 271.796 305.155C271.396 305.018 271.435 305.512 271.883 306.253C272.524 307.315 272.458 307.676 271.578 307.95C270.681 308.228 270.665 308.43 271.494 308.968C272.368 309.534 272.339 309.738 271.31 310.275C270.332 310.786 270.287 311.026 271.08 311.491C271.84 311.936 271.811 312.31 270.959 313.101C269.725 314.247 270.607 314.614 272.493 313.738C273.164 313.427 273.521 312.722 273.285 312.172C273.049 311.621 273.271 311.229 273.776 311.3C275.361 311.523 273.853 314.181 271.727 314.912C270.368 315.38 269.986 315.852 270.57 316.346C271.196 316.876 271.157 317.3 270.43 317.86C268.894 319.042 269.059 319.954 270.739 319.568C272.058 319.265 272.078 319.374 270.906 320.484C270.175 321.177 269.802 322.052 270.079 322.428C270.357 322.804 271.204 322.46 271.962 321.664C272.72 320.869 273.295 320.54 273.24 320.933C273.184 321.326 272.424 322.258 271.55 323.002C269.665 324.609 268.834 327.658 269.969 328.8C270.551 329.384 270.475 329.69 269.703 329.889C269.112 330.042 268.58 330.51 268.521 330.927C268.331 332.278 270.453 332.023 271.859 330.526C272.611 329.726 273.495 329.3 273.824 329.578C274.666 330.291 271.548 332.648 269.262 333.027C267.305 333.352 266.42 334.79 268.036 335.017C268.599 335.096 268.626 335.92 268.108 337.213C267.572 338.554 267.604 339.136 268.201 338.867C268.707 338.639 269.065 338.848 268.997 339.331C268.929 339.813 268.285 340.126 267.565 340.025C266.556 339.883 266.629 340.25 267.886 341.624C269.45 343.336 269.063 345.309 267.215 345.05C266.645 344.97 266.732 344.574 267.466 343.892C268.166 343.242 268.312 342.627 267.859 342.244C266.692 341.256 265.392 344.889 266.526 345.968C267.297 346.702 267.278 346.974 266.443 347.19C264.9 347.589 264.905 348.997 266.447 348.63C267.154 348.462 267.675 348.737 267.604 349.242C267.533 349.747 266.834 350.076 266.052 349.973C265.193 349.861 264.94 350.077 265.414 350.517C265.846 350.92 266.35 351.96 266.533 352.829C266.716 353.699 267.233 354.244 267.682 354.043C268.129 353.841 268.579 354.138 268.679 354.702C268.783 355.287 269.341 355.512 269.975 355.227C270.588 354.951 270.966 354.175 270.816 353.504C270.665 352.832 270.908 352.334 271.356 352.397C271.803 352.46 272.577 351.741 273.076 350.798L273.984 349.085L274.193 350.956C274.308 351.985 274.123 352.591 273.782 352.302C273.44 352.013 272.847 352.162 272.463 352.633C271.577 353.72 273.245 355.176 275.022 354.868C276.199 354.664 276.2 354.727 275.03 355.351C274.291 355.745 273.104 355.789 272.393 355.448C271.682 355.108 270.795 355.204 270.421 355.663C270.019 356.155 268.803 356.144 267.455 355.636C265.062 354.735 264.383 355.445 265.799 357.366C266.264 357.995 266.274 358.448 265.822 358.384C265.375 358.321 264.634 357.761 264.175 357.138C263.525 356.258 263.296 356.319 263.142 357.416C263.033 358.191 263.309 358.877 263.756 358.939C265.134 359.133 264.438 360.586 262.928 360.668C261.752 360.732 261.88 361.268 263.657 363.735C264.93 365.503 265.407 366.817 264.824 366.953C264.283 367.08 263.093 365.988 262.181 364.526C261.269 363.064 259.991 361.793 259.343 361.702C258.41 361.571 258.423 361.927 259.405 363.407C260.96 365.751 259.889 366.775 258.131 364.625C256.466 362.589 255.232 363.462 256.682 365.65C258.433 368.289 257.097 369.656 255.235 367.132C253.153 364.309 252.111 365.175 254.11 368.068C255.099 369.501 255.313 370.461 254.704 370.736C254.181 370.971 253.809 370.768 253.877 370.286C253.945 369.803 253.483 369.335 252.849 369.246C252.216 369.157 251.601 368.595 251.481 367.996C251.362 367.399 250.964 367.122 250.598 367.382C250.232 367.642 251.071 369.308 252.462 371.084C253.855 372.86 254.708 374.532 254.36 374.801C253.278 375.633 252.364 375.156 252.547 373.854C252.643 373.17 252.425 372.569 252.063 372.518C251.7 372.467 250.689 371.526 249.816 370.425C247.643 367.688 246.721 368.712 248.805 371.549C251.509 375.229 252.326 376.859 251.704 377.337C251.384 377.584 250.005 376.227 248.642 374.321C247.279 372.414 245.853 370.995 245.474 371.165C245.094 371.336 244.414 370.862 243.96 370.11C243.506 369.359 242.797 368.897 242.384 369.083C241.971 369.269 242.258 370.271 243.023 371.309C243.789 372.347 244.771 373.035 245.206 372.839C245.641 372.643 246.173 372.895 246.389 373.398C246.604 373.901 246.393 374.258 245.921 374.191C245.448 374.125 244.955 374.817 244.827 375.729C244.699 376.641 244.085 377.316 243.462 377.228C242.84 377.141 242.042 377.6 241.688 378.247C241.335 378.896 240.486 379.347 239.801 379.251C239.117 379.155 238.475 379.662 238.375 380.379C238.212 381.537 238.075 381.525 237.148 380.267C236.573 379.489 236.204 378.139 236.326 377.267C236.507 375.98 233.967 373.357 232.313 373.125C231.044 372.946 232.04 374.959 233.673 375.872C234.754 376.476 235.361 377.313 235.019 377.731C234.076 378.888 233.442 378.56 231.203 375.752C229.892 374.11 228.977 373.52 228.679 374.129C228.045 375.424 226.654 375.132 225.76 373.519C224.812 371.804 220.76 370.134 220.584 371.385C220.375 372.877 218.887 372.23 216.238 369.496C214.872 368.086 213.701 367.311 213.636 367.772C213.571 368.234 214.036 368.903 214.669 369.26C215.303 369.616 215.741 370.479 215.643 371.178C215.542 371.895 216.172 372.547 217.089 372.676C217.983 372.802 218.661 373.278 218.597 373.734C218.533 374.19 217.776 374.464 216.915 374.343C216.055 374.222 215.144 374.733 214.892 375.479C214.463 376.747 214.359 376.732 213.265 375.25C212.623 374.378 211.871 373.634 211.595 373.595C211.318 373.556 210.403 372.571 209.562 371.407C207.3 368.276 204.472 366.227 203.932 367.33C203.69 367.824 202.974 368.156 202.342 368.067C201.709 367.978 201.112 368.465 201.016 369.149C200.834 370.444 199.484 370.696 199.172 369.493C198.968 368.707 194.623 364.445 193.925 364.347C193.674 364.312 193.599 364.872 193.76 365.592C193.921 366.312 194.573 366.975 195.21 367.064C195.846 367.154 196.499 367.816 196.66 368.537C196.821 369.257 197.462 369.918 198.084 370.005C198.707 370.093 199.137 370.724 199.041 371.408C198.799 373.131 197.502 372.777 195.85 370.537C194.271 368.396 193.177 368.014 192.513 369.372C192.262 369.884 191.66 369.967 191.175 369.557C189.938 368.509 190.275 367.216 191.731 367.421C192.402 367.515 193.006 367.194 193.074 366.708C193.227 365.619 187.781 366.375 184.715 367.867C184.524 367.96 184.773 368.71 185.271 369.535C186.04 370.807 185.951 371.122 184.681 371.628C183.858 371.956 183.112 372.753 183.021 373.4C182.919 374.121 182.396 374.318 181.669 373.909C180.671 373.346 180.772 373.09 182.312 372.287C184.449 371.171 185.171 368.601 183.215 369.067C181.126 369.564 182.03 367.288 184.469 365.91C186.446 364.793 188.331 362.715 187.477 362.595C187.302 362.57 185.904 363.516 184.372 364.696C181.39 366.991 179.476 367.354 180.528 365.424C180.882 364.776 180.766 364.189 180.271 364.119C179.777 364.05 179.293 364.553 179.197 365.237C179.101 365.921 178.67 366.431 178.238 366.37C177.806 366.31 176.107 367.273 174.46 368.511C172.453 370.019 171.401 370.39 171.267 369.637C171.157 369.018 171.71 368.256 172.497 367.942C173.283 367.628 173.976 367.017 174.037 366.583C174.225 365.245 171.853 365.39 170.688 366.789C169.939 367.688 169.496 367.777 169.311 367.066C169.162 366.49 168.486 366.15 167.808 366.311C167.054 366.491 166.651 366.088 166.766 365.271C166.869 364.538 166.431 363.866 165.794 363.776C165.157 363.686 164.6 362.942 164.557 362.122C164.506 361.133 164.237 360.924 163.758 361.502C163.352 361.991 163.798 363.347 164.777 364.605C166.525 366.848 166.902 368.16 165.752 367.998C165.412 367.951 163.858 366.408 162.299 364.569C159.361 361.106 158.332 360.436 158.133 361.854C158.069 362.31 158.565 362.76 159.235 362.854C159.905 362.948 160.375 363.585 160.279 364.269C160.07 365.755 159.108 365.742 157.998 364.238C157.389 363.412 156.836 363.372 155.722 364.075C154.486 364.856 154.163 364.802 153.708 363.739C153.41 363.043 152.874 362.698 152.518 362.971C151.673 363.622 153.266 366.243 154.622 366.434C155.201 366.515 155.894 366.137 156.163 365.593C156.468 364.976 157.635 365.934 159.27 368.144C160.71 370.091 161.437 371.62 160.886 371.543C160.335 371.465 159.175 370.272 158.31 368.891C156.35 365.767 155.094 366.463 156.573 369.853L157.667 372.359L155.834 369.776C153.824 366.943 152.845 366.475 152.07 367.978C151.79 368.521 151.29 368.619 150.958 368.199C150.627 367.778 150.883 367.196 151.53 366.905C152.351 366.534 152.457 366.168 151.885 365.682C151.434 365.301 150.667 365.168 150.18 365.387C149.694 365.606 149.352 365.39 149.419 364.907C149.487 364.424 148.702 363.911 147.674 363.766C146.647 363.622 145.435 363.001 144.983 362.388C144.53 361.773 143.842 361.515 143.455 361.813C143.067 362.112 143.343 362.814 144.067 363.374C144.792 363.935 145.129 364.707 144.816 365.091C144.489 365.491 143.625 365.258 142.779 364.541C141.821 363.728 141.067 363.555 140.609 364.044C140.224 364.455 138.829 365.179 137.509 365.653C136.189 366.127 135.04 367.011 134.955 367.618C134.869 368.225 134.434 368.671 133.987 368.608C132.958 368.463 133.04 367.928 134.373 366.069C134.96 365.252 135.922 364.651 136.511 364.734C138.041 364.949 142.419 361.663 142.634 360.139C142.895 358.276 139.428 358.043 136.589 359.733C134.426 361.02 133.87 360.873 134.39 359.151C134.735 358.007 133.617 358.407 131.898 360.042C130.442 361.427 130.008 361.482 129.045 360.402C128.095 359.337 127.657 359.324 126.364 360.319C125.127 361.271 124.995 361.733 125.705 362.635C126.389 363.506 126.709 363.538 127.109 362.779C127.393 362.238 127.984 361.845 128.419 361.906C128.856 361.967 128.887 362.416 128.488 362.905C128.013 363.488 128.219 363.685 129.086 363.478C130.559 363.127 132.051 364.7 131.818 366.358C131.735 366.951 131.312 367.386 130.879 367.325C130.447 367.265 130.413 366.628 130.804 365.91C131.369 364.876 131.137 364.652 129.688 364.829C128.682 364.952 127.91 364.691 127.972 364.25C128.034 363.81 127.652 363.645 127.123 363.883C126.45 364.186 126.382 364.615 126.894 365.309C127.648 366.332 125.417 368.195 123.723 367.957C123.276 367.894 123.7 367.394 124.663 366.844C125.988 366.09 126.22 365.58 125.613 364.758C125.007 363.935 124.488 363.873 123.489 364.503C122.59 365.07 122.039 365.036 121.763 364.394C121.541 363.875 121.929 363.531 122.626 363.628C123.322 363.726 123.971 363.247 124.067 362.563C124.163 361.878 123.685 361.241 123.006 361.145C122.326 361.05 121.485 359.98 121.136 358.768C120.787 357.556 120.221 356.525 119.878 356.477C119.534 356.429 118.781 355.75 118.205 354.967C117.628 354.185 116.934 353.817 116.663 354.15C116.391 354.482 117.136 355.636 118.318 356.715C120.676 358.865 120.963 360.012 119.079 359.747C118.411 359.654 116.69 358.08 115.256 356.251C113.823 354.421 112.268 352.877 111.802 352.818C111.335 352.76 111.441 353.133 112.036 353.648C112.9 354.395 112.603 354.72 110.568 355.253C108.384 355.826 108.239 356.008 109.558 356.525C110.405 356.857 111.293 356.731 111.53 356.246C112.221 354.835 113.804 355.474 114.692 357.522C115.755 359.97 114.591 360.893 113.373 358.567C112.692 357.263 112.171 357.003 111.412 357.587C110.652 358.172 110.764 358.948 111.832 360.509C113.875 363.493 113.432 364.746 111.295 362.03C109.569 359.838 109.504 359.821 108.155 361.23C106.811 362.635 106.73 362.611 104.78 360.233C100.822 355.402 100.426 355.141 98.8686 356.34C98.0882 356.941 97.3668 358.019 97.266 358.736C97.1653 359.452 96.6751 359.981 96.1754 359.911C95.6482 359.837 95.3544 360.554 95.4739 361.626C95.6227 362.954 95.4682 363.181 94.9227 362.441C94.3764 361.701 94.5573 360.737 95.5702 358.989C96.8335 356.809 96.8262 356.377 95.4981 354.704C93.9447 352.747 92.3992 352.102 92.2255 353.338C92.1689 353.741 92.8263 354.368 93.6863 354.733C94.6568 355.143 95.1522 356.092 94.9919 357.232C94.7101 359.238 94.4647 359.074 90.5903 354.28C88.9142 352.206 87.4482 351.962 87.2016 353.717C87.1344 354.194 87.658 354.448 88.3652 354.279C89.1485 354.093 89.5839 354.45 89.4797 355.191C89.3855 355.861 89.8569 356.486 90.5271 356.58C91.9171 356.776 91.9747 358.111 90.6197 358.721C90.121 358.945 88.6144 357.64 87.2721 355.82C85.0634 352.826 84.9799 352.453 86.3885 351.891C87.2451 351.55 87.741 350.992 87.4897 350.653C87.2392 350.313 85.9992 350.535 84.7338 351.146L82.4326 352.257L85.1749 356.094C87.2526 359 87.6677 360.162 86.8865 360.886C85.2942 362.366 83.5594 361.735 81.6987 359C80.3096 356.959 79.71 356.634 78.422 357.222C76.8357 357.945 75.9056 357.46 76.1089 356.014C76.1692 355.585 76.7589 355.538 77.4198 355.911C78.3426 356.431 78.5566 356.187 78.3401 354.863C78.1409 353.64 78.4295 353.189 79.3321 353.316C80.0324 353.414 80.5265 354.054 80.4303 354.739C80.3342 355.423 80.7616 356.054 81.3791 356.14C81.9973 356.227 82.5889 357.07 82.6942 358.012C82.9007 359.856 84.9825 361.472 86.0592 360.625C86.4215 360.34 85.193 358.235 83.329 355.948L79.9404 351.788L81.9181 350.265C83.0059 349.428 83.7345 348.523 83.5369 348.255C82.901 347.392 81.5439 348.448 77.8855 352.651C73.9651 357.156 72.487 358.206 72.7553 356.297C72.8515 355.612 73.3344 354.87 73.8287 354.648C74.8599 354.184 74.4114 352.624 73.1977 352.454C72.7508 352.391 72.5238 352.662 72.6928 353.057C72.8618 353.452 72.5757 354.268 72.0577 354.871C71.2537 355.805 71.0208 355.735 70.4806 354.397C69.6115 352.246 68.6177 352.273 65.9148 354.523C64.6445 355.58 63.4012 356.168 63.1521 355.83C62.9022 355.492 63.7916 354.498 65.1268 353.622C66.4627 352.746 67.6198 351.575 67.6978 351.019C67.7759 350.464 68.3882 350.086 69.0584 350.181C69.7286 350.275 70.1984 350.912 70.1022 351.596C69.8977 353.051 71.1511 353.429 72.144 352.211C72.5223 351.747 72.3786 350.936 71.8246 350.41C71.0455 349.67 71.0608 349.391 71.8921 349.176C72.4835 349.023 73.013 348.568 73.0697 348.165C73.1262 347.763 71.7979 348.019 70.1175 348.734C68.4372 349.449 66.7035 349.73 66.2652 349.359C65.8269 348.988 64.9087 349.038 64.225 349.469C63.3704 350.009 62.8555 349.959 62.5779 349.311C62.3559 348.792 62.5214 348.416 62.9471 348.476C63.3728 348.536 64.0473 347.986 64.446 347.254C65.1279 346.004 65.0678 345.995 63.4532 347.115C62.5086 347.77 60.804 348.175 59.665 348.015C56.8662 347.621 55.0535 349.308 56.5141 350.946C57.1088 351.613 57.4995 352.765 57.3806 353.505C57.1895 354.7 57.0668 354.671 56.29 353.249C55.3246 351.482 53.6322 350.891 53.4406 352.254C53.2978 353.271 48.6437 356.548 47.5131 356.428C47.0878 356.383 48.4918 355.011 50.6341 353.379C54.3212 350.569 55.4844 349.089 54.1122 348.949C53.7748 348.916 51.4833 350.324 49.0187 352.081C46.554 353.838 44.3444 355.012 44.1078 354.692C43.8712 354.371 44.6845 353.535 45.9153 352.836C47.4002 351.991 47.9187 351.248 47.4556 350.629C46.6264 349.521 44.7488 350.443 42.298 353.162C41.3784 354.182 40.6919 354.546 40.773 353.968C40.9252 352.885 41.2042 352.58 45.2555 349.06C47.5769 347.043 47.6661 347.034 47.8621 348.792C48.0956 350.88 49.0512 351.296 49.9262 349.691C50.2556 349.086 51.8921 348.335 53.5632 348.022C56.2826 347.512 58.1688 345.268 56.1199 344.98C55.6731 344.917 55.2571 345.225 55.1955 345.662C55.0312 346.832 49.3792 347.264 44.7275 346.463C41.9748 345.989 40.3216 346.122 39.5502 346.877C38.5564 347.853 38.3756 347.802 38.0704 346.46C37.8795 345.619 37.2288 344.862 36.6236 344.777C36.0183 344.692 34.9393 343.769 34.226 342.725C32.9118 340.806 30.6254 340.64 29.7262 342.399C29.4678 342.905 29.511 342.498 29.8217 341.495C30.2157 340.225 29.9849 339.615 29.0587 339.485C26.7328 339.158 20.6686 332.361 19.0066 328.218C17.7046 324.974 17.5201 322.809 18.0293 316.745L18.6579 309.272L13.6932 308.569C6.722 307.583 3.34684 305.868 0.912204 302.077C-1.65487 298.078 -1.36963 294.763 1.78461 291.937C4.02517 289.93 4.2588 289.912 12.6737 291.095L21.273 292.303L22.7408 281.854L24.2093 271.404L16.6828 270.432C10.0392 269.573 8.87851 269.19 6.78618 267.166C4.81936 265.263 4.49201 264.332 4.86227 261.698C5.22706 259.102 5.89756 258.127 8.54189 256.354C11.6438 254.271 12.0704 254.225 19.0587 255.207L26.3419 256.23L27.6822 246.694L29.0224 237.157L22.0764 236.181C11.8425 234.743 8.32315 231.549 10.3301 225.522C11.7926 221.128 15.3319 220.019 24.0112 221.235L31.1202 222.231L31.8778 216.84L32.6353 211.45L27.9705 210.747C19.4037 209.455 15.6362 206.152 19.4141 203.245C20.7992 202.179 21.9587 202.204 27.3005 203.425L33.5622 204.855L34.6722 196.957L35.7821 189.06L29.5964 188.191C24.7715 187.513 22.7827 186.833 20.5524 185.101C16.8576 182.23 15.7821 178.452 17.861 175.644C20.2489 172.417 24.5467 171.416 31.7001 172.421L37.9964 173.304L39.4233 163.146L40.8501 152.987L33.1916 151.911C26.6827 150.996 25.2262 150.525 23.4851 148.771C19.9414 145.202 21.2206 139.024 25.9463 136.889C28.2816 135.834 30.0432 135.803 35.6821 136.719L42.5667 137.838L44.4409 126.135L46.3158 114.433L41.6224 113.768C28.5201 111.914 22.7504 103.576 30.4616 97.6401L33.3135 95.4448L40.9021 97.0356L48.4918 98.6257L50.2368 86.2092L51.9818 73.7926L47.209 73.1218C39.964 72.1036 37.5805 70.9661 34.566 67.0855C32.2074 64.0496 31.9334 63.1993 32.6815 61.2368C33.1621 59.9742 34.565 58.1325 35.7985 57.1431C37.8338 55.5112 38.7324 55.4252 45.5333 56.2077C49.6545 56.682 53.5253 56.9512 54.1363 56.8062C54.9919 56.6018 55.3902 54.6696 55.8766 48.361C56.7461 37.0637 58.0637 34.2079 63.8798 31.0043ZM251.114 91.341L264.574 93.7884L248.333 207.86L232.091 321.932L153.667 311.104C110.534 305.149 72.9861 299.745 70.2272 299.098L65.2116 297.921L80.3156 192.926C88.622 135.178 96.0404 83.7376 96.799 78.6114L98.1791 69.2919L167.916 79.0927C206.271 84.4832 243.71 89.9952 251.114 91.341ZM78.4351 264.735C78.263 263.966 78.5589 263.14 79.0922 262.9C79.8944 262.539 212.788 280.989 222.47 282.806C224.914 283.264 225.452 283.694 225.264 285.033C225.033 286.679 224.489 286.615 151.89 276.412C85.5747 267.092 78.7184 266.002 78.4351 264.735ZM77.9442 279.586C77.3888 279.489 77.0386 278.662 77.1668 277.749C77.3982 276.103 77.9418 276.167 150.516 286.367C211.914 294.995 223.607 296.825 223.473 297.779C223.37 298.512 221.915 298.903 219.383 298.879C216.562 298.851 86.7893 281.151 77.9442 279.586ZM80.4585 291.335C76.2613 290.076 76.207 288.823 80.3548 288.961C82.0558 289.018 114.234 293.327 151.864 298.537C217.998 307.695 222.902 308.544 220.468 310.419C219.652 311.047 84.9744 292.691 80.4585 291.335ZM224.794 55.5355L270.224 62.3921L268.57 74.9839L266.916 87.5747L182.407 75.6657L97.8992 63.7559L99.6963 54.7064C100.685 49.7292 101.736 43.9455 102.031 41.8535L102.57 38.0511L140.967 43.3646C162.085 46.2869 199.808 51.7643 224.794 55.5355ZM57.3086 325.063C57.7024 322.443 67.1295 256.604 78.2582 178.751L98.4914 37.2014L86.9304 35.6628C74.186 33.9673 70.7832 34.0235 67.9182 35.976C64.5776 38.2531 63.1043 41.81 61.8725 50.5745C60.8092 58.1407 60.8438 58.9024 62.279 59.6013C64.6356 60.7477 68.7142 60.1514 69.9102 58.4853C71.7554 55.9134 75.2668 57.1654 78.0675 61.394C81.4032 66.4318 80.9583 69.91 76.499 73.657L73.2788 76.3629L66.4118 75.1602C62.6342 74.499 59.3218 74.2297 59.0514 74.5621C58.9634 74.6698 58.7853 75.3777 58.547 76.5253C58.3349 77.5462 58.0753 78.9151 57.789 80.5192C57.4048 82.6723 56.9728 85.2493 56.5438 87.9775L54.5296 100.788L58.5657 101.084C61.2027 101.278 63.2917 100.886 64.5889 99.9553C66.1082 98.8657 66.8996 98.7756 67.9564 99.5736C70.0767 101.175 73.6282 106.634 73.947 108.781C74.3609 111.577 71.306 115.783 67.9286 117.066C65.0425 118.161 63.976 118.004 55.8628 115.282L52.8745 114.281L52.5485 116.94L51.9839 121.545L51.3065 127.07L49.7385 139.86L52.2136 139.933C53.5748 139.974 56.2271 139.269 58.1084 138.369C61.0343 136.967 61.8253 136.909 63.5928 137.967C66.7379 139.851 69.3529 146.196 68.3569 149.529C67.3869 152.776 66.0824 154.094 62.5943 155.352C60.3577 156.158 59.3793 156.058 55.8822 154.662C53.6309 153.763 50.8026 153.138 49.5974 153.273L47.4048 153.518L47.1463 155.357L46.5458 159.63L45.892 164.282L44.3791 175.047L46.6254 175.363C47.8603 175.536 50.3406 175.124 52.1358 174.446C57.2792 172.504 59.6689 173.592 62.1823 179.015C63.6646 182.215 63.2527 185.057 60.8793 188.004C58.0084 191.567 54.4273 192.201 48.7592 190.148C46.2027 189.222 43.7222 188.64 43.2473 188.854C43.0541 188.941 42.7813 189.691 42.4784 190.887C42.179 192.069 41.8502 193.685 41.5395 195.526C41.39 196.412 41.2447 197.349 41.1089 198.315C39.8635 207.177 39.8762 207.393 41.6643 207.627C42.6715 207.758 45.1924 207.351 47.2666 206.723C49.3415 206.094 51.7094 205.674 52.5283 205.79C55.8478 206.256 56.9439 213.476 53.9793 215.348C52.5928 216.224 49.4733 215.431 41.0413 212.06C39.3211 211.373 39.2524 211.525 38.3313 218.079L37.3864 224.803L39.9097 225.157C41.4151 225.369 43.523 224.813 45.1372 223.778C48.7846 221.44 50.2314 221.821 53.7517 226.046C56.2229 229.011 56.6823 230.187 56.39 232.786C56.1079 235.288 55.4207 236.405 53.0411 238.234L52.8958 238.346C52.0647 238.985 51.4656 239.446 50.795 239.729C49.0628 240.457 46.8538 239.994 38.9386 238.333L38.4003 238.22L35.9861 237.713L35.5854 240.179L34.9296 244.213L34.2727 248.254L32.5593 258.795L35.1801 259.164C36.7017 259.378 39.255 258.783 41.2646 257.747L44.7283 255.96L47.3146 257.895C50.3604 260.173 52.4955 264.664 52.0477 267.85C51.8391 269.334 50.6062 270.98 48.4706 272.624C45.5416 274.878 44.9101 275.033 42.2496 274.152C40.6204 273.613 37.3957 272.702 35.0844 272.129L30.8814 271.088L30.4694 274.019L29.8458 278.457L29.2973 282.359C28.426 288.559 27.7656 293.924 27.8288 294.282C28.0394 295.466 34.9924 295.662 36.6253 294.53C39.1439 292.784 41.7171 293.662 44.2855 297.144C46.1629 299.69 46.558 301.016 46.1995 303.567C45.2711 310.173 41.5237 312.009 32.1866 310.432L25.5103 309.305L25.2821 310.94L24.7811 314.529C24.7492 314.758 24.719 314.982 24.6904 315.203C23.8173 321.958 24.4999 325.491 27.4802 330.08L30.1152 334.137L128.912 348.233C217.881 360.927 227.775 362.207 228.378 361.101C228.746 360.426 228.769 358.907 228.43 357.726L227.812 355.579L193.888 350.728C175.23 348.06 157.989 345.341 155.575 344.686C149.512 343.042 209.365 350.268 219.727 352.432L227.977 354.154L229.739 341.612C231.472 329.285 231.471 329.057 229.735 328.382C228.763 328.004 192.709 322.59 149.616 316.352C106.523 310.113 69.7391 304.522 67.8743 303.927L64.4838 302.846L62.8599 316.027L61.236 329.209L64.79 329.975C71.4454 331.41 72.1687 330.997 72.9701 325.295C73.382 322.364 73.9642 320.532 74.3728 320.878C74.7579 321.204 74.6933 323.455 74.2297 325.881L73.3869 330.293L77.4379 331.378C79.6663 331.975 92.5266 334.018 106.016 335.917C119.864 337.868 130.695 339.728 130.893 340.191C131.414 341.406 121.037 340.541 87.9491 336.608C65.471 333.936 57.9438 332.792 57.1268 331.921C56.5324 331.287 55.3405 330.483 54.4781 330.135C53.0591 329.563 53.0852 329.519 54.7515 329.664C56.4309 329.81 56.656 329.406 57.3086 325.063ZM139.544 320.787C134.407 322.66 131.928 327.975 133.613 333.507C136.234 342.118 145.217 343.354 150.201 335.787C154.829 328.76 151.342 321.112 142.995 319.986C142.492 319.919 140.939 320.279 139.544 320.787ZM287.892 66.7686C289.677 68.2094 291.915 70.8028 292.865 72.5329C293.031 72.8346 293.19 73.1096 293.343 73.372L293.344 73.3745C293.538 73.7072 293.719 74.0195 293.886 74.3399C296.444 79.2612 295.481 86.1013 279.731 197.994C279.699 198.222 279.667 198.45 279.635 198.679C278.852 204.238 278.033 210.056 277.177 216.144C266.843 289.598 258.042 349.842 257.398 351.535C255.387 356.827 249.428 362.124 244.92 362.628L242.865 362.857L262.924 219.124C276.779 119.848 283.152 76.0692 283.529 77.5826C283.894 79.0478 277.691 125.712 264.795 218.51C254.192 294.815 245.729 357.535 245.989 357.888C246.249 358.241 247.391 357.814 248.527 356.94L250.591 355.351L258.794 298.39C263.306 267.061 271.835 205.005 277.747 160.489C278.393 155.622 279.002 151.043 279.575 146.732L279.575 146.728C287.951 83.742 288.695 78.1456 286.509 74.2881C286.296 73.912 286.055 73.5523 285.791 73.1577C285.605 72.8805 285.407 72.5861 285.2 72.2565C283.533 69.608 280.053 66.5988 279.314 67.1673C277.845 68.2977 269.856 120.848 254.44 230.784C245.326 295.78 237.751 351.987 237.608 355.687C237.319 363.149 237.147 363.656 235.012 363.356C233.628 363.162 233.688 361.725 235.91 342.13C239.11 313.919 274.464 67.2323 275.724 64.3313C276.687 62.1141 276.843 62.075 280.681 63.0956C282.861 63.676 286.106 65.3286 287.892 66.7686ZM143.54 333.55C145.272 332.898 145.763 332.176 145.853 330.154C145.943 328.096 145.567 327.498 143.957 327.141C140.908 326.464 139.827 327.057 139.469 329.6C139 332.943 140.72 334.613 143.54 333.55Z" fill="#222222"/>
<path d="M287.892 66.7686C289.677 68.2094 291.915 70.8028 292.865 72.5329C293.031 72.8346 293.19 73.1096 293.343 73.372L293.344 73.3745C293.538 73.7072 293.719 74.0195 293.886 74.3399C296.444 79.2612 295.481 86.1013 279.731 197.994L279.635 198.679C278.852 204.238 278.033 210.056 277.177 216.144C266.843 289.598 258.042 349.842 257.398 351.535C255.387 356.827 249.428 362.124 244.92 362.628L242.865 362.857L262.924 219.124C276.779 119.848 283.152 76.0692 283.529 77.5826C283.894 79.0478 277.691 125.712 264.795 218.51C254.192 294.815 245.729 357.535 245.989 357.888C246.249 358.241 247.391 357.814 248.527 356.94L250.591 355.351L258.794 298.39C263.306 267.061 271.835 205.005 277.747 160.489C278.393 155.622 279.002 151.043 279.575 146.732L279.575 146.728C287.951 83.742 288.695 78.1456 286.509 74.2881C286.296 73.912 286.055 73.5523 285.791 73.1577C285.605 72.8805 285.407 72.5861 285.2 72.2565C283.533 69.608 280.053 66.5988 279.314 67.1673C277.845 68.2977 269.856 120.848 254.44 230.784C245.326 295.78 237.751 351.987 237.608 355.687C237.319 363.149 237.147 363.656 235.012 363.356C233.628 363.162 233.688 361.725 235.91 342.13C239.11 313.919 274.464 67.2323 275.724 64.3313C276.687 62.1141 276.843 62.075 280.681 63.0956C282.861 63.676 286.106 65.3286 287.892 66.7686Z" fill="#FFF9EE"/>
<path fill-rule="evenodd" clip-rule="evenodd" d="M251.114 91.341L264.574 93.7884L248.333 207.86L232.091 321.932L153.667 311.104C110.534 305.149 72.9861 299.745 70.2272 299.098L65.2116 297.921L80.3156 192.926C88.622 135.178 96.0404 83.7376 96.799 78.6114L98.1791 69.2919L167.916 79.0927C206.271 84.4832 243.71 89.9952 251.114 91.341ZM78.4351 264.735C78.263 263.966 78.5589 263.14 79.0922 262.9C79.8944 262.539 212.788 280.989 222.47 282.806C224.914 283.264 225.452 283.694 225.264 285.033C225.033 286.679 224.489 286.615 151.89 276.412C85.5747 267.092 78.7184 266.002 78.4351 264.735ZM77.9442 279.586C77.3888 279.489 77.0386 278.662 77.1668 277.749C77.3982 276.103 77.9418 276.167 150.516 286.367C211.914 294.995 223.607 296.825 223.473 297.779C223.37 298.512 221.915 298.903 219.383 298.879C216.562 298.851 86.7893 281.151 77.9442 279.586ZM80.4585 291.335C76.2613 290.076 76.207 288.823 80.3548 288.961C82.0558 289.018 114.234 293.327 151.864 298.537C217.998 307.695 222.902 308.544 220.468 310.419C219.652 311.047 84.9744 292.691 80.4585 291.335Z" fill="#FFF9EE"/>
<path fill-rule="evenodd" clip-rule="evenodd" d="M58.547 76.5253C58.3349 77.5462 58.0753 78.9151 57.789 80.5192C58.0162 80.538 58.2449 80.5566 58.4752 80.5749C67.9684 81.3289 68.7335 81.2673 68.9495 79.7299C69.1661 78.189 68.6488 77.9985 58.547 76.5253ZM52.5485 116.94L51.9839 121.545C56.3061 122.273 59.8621 122.741 60.7605 122.584C61.908 122.382 62.6544 121.575 62.8267 120.349L63.0965 118.429L52.5485 116.94ZM47.1463 155.357L46.5458 159.63C52.5759 160.272 57.0592 160.556 57.3215 160.269C57.6599 159.901 57.8547 158.869 57.7548 157.976C57.6265 156.831 56.9347 156.319 55.4076 156.238C54.6366 156.197 51.382 155.847 47.1463 155.357ZM42.4784 190.887C42.179 192.069 41.8502 193.685 41.5395 195.526C52.6456 197.022 53.0683 196.626 52.7271 193.514C52.5857 192.227 51.669 191.912 46.3352 191.318C45.3239 191.205 43.9908 191.056 42.4784 190.887ZM35.5854 240.179L34.9296 244.213C36.2874 244.328 37.5772 244.407 38.7487 244.444C43.8076 244.601 45.0155 244.365 45.4298 243.138C46.1622 240.968 45.0988 240.129 42.2005 240.586C41.4028 240.712 38.8744 240.543 35.5854 240.179ZM30.4694 274.019C35.6736 274.681 39.4915 275.186 39.8125 275.261C40.2536 275.365 40.5897 276.463 40.5597 277.702L40.5057 279.955L29.8458 278.457L30.4694 274.019ZM25.2821 310.94L24.7811 314.529C24.7492 314.758 24.719 314.982 24.6904 315.203C27.1039 315.552 29.4054 315.845 31.3887 316.042C34.9012 316.391 35.2963 316.237 35.5502 314.431L35.8307 312.435L25.2821 310.94Z" fill="#FFF9EE"/>
<path fill-rule="evenodd" clip-rule="evenodd" d="M57.3086 325.063C57.7024 322.443 67.1295 256.604 78.2582 178.751L98.4914 37.2014L86.9304 35.6628C74.186 33.9673 70.7832 34.0235 67.9182 35.976C64.5776 38.2531 63.1043 41.81 61.8725 50.5745C60.8092 58.1407 60.8438 58.9024 62.279 59.6013C64.6356 60.7477 68.7142 60.1514 69.9102 58.4853C71.7554 55.9134 75.2668 57.1654 78.0675 61.394C81.4032 66.4318 80.9583 69.91 76.499 73.657L73.2788 76.3629L66.4118 75.1602C62.6342 74.499 59.3218 74.2297 59.0514 74.5621C58.9634 74.6698 58.7853 75.3777 58.547 76.5253C68.6488 77.9985 69.1661 78.189 68.9495 79.7299C68.7335 81.2673 67.9684 81.3289 58.4752 80.5749C58.2449 80.5566 58.0162 80.538 57.789 80.5192C57.4048 82.6723 56.9728 85.2493 56.5438 87.9775L54.5296 100.788L58.5657 101.084C61.2027 101.278 63.2917 100.886 64.5889 99.9553C66.1082 98.8657 66.8996 98.7756 67.9564 99.5736C70.0767 101.175 73.6282 106.634 73.947 108.781C74.3609 111.577 71.306 115.783 67.9286 117.066C65.0425 118.161 63.976 118.004 55.8628 115.282L52.8745 114.281L52.5485 116.94L63.0965 118.429L62.8267 120.349C62.6544 121.575 61.908 122.382 60.7605 122.584C59.8621 122.741 56.3061 122.273 51.9839 121.545L51.3065 127.07L49.7385 139.86L52.2136 139.933C53.5748 139.974 56.2271 139.269 58.1084 138.369C61.0343 136.967 61.8253 136.909 63.5928 137.967C66.7379 139.851 69.3529 146.196 68.3569 149.529C67.3869 152.776 66.0824 154.094 62.5943 155.352C60.3577 156.158 59.3793 156.058 55.8822 154.662C53.6309 153.763 50.8026 153.138 49.5974 153.273L47.4048 153.518L47.1463 155.357C51.382 155.847 54.6366 156.197 55.4076 156.238C56.9347 156.319 57.6265 156.831 57.7548 157.976C57.8547 158.869 57.6599 159.901 57.3215 160.269C57.0592 160.556 52.5759 160.272 46.5458 159.63L45.892 164.282L44.3791 175.047L46.6254 175.363C47.8603 175.536 50.3406 175.124 52.1358 174.446C57.2792 172.504 59.6689 173.592 62.1823 179.015C63.6646 182.215 63.2527 185.057 60.8793 188.004C58.0084 191.567 54.4273 192.201 48.7592 190.148C46.2027 189.222 43.7222 188.64 43.2473 188.854C43.0541 188.941 42.7813 189.691 42.4784 190.887C43.9908 191.056 45.3239 191.205 46.3352 191.318C51.669 191.912 52.5857 192.227 52.7271 193.514C53.0683 196.626 52.6456 197.022 41.5395 195.526C41.39 196.412 41.2447 197.349 41.1089 198.315C39.8635 207.177 39.8762 207.393 41.6643 207.627C42.6715 207.758 45.1924 207.351 47.2666 206.723C49.3415 206.094 51.7094 205.674 52.5283 205.79C55.8478 206.256 56.9439 213.476 53.9793 215.348C52.5928 216.224 49.4733 215.431 41.0413 212.06C39.3211 211.373 39.2524 211.525 38.3313 218.079L37.3864 224.803L39.9097 225.157C41.4151 225.369 43.523 224.813 45.1372 223.778C48.7846 221.44 50.2314 221.821 53.7517 226.046C56.2229 229.011 56.6823 230.187 56.39 232.786C56.1079 235.288 55.4207 236.405 53.0411 238.234L52.8958 238.346C52.0647 238.985 51.4656 239.446 50.795 239.729C49.0628 240.457 46.8538 239.994 38.9386 238.333L38.4003 238.22L35.9861 237.713L35.5854 240.179C38.8744 240.543 41.4028 240.712 42.2005 240.586C45.0988 240.129 46.1622 240.968 45.4298 243.138C45.0155 244.365 43.8076 244.601 38.7487 244.444C37.5772 244.407 36.2874 244.328 34.9296 244.213L34.2727 248.254L32.5593 258.795L35.1801 259.164C36.7017 259.378 39.255 258.783 41.2646 257.747L44.7283 255.96L47.3146 257.895C50.3604 260.173 52.4955 264.664 52.0477 267.85C51.8391 269.334 50.6062 270.98 48.4706 272.624C45.5416 274.878 44.9101 275.033 42.2496 274.152C40.6204 273.613 37.3957 272.702 35.0844 272.129L30.8814 271.088L30.4694 274.019C35.6736 274.681 39.4915 275.186 39.8125 275.261C40.2536 275.365 40.5897 276.463 40.5597 277.702L40.5057 279.955L29.8458 278.457L29.2973 282.359C28.426 288.559 27.7656 293.924 27.8288 294.282C28.0394 295.466 34.9924 295.662 36.6253 294.53C39.1439 292.784 41.7171 293.662 44.2855 297.144C46.1629 299.69 46.558 301.016 46.1995 303.567C45.2711 310.173 41.5237 312.009 32.1866 310.432L25.5103 309.305L25.2821 310.94L35.8307 312.435L35.5502 314.431C35.2963 316.237 34.9012 316.391 31.3887 316.042C29.4054 315.845 27.1039 315.552 24.6904 315.203C23.8173 321.958 24.4999 325.491 27.4802 330.08L30.1152 334.137L128.912 348.233C217.881 360.927 227.775 362.207 228.378 361.101C228.746 360.426 228.769 358.907 228.43 357.726L227.812 355.579L193.888 350.728C175.23 348.06 157.989 345.341 155.575 344.686C149.512 343.042 209.365 350.268 219.727 352.432L227.977 354.154L229.739 341.612C231.472 329.285 231.471 329.057 229.735 328.382C228.763 328.004 192.709 322.59 149.616 316.352C106.523 310.113 69.7391 304.522 67.8743 303.927L64.4838 302.846L62.8599 316.027L61.236 329.209L64.79 329.975C71.4454 331.41 72.1687 330.997 72.9701 325.295C73.382 322.364 73.9642 320.532 74.3728 320.878C74.7579 321.204 74.6933 323.455 74.2297 325.881L73.3869 330.293L77.4379 331.378C79.6663 331.975 92.5266 334.018 106.016 335.917C119.864 337.868 130.695 339.728 130.893 340.191C131.414 341.406 121.037 340.541 87.9491 336.608C65.471 333.936 57.9438 332.792 57.1268 331.921C56.5324 331.287 55.3405 330.483 54.4781 330.135C53.0591 329.563 53.0852 329.519 54.7515 329.664C56.4309 329.81 56.656 329.406 57.3086 325.063ZM133.613 333.507C131.928 327.975 134.407 322.66 139.544 320.787C140.939 320.279 142.492 319.919 142.995 319.986C151.342 321.112 154.829 328.76 150.201 335.787C145.217 343.354 136.234 342.118 133.613 333.507Z" fill="#F2B667"/>
<path d="M224.794 55.5355L270.224 62.3921L268.57 74.9839L266.916 87.5747L182.407 75.6657L97.8992 63.7559L99.6963 54.7064C100.685 49.7292 101.736 43.9455 102.031 41.8535L102.57 38.0511L140.967 43.3646C162.085 46.2869 199.808 51.7643 224.794 55.5355Z" fill="#F2B667"/>
<path d="M183.141 99.4403C183.211 98.9107 184.745 98.7112 187.268 98.9034C189.477 99.0722 191.914 99.2388 192.686 99.2742C193.738 99.3226 194.297 100.168 194.92 102.654C195.377 104.477 197.047 108.494 198.629 111.58C200.212 114.666 202.179 118.869 203.001 120.92C204.413 124.447 204.558 124.583 205.679 123.443C206.331 122.779 207.879 120.77 209.119 118.976C210.358 117.183 213.496 113.036 216.091 109.76L220.81 103.804L226.608 104.619C230.445 105.158 232.369 105.701 232.295 106.224C232.106 107.568 227.064 114.501 219.405 123.946C208.582 137.293 209.617 135.007 208.239 148.623L207.039 160.475L204.616 160.592C203.284 160.656 200.564 160.206 198.573 159.592L194.953 158.475L196.234 146.855C197.337 136.837 197.366 134.897 196.445 132.795C195.857 131.455 193.138 125.395 190.403 119.33C185.653 108.798 182.9 101.258 183.141 99.4403Z" fill="#222222"/>
<path d="M158.835 126.756C160.996 111.416 163.052 98.1826 163.403 97.3461C163.997 95.9362 164.429 95.8804 169.394 96.5781L174.745 97.3302L171.317 125.307C168.916 144.898 167.579 153.853 166.855 155.184C165.869 156.995 165.672 157.043 162.689 156.192C160.966 155.702 158.511 155.153 157.231 154.973L154.905 154.646L158.835 126.756Z" fill="#222222"/>
<path fill-rule="evenodd" clip-rule="evenodd" d="M109.043 87.8946L107.087 87.9189L103.589 115.821C101.665 131.167 100.167 144.186 100.26 144.751C100.4 145.605 102.355 145.969 111.808 146.899C118.433 147.551 124.659 147.787 126.709 147.464C133.887 146.33 141.85 140.126 146.547 132.006C148.555 128.534 149.206 126.543 149.921 121.68C150.725 116.208 150.653 115.18 149.138 110.479C147.166 104.361 142.201 97.3244 137.838 94.463C136.181 93.3758 132.897 91.8846 130.54 91.1483C126.417 89.8613 113.092 87.844 109.043 87.8946ZM137.197 124.769C140.885 114.351 136.053 104.728 125.896 102.262C123.655 101.718 120.983 101.018 119.959 100.705C118.935 100.393 118.048 100.203 117.986 100.283C117.924 100.363 116.672 108.273 115.203 117.861L112.532 135.294L117.227 135.499C124.865 135.833 127.294 135.216 131.741 131.814C135.174 129.188 136.019 128.098 137.197 124.769Z" fill="#222222"/>
<path d="M99.2354 179.213L100.398 170.943L101.56 162.673L106.984 163.435C112.635 164.229 112.885 164.382 111.797 166.37C111.488 166.935 110.679 167.021 108.521 166.718C104.65 166.174 104.056 166.377 103.78 168.345L103.549 169.985L106.467 170.616C109.794 171.336 110.083 171.563 109.431 172.941C109.024 173.801 108.563 173.879 106.004 173.52L103.047 173.104L102.973 174.755L102.898 176.405L106.452 177.055L110.007 177.705L109.753 179.511L109.499 181.316L105.772 180.462C103.722 179.992 101.413 179.519 100.64 179.41L99.2354 179.213Z" fill="#222222"/>
<path d="M137.4 184.619C137.305 184.489 137.744 180.698 138.377 176.195L139.528 168.009L144.705 168.737L149.883 169.464L149.636 171.218L149.389 172.973L145.691 172.453L141.993 171.933L141.711 173.938L141.43 175.943L144.881 176.428C148.207 176.895 148.327 176.958 148.162 178.13C148.006 179.24 147.737 179.34 145.11 179.272C141.183 179.169 140.868 179.266 140.867 180.59C140.866 181.647 141.157 181.795 144.42 182.391L147.974 183.041L147.771 184.489L147.567 185.937L142.571 185.397C139.823 185.1 137.496 184.75 137.4 184.619Z" fill="#222222"/>
<path d="M180.541 191.032L181.73 182.569L182.919 174.107L188.128 174.839L193.337 175.571L192.953 177.179L192.57 178.786L188.994 178.283L185.42 177.781L185.12 179.911L184.821 182.041L188.026 182.492C191.075 182.92 191.223 183.001 191.064 184.136C190.877 185.464 189.773 185.785 186.795 185.378C185.615 185.217 184.856 185.391 184.587 185.883C183.589 187.706 183.898 187.996 187.536 188.661L191.091 189.311L191.016 190.959L190.942 192.608L185.741 191.82L180.541 191.032Z" fill="#222222"/>
<path d="M112.726 176.254C112.478 176.045 112.388 175.069 112.527 174.085L112.778 172.296L116.691 173.082C118.843 173.515 120.721 174.028 120.865 174.222C121.009 174.416 120.915 175.101 120.658 175.744C120.235 176.797 119.84 176.899 116.682 176.774C114.754 176.697 112.973 176.463 112.726 176.254Z" fill="#222222"/>
<path d="M115.956 200.729L116.285 195.792L116.613 190.855L118.134 191.069L119.656 191.283L118.413 198.136C117.73 201.905 116.994 205.49 116.78 206.103C116.432 207.097 116.298 207.129 115.535 206.407C115.065 205.962 113.677 203.686 112.451 201.349C111.224 199.012 109.998 197.2 109.725 197.323C109.452 197.444 108.978 199.335 108.67 201.524C108.164 205.13 108.021 205.492 107.154 205.37C106.627 205.296 106.077 204.956 105.93 204.615C105.782 204.274 106.055 200.862 106.535 197.033C107.3 190.928 107.504 190.087 108.198 190.191C109.301 190.357 109.972 191.017 111.008 192.955C111.5 193.875 112.815 196.001 113.929 197.678L115.956 200.729Z" fill="#222222"/>
<path d="M135.275 194.692C135.323 194.349 135.986 194.061 136.748 194.051C139.041 194.021 144.187 194.709 144.974 195.151C145.714 195.566 145.725 197.263 144.995 198.597C144.709 199.119 144.16 199.173 142.955 198.796L141.307 198.281L140.453 204.361C139.66 210.004 139.531 210.431 138.659 210.309C137.814 210.19 137.765 209.635 138.163 204.745C138.641 198.865 138.495 197.854 137.103 197.397C136.094 197.066 135.14 195.653 135.275 194.692Z" fill="#222222"/>
<path d="M203.605 209.214C203.835 209.247 205.682 208.126 207.71 206.725C211.311 204.236 212.953 203.694 212.762 205.058C212.645 205.886 209.817 208.878 207.836 210.269L206.381 211.291L208.877 214.906C211.697 218.991 211.928 220.606 209.646 220.285C208.473 220.121 207.864 219.496 206.465 217.027C205.513 215.347 204.467 213.935 204.141 213.89C203.807 213.843 203.266 214.825 202.901 216.143C201.835 219.986 201.383 220.411 200.144 218.739C199.512 217.886 200.383 205.438 201.176 203.989C201.406 203.568 202.018 203.381 202.604 203.552C203.477 203.807 203.597 204.243 203.408 206.503C203.287 207.962 203.376 209.182 203.605 209.214Z" fill="#222222"/>
<path d="M146.444 203.948C146.967 199.64 147.477 196.052 147.578 195.976C148.012 195.646 156.681 197.484 157.052 197.985C157.277 198.289 157.247 198.99 156.985 199.544C156.561 200.439 156.13 200.498 153.09 200.07C149.515 199.568 149.367 199.651 149.647 202.014C149.771 203.059 150.096 203.227 152.687 203.592C155.432 203.977 155.579 204.065 155.417 205.219C155.234 206.52 154.833 206.667 151.279 206.728C149.427 206.761 149.108 206.927 149.108 207.866C149.108 208.85 149.457 209.031 152.415 209.582C155.719 210.197 155.723 210.199 155.515 211.679L155.307 213.16L150.4 212.47L145.493 211.78L146.444 203.948Z" fill="#222222"/>
<path fill-rule="evenodd" clip-rule="evenodd" d="M124.746 193.069C123.036 194.081 121.131 196.682 120.349 199.071C118.962 203.306 123.449 209.012 127.564 208.247C129.712 207.847 132.578 205.348 133.692 202.904C134.752 200.581 134.323 198.31 132.243 195.224C130.801 193.085 130.386 192.791 128.416 192.514C126.92 192.304 125.735 192.483 124.746 193.069ZM130.785 201.592C131.037 199.8 130.545 197.326 129.808 196.689C128.591 195.635 126.152 195.765 124.938 196.95C122.316 199.504 123.317 204.575 126.531 205.027C128.278 205.272 130.523 203.46 130.785 201.592Z" fill="#222222"/>
<path fill-rule="evenodd" clip-rule="evenodd" d="M176.436 200.269C175.028 200.629 172.349 203.081 171.173 205.085C170.367 206.459 170.305 206.984 170.693 209.161C171.592 214.208 175.879 216.947 180.022 215.12C183.74 213.482 185.361 208.21 183.38 204.199C182.798 203.021 181.916 201.673 181.419 201.202C180.429 200.264 178.134 199.834 176.436 200.269ZM179.538 211.68C181.407 210.71 181.65 206.309 179.921 204.743C178.842 203.766 176.732 203.932 175.315 205.105C173.478 206.626 173.286 208.043 174.621 210.213C175.816 212.154 177.602 212.687 179.538 211.68Z" fill="#222222"/>
<path fill-rule="evenodd" clip-rule="evenodd" d="M188.497 203.685L185.339 206.105L185.124 209.227C184.922 212.166 185.025 212.496 186.88 214.856C189.679 218.419 191.432 218.609 195.159 215.752C198.564 213.143 199.349 211.238 198.395 207.895C197.524 204.842 195.611 202.502 193.425 201.818C191.769 201.301 191.451 201.421 188.497 203.685ZM194.919 212.365C196.159 210.929 196.037 209.269 194.544 207.254C193.143 205.363 191.456 205.09 189.663 206.465C187.272 208.297 187.375 211.885 189.861 213.369C191.532 214.366 193.534 213.969 194.919 212.365Z" fill="#222222"/>
<path fill-rule="evenodd" clip-rule="evenodd" d="M166.436 180.48L165.239 189L168.46 189.453C170.231 189.702 172.441 189.702 173.37 189.452C175.383 188.912 178.554 186.261 179.245 184.539C180.104 182.401 179.83 179.263 178.6 177.145C176.898 174.216 174.899 172.982 170.962 172.428L167.634 171.959L166.436 180.48ZM175.929 183.025C176.742 180.591 176.379 178.898 174.754 177.546C173.956 176.881 172.472 176.22 171.455 176.076L169.606 175.814L169.067 179.699C168.77 181.836 168.593 184.138 168.673 184.814C168.807 185.944 169.004 186.044 171.096 186.047C173.849 186.05 175.202 185.204 175.929 183.025Z" fill="#222222"/>
<path fill-rule="evenodd" clip-rule="evenodd" d="M195.148 183.161C194.501 187.469 193.91 191.273 193.834 191.613C193.756 191.964 194.383 192.399 195.277 192.615L196.858 192.998L197.21 190.489C197.404 189.11 197.815 187.868 198.123 187.73C199.002 187.336 200.711 189.15 202.062 191.91C203.147 194.124 203.463 194.415 204.648 194.284C205.391 194.201 206.105 194.052 206.235 193.953C206.365 193.853 205.909 192.677 205.22 191.34C204.532 190.003 203.998 188.707 204.032 188.459C204.067 188.211 204.853 187.453 205.778 186.775C207.789 185.3 208.217 183.387 207.109 180.815C205.934 178.085 204.534 177.146 200.219 176.19L196.324 175.329L195.148 183.161ZM200.36 184.634C203.366 185.287 205.544 183.073 203.805 181.131C203.446 180.731 202.157 180.145 200.941 179.829L198.728 179.256L198.537 181.727L198.346 184.198L200.36 184.634Z" fill="#222222"/>
<path fill-rule="evenodd" clip-rule="evenodd" d="M157.264 213.54L158.408 205.403L159.552 197.266L163.219 198.028C167.236 198.862 168.394 199.753 169.138 202.578C169.492 203.924 169.405 204.36 168.569 205.423C167.633 206.614 167.63 206.749 168.501 208.005C169.745 209.798 169.439 211.228 167.446 212.941C165.844 214.318 165.607 214.359 161.521 213.958L157.264 213.54ZM164.956 208.32C165.286 208.605 165.405 209.366 165.221 210.011C164.946 210.975 164.554 211.165 163.016 211.079C161.249 210.981 161.156 210.894 161.348 209.525C161.461 208.727 161.721 207.945 161.928 207.787C162.452 207.385 164.236 207.699 164.956 208.32ZM163.581 204.611C165.478 204.878 165.588 204.817 165.623 203.493C165.657 202.277 165.421 202.038 163.834 201.678C162.088 201.28 161.997 201.33 161.791 202.796C161.586 204.255 161.673 204.343 163.581 204.611Z" fill="#222222"/>
<path fill-rule="evenodd" clip-rule="evenodd" d="M123.616 173.891L122.427 182.353L123.614 182.762C125.188 183.303 125.334 183.133 125.733 180.296C126.048 178.055 126.164 177.886 127.29 178.045C128.19 178.171 128.945 179.019 130.188 181.299C131.52 183.742 132.092 184.355 132.933 184.248C133.518 184.173 134.163 184.132 134.367 184.157C135.169 184.255 134.822 183.004 133.374 180.583L131.859 178.048L133.914 176.739C136.608 175.026 136.925 173.172 135.095 169.854C133.633 167.205 132.693 166.693 127.879 165.921L124.805 165.429L123.616 173.891ZM131.603 174.544C132.824 174.086 133.226 172.109 132.307 171.083C131.948 170.683 130.673 170.1 129.472 169.789L127.289 169.223L126.928 171.794L126.567 174.365L128.571 174.647C129.674 174.802 131.038 174.755 131.603 174.544Z" fill="#222222"/>
<path fill-rule="evenodd" clip-rule="evenodd" d="M88.0853 193.859C87.5649 192.06 88.6922 189.988 90.9911 188.522C93.09 187.183 94.796 187.445 96.0656 189.302C97.7184 191.72 97.6236 192.638 95.4877 194.91C93.6368 196.877 93.5922 196.994 94.3879 197.779C95.1253 198.508 95.3063 198.472 96.0217 197.46C96.9303 196.176 98.7837 195.657 99.416 196.511C99.6941 196.886 99.3744 197.83 98.4702 199.305C96.8302 201.979 96.4826 203.598 97.6055 203.332C98.1267 203.209 98.3422 203.457 98.2546 204.08C98.0743 205.363 96.7391 205.572 95.9069 204.449C95.3321 203.673 94.9482 203.581 93.5476 203.884C89.8965 204.672 86.7546 203.217 85.6861 200.244C85.2274 198.967 86.483 196.058 87.7009 195.575C88.3521 195.317 88.4198 195.014 88.0853 193.859ZM93.9755 191.594C93.8295 192.633 92.1973 194.068 91.3048 193.943C90.396 193.815 90.7155 192.068 91.7986 191.237C92.96 190.348 94.1239 190.538 93.9755 191.594ZM90.9586 200.538C92.602 200.769 92.6961 200.697 92.9309 199.027C93.197 197.134 93.1406 197.091 91 197.56C89.981 197.784 89.5246 198.219 89.403 199.084C89.2554 200.135 89.4625 200.328 90.9586 200.538Z" fill="#222222"/>
<path fill-rule="evenodd" clip-rule="evenodd" d="M154.166 176.551C152.318 179.863 150.431 183.372 149.974 184.349C149.168 186.069 149.183 186.139 150.414 186.563C152.025 187.118 152.458 186.915 152.655 185.515C152.898 183.783 153.937 183.323 156.719 183.714C159.449 184.098 160.034 184.622 160.268 186.899C160.378 187.961 160.718 188.365 161.61 188.49C162.266 188.582 162.96 188.373 163.151 188.024C163.462 187.455 161.015 175.761 159.882 172.403C159.633 171.665 159.001 170.942 158.478 170.795C157.678 170.571 156.992 171.487 154.166 176.551ZM155.639 180.531C156.008 181.387 158.746 181.535 158.862 180.705C158.919 180.298 158.656 179.232 158.278 178.335L157.589 176.704L156.505 178.364C155.909 179.277 155.52 180.252 155.639 180.531Z" fill="#222222"/>
</g>
<rect x="3.5" y="3.5" width="247" height="247" rx="95.5" stroke="black" stroke-width="7"/>
<defs>
<clipPath id="clip0_3738_11277">
<rect x="7" y="7" width="240" height="240" rx="92" fill="white"/>
</clipPath>
</defs>
</svg>
